<?xml version="1.0" encoding="UTF-8" standalone="no" ?>
<!DOCTYPE svg PUBLIC "-//W3C//DTD SVG 1.1//EN" "http://www.w3.org/Graphics/SVG/1.1/DTD/svg11.dtd">
<svg xmlns="http://www.w3.org/2000/svg" xmlns:xlink="http://www.w3.org/1999/xlink" version="1.1" width="500" height="500" viewBox="0 0 500 500" xml:space="preserve">
<desc>Created with Fabric.js 4.6.0</desc>
<defs>
</defs>
<g transform="matrix(3.45 0 0 3.45 250 250)" id="15C83kVQw6eNuH2Wll7w4"  >
<filter id="SVGID_82" y="-29%" height="158%" x="-28%" width="156%" >
	<feGaussianBlur in="SourceAlpha" stdDeviation="5"></feGaussianBlur>
	<feOffset dx="0" dy="0" result="oBlur" ></feOffset>
	<feFlood flood-color="rgb(0,0,0)" flood-opacity="1"/>
	<feComposite in2="oBlur" operator="in" />
	<feMerge>
		<feMergeNode></feMergeNode>
		<feMergeNode in="SourceGraphic"></feMergeNode>
	</feMerge>
</filter>
<path style="stroke: none; stroke-width: 1; stroke-dasharray: none; stroke-linecap: butt; stroke-dashoffset: 0; stroke-linejoin: miter; stroke-miterlimit: 4; fill: rgb(255,255,255); fill-rule: nonzero; opacity: 1;filter: url(#SVGID_82);" vector-effect="non-scaling-stroke"  transform=" translate(-61.44, -53.15)" d="M 58.15 52.98 L 86.75 34.76 C 86.95 34.61 87.23 34.64 87.4 34.82 L 90.16000000000001 37.76 C 90.33000000000001 37.94 90.34000000000002 38.23 90.18 38.419999999999995 L 68.51 63.6 C 65.43 66.91 62.14000000000001 67.56 59.49000000000001 66.7 C 58.17000000000001 66.27 57.02000000000001 65.48 56.14000000000001 64.45 C 55.260000000000005 63.43 54.650000000000006 62.18 54.400000000000006 60.84 C 53.910000000000004 58.17 54.89000000000001 55.18000000000001 58.13 52.99 L 58.15 52.98 L 58.15 52.98 z M 19.33 106.17 C 16.279999999999998 103.3 13.529999999999998 100.12 11.119999999999997 96.69 C 8.729999999999997 93.28999999999999 6.679999999999997 89.63 5.009999999999997 85.78 C 3.38 82 2.12 78.02 1.26 73.88 C 0.44 69.86 0 65.7 0 61.44 C 0 53.12 1.66 45.19 4.65 37.95 C 7.77 30.43 12.33 23.66 18 18 C 23.66 12.34 30.43 7.77 37.95 4.66 C 45.19 1.66 53.12 0 61.44 0 C 69.74 0 77.65 1.66 84.87 4.66 C 92.39 7.78 99.15 12.36 104.82000000000001 18.03 C 110.5 23.71 115.08000000000001 30.490000000000002 118.2 38 C 121.21000000000001 45.24 122.88 53.16 122.88 61.44 C 122.88 65.49 122.47999999999999 69.45 121.72 73.28999999999999 C 120.94 77.22999999999999 119.77 81.03999999999999 118.26 84.69 C 116.72 88.39999999999999 114.83 91.94 112.62 95.24 C 110.39 98.58 107.84 101.69 105.02000000000001 104.53999999999999 C 104.83000000000001 104.72999999999999 104.51 104.72999999999999 104.32000000000001 104.53999999999999 L 101.25000000000001 101.47999999999999 C 101.19000000000001 101.46 101.13000000000001 101.41999999999999 101.08000000000001 101.36999999999999 L 92.52000000000001 92.80999999999999 C 92.33000000000001 92.61999999999999 92.33000000000001 92.29999999999998 92.52000000000001 92.10999999999999 L 97.01 87.61999999999999 C 97.2 87.42999999999999 97.52000000000001 87.42999999999999 97.71000000000001 87.61999999999999 L 104.32000000000001 94.22999999999999 C 105.72000000000001 92.41 107.01 90.50999999999999 108.17 88.52999999999999 C 109.42 86.40999999999998 110.52 84.18999999999998 111.47 81.89999999999999 C 112.75 78.8 113.76 75.55 114.44 72.19 C 115.08 69.07 115.44 65.84 115.50999999999999 62.55 L 106.39999999999999 62.55 C 106.13 62.55 105.89999999999999 62.33 105.89999999999999 62.05 L 105.89999999999999 55.7 C 105.89999999999999 55.43 106.11999999999999 55.2 106.39999999999999 55.2 L 115.16 55.2 C 114.47999999999999 49.35 112.85 43.77 110.44 38.620000000000005 C 107.95 33.31 104.62 28.470000000000006 100.62 24.250000000000007 L 94.76 30.110000000000007 C 94.57000000000001 30.300000000000008 94.25 30.300000000000008 94.06 30.110000000000007 L 89.57000000000001 25.620000000000005 C 89.38000000000001 25.430000000000003 89.38000000000001 25.110000000000003 89.57000000000001 24.920000000000005 L 95.22000000000001 19.270000000000003 C 90.78000000000002 15.700000000000003 85.77000000000001 12.810000000000002 80.35000000000001 10.770000000000003 C 75.1 8.8 69.47 7.62 63.6 7.39 L 63.6 15.419999999999998 C 63.6 15.689999999999998 63.38 15.919999999999998 63.1 15.919999999999998 L 56.74 15.919999999999998 C 56.47 15.919999999999998 56.24 15.699999999999998 56.24 15.419999999999998 L 56.24 7.59 C 50.410000000000004 8.14 44.84 9.629999999999999 39.7 11.879999999999999 C 34.39 14.209999999999999 29.53 17.369999999999997 25.28 21.18 L 31.150000000000002 27.05 C 31.340000000000003 27.240000000000002 31.340000000000003 27.560000000000002 31.150000000000002 27.75 L 26.660000000000004 32.24 C 26.470000000000002 32.43 26.150000000000002 32.43 25.960000000000004 32.24 L 20.160000000000004 26.44 C 16.430000000000003 30.840000000000003 13.380000000000003 35.85 11.200000000000003 41.3 C 9.1 46.6 7.79 52.29 7.44 58.23 L 16.47 58.23 C 16.74 58.23 16.97 58.449999999999996 16.97 58.73 L 16.97 65.09 C 16.97 65.36 16.75 65.59 16.47 65.59 L 7.5 65.59 C 7.72 68.53 8.18 71.39 8.85 74.17 C 9.57 77.18 10.549999999999999 80.09 11.76 82.89 C 12.81 85.32000000000001 14.03 87.65 15.4 89.87 C 16.69 91.96000000000001 18.12 93.96000000000001 19.68 95.84 L 26.92 88.60000000000001 C 27.110000000000003 88.41000000000001 27.430000000000003 88.41000000000001 27.62 88.60000000000001 L 32.11 93.09 C 32.3 93.28 32.3 93.60000000000001 32.11 93.79 C 27.97 97.93 24.02 101.9 20.02 106.15 C 19.84 106.35 19.53 106.36 19.33 106.17 L 19.33 106.17 z" stroke-linecap="round" />
</g>
</svg>