<?xml version="1.0" encoding="UTF-8" standalone="no" ?>
<!DOCTYPE svg PUBLIC "-//W3C//DTD SVG 1.1//EN" "http://www.w3.org/Graphics/SVG/1.1/DTD/svg11.dtd">
<svg xmlns="http://www.w3.org/2000/svg" xmlns:xlink="http://www.w3.org/1999/xlink" version="1.1" width="500" height="500" viewBox="0 0 500 500" xml:space="preserve">
<desc>Created with Fabric.js 4.6.0</desc>
<defs>
</defs>
<g transform="matrix(0.28 0 0 0.28 250 250)" id="J318hMUdhoD9rsugchv-H"  >
<filter id="SVGID_283" y="-28%" height="156%" x="-29%" width="158%" >
	<feGaussianBlur in="SourceAlpha" stdDeviation="55.5"></feGaussianBlur>
	<feOffset dx="10" dy="10" result="oBlur" ></feOffset>
	<feFlood flood-color="rgb(0,0,0)" flood-opacity="1"/>
	<feComposite in2="oBlur" operator="in" />
	<feMerge>
		<feMergeNode></feMergeNode>
		<feMergeNode in="SourceGraphic"></feMergeNode>
	</feMerge>
</filter>
<path style="stroke: none; stroke-width: 1; stroke-dasharray: none; stroke-linecap: butt; stroke-dashoffset: 0; stroke-linejoin: miter; stroke-miterlimit: 4; fill: rgb(255,255,255); fill-rule: nonzero; opacity: 1;filter: url(#SVGID_283);" vector-effect="non-scaling-stroke"  transform=" translate(-728.56, -821.9)" d="M 728.505 22.581 C 732.439 20.64 732.051 19.987 797.076 62.64 C 804.058 66.342 798.735 60.519 802.725 270.568 C 935.072 199.75599999999997 914.995 203.78499999999997 927.452 210.42899999999997 C 946.282 223.42699999999996 965.595 235.70799999999997 984.258 248.90499999999997 C 984.4580000000001 272.45099999999996 984.491 295.996 984.241 319.525 C 924.985 351.80199999999996 866.779 385.96299999999997 807.757 418.64 C 805.207 419.95599999999996 802.491 422.123 803.1909999999999 425.372 C 804.598 459.849 802.9799999999999 537.146 805.4739999999999 549.966 C 827.9569999999999 539.184 910.65 485.059 922.5519999999999 481.712 C 927.9259999999999 483.198 925.3389999999999 479.666 929.367 627.002 C 968.26 605.7729999999999 1007.319 584.8259999999999 1046.045 563.2969999999999 C 1046.045 563.2969999999999 1049.439 347.60299999999995 1049.461 345.5539999999999 C 1119.279 312.88699999999994 1107.836 312.13499999999993 1122.981 318.1919999999999 C 1208.119 357.7589999999999 1174.599 321.0459999999999 1183.82 478.29599999999994 C 1246.1419999999998 446.3019999999999 1307.28 411.9749999999999 1369.319 379.4479999999999 C 1388.782 390.59599999999995 1407.545 402.9099999999999 1426.892 414.2749999999999 C 1438.247 421.6149999999999 1437.104 420.8619999999999 1437.5900000000001 431.80499999999995 C 1436.8960000000002 507.08599999999996 1441.277 500.6039999999999 1426.9250000000002 509.57399999999996 C 1366.0200000000002 546.197 1272.1130000000003 597.0329999999999 1258.7390000000003 607.8389999999999 C 1300.8680000000002 633.3789999999999 1356.0330000000004 662.2259999999999 1367.5860000000002 670.2769999999999 C 1367.6860000000001 687.507 1367.1690000000003 704.7539999999999 1367.8360000000002 721.9669999999999 C 1368.9030000000002 730.6489999999999 1369.5860000000002 739.3799999999999 1369.1860000000001 748.1289999999999 C 1351.6390000000001 759.4269999999999 1333.3260000000002 769.4579999999999 1314.929 779.2729999999999 C 1301.623 787.0439999999999 1323.2830000000001 793.9429999999999 1127.5300000000002 679.8249999999999 C 1096.4200000000003 697.804 1024.6870000000001 744.242 1012.1850000000002 753.4949999999999 C 1021.7410000000002 763.2959999999999 1084.2290000000003 797.3419999999999 1123.8980000000001 827.1649999999998 C 1111.758 840.7169999999999 1050.0110000000002 871.3539999999998 1010.4190000000001 898.4679999999998 C 1047.047 920.4269999999998 1125.996 959.7179999999998 1127.6640000000002 960.1899999999998 C 1131.5440000000003 960.1049999999998 1204.938 916.6629999999998 1290.217 870.9559999999998 C 1305.768 862.7369999999997 1303.3590000000002 859.5799999999998 1339.258 885.1699999999998 C 1366.246 905.3359999999999 1363.603 903.6839999999999 1365.703 915.2809999999998 C 1365.792 916.9479999999999 1367.039 966.1769999999998 1363.687 977.7529999999998 C 1356.146 988.3909999999998 1280.9699999999998 1024.6879999999999 1260.523 1040.7579999999998 C 1273.397 1050.466 1360.5149999999999 1100.7589999999998 1432.491 1143.7389999999998 C 1432.532 1196.2769999999998 1433.258 1219.2149999999997 1429.541 1230.3399999999997 C 1419.7569999999998 1238.1629999999998 1378.664 1254.9029999999998 1354.172 1266.7669999999996 C 1201.358 1181.0009999999995 1207.49 1183.0949999999996 1184.453 1171.1009999999997 C 1184.458 1172.7699999999998 1182.378 1287.3809999999996 1180.554 1296.1109999999996 C 1178.7540000000001 1298.8439999999996 1175.688 1300.3429999999996 1173.039 1302.0929999999996 C 1109.59 1336.6269999999997 1119.496 1333.2339999999997 1108.634 1329.0879999999995 C 1100.743 1325.2499999999995 1055.303 1302.9379999999994 1053.311 1294.3779999999995 C 1048.691 1276.2979999999995 1052.569 1260.5499999999995 1050.8609999999999 1097.4809999999995 C 945.3759999999999 1037.7599999999995 941.6739999999999 1034.9239999999995 929.6669999999999 1029.5599999999995 C 926.2509999999999 1062.4039999999995 928.0509999999999 1095.4639999999995 927.651 1128.4079999999994 C 928.351 1139.7729999999995 925.8679999999999 1150.9539999999995 925.635 1162.2849999999994 C 890.583 1146.4039999999993 817.901 1096.5449999999994 805.174 1093.3139999999994 C 803.178 1106.8789999999995 804.4599999999999 1186.5299999999993 803.274 1216.6909999999993 C 803.025 1222.8349999999994 792.901 1216.2649999999994 919.969 1287.7609999999993 C 989.113 1328.3159999999993 981.84 1309.8229999999992 979.2410000000001 1395.0079999999994 C 979.1240000000001 1401.5069999999994 973.4420000000001 1405.9889999999994 968.243 1408.9049999999993 C 952.129 1417.6369999999993 936.066 1426.6349999999993 918.9350000000001 1433.2169999999992 C 910.442 1436.450999999999 822.812 1381.2939999999992 802.84 1372.7619999999993 C 795.0790000000001 1577.6899999999991 809.702 1570.0979999999993 788.426 1585.7559999999992 C 769.096 1598.336999999999 750.0500000000001 1611.5509999999992 729.3870000000001 1621.8989999999992 C 706.375 1609.9679999999992 685.3950000000001 1594.6039999999991 663.416 1580.9569999999992 C 652.1650000000001 1575.4499999999991 661.264 1561.2429999999993 655.9340000000001 1372.7289999999991 C 618.5240000000001 1393.1089999999992 581.5140000000001 1414.220999999999 544.421 1435.183999999999 C 531.7700000000001 1428.904999999999 490.06200000000007 1405.201999999999 481.18300000000005 1398.223999999999 C 481.20000000000005 1372.761999999999 481.23300000000006 1347.299999999999 481.16600000000005 1321.854999999999 C 491.73400000000004 1313.9289999999992 641.5010000000001 1230.635999999999 654.4670000000001 1221.5229999999992 C 654.3840000000001 1178.5979999999993 654.7840000000001 1135.6559999999993 654.2500000000001 1092.7469999999992 C 634.4620000000001 1101.9199999999992 544.5680000000001 1165.7069999999992 529.94 1167.1999999999991 C 526.0690000000001 1100.867999999999 528.801 1120.800999999999 527.6410000000001 1026.175999999999 C 516.3320000000001 1030.864999999999 513.2170000000001 1034.695999999999 414.5290000000001 1090.563999999999 C 410.5870000000001 1237.2299999999989 414.8090000000001 1206.168999999999 410.9460000000001 1291.426999999999 C 398.54800000000006 1299.356999999999 355.32400000000007 1327.050999999999 345.4580000000001 1331.119999999999 C 340.3020000000001 1333.682999999999 319.0810000000001 1316.840999999999 284.6690000000001 1294.476999999999 C 284.6500000000001 1292.7879999999989 284.2940000000001 1193.233999999999 282.5530000000001 1167.799999999999 C 261.5170000000001 1173.618999999999 107.61200000000011 1269.187999999999 96.98700000000011 1264.398999999999 C 75.34100000000011 1255.833999999999 53.99500000000011 1246.501999999999 32.8490000000001 1236.753999999999 C 21.127000000000102 1230.0279999999989 18.427000000000103 1241.495999999999 19.701000000000104 1145.853999999999 C 48.3510000000001 1127.542999999999 179.47100000000012 1057.045999999999 209.23300000000012 1041.089999999999 C 209.23300000000012 1040.589999999999 209.21600000000012 1039.589999999999 209.21600000000012 1039.089999999999 C 171.34000000000012 1020.1599999999991 133.41300000000012 1001.296999999999 95.50400000000012 982.450999999999 C 90.91900000000012 981.164999999999 91.86000000000011 982.947999999999 92.08800000000012 906.781999999999 C 90.58800000000012 897.815999999999 158.45500000000013 865.1259999999991 164.65800000000013 863.6069999999991 C 171.93400000000014 863.7689999999991 269.99400000000014 923.3549999999991 332.27700000000016 959.055999999999 C 341.6270000000002 963.607999999999 378.07700000000017 942.170999999999 451.60500000000013 897.766999999999 C 430.01500000000016 881.991999999999 342.44100000000014 835.522999999999 331.96000000000015 825.229999999999 C 342.37900000000013 813.995999999999 400.4250000000002 780.068999999999 446.47200000000015 750.609999999999 C 444.80400000000014 749.635999999999 338.73200000000014 687.799999999999 332.8100000000002 686.654999999999 C 317.5860000000002 690.159999999999 164.83900000000017 788.567999999999 154.74300000000017 783.336999999999 C 132.78000000000017 773.305999999999 110.96800000000016 762.906999999999 89.62200000000017 751.625999999999 C 89.73600000000017 689.008999999999 91.32200000000017 671.990999999999 91.32200000000017 671.990999999999 C 96.64700000000018 668.008999999999 199.09100000000018 611.2759999999989 205.05100000000016 608.019999999999 C 203.36800000000017 607.1169999999989 27.45000000000016 512.476999999999 21.318000000000154 508.287999999999 C 21.251000000000154 479.02699999999896 21.268000000000153 449.76499999999896 21.301000000000155 420.487999999999 C 29.117000000000154 415.719999999999 73.22300000000016 392.123999999999 86.87200000000016 385.943999999999 C 102.24300000000015 379.538999999999 89.57900000000015 381.629999999999 275.9370000000001 483.99299999999903 C 279.0870000000001 469.88199999999904 277.45800000000014 466.31399999999906 277.95300000000015 406.79099999999903 C 278.68600000000015 389.16099999999904 279.86900000000014 371.54799999999904 279.6030000000001 353.88399999999905 C 296.85000000000014 341.5199999999991 314.8300000000001 330.187999999999 332.22700000000015 318.04099999999903 C 341.09300000000013 313.457999999999 326.52000000000015 310.32699999999903 407.64600000000013 356.000999999999 C 407.66000000000014 360.654999999999 408.1390000000001 486.139999999999 406.89600000000013 558.496999999999 C 445.42200000000014 580.309999999999 483.8650000000001 602.305999999999 522.3910000000001 624.1009999999991 C 526.599 589.3549999999991 522.1880000000001 505.29899999999907 529.4560000000001 486.3929999999991 C 571.4150000000002 505.9229999999991 611.0580000000001 529.9679999999992 652.6500000000001 550.2309999999991 C 655.272 532.0669999999991 654.7180000000001 470.69399999999905 654.416 420.47199999999907 C 634.931 409.47799999999904 509.08900000000006 338.89599999999905 479.46500000000003 319.7739999999991 C 482.18100000000004 295.5949999999991 480.781 271.2659999999991 481.31500000000005 247.0209999999991 C 481.03200000000004 243.2049999999991 484.99800000000005 241.75499999999911 487.61400000000003 240.0219999999991 C 551.7710000000001 202.7189999999991 539.985 207.42899999999912 551.119 211.8939999999991 C 586.3960000000001 230.8409999999991 620.789 251.3869999999991 656.066 270.2999999999991 C 656.3380000000001 221.2569999999991 655.626 116.2229999999991 657.8820000000001 65.5379999999991 C 661.765 62.706 710.164 30.577 728.505 22.581 M 617.259 825.415 C 636.922 856.043 657.702 885.954 678.648 915.732 C 716.5740000000001 914.482 754.551 915.7149999999999 792.494 915.015 C 798.043 908.016 802.009 899.968 806.558 892.336 C 846.652 824.076 846.119 826.366 843.351 822.9490000000001 C 786.866 723.9240000000001 789.989 729.5550000000001 786.095 730.1 C 751.051 730.033 715.991 730.133 680.948 730.067 C 672.691 731.255 684.46 716.694 617.259 825.415 z" stroke-linecap="round" />
</g>
</svg>