<?xml version="1.0" encoding="UTF-8" standalone="no" ?>
<!DOCTYPE svg PUBLIC "-//W3C//DTD SVG 1.1//EN" "http://www.w3.org/Graphics/SVG/1.1/DTD/svg11.dtd">
<svg xmlns="http://www.w3.org/2000/svg" xmlns:xlink="http://www.w3.org/1999/xlink" version="1.1" width="500" height="500" viewBox="0 0 500 500" xml:space="preserve">
<desc>Created with Fabric.js 4.6.0</desc>
<defs>
</defs>
<g transform="matrix(3.4 0 0 3.4 250 250)" id="uHft9SwW6lGPMXAaH0yrj"  >
<filter id="SVGID_62" y="-28%" height="156%" x="-35%" width="170%" >
	<feGaussianBlur in="SourceAlpha" stdDeviation="5"></feGaussianBlur>
	<feOffset dx="0" dy="0" result="oBlur" ></feOffset>
	<feFlood flood-color="rgb(0,0,0)" flood-opacity="1"/>
	<feComposite in2="oBlur" operator="in" />
	<feMerge>
		<feMergeNode></feMergeNode>
		<feMergeNode in="SourceGraphic"></feMergeNode>
	</feMerge>
</filter>
<path style="stroke: none; stroke-width: 1; stroke-dasharray: none; stroke-linecap: butt; stroke-dashoffset: 0; stroke-linejoin: miter; stroke-miterlimit: 4; fill: rgb(255,255,255); fill-rule: evenodd; opacity: 1;filter: url(#SVGID_62);" vector-effect="non-scaling-stroke"  transform=" translate(0, 0)" d="M -15.965 -13.81 L 3.914999999999999 -13.81 L 3.914999999999999 -46.410000000000004 C 3.914999999999999 -49.14 2.794999999999999 -51.63 0.9949999999999992 -53.43000000000001 C -0.8050000000000008 -55.230000000000004 -3.295000000000001 -56.35000000000001 -6.025 -56.35000000000001 C -8.755 -56.35000000000001 -11.245000000000001 -55.23000000000001 -13.045 -53.43000000000001 C -14.845 -51.63000000000001 -15.965 -49.14000000000001 -15.965 -46.41000000000001 z M 16.185 -47.51 C 14.774999999999999 -47.51 13.634999999999998 -48.65 13.634999999999998 -50.059999999999995 C 13.634999999999998 -51.46999999999999 14.774999999999999 -52.60999999999999 16.185 -52.60999999999999 L 30.325 -52.60999999999999 C 31.735 -52.60999999999999 32.875 -51.46999999999999 32.875 -50.059999999999995 C 32.875 -48.65 31.735 -47.51 30.325 -47.51 L 16.185 -47.51 z M 16.185 -33.14 C 14.774999999999999 -33.14 13.634999999999998 -34.28 13.634999999999998 -35.69 C 13.634999999999998 -37.099999999999994 14.774999999999999 -38.239999999999995 16.185 -38.239999999999995 L 30.325 -38.239999999999995 C 31.735 -38.239999999999995 32.875 -37.099999999999994 32.875 -35.69 C 32.875 -34.28 31.735 -33.14 30.325 -33.14 L 16.185 -33.14 z M 16.185 -18.77 C 14.774999999999999 -18.77 13.634999999999998 -19.91 13.634999999999998 -21.32 C 13.634999999999998 -22.73 14.774999999999999 -23.87 16.185 -23.87 L 30.325 -23.87 C 31.735 -23.87 32.875 -22.73 32.875 -21.32 C 32.875 -19.91 31.735 -18.77 30.325 -18.77 L 16.185 -18.77 z M 16.185 -4.4 C 14.774999999999999 -4.4 13.634999999999998 -5.54 13.634999999999998 -6.95 C 13.634999999999998 -8.36 14.774999999999999 -9.5 16.185 -9.5 L 30.325 -9.5 C 31.735 -9.5 32.875 -8.36 32.875 -6.95 C 32.875 -5.54 31.735 -4.4 30.325 -4.4 L 16.185 -4.4 z M 16.185 9.97 C 14.774999999999999 9.97 13.634999999999998 8.83 13.634999999999998 7.420000000000001 C 13.634999999999998 6.010000000000001 14.774999999999999 4.870000000000001 16.185 4.870000000000001 L 30.325 4.870000000000001 C 31.735 4.870000000000001 32.875 6.010000000000001 32.875 7.420000000000001 C 32.875 8.83 31.735 9.97 30.325 9.97 L 16.185 9.97 z M 9.005 13.01 C 15.875 17.82 20.365000000000002 25.799999999999997 20.365000000000002 34.82 C 20.365000000000002 49.519999999999996 8.445000000000002 61.44 -6.254999999999999 61.44 C -20.955 61.44 -32.875 49.519999999999996 -32.875 34.81999999999999 C -32.875 25.599999999999994 -28.185 17.46999999999999 -21.055 12.699999999999992 L -21.055 -46.41000000000001 C -21.055 -50.55000000000001 -19.365 -54.30000000000001 -16.645 -57.03000000000001 C -13.924999999999999 -59.75000000000001 -10.165 -61.44000000000001 -6.025 -61.44000000000001 C -1.8850000000000007 -61.44000000000001 1.8649999999999993 -59.750000000000014 4.594999999999999 -57.030000000000015 C 7.3149999999999995 -54.31000000000002 9.004999999999999 -50.55000000000001 9.004999999999999 -46.41000000000002 L 9.004999999999999 13.009999999999984 z" stroke-linecap="round" />
</g>
</svg>