<?xml version="1.0" encoding="UTF-8" standalone="no"?>
<!-- Created with Inkscape (http://www.inkscape.org/) -->

<svg
   version="1.1"
   id="svg2"
   xml:space="preserve"
   width="666.66669"
   height="666.66669"
   viewBox="0 0 666.66669 666.66669"
   sodipodi:docname="haitat.svg"
   inkscape:version="1.1.1 (3bf5ae0d25, 2021-09-20)"
   xmlns:inkscape="http://www.inkscape.org/namespaces/inkscape"
   xmlns:sodipodi="http://sodipodi.sourceforge.net/DTD/sodipodi-0.dtd"
   xmlns="http://www.w3.org/2000/svg"
   xmlns:svg="http://www.w3.org/2000/svg"><defs
     id="defs6"><clipPath
       clipPathUnits="userSpaceOnUse"
       id="clipPath18"><path
         d="M -369.332,-438.16 H 811.941 V 743.114 H -369.332 Z"
         id="path16" /></clipPath></defs><sodipodi:namedview
     id="namedview4"
     pagecolor="#ffffff"
     bordercolor="#111111"
     borderopacity="1"
     inkscape:pageshadow="0"
     inkscape:pageopacity="0"
     inkscape:pagecheckerboard="1"
     showgrid="false"
     inkscape:zoom="1.293"
     inkscape:cx="332.94665"
     inkscape:cy="333.72004"
     inkscape:window-width="1920"
     inkscape:window-height="1051"
     inkscape:window-x="-9"
     inkscape:window-y="-9"
     inkscape:window-maximized="1"
     inkscape:current-layer="g8" /><g
     id="g8"
     inkscape:groupmode="layer"
     inkscape:label="Haitat"
     transform="matrix(1.3333333,0,0,-1.3333333,0,666.66667)"><g
       id="g10"
       transform="matrix(1,0,0,-1,0,500)"><g
         id="g12"><g
           id="g14"
           clip-path="url(#clipPath18)"><g
             id="g20"
             transform="translate(603.4472,742.8635)"><path
               d="m 0,0 c 1.6884,-0.4329 3.3711,-0.8882 5.0441,-1.3711 4.4726,-1.293 9.0429,-2.3984 13.4492,-3.8984 6.8594,-2.3321 13.7265,-4.6446 20.5625,-7.0508 10.8789,-3.832 21.9765,-7.4375 32.5546,-12.0469 18.0508,-7.8633 34.1445,-18.7969 48.2695,-32.5039 7.0196,-6.8047 13.2461,-14.332 19.5665,-21.7734 6.1132,-7.1953 11.4375,-15.0274 16.7734,-22.7969 6.7969,-9.8945 13.1992,-19.9766 19.3867,-30.2539 4.8281,-8.0156 8.8203,-16.4922 13.1836,-24.7578 4,-7.5782 8.0898,-15.1523 11.2656,-23.125 1.9219,-4.8242 3.6407,-9.7305 5.2617,-14.6602 0.8555,-2.6054 1.7618,-5.2344 2.4063,-7.9023 0.1726,-0.7145 0.3457,-1.4285 0.5195,-2.1424 0,0 0,204.283 0,204.283 C 208.2432,0 0,0 0,0 Z"
               style="fill:#ffffff;fill-opacity:0;fill-rule:nonzero;stroke:none"
               id="path22" /></g><g
             id="g24"
             transform="translate(456.6445,257.4414)"><path
               d="m 0,0 c 0.0273,-1.2383 0.0391,-2.4727 0.0391,-3.7148 0,-6.5391 -0.3321,-13 -0.9844,-19.3711 -0.0781,-0.7969 -0.1641,-1.5938 -0.2578,-2.3868 -0.0899,-0.7929 -0.1836,-1.5859 -0.2891,-2.3789 -0.0976,-0.789 -0.2031,-1.5781 -0.3164,-2.3672 -0.2187,-1.5742 -0.4609,-3.1445 -0.7226,-4.707 -0.254,-1.539 -0.5274,-3.0703 -0.8204,-4.5976 -0.0039,-0.0274 -0.0078,-0.0508 -0.0156,-0.0782 -0.4453,-2.3281 -0.9375,-4.6367 -1.4687,-6.9336 -0.1758,-0.7656 -0.3594,-1.5312 -0.5469,-2.2929 -0.1367,-0.5703 -0.2813,-1.1407 -0.4258,-1.711 -0.4336,-1.7109 -0.8906,-3.4101 -1.375,-5.1015 -0.2109,-0.75 -0.4297,-1.5 -0.6562,-2.2461 -0.4414,-1.4961 -0.9063,-2.9844 -1.3907,-4.4649 -0.2422,-0.7422 -0.4843,-1.4804 -0.7382,-2.2187 -0.2461,-0.7383 -0.5,-1.4727 -0.7618,-2.2031 -0.5156,-1.4649 -1.0507,-2.9219 -1.6015,-4.3711 -0.5508,-1.4493 -1.1172,-2.8907 -1.7071,-4.3243 -0.582,-1.4335 -1.1875,-2.8593 -1.8086,-4.2773 -0.0078,-0.0234 -0.0195,-0.043 -0.0273,-0.0664 -0.2891,-0.6602 -0.582,-1.3164 -0.8789,-1.9727 -0.8867,-1.9687 -1.8125,-3.9218 -2.7656,-5.8515 -0.4219,-0.8594 -0.8516,-1.7149 -1.2891,-2.5664 -0.6992,-1.375 -1.418,-2.7383 -2.1562,-4.0899 -0.3633,-0.6797 -0.7344,-1.3515 -1.1133,-2.0234 -0.3711,-0.6719 -0.75,-1.3438 -1.1367,-2.0117 -1.1485,-2.0039 -2.3321,-3.9844 -3.5547,-5.9414 -0.4024,-0.6524 -0.8125,-1.3047 -1.2305,-1.9493 -0.4102,-0.6484 -0.8281,-1.2968 -1.2539,-1.9375 -0.418,-0.6445 -0.8438,-1.2851 -1.2774,-1.9218 -0.4218,-0.6367 -0.8554,-1.2696 -1.2968,-1.9024 -0.4297,-0.6328 -0.8711,-1.2617 -1.3203,-1.8906 -0.4375,-0.6289 -0.8868,-1.2539 -1.3438,-1.875 -0.4453,-0.625 -0.9023,-1.2422 -1.3672,-1.8594 -0.9101,-1.2343 -1.8437,-2.457 -2.7929,-3.6679 -0.4688,-0.6055 -0.9454,-1.2071 -1.4297,-1.8086 -0.4766,-0.6016 -0.9571,-1.1993 -1.4532,-1.793 -0.6015,-0.7422 -1.2109,-1.4805 -1.8398,-2.2109 -0.3633,-0.4414 -0.7422,-0.8829 -1.125,-1.3243 -0.4961,-0.5859 -1,-1.164 -1.5117,-1.7421 -2.5391,-2.8907 -5.1641,-5.7071 -7.8711,-8.4454 -0.5586,-0.5703 -1.1211,-1.1328 -1.6875,-1.6875 -0.5742,-0.5742 -1.1524,-1.1367 -1.7344,-1.6953 -0.582,-0.5625 -1.168,-1.1211 -1.7539,-1.6718 -1.7187,-1.625 -3.4687,-3.2149 -5.2461,-4.7735 -0.0469,-0.0429 -0.0976,-0.0859 -0.1445,-0.125 -1.2188,-1.0703 -2.4531,-2.125 -3.6992,-3.1601 -0.7774,-0.6524 -1.5664,-1.3008 -2.3555,-1.9336 -0.4688,-0.3867 -0.9414,-0.7657 -1.418,-1.1367 -0.6367,-0.5079 -1.2734,-1.0118 -1.9179,-1.504 -0.6211,-0.4843 -1.2422,-0.9609 -1.8711,-1.4335 -0.1133,-0.0899 -0.2305,-0.1758 -0.3438,-0.254 -0.5391,-0.414 -1.0781,-0.8164 -1.6211,-1.2148 -0.0703,-0.0508 -0.1406,-0.1055 -0.2109,-0.1523 -0.6016,-0.4454 -1.2071,-0.8868 -1.8164,-1.3204 -0.6602,-0.4804 -1.3242,-0.9492 -1.9922,-1.414 0,0 -0.0039,-0.004 -0.0039,-0.004 -0.6055,-0.4258 -1.2149,-0.8477 -1.8281,-1.2617 -0.2032,-0.1446 -0.4063,-0.2813 -0.6094,-0.4141 -0.5117,-0.3555 -1.0274,-0.6992 -1.5469,-1.043 -0.0781,-0.0547 -0.1562,-0.1093 -0.2383,-0.1562 -0.5859,-0.3906 -1.1719,-0.7774 -1.7656,-1.1563 -0.1016,-0.0703 -0.2031,-0.1367 -0.3047,-0.1992 -0.582,-0.3789 -1.168,-0.7539 -1.7578,-1.125 -0.6133,-0.3906 -1.2266,-0.7734 -1.8438,-1.1523 -0.3242,-0.1993 -0.6523,-0.4024 -0.9804,-0.5977 -0.3946,-0.2461 -0.793,-0.4844 -1.1953,-0.7226 -0.2774,-0.1719 -0.5586,-0.336 -0.8399,-0.5 -0.4453,-0.2657 -0.8906,-0.5274 -1.3359,-0.7852 -0.2227,-0.1367 -0.4492,-0.2656 -0.6758,-0.3945 -0.4023,-0.2344 -0.8086,-0.4688 -1.2187,-0.6993 -0.5508,-0.3164 -1.1055,-0.625 -1.6602,-0.9335 -0.082,-0.0469 -0.168,-0.0938 -0.2539,-0.1407 -0.5625,-0.3164 -1.1289,-0.625 -1.6953,-0.9297 -0.1875,-0.1054 -0.3789,-0.207 -0.5664,-0.3046 -0.5078,-0.2774 -1.0157,-0.5469 -1.5235,-0.8125 -0.2226,-0.1211 -0.4453,-0.2383 -0.6679,-0.3516 -0.4453,-0.2344 -0.8946,-0.4688 -1.3438,-0.6953 -0.332,-0.1719 -0.664,-0.3399 -0.9961,-0.5078 -0.3086,-0.1602 -0.6172,-0.3125 -0.9258,-0.4649 -0.4765,-0.2422 -0.9531,-0.4765 -1.4336,-0.7109 -0.2695,-0.1328 -0.539,-0.2656 -0.8125,-0.3945 -0.3867,-0.1915 -0.7734,-0.379 -1.1601,-0.5586 -0.4375,-0.211 -0.8789,-0.4219 -1.3203,-0.625 -0.2813,-0.1329 -0.5586,-0.2618 -0.8399,-0.3907 -0.4648,-0.2187 -0.9297,-0.4336 -1.3984,-0.6406 -0.3047,-0.1406 -0.6133,-0.2812 -0.9219,-0.4141 -0.3867,-0.1796 -0.7734,-0.3476 -1.1601,-0.5156 -0.3555,-0.1601 -0.7149,-0.3203 -1.0743,-0.4726 -0.4843,-0.211 -0.9726,-0.4219 -1.4609,-0.625 -0.2031,-0.0899 -0.4062,-0.1758 -0.6133,-0.2578 -0.6406,-0.2735 -1.2851,-0.5391 -1.9336,-0.8047 -1.9414,-0.793 -3.8984,-1.5586 -5.8711,-2.2969 -0.7304,-0.2734 -1.4648,-0.543 -2.2031,-0.8047 -0.3867,-0.1406 -0.7734,-0.2812 -1.1601,-0.4141 -3.1016,-1.0976 -6.2383,-2.1211 -9.4102,-3.0742 -0.3281,-0.1015 -0.6601,-0.1992 -0.9922,-0.2969 -0.4609,-0.1328 -0.9258,-0.2695 -1.3906,-0.4023 -0.3984,-0.1172 -0.7969,-0.2305 -1.1953,-0.3398 -0.1836,-0.0508 -0.3633,-0.1016 -0.5469,-0.1524 -0.3476,-0.0976 -0.6992,-0.1953 -1.0508,-0.289 -2.8476,-0.7735 -5.7226,-1.4922 -8.6211,-2.1485 -0.414,-0.0937 -0.8281,-0.1875 -1.2422,-0.2773 -0.414,-0.0899 -0.8281,-0.1797 -1.246,-0.2696 -0.2813,-0.0586 -0.5625,-0.1211 -0.8477,-0.1796 -0.3477,-0.0743 -0.6914,-0.1446 -1.0391,-0.2149 -1.2929,-0.2617 -2.5937,-0.5156 -3.9023,-0.7578 -0.3477,-0.0625 -0.6992,-0.1289 -1.0508,-0.1875 -1.6562,-0.2969 -3.3242,-0.5742 -4.9961,-0.832 -0.832,-0.1289 -1.664,-0.25 -2.5,-0.3672 -0.2773,-0.0391 -0.5586,-0.0781 -0.8398,-0.1172 -0.4297,-0.0586 -0.8555,-0.1172 -1.2852,-0.1719 -3.5078,-0.4609 -7.043,-0.832 -10.6055,-1.1172 -0.4296,-0.0351 -0.8554,-0.0664 -1.2851,-0.0976 -1.2227,-0.0899 -2.4531,-0.168 -3.6836,-0.2383 -0.3555,-0.0195 -0.707,-0.0391 -1.0625,-0.0586 -0.1406,-0.004 -0.2813,-0.0117 -0.4258,-0.0195 -0.4258,-0.0196 -0.8515,-0.0391 -1.2812,-0.0586 -0.4336,-0.0196 -0.8633,-0.0352 -1.2969,-0.0508 -0.6953,-0.0274 -1.3945,-0.0508 -2.0938,-0.0664 -1.9062,-0.0508 -3.8164,-0.0781 -5.7343,-0.0781 -27.4688,0 -53.6602,5.2773 -77.543,14.8476 -0.1602,0.0625 -0.3164,0.125 -0.4766,0.1875 -73.6367,29.2617 -125.4804,99.2149 -125.4804,180.8633 0,107.9727 90.664,195.5 202.5039,195.5 27.5195,0 53.7617,-5.3008 77.6836,-14.9024 0.1093,-0.0468 0.2226,-0.0898 0.332,-0.1328 2.1562,-0.8554 4.293,-1.75 6.4101,-2.6757 0.3438,-0.1485 0.6875,-0.3008 1.0313,-0.4532 0.3633,-0.1601 0.7266,-0.3203 1.0859,-0.4843 0.5625,-0.254 1.1211,-0.5079 1.6797,-0.7657 5.5899,-2.582 11.0352,-5.3984 16.3281,-8.4453 1.586,-0.9101 3.1563,-1.8437 4.7149,-2.8008 2.4648,-1.5078 4.8984,-3.0703 7.293,-4.6797 0.3515,-0.2304 0.6992,-0.4687 1.0468,-0.707 3.793,-2.582 7.4883,-5.289 11.0821,-8.1094 0.7148,-0.5586 1.4218,-1.125 2.125,-1.6953 0.707,-0.5664 1.4101,-1.1406 2.1054,-1.7187 2.3243,-1.9297 4.6016,-3.9102 6.8321,-5.9336 0.8906,-0.8086 1.7734,-1.625 2.6484,-2.4531 1.3125,-1.2344 2.6094,-2.4922 3.8906,-3.7657 0.5547,-0.5468 1.1055,-1.1015 1.6485,-1.6601 1.0937,-1.1133 2.1757,-2.2383 3.2422,-3.375 1.0664,-1.1367 2.1171,-2.2891 3.1562,-3.4492 0.5234,-0.5782 1.0391,-1.1641 1.5469,-1.75 1.0273,-1.1719 2.039,-2.3555 3.0312,-3.5547 0.625,-0.7461 1.2422,-1.5 1.8516,-2.2578 1.375,-1.7032 2.7226,-3.4297 4.0391,-5.1758 0.4414,-0.582 0.875,-1.168 1.3085,-1.7539 0.9258,-1.2539 1.8321,-2.5156 2.7227,-3.7891 0.4531,-0.6367 0.8945,-1.2773 1.3281,-1.918 1.3203,-1.9296 2.6055,-3.8789 3.8477,-5.8554 0.418,-0.6563 0.832,-1.3164 1.2344,-1.9805 0.4101,-0.6641 0.8164,-1.332 1.2109,-2 0.4062,-0.668 0.8008,-1.3398 1.1875,-2.0117 0.7891,-1.3438 1.5547,-2.7031 2.3047,-4.0664 0.3789,-0.6836 0.75,-1.3672 1.1133,-2.0586 0.2773,-0.5156 0.5507,-1.0313 0.8203,-1.5508 0.2383,-0.4531 0.4726,-0.9062 0.707,-1.3633 1.4063,-2.7343 2.7422,-5.5039 4.0117,-8.3086 0.211,-0.4687 0.4219,-0.9375 0.6289,-1.4062 0.3204,-0.7149 0.6329,-1.4336 0.9375,-2.1524 0.3125,-0.7187 0.6172,-1.4375 0.9141,-2.164 0.1523,-0.3594 0.3008,-0.7227 0.4453,-1.0899 0.3008,-0.7265 0.5899,-1.4531 0.875,-2.1836 0.1445,-0.3632 0.2891,-0.7265 0.4258,-1.0937 0.4258,-1.0977 0.8398,-2.2031 1.2422,-3.3125 0.2734,-0.7383 0.5351,-1.4766 0.793,-2.2188 0.1328,-0.3711 0.2617,-0.7421 0.3867,-1.1171 0.2617,-0.754 0.5156,-1.5079 0.7617,-2.2618 0.3711,-1.1132 0.7266,-2.2343 1.0703,-3.3554 0.3516,-1.1328 0.6914,-2.2657 1.0156,-3.4063 0.2227,-0.7617 0.4375,-1.5234 0.6446,-2.2851 0.3164,-1.1446 0.6211,-2.293 0.9101,-3.4493 0.5899,-2.3046 1.1367,-4.6289 1.6328,-6.9687 0.0899,-0.3867 0.1719,-0.7774 0.2461,-1.168 0.086,-0.3906 0.168,-0.7812 0.2422,-1.1758 0.2383,-1.1718 0.4649,-2.3515 0.6758,-3.5312 0.0742,-0.3945 0.1445,-0.7891 0.2109,-1.1836 0.418,-2.3672 0.7852,-4.75 1.1094,-7.1484 0.1094,-0.7969 0.2148,-1.5977 0.3086,-2.3985 0.0547,-0.4023 0.1016,-0.8008 0.1445,-1.2031 0.0977,-0.8047 0.1836,-1.6094 0.2656,-2.4141 0.1211,-1.1601 0.2305,-2.3242 0.3282,-3.4922 0.0742,-0.8593 0.1406,-1.7187 0.1992,-2.582 0.0312,-0.3828 0.0547,-0.7656 0.0781,-1.1523 0.0039,-0.0391 0.0078,-0.0821 0.0078,-0.1211 0.0274,-0.3867 0.0508,-0.7774 0.0703,-1.168 0.0977,-1.5937 0.168,-3.1914 0.2188,-4.793 C -0.0625,2.5273 -0.0586,2.4687 -0.0625,2.4102 -0.0469,2.0586 -0.0352,1.707 -0.0312,1.3555 -0.0234,1.25 -0.0234,1.1445 -0.0234,1.043 -0.0117,0.6953 -0.0039,0.3477 0,0 Z m 355.0469,-695.3516 c 0,0 0,494.7227 0,494.7227 -6.8125,-13.6445 -14.0508,-27.0781 -21.0664,-40.6172 -3.5,-7.4023 -6.8594,-14.8281 -9.9414,-22.4219 -4.0782,-10.0429 -8.2891,-19.9726 -13.4883,-29.5039 -4.0742,-7.457 -8.4375,-14.7578 -13.0078,-21.9179 -6.8164,-10.6797 -14.3633,-21.1914 -23.3086,-30.2149 -11.125,-11.2187 -26.6485,-17.5703 -42.4258,-17.5703 -15.8281,0 -31.2344,6.3789 -42.4258,17.5703 -11.1913,11.1914 -17.5742,26.6016 -17.5742,42.4297 0,15.6484 6.2266,30.7227 17.0937,41.9336 1.9689,2.4531 3.8555,4.9609 5.7031,7.5078 4.1251,6.5703 8.0821,13.2305 11.8594,20.0078 2.7579,6.1172 5.3204,12.3125 7.8438,18.5391 3.1289,7.707 6.6445,15.2031 10.2226,22.7148 4.4922,9.4336 9.6407,18.5196 14.4102,27.8086 3.4297,6.6719 6.8633,13.336 10.3086,20 1.3203,2.6328 2.6328,5.2774 3.6875,7.9922 1.3906,3.5781 2.7812,7.1563 4.1719,10.7344 4.3008,13.3711 8.3476,26.8711 11.539,40.5547 0.2891,1.7382 0.5391,3.4765 0.7422,5.2265 0.3125,10.6289 -0.0664,21.3203 -0.4922,31.9453 -0.7812,9.1446 -1.6406,18.2774 -2.2695,27.4375 -0.6016,8.7422 -1.582,17.5118 -3.0391,26.1563 -1.4843,6.7461 -3.0273,13.4766 -4.5117,20.2227 -2.4531,11.164 -4.5859,22.3671 -6.6094,33.6171 -1.6015,8.9297 -3.0898,17.875 -4.3554,26.8555 -1.5586,11.0352 -2.4844,22.1055 -3.0625,33.2383 -0.9922,19.1133 -0.586,38.3008 -0.586,57.4375 0,17.5469 0.2657,35.1289 -0.1289,52.6719 -0.7929,3.1796 -1.6601,6.3359 -2.5039,9.5 -1.5937,5.9726 -2.9492,11.957 -4.7461,17.8554 -1.1484,2.9766 -2.3906,5.9141 -3.7422,8.8047 -4.4765,8.6758 -9.0234,17.3086 -13.7148,25.8789 -3.9883,7.2891 -8.6484,14.2656 -13.2109,21.2266 -2.9922,4.3359 -6.0078,8.6329 -9.2071,12.8281 -3.3477,4.3945 -6.8437,8.6328 -10.3944,12.8438 -2.0119,2.1054 -4.0703,4.1562 -6.1875,6.1523 -1.2111,0.9805 -2.4375,1.9375 -3.6837,2.8672 -1.1407,0.6914 -2.293,1.3555 -3.457,2 -8.9531,4.1016 -18.3867,7.3281 -27.7266,10.5469 -6.5586,2.2304 -13.0859,4.4297 -19.7422,6.3515 -6.3476,1.8321 -12.7343,3.3946 -19.1523,4.9532 -5.2149,1.0195 -10.4297,1.9843 -15.6875,2.8242 -7.0547,1.125 -14.1211,2.0078 -21.2031,2.9062 -0.6446,0.0352 -1.2852,0.0742 -1.9258,0.1094 -19.207,1.1172 -38.5586,0.5312 -57.793,0.5312 -18.8711,0 -37.7461,0 -56.6172,0.004 -1.7461,0 -3.4883,0 -5.2344,0 -16.9687,-0.004 -33.9531,-0.004 -50.9023,0.8085 -9.7812,0.4649 -19.5273,0.836 -29.3203,0.8907 -6.9258,0.0429 -13.832,-0.2578 -20.7422,-0.6407 -10.7578,-1.289 -21.5078,-2.6367 -32.1719,-4.6015 -11.4922,-2.1133 -22.9609,-4.5313 -34.5,-6.3672 -10.6211,-1.6953 -21.2461,-3.3086 -31.8906,-4.8516 -8.3555,-1.2109 -16.6562,-2.8789 -24.9766,-4.3359 -10.3164,-1.8125 -20.621,-3.6719 -30.9218,-5.5625 -3.7813,-0.6914 -7.5782,-1.3164 -11.3711,-1.9414 -1.4727,-1.9531 -2.9844,-3.8867 -4.5508,-5.8047 -4.5273,-5.5547 -9.1055,-11.1016 -14.0664,-16.2773 -10,-10.4375 -20.9805,-19.6289 -33.4727,-26.9766 -14.457,-8.5078 -29.75,-15.3047 -45.5781,-20.7969 -15.3672,-5.332 -31.5156,-8.4453 -47.7461,-9.414 1.0899,-4.6602 2.1602,-9.3282 3.3242,-13.9727 1.3047,-5.1992 2.7852,-10.3555 4.2657,-15.5078 3.5976,-12.543 7.1757,-25.0664 8.1054,-38.1992 0.7305,-5.4258 0.7305,-10.8555 0,-16.2813 -0.5312,-2.6054 -1.0625,-5.207 -1.5976,-7.8125 -1.5313,-5.5703 -3.8789,-10.9023 -6.9375,-15.7969 -1.0547,-1.6914 -2.1953,-3.332 -3.418,-4.914 -9.5664,-12.375 -23.8516,-20.6797 -39.3594,-22.7891 -13.7656,-1.8711 -27.8945,1.1563 -39.6601,8.3985 -5.4336,0.7695 -10.7344,2.2851 -15.7422,4.4804 -1.1055,-2.6054 -2.211,-5.207 -3.3164,-7.8125 -5.3399,-12.5703 -10.1485,-25.3281 -14.8086,-38.1523 -4.0039,-13.0703 -8.2656,-26.0508 -12.293,-39.1211 -2.4062,-7.8008 -4.789,-15.6094 -7.1445,-23.4297 -1.9453,-6.4531 -4.1641,-12.7539 -5.6992,-19.332 -0.9883,-4.2383 -1.9688,-8.4219 -3.2383,-12.5821 -1.2266,-4.0312 -2.5078,-8.0429 -3.793,-12.0585 -2.3203,-7.254 -4.375,-14.6836 -6.2187,-22.0704 -3.6563,-14.6328 -7.4571,-29.2226 -10.8008,-43.9336 -1.2227,-6.7578 -2.5078,-13.5 -3.8711,-20.2343 -1.2344,-6.0782 -1.9336,-12.2032 -2.5195,-18.3594 -0.5,-14.0859 -0.5157,-28.1758 -0.5274,-42.2734 -0.004,-7.2032 -0.004,-14.4063 -0.004,-21.6094 0,-7.8438 -0.168,-15.7188 0.0938,-23.5664 0.2539,-2.2891 0.582,-4.5703 0.9687,-6.8399 1.168,-4.8086 2.5977,-9.5351 4.0742,-14.2578 2.0899,-5.3515 4.3125,-10.5976 6.7344,-15.7929 1.1445,-1.9375 2.2891,-3.879 3.4688,-5.793 0.2265,-0.3008 0.457,-0.5977 0.6914,-0.8945 0.8671,-0.8829 1.7539,-1.75 2.6562,-2.6016 1.7227,-1.418 3.4844,-2.793 5.2774,-4.1211 1.1914,-0.7148 2.3945,-1.3984 3.6171,-2.0586 3.5977,-1.6914 7.2461,-3.2734 10.9571,-4.6992 2.6133,-0.8399 5.2383,-1.6524 7.8476,-2.5039 8.1367,-2.6446 16.2422,-5.2188 24.4766,-7.543 7.2539,-2.0469 14.5508,-3.9336 21.8125,-5.957 7.9414,-2.2149 15.8398,-4.586 23.8008,-6.7422 6.5312,-1.7656 13.1133,-3.3281 19.707,-4.8555 0.5039,-0.082 1.0117,-0.164 1.5234,-0.2383 8.1993,-1.2148 16.2422,-2.9414 23.7969,-6.4921 3.332,-1.5665 6.625,-3.2149 9.9492,-4.7969 6.4961,-3.0821 12.8672,-6.418 19.2461,-9.7266 3.1563,-1.3945 6.2969,-2.6914 9.5078,-3.914 9.1563,-3.0079 18.3047,-5.8204 27.6524,-8.1797 2.1055,-0.3243 4.2031,-0.6133 6.3203,-0.8633 23.8516,-0.8164 47.7695,-0.3633 71.625,-0.3633 32.375,0 64.75,0 97.125,0 16.6523,0 33.3047,0 49.9531,0 8.2696,0 16.5352,0 24.8047,0 7.4492,0 14.9219,-0.1055 22.3672,0.1758 2.2226,0.2344 4.4297,0.5312 6.6328,0.8984 9.6016,2.2735 19,5.3711 28.3945,8.3633 4.2657,1.3594 8.6016,2.4727 12.8633,3.8438 4.1992,1.3515 8.4063,2.6718 12.6211,3.9843 4.0313,1.4805 8.0469,3 12.0703,4.5235 7.8008,2.9531 15.5899,5.914 23.4531,8.7031 10.0469,3.5625 20.2227,6.5078 30.4766,9.3945 7.5625,2.1289 15.2734,3.6524 22.8281,5.8203 9.8204,2.8203 19.5977,5.1485 29.6602,7.0235 7.7539,1.4453 16.5547,0.4765 24.0937,-1.5977 7.4961,-2.0625 14.5625,-5.6015 20.7149,-10.3555 12.375,-9.5664 20.6797,-23.8515 22.7851,-39.3593 2.1563,-15.8399 -2.1757,-32.1563 -11.9531,-44.8047 -4.7031,-6.086 -10.5781,-11.2578 -17.2148,-15.1445 -5.461,-3.1993 -11.0742,-5.1641 -17.0313,-6.5704 0.0039,0 0.0117,0 0.0157,0 -0.0079,0 -0.0118,0 -0.0196,-0.004 -1.1133,-0.2617 -2.2383,-0.5039 -3.375,-0.7343 -4.0898,-0.9258 -8.1406,-1.9727 -12.1797,-3.1329 -5.375,-1.5429 -10.7343,-2.9414 -16.1679,-4.2578 -10.4727,-2.5429 -20.8164,-5.5039 -31.0977,-8.7148 -10.7695,-3.9531 -21.4219,-8.2149 -32.2305,-12.0625 -14.7382,-5.2461 -29.7578,-9.5117 -44.6562,-14.2578 -7.3867,-2.3555 -14.8516,-4.7852 -22.4297,-6.4688 -8.0859,-1.7968 -16.2461,-3.6718 -24.5352,-4.2422 -5.414,-0.3711 -10.8164,-0.8281 -16.2421,-0.9062 -4.3789,-0.0625 -8.7579,-0.1172 -13.1368,-0.1172 -16.5273,0 -33.0586,0 -49.5898,0 -32.543,0 -65.0898,0 -97.6328,0 -32.3711,0 -64.7735,-0.3828 -97.1367,0.1719 -10.6368,0.1836 -21.2305,0.8437 -31.7071,2.6797 -10.3476,1.8125 -20.4336,4.625 -30.4843,7.625 -3.543,1.0586 -7.0274,2.3593 -10.5313,3.5351 -4.0937,1.3711 -8.1836,2.75 -12.2383,4.2266 -1.875,0.6797 -3.8515,1.2461 -5.6679,2.0664 -9.0743,4.0859 -17.9063,8.6406 -26.7149,13.2461 -1.6914,0.8555 -3.3906,1.707 -5.1015,2.5195 -4.3008,0.8047 -8.5821,1.6992 -12.8438,2.6797 -3.4687,0.7969 -6.9219,1.6523 -10.3867,2.457 -8.2031,1.9063 -16.2774,4.3282 -24.3633,6.6719 -7.8398,2.2734 -15.7344,4.3672 -23.6211,6.4805 -7.0781,1.8945 -14.1523,3.8359 -21.1172,6.0976 -5.3984,1.7539 -10.7929,3.5196 -16.2031,5.2305 -15.1836,4.793 -30.0859,10.5664 -43.8984,18.5781 -6.6993,3.8789 -13.1797,8.3555 -19.1758,13.2696 -5.7071,4.6718 -11.5039,9.4921 -16.4571,14.9843 -6.6679,7.3946 -12.6953,14.8125 -17.8046,23.418 -1.1016,1.8633 -2.2071,3.7227 -3.3125,5.5859 -2.1289,3.5899 -3.8516,7.4024 -5.7188,11.1368 -0.8164,1.6367 -1.7187,3.2578 -2.4492,4.9414 -1.6602,3.8203 -3.3477,7.6132 -4.8203,11.5078 -6.1016,16.1484 -11.2891,32.6562 -13.7188,49.8047 -2.0351,14.3515 -1.6992,28.8554 -1.6992,43.3086 0,16.0078 -0.0156,32.0156 0.0899,48.0234 0.0703,10.4961 0.4726,21.0039 1.414,31.4609 0.7539,8.3555 2.0078,16.5039 3.6758,24.7227 1.9766,9.7383 3.5469,19.543 5.6836,29.25 1.7187,7.7969 3.6094,15.543 5.5703,23.2812 4.1172,16.2266 8.043,32.4922 13.1445,48.4414 1.2774,3.9883 2.4883,7.9961 3.711,12 1.0742,3.5313 1.6484,7.2383 2.5898,10.8125 2.2031,8.336 4.9453,16.5 7.4336,24.7579 4.5586,15.1289 9.5899,30.1054 14.1914,45.2187 3.3086,10.8633 7.0274,21.5391 10.8711,32.2266 2.8633,7.9531 6.0977,15.7656 9.2227,23.6172 5.9648,14.9843 12.5703,29.746 18.9062,44.5781 7.168,16.7734 14.6289,33.4375 23.2188,49.5351 1.8203,3.4102 3.4687,7.0078 5.5273,10.2852 2.1875,3.4805 4.4297,6.9414 6.5703,10.4531 3.3399,5.4922 6.5938,10.9845 9.6602,16.6095 1.0351,2.3631 2.0625,4.7304 3.0429,7.117 1.6368,4 3.75,7.797 6.2579,11.3165 -0.2149,1.5039 -0.418,3.0078 -0.6094,4.5117 -0.5781,4.5313 -1.211,9.0547 -1.7578,13.5938 -0.3008,2.4804 -0.4922,4.9726 -0.6914,7.4648 -0.9375,4.7305 -1.4141,9.5234 -1.2266,14.2734 0.3203,8.1446 1.5195,15.7969 4.7148,23.3555 2.0235,4.7734 4.6172,9.207 7.7891,13.3086 7.9024,10.2305 19.0781,17.7617 31.5469,21.1953 12.9258,3.5547 26.9531,2.6484 39.3047,-2.5742 12.0351,-5.0859 21.6601,-13.9297 28.4531,-25 1.9219,-3.1328 3.4297,-6.4024 4.6211,-9.7695 1.0391,-0.1211 2.0859,-0.2266 3.1328,-0.3243 4.3633,-0.1796 8.7383,-0.207 13.1094,-0.0625 2.1914,0.2461 4.375,0.5586 6.5508,0.9297 3.6367,0.8555 7.2304,1.836 10.7968,2.9453 4.8321,1.8789 9.5352,4.0079 14.2383,6.1836 2.9961,1.6289 5.9844,3.2696 8.9063,5.0352 0.6015,0.4609 1.1992,0.9297 1.789,1.4062 1.9297,1.8555 3.793,3.7657 5.6446,5.6954 3.2304,3.8789 6.414,7.7929 9.4961,11.789 1.3632,2.2305 2.6796,4.4844 4.0351,6.7305 4.4102,7.3008 10.2734,14.293 17.3008,19.2109 5.7734,4.0391 7.8672,5.2813 14.2461,8.3125 3.0703,1.4571 6.3047,2.4102 9.543,3.5039 6.1406,2.0664 12.6289,3.2071 18.9843,4.3438 8.2305,1.4726 16.5039,2.7265 24.7305,4.2344 10.1523,1.8593 20.3086,3.6992 30.4766,5.4843 8.3906,1.4727 16.7656,3.168 25.1953,4.3907 7.6836,1.1132 15.3515,2.2617 23.0195,3.4492 0,0 -580.7891,0 -580.7891,0 0,0 0,-1180.7735 0,-1180.7735 0,0 1180.7735,0 1180.7735,0 z"
               style="fill:#ffffff;fill-opacity:0;fill-rule:nonzero;stroke:none"
               id="path26" /></g><g
             id="g28"
             transform="translate(117.1406,339.2187)"><path
               d="m 0,0 c 0,0 0.0547,-0.0117 0.0547,-0.0117 0,0 -0.0547,0.0078 -0.0547,0.0078 0,0 -0.0547,0 -0.0547,0 0,0 -0.0547,0 -0.0547,0 0,0 -0.0468,0 -0.0468,0 0,0 -0.0469,0 -0.0469,0 0,0 -0.0352,0 -0.0352,0 0,0 -0.0117,0 -0.0117,0 0,0 -0.0078,0 -0.0078,0 0,0 -5.8203,-0.2031 -5.8203,-0.2031 0,0 -5.6485,-3.5977 -5.6485,-3.5977 0,0 0,0.0039 0,0.0039 0,0 5.6446,3.5977 5.6446,3.5977 0,0 5.8242,0.2031 5.8242,0.2031 0,0 0.0078,0 0.0078,0 0,0 0.0078,0 0.0078,0 0,0 0.0391,0 0.0391,0 0,0 0.0469,0 0.0469,0 0,0 0.0429,0 0.0429,0 0,0 0.0586,0 0.0586,0 C -0.0547,0 0,0 0,0 Z m 126.707,13.2305 c 0,0 0,-0.0039 0,-0.0039 0,0 -27.1679,22.5273 -27.1679,22.5273 0,0 -0.0078,0 -0.0078,0 0,0 -0.0196,0.0117 -0.0196,0.0117 0,0 -0.0273,0.0157 -0.0273,0.0157 0,0 -0.0469,0.0273 -0.0469,0.0273 0,0 -0.0469,0.0312 -0.0469,0.0312 0,0 0.0469,-0.0273 0.0469,-0.0273 0,0 0.0469,-0.0273 0.0469,-0.0273 0,0 0.0273,-0.0196 0.0273,-0.0196 0,0 0.0196,-0.0078 0.0196,-0.0078 0,0 0.0078,0 0.0078,0 0,0 27.1679,-22.5273 27.1679,-22.5273 z m -1.8007,-154.2461 c 0,0 6.7499,0.1679 6.7499,0.1679 0,0 -6.7499,-0.1718 -6.7499,-0.1718 -0.0118,0 -0.0196,0 -0.0313,0 -0.0195,0 -0.0391,-0.004 -0.0586,-0.004 0,0 -0.6523,-0.0157 -0.6523,-0.0157 0,0 -2.0743,-0.1093 -2.0743,-0.1093 0,0 -0.0156,-0.0196 -0.0156,-0.0196 0,0 0,-0.004 0,-0.004 0,0 -0.004,0 -0.004,0 -0.3398,-0.0195 -0.6797,-0.0429 -1.0195,-0.0625 -0.3242,-0.0234 -0.6445,-0.0468 -0.9649,-0.0703 -0.3203,-0.0234 -0.6406,-0.0469 -0.9648,-0.0742 -0.3125,-0.0273 -0.6289,-0.0547 -0.9414,-0.082 0.1328,0.0156 0.2695,0.0273 0.4023,0.039 0.0352,0.004 0.0743,0.008 0.1094,0.0117 0.1406,0.0118 0.2852,0.0235 0.4297,0.0313 0.1719,0.0156 0.3437,0.0312 0.5156,0.043 0.1485,0.0117 0.3008,0.0234 0.4492,0.0312 0.2579,0.0235 0.5118,0.043 0.7696,0.0586 0.0664,0.004 0.1289,0.008 0.1953,0.0117 0.3203,0.0235 0.6406,0.043 0.9609,0.0625 0.0196,0 0.043,0.004 0.0625,0.004 0,0 0.0117,0.0196 0.0117,0.0196 0,0 0.004,0 0.004,0 0,0 2.0743,0.1132 2.0743,0.1132 0,0 0.7031,0.0196 0.7031,0.0196 0.0117,0 0.0273,0 0.0391,0 z m 214.6328,55.5234 c 0,1.2422 -0.0118,2.4805 -0.0352,3.7149 -0.004,0.3476 -0.0117,0.6953 -0.0234,1.0429 0,0.1016 0,0.2071 -0.008,0.3125 -0.008,0.3516 -0.0196,0.7031 -0.0313,1.0547 0.004,0.0586 0,0.1172 -0.004,0.1758 -0.0508,1.6016 -0.1211,3.1992 -0.2188,4.793 -0.0195,0.3906 -0.0429,0.7812 -0.0703,1.1679 0,0.0391 -0.004,0.0821 -0.008,0.1211 -0.0273,0.3828 -0.0508,0.7696 -0.0781,1.1524 -0.0586,0.8632 -0.125,1.7226 -0.1992,2.582 -0.1016,1.1641 -0.211,2.3281 -0.3281,3.4922 -0.0821,0.8047 -0.168,1.6094 -0.2657,2.414 -0.0468,0.4024 -0.0937,0.8008 -0.1445,1.2032 -0.0977,0.8008 -0.2031,1.6015 -0.3086,2.3984 -0.3281,2.3984 -0.6953,4.7813 -1.1094,7.1484 -0.0664,0.3946 -0.1367,0.7891 -0.2109,1.1836 -0.2149,1.1797 -0.4414,2.3594 -0.6758,3.5313 -0.0742,0.3945 -0.1562,0.7851 -0.2422,1.1758 -0.0781,0.3906 -0.1601,0.7773 -0.2461,1.1679 -0.4961,2.3399 -1.0429,4.6641 -1.6328,6.9688 -0.293,1.1523 -0.5976,2.3047 -0.9101,3.4492 -0.211,0.7617 -0.4258,1.5234 -0.6446,2.2852 -0.3281,1.1367 -0.6679,2.2734 -1.0156,3.4062 -0.3477,1.1211 -0.7031,2.2422 -1.0703,3.3555 -0.2461,0.7539 -0.5,1.5078 -0.7617,2.2617 -0.125,0.375 -0.2539,0.7461 -0.3867,1.1172 -0.2579,0.7422 -0.5196,1.4805 -0.793,2.2187 -0.4063,1.1094 -0.8203,2.211 -1.2422,3.3125 -0.1367,0.3672 -0.2813,0.7305 -0.4258,1.0938 -0.2851,0.7305 -0.5742,1.457 -0.875,2.1836 -0.1445,0.3672 -0.293,0.7305 -0.4453,1.0898 -0.3008,0.7227 -0.6055,1.4453 -0.9141,2.1641 -0.3086,0.7187 -0.6211,1.4375 -0.9375,2.1523 -0.207,0.4688 -0.4179,0.9375 -0.6289,1.4063 -1.2734,2.8047 -2.6093,5.5742 -4.0117,8.3086 -0.2344,0.457 -0.4687,0.9101 -0.707,1.3633 -0.2695,0.5195 -0.543,1.0351 -0.8203,1.5507 -0.3672,0.6875 -0.7383,1.375 -1.1133,2.0586 -0.7539,1.3633 -1.5195,2.7227 -2.3047,4.0664 -0.3906,0.6758 -0.7891,1.3438 -1.1875,2.0118 -0.3984,0.6679 -0.8047,1.3359 -1.2109,2 -0.4102,0.6601 -0.8203,1.3242 -1.2344,1.9804 -1.25,1.9727 -2.5313,3.9258 -3.8477,5.8555 -0.4375,0.6406 -0.8828,1.2813 -1.3281,1.918 -0.8945,1.2734 -1.8008,2.539 -2.7226,3.789 -0.4336,0.586 -0.8672,1.1719 -1.3086,1.7539 -1.3164,1.7461 -2.6641,3.4727 -4.0391,5.1758 -0.6094,0.7578 -1.2266,1.5117 -1.8516,2.2578 -0.9922,1.1993 -2.0039,2.3828 -3.0312,3.5547 -0.5117,0.586 -1.0274,1.1719 -1.5469,1.75 -1.0391,1.1602 -2.0937,2.3125 -3.1562,3.4492 -1.0704,1.1368 -2.1485,2.2618 -3.2422,3.375 -0.543,0.5586 -1.0938,1.1133 -1.6485,1.6602 -1.2812,1.2734 -2.5781,2.5312 -3.8906,3.7656 -0.875,0.8242 -1.7578,1.6406 -2.6484,2.4531 -2.2305,2.0235 -4.5078,4.004 -6.8321,5.9336 -0.6953,0.5782 -1.3984,1.1524 -2.1054,1.7188 -0.7032,0.5703 -1.4102,1.1367 -2.125,1.6953 -3.5938,2.8203 -7.2891,5.5273 -11.0821,8.1094 -0.3476,0.2383 -0.6953,0.4765 -1.0468,0.707 -2.3946,1.6094 -4.8282,3.1719 -7.293,4.6797 -1.5586,0.9531 -3.1289,1.8867 -4.7148,2.8008 -5.293,3.0469 -10.7383,5.8633 -16.3282,8.4453 -0.5586,0.2578 -1.1172,0.5117 -1.6797,0.7656 -0.3593,0.1641 -0.7226,0.3242 -1.0859,0.4844 -0.3437,0.1523 -0.6875,0.3047 -1.0312,0.4531 -2.1172,0.9258 -4.254,1.8203 -6.4102,2.6758 -0.1094,0.043 -0.2227,0.0859 -0.332,0.1328 -23.9219,9.6016 -50.1641,14.9024 -77.6836,14.9024 -111.8399,0 -202.5039,-87.5274 -202.5039,-195.5001 0,-81.6484 51.8437,-151.6015 125.4804,-180.8632 0.1602,-0.0625 0.3164,-0.125 0.4766,-0.1875 23.8828,-9.5703 50.0742,-14.8477 77.543,-14.8477 1.9179,0 3.8281,0.0274 5.7343,0.0781 0.6993,0.0157 1.3985,0.0391 2.0938,0.0664 0.4336,0.0157 0.8633,0.0313 1.2969,0.0508 0.4297,0.0196 0.8554,0.0391 1.2812,0.0586 0.1445,0.008 0.2852,0.0156 0.4258,0.0196 0.3555,0.0195 0.707,0.039 1.0625,0.0585 1.2305,0.0704 2.4609,0.1485 3.6836,0.2383 0.4297,0.0313 0.8555,0.0625 1.2851,0.0977 3.5625,0.2851 7.0977,0.6562 10.6055,1.1172 0.4297,0.0547 0.8555,0.1133 1.2852,0.1718 0.2812,0.0391 0.5625,0.0782 0.8398,0.1172 0.836,0.1172 1.668,0.2383 2.5,0.3672 1.6719,0.2578 3.3399,0.5352 4.9961,0.8321 0.3516,0.0585 0.7031,0.125 1.0508,0.1875 1.3086,0.2421 2.6094,0.496 3.9023,0.7578 0.3477,0.0703 0.6914,0.1406 1.0391,0.2148 0.2852,0.0586 0.5664,0.1211 0.8477,0.1797 0.4179,0.0898 0.832,0.1797 1.246,0.2695 0.4141,0.0899 0.8282,0.1836 1.2422,0.2774 2.8985,0.6562 5.7735,1.375 8.6211,2.1484 0.3516,0.0938 0.7032,0.1914 1.0508,0.2891 0.1836,0.0508 0.3633,0.1015 0.5469,0.1523 0.3984,0.1094 0.7969,0.2227 1.1953,0.3399 0.4648,0.1328 0.9297,0.2695 1.3906,0.4023 0.3321,0.0977 0.6641,0.1953 0.9922,0.2969 3.1719,0.9531 6.3086,1.9765 9.4102,3.0742 0.3867,0.1328 0.7734,0.2734 1.1601,0.4141 0.7383,0.2617 1.4727,0.5312 2.2031,0.8046 1.9727,0.7383 3.9297,1.504 5.8711,2.2969 0.6485,0.2656 1.293,0.5313 1.9336,0.8047 0.2071,0.082 0.4102,0.168 0.6133,0.2578 0.4883,0.2031 0.9766,0.4141 1.461,0.625 0.3593,0.1524 0.7187,0.3125 1.0742,0.4727 0.3867,0.1679 0.7734,0.3359 1.1601,0.5156 0.3086,0.1328 0.6172,0.2734 0.9219,0.4141 0.4688,0.207 0.9336,0.4218 1.3984,0.6406 0.2813,0.1289 0.5586,0.2578 0.8399,0.3906 0.4414,0.2031 0.8828,0.4141 1.3203,0.625 0.3867,0.1797 0.7734,0.3672 1.1602,0.5586 0.2734,0.1289 0.5429,0.2617 0.8125,0.3945 0.4804,0.2344 0.957,0.4688 1.4335,0.711 0.3086,0.1523 0.6172,0.3047 0.9258,0.4648 0.3321,0.168 0.6641,0.336 0.9961,0.5078 0.4492,0.2266 0.8985,0.461 1.3438,0.6953 0.2226,0.1133 0.4453,0.2305 0.6679,0.3516 0.5079,0.2656 1.0157,0.5352 1.5235,0.8125 0.1875,0.0977 0.3789,0.1992 0.5664,0.3047 0.5664,0.3047 1.1328,0.6133 1.6953,0.9297 0.0859,0.0469 0.1719,0.0937 0.2539,0.1406 0.5547,0.3086 1.1094,0.6172 1.6602,0.9336 0.4101,0.2305 0.8164,0.4648 1.2187,0.6992 0.2266,0.1289 0.4531,0.2578 0.6758,0.3946 0.4453,0.2578 0.8906,0.5195 1.3359,0.7851 0.2813,0.1641 0.5625,0.3281 0.8399,0.5 0.4023,0.2383 0.8008,0.4766 1.1953,0.7227 0.3281,0.1953 0.6562,0.3984 0.9805,0.5976 0.6171,0.3789 1.2304,0.7617 1.8437,1.1524 0.5898,0.3711 1.1758,0.7461 1.7578,1.125 0.1016,0.0625 0.2031,0.1289 0.3047,0.1992 0.5938,0.3789 1.1797,0.7656 1.7656,1.1562 0.0821,0.0469 0.1602,0.1016 0.2383,0.1563 0.5195,0.3437 1.0352,0.6914 1.5469,1.043 0.2031,0.1328 0.4062,0.2695 0.6094,0.414 0.6132,0.4141 1.2226,0.836 1.8281,1.2617 0,0 0.004,0.004 0.004,0.004 0.668,0.4649 1.332,0.9336 1.9922,1.4141 0.6094,0.4336 1.2148,0.875 1.8164,1.3203 0.0703,0.0469 0.1406,0.1016 0.2109,0.1524 0.543,0.4023 1.0821,0.8046 1.6211,1.2148 0.1133,0.0781 0.2305,0.1641 0.3438,0.2539 0.625,0.4727 1.25,0.9531 1.8711,1.4336 0.6445,0.4961 1.2812,1 1.9179,1.5039 0.4766,0.375 0.9492,0.7539 1.418,1.1367 0.7891,0.6328 1.5781,1.2813 2.3555,1.9336 1.2461,1.0391 2.4804,2.0938 3.6992,3.1602 0.0469,0.039 0.0976,0.082 0.1445,0.125 1.7774,1.5586 3.5274,3.1484 5.2461,4.7734 0.5859,0.5547 1.1719,1.1133 1.7539,1.6719 0.582,0.5586 1.1602,1.1211 1.7344,1.6953 0.5664,0.5586 1.1289,1.1211 1.6875,1.6875 2.707,2.7383 5.332,5.5547 7.8711,8.4453 0.5078,0.5781 1.0117,1.1602 1.5117,1.7422 0.3789,0.4414 0.7539,0.8828 1.125,1.3242 0.6289,0.7305 1.2383,1.4688 1.8398,2.211 0.4883,0.5937 0.9727,1.1914 1.4532,1.7929 0.4804,0.6016 0.957,1.2032 1.4297,1.8086 0.9453,1.211 1.8789,2.4336 2.7929,3.668 0.461,0.6172 0.9141,1.2383 1.3672,1.8594 0.4492,0.6211 0.8985,1.2461 1.3438,1.875 0.4414,0.625 0.8828,1.2578 1.3203,1.8906 0.4375,0.6289 0.8672,1.2656 1.2969,1.9023 0.4296,0.6407 0.8554,1.2813 1.2773,1.9219 0.4219,0.6445 0.8398,1.2891 1.2539,1.9375 0.4141,0.6484 0.8242,1.2969 1.2305,1.9492 1.2187,1.961 2.4023,3.9414 3.5547,5.9414 0.3828,0.668 0.7617,1.3399 1.1367,2.0118 0.375,0.6718 0.7461,1.3476 1.1133,2.0234 0.7343,1.3555 1.4531,2.7187 2.1562,4.0898 0.4375,0.8516 0.8672,1.7071 1.2891,2.5664 0.9531,1.9297 1.8789,3.8829 2.7656,5.8516 0.2969,0.6563 0.5898,1.3125 0.8789,1.9727 0.008,0.0234 0.0195,0.0429 0.0273,0.0664 0.6172,1.4179 1.2227,2.8437 1.8086,4.2773 0.586,1.4336 1.1524,2.875 1.7071,4.3242 0.5508,1.4492 1.0859,2.9063 1.6015,4.3711 0.2618,0.7305 0.5157,1.4649 0.7618,2.2031 0.25,0.7383 0.496,1.4766 0.7382,2.2188 0.4805,1.4805 0.9453,2.9687 1.3907,4.4648 0.2226,0.7461 0.4414,1.4961 0.6562,2.2461 0.4805,1.6914 0.9375,3.3946 1.375,5.1016 0.1445,0.5703 0.2891,1.1406 0.4258,1.7109 0.1875,0.7618 0.3711,1.5274 0.5469,2.293 0.5312,2.2969 1.0234,4.6055 1.4687,6.9336 0.008,0.0273 0.0117,0.0508 0.0156,0.0781 0.2891,1.5274 0.5625,3.0586 0.8204,4.5977 0.2578,1.5625 0.5,3.1328 0.7226,4.707 0.1094,0.7891 0.2149,1.5781 0.3164,2.3672 0.1016,0.793 0.1953,1.5859 0.2891,2.3789 0.0898,0.793 0.1758,1.5898 0.2578,2.3867 0.6484,6.3711 0.9805,12.832 0.9805,19.3711 z"
               style="fill:#6d4f32;fill-opacity:1;fill-rule:nonzero;stroke:none"
               id="path30" /></g><g
             id="g32"
             transform="translate(277.2041,278.6326)"><path
               d="m 0,0 c 0,0 72.4063,0 72.4063,0 0,0 0,-57.2656 0,-57.2656 0,0 0,57.2656 0,57.2656 C 72.4063,0 0,0 0,0 Z"
               style="fill:#6d4f32;fill-opacity:1;fill-rule:nonzero;stroke:none"
               id="path34" /></g><g
             id="g36"
             transform="translate(150.3916,278.6326)"><path
               d="M 0,0 C 0,0 126.8086,0 126.8086,0 126.8086,0 0,0 0,0 Z"
               style="fill:#6d4f32;fill-opacity:1;fill-rule:nonzero;stroke:none"
               id="path38" /></g><g
             id="g40"
             transform="translate(277.2021,278.6331)"><path
               d="m 0,0 c -0.0117,-0.2031 -0.0195,-0.4062 -0.0234,-0.6133 0.0039,0.2031 0.0117,0.4102 0.0195,0.6133 0,0 -126.8086,0 -126.8086,0 0,0 0,-57.2656 0,-57.2656 0,0 199.2188,0 199.2188,0 0,0 0,57.2656 0,57.2656 C 72.4063,0 0,0 0,0 Z"
               style="fill:#ffffff;fill-opacity:1;fill-rule:nonzero;stroke:none"
               id="path42" /></g></g></g></g></g></svg>
