<?xml version="1.0" encoding="UTF-8" standalone="no"?>
<!-- Created with Inkscape (http://www.inkscape.org/) -->

<svg
   version="1.1"
   id="svg1746"
   xml:space="preserve"
   width="666.66669"
   height="666.66669"
   viewBox="0 0 666.66669 666.66669"
   sodipodi:docname="icon_korppu_ohut.svg"
   inkscape:version="1.1.1 (3bf5ae0d25, 2021-09-20)"
   xmlns:inkscape="http://www.inkscape.org/namespaces/inkscape"
   xmlns:sodipodi="http://sodipodi.sourceforge.net/DTD/sodipodi-0.dtd"
   xmlns="http://www.w3.org/2000/svg"
   xmlns:svg="http://www.w3.org/2000/svg"><defs
     id="defs1750"><clipPath
       clipPathUnits="userSpaceOnUse"
       id="clipPath1762"><path
         d="M 46.7539,54.0508 H 453.246 V 445.949 H 46.7539 Z"
         id="path1760" /></clipPath></defs><sodipodi:namedview
     id="namedview1748"
     pagecolor="#ffffff"
     bordercolor="#111111"
     borderopacity="1"
     inkscape:pageshadow="0"
     inkscape:pageopacity="0"
     inkscape:pagecheckerboard="1"
     showgrid="false"
     inkscape:zoom="1.293"
     inkscape:cx="332.94665"
     inkscape:cy="333.72004"
     inkscape:window-width="1920"
     inkscape:window-height="1051"
     inkscape:window-x="-9"
     inkscape:window-y="-9"
     inkscape:window-maximized="1"
     inkscape:current-layer="g1752" /><g
     id="g1752"
     inkscape:groupmode="layer"
     inkscape:label="icon_korppu_ohut"
     transform="matrix(1.3333333,0,0,-1.3333333,0,666.66667)"><g
       id="g1754"
       transform="matrix(1,0,0,-1,0,500)"><g
         id="g1756"><g
           id="g1758"
           clip-path="url(#clipPath1762)"><g
             id="g1764"
             transform="translate(250.4961,54.3008)"><path
               d="M 0,0 C 111.8359,0 202.5,87.5273 202.5,195.5 202.5,303.4727 111.8359,391 0,391 -111.8359,391 -202.5,303.4727 -202.5,195.5 -202.5,87.5273 -111.8359,0 0,0 Z"
               style="fill:#324c6d;fill-opacity:1;fill-rule:nonzero;stroke:none"
               id="path1766" /></g><g
             id="g1768"
             transform="translate(79.9325,333.8038)"><path
               d="m 0,0 c 0,0 -0.1562,-0.1992 -0.1562,-0.1992 0,0 -0.1563,-0.1992 -0.1563,-0.1992 0,0 -0.1602,-0.2032 -0.1602,-0.2032 0,0 -0.1562,-0.1992 -0.1562,-0.1992 0,0 -0.1563,-0.1914 -0.1563,-0.1914 0,0 -0.1523,-0.1914 -0.1523,-0.1914 0,0 -0.1484,-0.1875 -0.1484,-0.1875 0,0 -0.1524,-0.1875 -0.1524,-0.1875 0,0 -0.1484,-0.1875 -0.1484,-0.1875 0,0 -0.1485,-0.1875 -0.1485,-0.1875 0,0 -0.1445,-0.1797 -0.1445,-0.1797 0,0 -0.1406,-0.1797 -0.1406,-0.1797 0,0 -0.1406,-0.1757 -0.1406,-0.1757 0,0 -0.1407,-0.1797 -0.1407,-0.1797 0,0 -0.1406,-0.1836 -0.1406,-0.1836 0,0 -0.1406,-0.1914 -0.1406,-0.1914 0,0 -0.1406,-0.1914 -0.1406,-0.1914 0,0 -0.1368,-0.1914 -0.1368,-0.1914 0,0 -0.1406,-0.2071 -0.1406,-0.2071 0,0 -0.1406,-0.2187 -0.1406,-0.2187 0,0 -0.1445,-0.2305 -0.1445,-0.2305 0,0 -0.1407,-0.2422 -0.1407,-0.2422 0,0 -0.1406,-0.2578 -0.1406,-0.2578 0,0 -0.1406,-0.2695 -0.1406,-0.2695 0,0 -0.1367,-0.2813 -0.1367,-0.2813 0,0 -0.1328,-0.2969 -0.1328,-0.2969 0,0 -0.1289,-0.3046 -0.1289,-0.3046 0,0 -0.125,-0.3125 -0.125,-0.3125 0,0 -0.1211,-0.3164 -0.1211,-0.3164 0,0 -0.1172,-0.3125 -0.1172,-0.3125 0,0 -0.1133,-0.3204 -0.1133,-0.3204 0,0 -0.1094,-0.3203 -0.1094,-0.3203 0,0 -0.1094,-0.3242 -0.1094,-0.3242 0,0 -0.1054,-0.3164 -0.1054,-0.3164 0,0 -0.0977,-0.3164 -0.0977,-0.3164 0,0 -0.0976,-0.3125 -0.0976,-0.3125 0,0 -0.0977,-0.3203 -0.0977,-0.3203 0,0 -0.0937,-0.3242 -0.0937,-0.3242 0,0 -0.0938,-0.3321 -0.0938,-0.3321 0,0 -0.0937,-0.332 -0.0937,-0.332 0,0 -0.0899,-0.3359 -0.0899,-0.3359 0,0 -0.0898,-0.3399 -0.0898,-0.3399 0,0 -0.086,-0.3437 -0.086,-0.3437 0,0 -0.082,-0.336 -0.082,-0.336 0,0 -0.082,-0.3359 -0.082,-0.3359 0,0 -0.0821,-0.3203 -0.0821,-0.3203 0,0 -0.0781,-0.3125 -0.0781,-0.3125 0,0 -0.0742,-0.2969 -0.0742,-0.2969 0,0 -0.0742,-0.2891 -0.0742,-0.2891 0,0 -0.0742,-0.2773 -0.0742,-0.2773 0,0 -0.0704,-0.2695 -0.0704,-0.2695 0,0 -0.0742,-0.25 -0.0742,-0.25 0,0 -0.0703,-0.2461 -0.0703,-0.2461 0,0 -0.0742,-0.2305 -0.0742,-0.2305 0,0 -0.0703,-0.2226 -0.0703,-0.2226 0,0 -0.0742,-0.2188 -0.0742,-0.2188 0,0 -0.0743,-0.207 -0.0743,-0.207 0,0 -0.0703,-0.1953 -0.0703,-0.1953 0,0 -0.0781,-0.1914 -0.0781,-0.1914 0,0 -0.0742,-0.1836 -0.0742,-0.1836 0,0 -0.0781,-0.1836 -0.0781,-0.1836 0,0 -0.0821,-0.1758 -0.0821,-0.1758 0,0 -0.082,-0.1758 -0.082,-0.1758 0,0 -0.082,-0.168 -0.082,-0.168 0,0 -0.0821,-0.1679 -0.0821,-0.1679 0,0 -0.0898,-0.168 -0.0898,-0.168 0,0 -0.0899,-0.168 -0.0899,-0.168 0,0 -0.0898,-0.1719 -0.0898,-0.1719 0,0 -0.0977,-0.1679 -0.0977,-0.1679 0,0 -0.0937,-0.1719 -0.0937,-0.1719 0,0 -0.0977,-0.1719 -0.0977,-0.1719 0,0 -0.1015,-0.1797 -0.1015,-0.1797 0,0 -0.0977,-0.1796 -0.0977,-0.1796 0,0 -0.1054,-0.1875 -0.1054,-0.1875 0,0 -0.1055,-0.1915 -0.1055,-0.1915 0,0 -0.1055,-0.1875 -0.1055,-0.1875 0,0 -0.1055,-0.1914 -0.1055,-0.1914 0,0 -0.1054,-0.1914 -0.1054,-0.1914 0,0 -0.1055,-0.1914 -0.1055,-0.1914 0,0 -0.1055,-0.1914 -0.1055,-0.1914 0,0 -0.1054,-0.1914 -0.1054,-0.1914 0,0 -0.1055,-0.1875 -0.1055,-0.1875 0,0 -0.1016,-0.1836 -0.1016,-0.1836 0,0 -0.1015,-0.1797 -0.1015,-0.1797 0,0 -0.1016,-0.1797 -0.1016,-0.1797 0,0 -0.0976,-0.1679 -0.0976,-0.1679 0,0 -0.0938,-0.168 -0.0938,-0.168 0,0 -0.0937,-0.1601 -0.0937,-0.1601 0,0 -0.0938,-0.1602 -0.0938,-0.1602 0,0 -0.0937,-0.1602 -0.0937,-0.1602 0,0 -0.0899,-0.1601 -0.0899,-0.1601 0,0 -0.0937,-0.1563 -0.0937,-0.1563 0,0 -0.0899,-0.164 -0.0899,-0.164 0,0 -0.0937,-0.1641 -0.0937,-0.1641 0,0 -0.0938,-0.168 -0.0938,-0.168 0,0 -0.0937,-0.1796 -0.0937,-0.1796 0,0 -0.0977,-0.1875 -0.0977,-0.1875 0,0 -0.0937,-0.1954 -0.0937,-0.1954 0,0 -0.0977,-0.2031 -0.0977,-0.2031 0,0 -0.0976,-0.2109 -0.0976,-0.2109 0,0 -0.0938,-0.2149 -0.0938,-0.2149 0,0 -0.0898,-0.2304 -0.0898,-0.2304 0,0 -0.0899,-0.2344 -0.0899,-0.2344 0,0 -0.0898,-0.25 -0.0898,-0.25 0,0 -0.0899,-0.2578 -0.0899,-0.2578 0,0 -0.082,-0.2539 -0.082,-0.2539 0,0 -0.082,-0.2617 -0.082,-0.2617 0,0 -0.0782,-0.2696 -0.0782,-0.2696 0,0 -0.0781,-0.2851 -0.0781,-0.2851 0,0 -0.0742,-0.293 -0.0742,-0.293 0,0 -0.0742,-0.2969 -0.0742,-0.2969 0,0 -0.0703,-0.3047 -0.0703,-0.3047 0,0 -0.0664,-0.3086 -0.0664,-0.3086 0,0 -0.0625,-0.3203 -0.0625,-0.3203 0,0 -0.0586,-0.3281 -0.0586,-0.3281 0,0 -0.0547,-0.3398 -0.0547,-0.3398 0,0 -0.0508,-0.3438 -0.0508,-0.3438 0,0 -0.0469,-0.3437 -0.0469,-0.3437 0,0 -0.0429,-0.3438 -0.0429,-0.3438 0,0 -0.0391,-0.3555 -0.0391,-0.3555 0,0 -0.0313,-0.3476 -0.0313,-0.3476 0,0 -0.0351,-0.336 -0.0351,-0.336 0,0 -0.0274,-0.3281 -0.0274,-0.3281 0,0 -0.0234,-0.3125 -0.0234,-0.3125 0,0 -0.0234,-0.2969 -0.0234,-0.2969 0,0 -0.0196,-0.2812 -0.0196,-0.2812 0,0 -0.0195,-0.2695 -0.0195,-0.2695 0,0 -0.0156,-0.25 -0.0156,-0.25 0,0 -0.0156,-0.2344 -0.0156,-0.2344 0,0 -0.0118,-0.2227 -0.0118,-0.2227 0,0 -0.0117,-0.207 -0.0117,-0.207 0,0 -0.0117,-0.1992 -0.0117,-0.1992 0,0 -0.0117,-0.1875 -0.0117,-0.1875 0,0 -0.0117,-0.1797 -0.0117,-0.1797 0,0 -0.0118,-0.1719 -0.0118,-0.1719 0,0 -0.0117,-0.164 -0.0117,-0.164 0,0 -0.0117,-0.1602 -0.0117,-0.1602 0,0 -0.0039,-0.0586 -0.0039,-0.0586 0,0 250.6211,0 250.6211,0 0,0 2.3711,0.4883 2.3711,0.4883 0,0 -0.004,-0.0156 -0.004,-0.0156 0,0 6.5586,1.3242 6.5586,1.3242 0,0 -0.004,-0.0352 -0.004,-0.0352 0,0 0.4922,0.0664 0.4922,0.0664 0,0 7.3515,0.9375 7.3515,0.9375 0,0 -0.008,-0.039 -0.008,-0.039 0,0 1.4062,0.1992 1.4062,0.1992 0,0 16.0157,2.2656 16.0157,2.2656 0,0 -0.4258,-4.6445 -0.4258,-4.6445 0,0 0.3555,0 0.3555,0 0,0 0.3711,0.0039 0.3711,0.0039 0,0 0.371,0 0.371,0 0,0 0.3711,0 0.3711,0 0,0 0.3633,0 0.3633,0 0,0 0.3633,0 0.3633,0 0,0 0.3594,0.0039 0.3594,0.0039 0,0 0.3476,0 0.3476,0 0,0 0.3477,0 0.3477,0 0,0 0.3359,0 0.3359,0 0,0 0.336,0 0.336,0 0,0 0.3359,0 0.3359,0 0,0 0.3164,0 0.3164,0 0,0 0.3164,0 0.3164,0 0,0 0.3203,-0.0039 0.3203,-0.0039 0,0 0.3164,-0.0039 0.3164,-0.0039 0,0 0.3164,-0.0078 0.3164,-0.0078 0,0 0.3164,-0.0078 0.3164,-0.0078 0,0 0.3047,-0.0118 0.3047,-0.0118 0,0 0.3047,-0.0156 0.3047,-0.0156 0,0 0.3086,-0.0195 0.3086,-0.0195 0,0 0.3047,-0.0195 0.3047,-0.0195 0,0 0.3086,-0.0235 0.3086,-0.0235 0,0 0.3047,-0.0273 0.3047,-0.0273 0,0 0.2969,-0.0313 0.2969,-0.0313 0,0 0.2968,-0.0312 0.2968,-0.0312 0,0 0.3047,-0.0391 0.3047,-0.0391 0,0 0.3047,-0.0391 0.3047,-0.0391 0,0 0.3125,-0.0429 0.3125,-0.0429 0,0 0.3086,-0.0469 0.3086,-0.0469 0,0 0.3125,-0.0508 0.3125,-0.0508 0,0 0.3164,-0.0547 0.3164,-0.0547 0,0 0.3164,-0.0547 0.3164,-0.0547 0,0 0.1289,-0.0234 0.1289,-0.0234 0,0 71.0742,0 71.0742,0 0,0 -0.008,0.0313 -0.008,0.0313 0,0 -0.0625,0.2031 -0.0625,0.2031 0,0 -0.0703,0.2148 -0.0703,0.2148 0,0 -0.0781,0.2188 -0.0781,0.2188 0,0 -0.082,0.2265 -0.082,0.2265 0,0 -0.0899,0.2344 -0.0899,0.2344 0,0 -0.0937,0.2305 -0.0937,0.2305 0,0 -0.1016,0.2383 -0.1016,0.2383 0,0 -0.1094,0.2461 -0.1094,0.2461 0,0 -0.1172,0.2578 -0.1172,0.2578 0,0 -0.125,0.2617 -0.125,0.2617 0,0 -0.125,0.2578 -0.125,0.2578 0,0 -0.1328,0.2656 -0.1328,0.2656 0,0 -0.1406,0.2735 -0.1406,0.2735 0,0 -0.1445,0.2773 -0.1445,0.2773 0,0 -0.1446,0.2734 -0.1446,0.2734 0,0 -0.1484,0.2774 -0.1484,0.2774 0,0 -0.1445,0.2734 -0.1445,0.2734 0,0 -0.1446,0.2657 -0.1446,0.2657 0,0 -0.1406,0.2617 -0.1406,0.2617 0,0 -0.1406,0.2539 -0.1406,0.2539 0,0 -0.1367,0.2578 -0.1367,0.2578 0,0 -0.1328,0.25 -0.1328,0.25 0,0 -0.1289,0.2422 -0.1289,0.2422 0,0 -0.129,0.2344 -0.129,0.2344 0,0 -0.125,0.2382 -0.125,0.2382 0,0 -0.121,0.2344 -0.121,0.2344 0,0 -0.125,0.2305 -0.125,0.2305 0,0 -0.1211,0.2344 -0.1211,0.2344 0,0 -0.1211,0.2226 -0.1211,0.2226 0,0 -0.1172,0.2227 -0.1172,0.2227 0,0 -0.1172,0.2187 -0.1172,0.2187 0,0 -0.1133,0.2188 -0.1133,0.2188 0,0 -0.1133,0.2109 -0.1133,0.2109 0,0 -0.1133,0.2148 -0.1133,0.2148 0,0 -0.1132,0.211 -0.1132,0.211 0,0 -0.1133,0.2109 -0.1133,0.2109 0,0 -0.1211,0.2188 -0.1211,0.2188 0,0 -0.1211,0.2187 -0.1211,0.2187 0,0 -0.1289,0.2266 -0.1289,0.2266 0,0 -0.1289,0.2226 -0.1289,0.2226 0,0 -0.1289,0.2188 -0.1289,0.2188 0,0 -0.1328,0.2226 -0.1328,0.2226 0,0 -0.1407,0.2305 -0.1407,0.2305 0,0 -0.1445,0.2305 -0.1445,0.2305 0,0 -0.1406,0.2305 -0.1406,0.2305 0,0 -0.1524,0.2304 -0.1524,0.2304 0,0 -0.1484,0.2305 -0.1484,0.2305 0,0 -0.1445,0.2266 -0.1445,0.2266 0,0 -0.1524,0.2265 -0.1524,0.2265 0,0 -0.1484,0.2266 -0.1484,0.2266 0,0 -0.1433,0.2148 -0.1433,0.2148 0,0 -347.5755,0 -347.5755,0 0,0 0,20.3944 0,20.3944 C 0.0273,0.035 0,0 0,0 Z"
               style="fill:#000000;fill-opacity:1;fill-rule:nonzero;stroke:none"
               id="path1770" /></g><g
             id="g1772"
             transform="translate(79.9325,333.8038)"><path
               d="m 0,0 c 0,0 -0.1562,-0.1992 -0.1562,-0.1992 0,0 -0.1563,-0.1992 -0.1563,-0.1992 0,0 -0.1602,-0.2032 -0.1602,-0.2032 0,0 -0.1562,-0.1992 -0.1562,-0.1992 0,0 -0.1563,-0.1914 -0.1563,-0.1914 0,0 -0.1523,-0.1914 -0.1523,-0.1914 0,0 -0.1484,-0.1875 -0.1484,-0.1875 0,0 -0.1524,-0.1875 -0.1524,-0.1875 0,0 -0.1484,-0.1875 -0.1484,-0.1875 0,0 -0.1485,-0.1875 -0.1485,-0.1875 0,0 -0.1445,-0.1797 -0.1445,-0.1797 0,0 -0.1406,-0.1797 -0.1406,-0.1797 0,0 -0.1406,-0.1757 -0.1406,-0.1757 0,0 -0.1407,-0.1797 -0.1407,-0.1797 0,0 -0.1406,-0.1836 -0.1406,-0.1836 0,0 -0.1406,-0.1914 -0.1406,-0.1914 0,0 -0.1406,-0.1914 -0.1406,-0.1914 0,0 -0.1368,-0.1914 -0.1368,-0.1914 0,0 -0.1406,-0.2071 -0.1406,-0.2071 0,0 -0.1406,-0.2187 -0.1406,-0.2187 0,0 -0.1445,-0.2305 -0.1445,-0.2305 0,0 -0.1407,-0.2422 -0.1407,-0.2422 0,0 -0.1406,-0.2578 -0.1406,-0.2578 0,0 -0.1406,-0.2695 -0.1406,-0.2695 0,0 -0.1367,-0.2813 -0.1367,-0.2813 0,0 -0.1328,-0.2969 -0.1328,-0.2969 0,0 -0.1289,-0.3046 -0.1289,-0.3046 0,0 -0.125,-0.3125 -0.125,-0.3125 0,0 -0.1211,-0.3164 -0.1211,-0.3164 0,0 -0.1172,-0.3125 -0.1172,-0.3125 0,0 -0.1133,-0.3204 -0.1133,-0.3204 0,0 -0.1094,-0.3203 -0.1094,-0.3203 0,0 -0.1094,-0.3242 -0.1094,-0.3242 0,0 -0.1054,-0.3164 -0.1054,-0.3164 0,0 -0.0977,-0.3164 -0.0977,-0.3164 0,0 -0.0976,-0.3125 -0.0976,-0.3125 0,0 -0.0977,-0.3203 -0.0977,-0.3203 0,0 -0.0937,-0.3242 -0.0937,-0.3242 0,0 -0.0938,-0.3321 -0.0938,-0.3321 0,0 -0.0937,-0.332 -0.0937,-0.332 0,0 -0.0899,-0.3359 -0.0899,-0.3359 0,0 -0.0898,-0.3399 -0.0898,-0.3399 0,0 -0.086,-0.3437 -0.086,-0.3437 0,0 -0.082,-0.336 -0.082,-0.336 0,0 -0.082,-0.3359 -0.082,-0.3359 0,0 -0.0821,-0.3203 -0.0821,-0.3203 0,0 -0.0781,-0.3125 -0.0781,-0.3125 0,0 -0.0742,-0.2969 -0.0742,-0.2969 0,0 -0.0742,-0.2891 -0.0742,-0.2891 0,0 -0.0742,-0.2773 -0.0742,-0.2773 0,0 -0.0704,-0.2695 -0.0704,-0.2695 0,0 -0.0742,-0.25 -0.0742,-0.25 0,0 -0.0703,-0.2461 -0.0703,-0.2461 0,0 -0.0742,-0.2305 -0.0742,-0.2305 0,0 -0.0703,-0.2226 -0.0703,-0.2226 0,0 -0.0742,-0.2188 -0.0742,-0.2188 0,0 -0.0743,-0.207 -0.0743,-0.207 0,0 -0.0703,-0.1953 -0.0703,-0.1953 0,0 -0.0781,-0.1914 -0.0781,-0.1914 0,0 -0.0742,-0.1836 -0.0742,-0.1836 0,0 -0.0781,-0.1836 -0.0781,-0.1836 0,0 -0.0821,-0.1758 -0.0821,-0.1758 0,0 -0.082,-0.1758 -0.082,-0.1758 0,0 -0.082,-0.168 -0.082,-0.168 0,0 -0.0821,-0.1679 -0.0821,-0.1679 0,0 -0.0898,-0.168 -0.0898,-0.168 0,0 -0.0899,-0.168 -0.0899,-0.168 0,0 -0.0898,-0.1719 -0.0898,-0.1719 0,0 -0.0977,-0.1679 -0.0977,-0.1679 0,0 -0.0937,-0.1719 -0.0937,-0.1719 0,0 -0.0977,-0.1719 -0.0977,-0.1719 0,0 -0.1015,-0.1797 -0.1015,-0.1797 0,0 -0.0977,-0.1796 -0.0977,-0.1796 0,0 -0.1054,-0.1875 -0.1054,-0.1875 0,0 -0.1055,-0.1915 -0.1055,-0.1915 0,0 -0.1055,-0.1875 -0.1055,-0.1875 0,0 -0.1055,-0.1914 -0.1055,-0.1914 0,0 -0.1054,-0.1914 -0.1054,-0.1914 0,0 -0.1055,-0.1914 -0.1055,-0.1914 0,0 -0.1055,-0.1914 -0.1055,-0.1914 0,0 -0.1054,-0.1914 -0.1054,-0.1914 0,0 -0.1055,-0.1875 -0.1055,-0.1875 0,0 -0.1016,-0.1836 -0.1016,-0.1836 0,0 -0.1015,-0.1797 -0.1015,-0.1797 0,0 -0.1016,-0.1797 -0.1016,-0.1797 0,0 -0.0976,-0.1679 -0.0976,-0.1679 0,0 -0.0938,-0.168 -0.0938,-0.168 0,0 -0.0937,-0.1601 -0.0937,-0.1601 0,0 -0.0938,-0.1602 -0.0938,-0.1602 0,0 -0.0937,-0.1602 -0.0937,-0.1602 0,0 -0.0899,-0.1601 -0.0899,-0.1601 0,0 -0.0937,-0.1563 -0.0937,-0.1563 0,0 -0.0899,-0.164 -0.0899,-0.164 0,0 -0.0937,-0.1641 -0.0937,-0.1641 0,0 -0.0938,-0.168 -0.0938,-0.168 0,0 -0.0937,-0.1796 -0.0937,-0.1796 0,0 -0.0977,-0.1875 -0.0977,-0.1875 0,0 -0.0937,-0.1954 -0.0937,-0.1954 0,0 -0.0977,-0.2031 -0.0977,-0.2031 0,0 -0.0976,-0.2109 -0.0976,-0.2109 0,0 -0.0938,-0.2149 -0.0938,-0.2149 0,0 -0.0898,-0.2304 -0.0898,-0.2304 0,0 -0.0899,-0.2344 -0.0899,-0.2344 0,0 -0.0898,-0.25 -0.0898,-0.25 0,0 -0.0899,-0.2578 -0.0899,-0.2578 0,0 -0.082,-0.2539 -0.082,-0.2539 0,0 -0.082,-0.2617 -0.082,-0.2617 0,0 -0.0782,-0.2696 -0.0782,-0.2696 0,0 -0.0781,-0.2851 -0.0781,-0.2851 0,0 -0.0742,-0.293 -0.0742,-0.293 0,0 -0.0742,-0.2969 -0.0742,-0.2969 0,0 -0.0703,-0.3047 -0.0703,-0.3047 0,0 -0.0664,-0.3086 -0.0664,-0.3086 0,0 -0.0625,-0.3203 -0.0625,-0.3203 0,0 -0.0586,-0.3281 -0.0586,-0.3281 0,0 -0.0547,-0.3398 -0.0547,-0.3398 0,0 -0.0508,-0.3438 -0.0508,-0.3438 0,0 -0.0469,-0.3437 -0.0469,-0.3437 0,0 -0.0429,-0.3438 -0.0429,-0.3438 0,0 -0.0391,-0.3555 -0.0391,-0.3555 0,0 -0.0313,-0.3476 -0.0313,-0.3476 0,0 -0.0351,-0.336 -0.0351,-0.336 0,0 -0.0274,-0.3281 -0.0274,-0.3281 0,0 -0.0234,-0.3125 -0.0234,-0.3125 0,0 -0.0234,-0.2969 -0.0234,-0.2969 0,0 -0.0196,-0.2812 -0.0196,-0.2812 0,0 -0.0195,-0.2695 -0.0195,-0.2695 0,0 -0.0156,-0.25 -0.0156,-0.25 0,0 -0.0156,-0.2344 -0.0156,-0.2344 0,0 -0.0118,-0.2227 -0.0118,-0.2227 0,0 -0.0117,-0.207 -0.0117,-0.207 0,0 -0.0117,-0.1992 -0.0117,-0.1992 0,0 -0.0117,-0.1875 -0.0117,-0.1875 0,0 -0.0117,-0.1797 -0.0117,-0.1797 0,0 -0.0118,-0.1719 -0.0118,-0.1719 0,0 -0.0117,-0.164 -0.0117,-0.164 0,0 -0.0117,-0.1602 -0.0117,-0.1602 0,0 -0.0039,-0.0586 -0.0039,-0.0586 0,0 250.6211,0 250.6211,0 0,0 2.3711,0.4883 2.3711,0.4883 0,0 -0.004,-0.0156 -0.004,-0.0156 0,0 6.5586,1.3242 6.5586,1.3242 0,0 -0.004,-0.0352 -0.004,-0.0352 0,0 0.4961,0.0664 0.4961,0.0664 0,0 7.3515,0.9375 7.3515,0.9375 0,0 -0.008,-0.039 -0.008,-0.039 0,0 1.4023,0.1992 1.4023,0.1992 0,0 16.0157,2.2656 16.0157,2.2656 0,0 -0.4297,-4.6445 -0.4297,-4.6445 0,0 0.3594,0 0.3594,0 0,0 0.3711,0.0039 0.3711,0.0039 0,0 0.371,0 0.371,0 0,0 0.3711,0 0.3711,0 0,0 0.3633,0 0.3633,0 0,0 0.3633,0 0.3633,0 0,0 0.3594,0.0039 0.3594,0.0039 0,0 0.3476,0 0.3476,0 0,0 0.3477,0 0.3477,0 0,0 0.3359,0 0.3359,0 0,0 0.336,0 0.336,0 0,0 0.3359,0 0.3359,0 0,0 0.3164,0 0.3164,0 0,0 0.3164,0 0.3164,0 0,0 0.3203,-0.0039 0.3203,-0.0039 0,0 0.3164,-0.0039 0.3164,-0.0039 0,0 0.3164,-0.0078 0.3164,-0.0078 0,0 0.3164,-0.0078 0.3164,-0.0078 0,0 0.3047,-0.0118 0.3047,-0.0118 0,0 0.3047,-0.0156 0.3047,-0.0156 0,0 0.3086,-0.0195 0.3086,-0.0195 0,0 0.3047,-0.0195 0.3047,-0.0195 0,0 0.3086,-0.0235 0.3086,-0.0235 0,0 0.3047,-0.0273 0.3047,-0.0273 0,0 0.2969,-0.0313 0.2969,-0.0313 0,0 0.2968,-0.0312 0.2968,-0.0312 0,0 0.3047,-0.0391 0.3047,-0.0391 0,0 0.3047,-0.0391 0.3047,-0.0391 0,0 0.3125,-0.0429 0.3125,-0.0429 0,0 0.3086,-0.0469 0.3086,-0.0469 0,0 0.3125,-0.0508 0.3125,-0.0508 0,0 0.3164,-0.0547 0.3164,-0.0547 0,0 0.3164,-0.0547 0.3164,-0.0547 0,0 0.1289,-0.0234 0.1289,-0.0234 0,0 71.0742,0 71.0742,0 0,0 -0.008,0.0313 -0.008,0.0313 0,0 -0.0625,0.2031 -0.0625,0.2031 0,0 -0.0703,0.2148 -0.0703,0.2148 0,0 -0.0781,0.2188 -0.0781,0.2188 0,0 -0.082,0.2265 -0.082,0.2265 0,0 -0.0899,0.2344 -0.0899,0.2344 0,0 -0.0937,0.2305 -0.0937,0.2305 0,0 -0.1016,0.2383 -0.1016,0.2383 0,0 -0.1094,0.2461 -0.1094,0.2461 0,0 -0.1172,0.2578 -0.1172,0.2578 0,0 -0.125,0.2617 -0.125,0.2617 0,0 -0.125,0.2578 -0.125,0.2578 0,0 -0.1328,0.2656 -0.1328,0.2656 0,0 -0.1406,0.2735 -0.1406,0.2735 0,0 -0.1445,0.2773 -0.1445,0.2773 0,0 -0.1446,0.2734 -0.1446,0.2734 0,0 -0.1484,0.2774 -0.1484,0.2774 0,0 -0.1445,0.2734 -0.1445,0.2734 0,0 -0.1446,0.2657 -0.1446,0.2657 0,0 -0.1406,0.2617 -0.1406,0.2617 0,0 -0.1406,0.2539 -0.1406,0.2539 0,0 -0.1367,0.2578 -0.1367,0.2578 0,0 -0.1328,0.25 -0.1328,0.25 0,0 -0.1289,0.2422 -0.1289,0.2422 0,0 -0.129,0.2344 -0.129,0.2344 0,0 -0.125,0.2382 -0.125,0.2382 0,0 -0.121,0.2344 -0.121,0.2344 0,0 -0.125,0.2305 -0.125,0.2305 0,0 -0.1211,0.2344 -0.1211,0.2344 0,0 -0.1211,0.2226 -0.1211,0.2226 0,0 -0.1172,0.2227 -0.1172,0.2227 0,0 -0.1172,0.2187 -0.1172,0.2187 0,0 -0.1133,0.2188 -0.1133,0.2188 0,0 -0.1133,0.2109 -0.1133,0.2109 0,0 -0.1133,0.2148 -0.1133,0.2148 0,0 -0.1132,0.211 -0.1132,0.211 0,0 -0.1133,0.2109 -0.1133,0.2109 0,0 -0.1211,0.2188 -0.1211,0.2188 0,0 -0.1211,0.2187 -0.1211,0.2187 0,0 -0.1289,0.2266 -0.1289,0.2266 0,0 -0.1289,0.2226 -0.1289,0.2226 0,0 -0.1289,0.2188 -0.1289,0.2188 0,0 -0.1328,0.2226 -0.1328,0.2226 0,0 -0.1407,0.2305 -0.1407,0.2305 0,0 -0.1445,0.2305 -0.1445,0.2305 0,0 -0.1406,0.2305 -0.1406,0.2305 0,0 -0.1524,0.2304 -0.1524,0.2304 0,0 -0.1484,0.2305 -0.1484,0.2305 0,0 -0.1445,0.2266 -0.1445,0.2266 0,0 -0.1524,0.2265 -0.1524,0.2265 0,0 -0.1484,0.2266 -0.1484,0.2266 0,0 -0.1433,0.2148 -0.1433,0.2148 0,0 -347.5755,0 -347.5755,0 0,0 0,20.3944 0,20.3944 C 0.0273,0.035 0,0 0,0 Z"
               style="fill:#ffffff;fill-opacity:1;fill-rule:nonzero;stroke:none"
               id="path1774" /></g><g
             id="g1776"
             transform="translate(334.9575,313.4409)"><path
               d="m 0,0 c 0,0 -40.0631,-7.7148 -40.0631,-7.7148 0,0 0.6758,-4.3477 0.6758,-4.3477 0,0 30.7539,0 30.7539,0 0,0 28.4531,3.9102 28.4531,3.9102 0,0 0.2329,8.1523 0.2329,8.1523 C 20.0526,0 0,0 0,0 Z"
               style="fill:#ffffff;fill-opacity:1;fill-rule:nonzero;stroke:none"
               id="path1778" /></g><g
             id="g1780"
             transform="translate(310.7565,313.4434)"><path
               d="m 0,0 c 0,0 -23.7919,-4.9883 -23.7919,-4.9883 0,0 -4.0508,-7.082 -4.0508,-7.082 0,0 150.6797,0 150.6797,0 0,0 -0.3945,1.1133 -0.3945,1.1133 0,0 -28.289,10.957 -28.289,10.957 C 94.1535,0 0,0 0,0 Z"
               style="fill:#ffffff;fill-opacity:1;fill-rule:nonzero;stroke:none"
               id="path1782" /></g><g
             id="g1784"
             transform="translate(278.0056,301.3743)"><path
               d="m 0,0 c 0,0 2.4666,0 2.4666,0 0,0 -1.8839,0.8828 -1.8839,0.8828 C 0.5827,0.8828 0,0 0,0 Z"
               style="fill:#ffffff;fill-opacity:1;fill-rule:nonzero;stroke:none"
               id="path1786" /></g><g
             id="g1788"
             transform="translate(141.3739,313.4443)"><path
               d="m 0,0 c 0,0 -13.6319,-29.3359 -13.6319,-29.3359 0,0 8.3945,-23.8672 8.3945,-23.8672 0,0 49.8555,-14.1563 49.8555,-14.1563 0,0 29.3515,29.0039 29.3515,29.0039 0,0 -16.6797,37.9532 -16.6797,37.9532 0,0 -47.174,0.4023 -47.174,0.4023 C 10.1159,0 0,0 0,0 Z"
               style="fill:#ffffff;fill-opacity:1;fill-rule:nonzero;stroke:none"
               id="path1790" /></g><g
             id="g1792"
             transform="translate(197.0495,279.238)"><path
               d="m 0,0 c 0,0 10.6016,-5.3242 10.6016,-5.3242 0,0 41.9023,-17.1563 41.9023,-17.1563 0,0 22.0976,28.5313 22.0976,28.5313 0,0 -15.5937,25.8867 -15.5937,25.8867 0,0 -57.043,1.668 -57.043,1.668 C 1.9648,33.6055 0,0 0,0 Z"
               style="fill:#ffffff;fill-opacity:1;fill-rule:nonzero;stroke:none"
               id="path1794" /></g><g
             id="g1796"
             transform="translate(73.5927,307.5463)"><path
               d="m 0,0 c 0,0 -5.875,-2.9297 -5.875,-2.9297 0,0 0.4727,-24.6484 0.4727,-24.6484 0,0 23.6875,-14.6953 23.6875,-14.6953 0,0 27.9882,8.4453 27.9882,8.4453 0,0 17.4375,18.6523 17.4375,18.6523 0,0 4.7579,15.6367 4.7579,15.6367 C 68.4688,0.4609 0,0 0,0 Z"
               style="fill:#ffffff;fill-opacity:1;fill-rule:nonzero;stroke:none"
               id="path1798" /></g><g
             id="g1800"
             transform="translate(255.5377,287.5316)"><path
               d="m 0,0 c 0,0 10.8984,-0.2578 10.8984,-0.2578 0,0 19.7735,-13.6719 19.7735,-13.6719 0,0 20.6015,12.3242 20.6015,12.3242 0,0 -4.9062,20.3555 -4.9062,20.3555 0,0 -53.8125,4.7109 -53.8125,4.7109 C -7.4453,23.4609 0,0 0,0 Z"
               style="fill:#ffffff;fill-opacity:1;fill-rule:nonzero;stroke:none"
               id="path1802" /></g><g
             id="g1804"
             transform="translate(375.1035,276.8141)"><path
               d="m 0,0 c 0,0 23.1289,-23.7851 23.1289,-23.7851 0,0 28.4649,13.0312 28.4649,13.0312 0,0 6.2109,36.5977 6.2109,36.5977 0,0 -35.0781,4.2539 -35.0781,4.2539 C 22.7266,30.0977 0,0 0,0 Z"
               style="fill:#ffffff;fill-opacity:1;fill-rule:nonzero;stroke:none"
               id="path1806" /></g><g
             id="g1808"
             transform="translate(294.881,311.1553)"><path
               d="m 0,0 c 0,0 18.25,-43.6992 18.25,-43.6992 0,0 38.8242,-8.1446 38.8242,-8.1446 0,0 29.2305,23.0391 29.2305,23.0391 0,0 22.2771,10.3146 22.2771,10.3146 0.4933,1.8001 0.9831,3.6003 1.4733,5.4009 0,0 -7.9613,13.9955 -7.9613,13.9955 C 102.0938,0.9063 0,0 0,0 Z"
               style="fill:#ffffff;fill-opacity:1;fill-rule:nonzero;stroke:none"
               id="path1810" /></g><g
             id="g1812"
             transform="translate(372.3365,278.9701)"><path
               d="m 0,0 c 0,0 3.3984,-2.6406 3.3984,-2.6406 0,0 5.0938,1.3437 5.0938,1.3437 0,0 -3.4375,4.4766 -3.4375,4.4766 C 5.0547,3.1797 0,0 0,0 Z"
               style="fill:#ffffff;fill-opacity:1;fill-rule:nonzero;stroke:none"
               id="path1814" /></g><g
             id="g1816"
             transform="translate(138.8632,313.4431)"><path
               d="m 0,0 c -0.0825,-0.7234 -0.1251,-1.4568 -0.1251,-2.1992 0,-10.8516 9.0586,-19.9102 19.9101,-19.9102 10.8516,0 19.9102,9.0586 19.9102,19.9102 0,0.7424 -0.0426,1.4758 -0.1251,2.1992 C 39.5701,0 0,0 0,0 Z"
               style="fill:#ffffff;fill-opacity:1;fill-rule:nonzero;stroke:none"
               id="path1818" /></g><g
             id="g1820"
             transform="translate(140.7785,313.4435)"><path
               d="m 0,0 c 0,0 7.5924,-9.5039 7.5924,-9.5039 0,0 41.6172,-3.1211 41.6172,-3.1211 C 49.2096,-12.625 62.955,0 62.955,0 62.955,0 0,0 0,0 Z"
               style="fill:#000000;fill-opacity:1;fill-rule:nonzero;stroke:none"
               id="path1822" /></g><g
             id="g1824"
             transform="translate(346.4794,313.4415)"><path
               d="m 0,0 c 0,0 1.1181,-1.3672 1.1181,-1.3672 0,0 22.5273,-0.6094 22.5273,-0.6094 0,0 1.7364,1.9766 1.7364,1.9766 C 25.3818,0 0,0 0,0 Z"
               style="fill:#000000;fill-opacity:1;fill-rule:nonzero;stroke:none"
               id="path1826" /></g><g
             id="g1828"
             transform="translate(329.5,218.332)"><path
               d="m 0,0 c 0,0 -22.4219,32.5039 -22.4219,32.5039 0,0 -8.1992,-3.2344 -8.1992,-3.2344 0,0 -10.3828,-4.0976 -10.3828,-4.0976 0,0 -5.918,-2.336 -5.918,-2.336 0,0 -0.4492,0.418 -0.4492,0.418 0,0 -0.0742,-0.0273 -0.0742,-0.0273 0,0 -0.0274,0.1211 -0.0274,0.1211 0,0 -12.0742,11.2226 -12.0742,11.2226 0,0 -11.414,-22.6523 -11.414,-22.6523 0,0 19.8281,-18.7617 19.8281,-18.7617 0,0 2.8789,-15.6446 2.8789,-15.6446 0,0 18.9648,-2.9883 18.9648,-2.9883 C -29.2891,-25.4766 0,0 0,0 Z"
               style="fill:#ffffff;fill-opacity:1;fill-rule:nonzero;stroke:none"
               id="path1830" /></g><g
             id="g1832"
             transform="translate(367.7878,232.7639)"><path
               d="m 0,0 c 0,0 -13.7383,-13.3555 -13.7383,-13.3555 0,0 16.1211,-38.6718 16.1211,-38.6718 0,0 33.2461,6.2226 33.2461,6.2226 0,0 16.8594,27.7031 16.8594,27.7031 0,0 -18.9531,19.5977 -18.9531,19.5977 C 33.5352,1.4961 0,0 0,0 Z"
               style="fill:#ffffff;fill-opacity:1;fill-rule:nonzero;stroke:none"
               id="path1834" /></g><g
             id="g1836"
             transform="translate(318.7275,176.3808)"><path
               d="m 0,0 c 0,0 -14.2773,-5.5117 -14.2773,-5.5117 0,0 10.3476,-18.0235 10.3476,-18.0235 0,0 25.1602,1.5352 25.1602,1.5352 0,0 8.9609,23.293 8.9609,23.293 0,0 -15.6641,14.289 -15.6641,14.289 C 14.5273,15.582 0,0 0,0 Z"
               style="fill:#ffffff;fill-opacity:1;fill-rule:nonzero;stroke:none"
               id="path1838" /></g><g
             id="g1840"
             transform="translate(290.963,313.4426)"><path
               d="m 0,0 c 0.0302,-0.0013 0.0612,-0.0027 0.0915,-0.0039 13.0547,-8.2813 28.793,-11.668 44.1328,-11.1836 8.1172,-3.9766 17.2188,-5.5664 26.2461,-4.3867 7.7891,0.9805 15.7227,4.4336 20.2656,11.0859 C 92.1453,-3.0482 93.373,-1.5474 94.429,0 94.429,0 0,0 0,0 Z"
               style="fill:#ffffff;fill-opacity:1;fill-rule:nonzero;stroke:none"
               id="path1842" /></g><g
             id="g1844"
             transform="translate(116.937,313.4426)"><path
               d="m 0,0 c 3.083,-7.2194 10.2383,-12.9663 20.4417,-14.2305 3.2383,-16.3242 24.2148,-21.4922 36.332,-11.2617 17.5625,-4.2734 34.8867,8.1992 42.2969,23.5938 0.6523,0.3671 1.2969,0.7539 1.9297,1.1601 0.3746,0.2408 0.7454,0.4868 1.1131,0.7383 C 102.1134,0 0,0 0,0 Z"
               style="fill:#ffffff;fill-opacity:1;fill-rule:nonzero;stroke:none"
               id="path1846" /></g><g
             id="g1848"
             transform="translate(104.6462,213.3504)"><path
               d="m 0,0 c 0,0 7.3281,-24.5117 7.3281,-24.5117 0,0 24.5586,-6.8008 24.5586,-6.8008 0,0 35.3789,15.3203 35.3789,15.3203 0,0 -27.7109,19.8203 -27.7109,19.8203 0,0 14.2383,8.2539 14.2383,8.2539 0,0 -35.6407,12.6133 -35.6407,12.6133 C 18.1523,24.6953 0,0 0,0 Z"
               style="fill:#ffffff;fill-opacity:1;fill-rule:nonzero;stroke:none"
               id="path1850" /></g><g
             id="g1852"
             transform="translate(357.5245,313.4439)"><path
               d="M 0,0 C 0,0 8.2292,-3.4766 8.2292,-3.4766 8.2292,-3.4766 12.746,0 12.746,0 12.746,0 0,0 0,0 Z"
               style="fill:#000000;fill-opacity:1;fill-rule:nonzero;stroke:none"
               id="path1854" /></g><g
             id="g1856"
             transform="translate(67.9489,327.0856)"><path
               d="m 0,0 c 0,0 -2.207,-11.3555 -2.207,-11.3555 0,0 14.2187,0.3709 14.2187,0.3709 0,0 0,12.0132 0,12.0132 C 12.0117,1.0286 0,0 0,0 Z"
               style="fill:#000000;fill-opacity:1;fill-rule:nonzero;stroke:none"
               id="path1858" /></g><g
             id="g1860"
             transform="translate(186.077,313.441)"><path
               d="m 0,0 c 0,0 -19.6711,-7.4219 -19.6711,-7.4219 0,0 -9.7755,7.4219 -9.7755,7.4219 0,0 -21.8318,0 -21.8318,0 0,0 32.1581,-21.6172 32.1581,-21.6172 C -19.1203,-21.6172 6.8863,0 6.8863,0 6.8863,0 0,0 0,0 Z"
               style="fill:#000000;fill-opacity:1;fill-rule:nonzero;stroke:none"
               id="path1862" /></g><g
             id="g1864"
             transform="translate(303.8555,217.0508)"><path
               d="m 0,0 c 0,0 -11.2266,8.668 -11.2266,8.668 0,0 -4.1328,17.7851 -4.1328,17.7851 0,0 -0.0859,0.3672 -0.0859,0.3672 0,0 -6.2813,-2.2851 -6.2813,-2.2851 0,0 -0.0742,-0.0274 -0.0742,-0.0274 0,0 4.6914,-20.0586 4.6914,-20.0586 C -17.1094,4.4492 0,0 0,0 Z"
               style="fill:#000000;fill-opacity:1;fill-rule:nonzero;stroke:none"
               id="path1866" /></g><g
             id="g1868"
             transform="translate(294.2855,246.007)"><path
               d="m 0,0 c 0,0 -14.6523,-5.332 -14.6523,-5.332 0,0 -1.1485,-17.9219 -1.1485,-17.9219 0,0 12.4331,-12.6012 12.4331,-12.6012 1.4011,0.1441 2.8059,0.3626 4.2154,0.566 4.2175,0.6052 8.7058,1.3714 11.6459,4.778 1.2721,0.5317 2.49,1.2074 3.5956,2.0276 0,0 -9.554,30.7491 -9.554,30.7491 C 6.5352,2.2656 0,0 0,0 Z"
               style="fill:#ffffff;fill-opacity:1;fill-rule:nonzero;stroke:none"
               id="path1870" /></g><g
             id="g1872"
             transform="translate(101.1529,313.4407)"><path
               d="m 0,0 c 0,0 4.132,-1.0742 4.132,-1.0742 0,0 65.2383,-27.9297 65.2383,-27.9297 0,0 24.7731,29.0039 24.7731,29.0039 C 94.1434,0 0,0 0,0 Z"
               style="fill:#ffffff;fill-opacity:1;fill-rule:nonzero;stroke:none"
               id="path1874" /></g><g
             id="g1876"
             transform="translate(323.1556,313.4434)"><path
               d="m 0,0 c 0,0 21.9301,-13.9453 21.9301,-13.9453 0,0 37.25,7.0469 37.25,7.0469 0,0 4.0197,6.8984 4.0197,6.8984 C 63.1998,0 0,0 0,0 Z"
               style="fill:#ffffff;fill-opacity:1;fill-rule:nonzero;stroke:none"
               id="path1878" /></g><g
             id="g1880"
             transform="translate(380.8864,313.4427)"><path
               d="M 0,0 C 0.2531,-0.1747 0.5167,-0.3348 0.7931,-0.4766 5.543,-3.328 10.7665,-2.6636 14.5782,0 14.5782,0 0,0 0,0 Z"
               style="fill:#ffffff;fill-opacity:1;fill-rule:nonzero;stroke:none"
               id="path1882" /></g><g
             id="g1884"
             transform="translate(288.4102,243.8711)"><path
               d="m 0,0 c 0,0 -0.8242,3.5547 -0.8242,3.5547 0,0 -6.9024,0 -6.9024,0 0,0 1.3438,-5.7461 1.3438,-5.7461 0,0 0.0273,-0.1211 0.0273,-0.1211 0,0 0.0743,0.0273 0.0743,0.0273 C -6.2812,-2.2852 0,0 0,0 Z"
               style="fill:#324c6d;fill-opacity:1;fill-rule:nonzero;stroke:none"
               id="path1886" /></g><g
             id="g1888"
             transform="translate(338.4531,389.0586)"><path
               d="m 0,0 c 47.3984,-28.7188 78.8867,-79.4297 78.8867,-137.1992 0,-89.5508 -75.6562,-162.1445 -168.9805,-162.1445 -93.3242,0 -168.9804,72.5937 -168.9804,162.1445 0,89.2617 75.164,161.6758 168.0742,162.1445 0.0703,0 0.1406,0 0.2109,0 0.0743,0 0.1407,0 0.2149,0 0.1601,0 0.3203,0 0.4804,0 0.1719,0 0.3438,0 0.5157,0 0.0586,0 0.1054,0 0.1601,0 0.1211,0 0.2422,0 0.3594,-0.0039 0.0625,0 0.1289,0 0.1914,0 0.1094,0 0.2227,0 0.3359,-0.0039 0.0547,0 0.125,0 0.1836,0 0.1055,0 0.2149,-0.0039 0.3243,-0.0039 0.0781,0 0.1484,0 0.2265,-0.0039 0.0899,0 0.1875,0 0.2774,-0.0039 0.0781,0 0.1562,0 0.2343,0 0.0977,-0.0039 0.1954,-0.0039 0.293,-0.0078 0.0742,0 0.1524,0 0.2266,-0.0039 0.125,0 0.25,-0.0039 0.375,-0.0078 0.0429,0 0.082,0 0.125,0 0.1718,-0.004 0.3398,-0.0079 0.5117,-0.0118 0.0664,-0.0039 0.1328,-0.0039 0.1992,-0.0039 0.1055,-0.0039 0.2109,-0.0078 0.3164,-0.0117 0.0781,0 0.1485,-0.0039 0.2266,-0.0039 0.0937,-0.0039 0.1875,-0.0078 0.2812,-0.0078 0.0782,-0.0039 0.1641,-0.0078 0.2422,-0.0078 0.0899,-0.0039 0.1836,-0.0078 0.2735,-0.0078 0.082,-0.0039 0.1679,-0.0078 0.246,-0.0118 0.0899,0 0.1719,-0.0039 0.2618,-0.0078 0.082,-0.0039 0.1679,-0.0039 0.2539,-0.0078 0.0859,-0.0039 0.1797,-0.0078 0.2695,-0.0117 0.0781,-0.0039 0.1563,-0.0039 0.2344,-0.0078 0.1015,-0.0039 0.1992,-0.0078 0.3008,-0.0117 0.0664,-0.0039 0.1406,-0.0078 0.2109,-0.0117 0.1016,-0.004 0.2031,-0.0079 0.3047,-0.0118 0.332,-0.0156 0.6758,-0.0312 1.0078,-0.0468 0.0625,-0.0039 0.125,-0.0079 0.1914,-0.0118 0.0898,-0.0039 0.1875,-0.0078 0.2773,-0.0117 0.0782,-0.0078 0.1563,-0.0117 0.2305,-0.0156 0.0899,-0.0039 0.1914,-0.0078 0.2813,-0.0156 0.0742,-0.0039 0.1484,-0.0078 0.2187,-0.0117 0.0977,-0.004 0.207,-0.0118 0.3008,-0.0157 0.0586,-0.0039 0.1211,-0.0078 0.1797,-0.0117 0.1133,-0.0078 0.2265,-0.0117 0.3398,-0.0195 0.0469,-0.0039 0.0938,-0.0078 0.1446,-0.0078 0.1132,-0.0078 0.2343,-0.0157 0.3437,-0.0235 0.0469,-0.0039 0.0938,-0.0078 0.1367,-0.0078 0.5782,-0.039 1.1485,-0.0781 1.7227,-0.1211 0.0273,-0.0039 0.0586,-0.0039 0.0859,-0.0078 0.1289,-0.0078 0.2617,-0.0195 0.3906,-0.0273 0.0313,-0.0039 0.0625,-0.0078 0.0977,-0.0078 0.1328,-0.0118 0.2539,-0.0235 0.3867,-0.0313 0.0352,-0.0039 0.0664,-0.0078 0.1016,-0.0078 0.1289,-0.0117 0.2656,-0.0234 0.3945,-0.0352 0.0274,0 0.0508,-0.0039 0.0781,-0.0039 0.1329,-0.0117 0.2774,-0.0234 0.4102,-0.0351 0.0195,-0.0039 0.0391,-0.0039 0.0586,-0.0078 27.1211,-2.3399 52.4023,-10.836 74.3008,-24.0118 0,0 0.0039,0 0.0039,0 C -0.4141,0.2539 -0.3789,0.2305 -0.3437,0.2109 -0.2656,0.1641 -0.1992,0.1211 -0.1211,0.0742 -0.082,0.0508 -0.0391,0.0273 0,0 Z m -88.9492,-334.3594 c 111.8359,0 202.5,87.5274 202.5,195.5 0,107.9727 -90.6641,195.5 -202.5,195.5 -111.836,0 -202.5,-87.5273 -202.5,-195.5 0,-107.9726 90.664,-195.5 202.5,-195.5 z"
               style="fill:#324c6d;fill-opacity:1;fill-rule:nonzero;stroke:none"
               id="path1890" /></g></g></g></g></g></svg>
