<?xml version="1.0" encoding="UTF-8" standalone="no"?>
<!-- Created with Inkscape (http://www.inkscape.org/) -->

<svg
   version="1.1"
   id="svg1425"
   xml:space="preserve"
   width="666.66669"
   height="666.66669"
   viewBox="0 0 666.66669 666.66669"
   sodipodi:docname="icon_korppu_kantava.svg"
   inkscape:version="1.1.1 (3bf5ae0d25, 2021-09-20)"
   xmlns:inkscape="http://www.inkscape.org/namespaces/inkscape"
   xmlns:sodipodi="http://sodipodi.sourceforge.net/DTD/sodipodi-0.dtd"
   xmlns="http://www.w3.org/2000/svg"
   xmlns:svg="http://www.w3.org/2000/svg"><defs
     id="defs1429"><clipPath
       clipPathUnits="userSpaceOnUse"
       id="clipPath1441"><path
         d="M 61.1641,90.2266 H 467.66 V 482.125 H 61.1641 Z"
         id="path1439" /></clipPath></defs><sodipodi:namedview
     id="namedview1427"
     pagecolor="#ffffff"
     bordercolor="#111111"
     borderopacity="1"
     inkscape:pageshadow="0"
     inkscape:pageopacity="0"
     inkscape:pagecheckerboard="1"
     showgrid="false"
     inkscape:zoom="1.293"
     inkscape:cx="332.94665"
     inkscape:cy="333.72004"
     inkscape:window-width="1920"
     inkscape:window-height="1051"
     inkscape:window-x="-9"
     inkscape:window-y="-9"
     inkscape:window-maximized="1"
     inkscape:current-layer="g1431" /><g
     id="g1431"
     inkscape:groupmode="layer"
     inkscape:label="icon_korppu_kantava"
     transform="matrix(1.3333333,0,0,-1.3333333,0,666.66667)"><g
       id="g1433"
       transform="matrix(1,0,0,-1,0,500)"><g
         id="g1435"><g
           id="g1437"
           clip-path="url(#clipPath1441)"><g
             id="g1443"
             transform="translate(264.9102,90.4766)"><path
               d="M 0,0 C 111.8359,0 202.5,87.5273 202.5,195.5 202.5,303.4727 111.8359,391 0,391 -111.8359,391 -202.5,303.4727 -202.5,195.5 -202.5,87.5273 -111.8359,0 0,0 Z"
               style="fill:#324c6d;fill-opacity:1;fill-rule:nonzero;stroke:none"
               id="path1445" /></g><g
             id="g1447"
             transform="translate(199.9102,342.543)"><path
               d="M 0,0 C 0,0 1.4766,-0.6055 1.4766,-0.6055 1.3438,-0.0547 1.2031,0.5 1.0625,1.0508 0.7383,2.3086 0.3945,3.5625 0.0352,4.8125 c -0.4571,1.5781 -1.0508,3.1602 -1.8243,4.6367 -1.0312,1.9766 -2.3828,3.7735 -4.1562,5.1445 -2.9805,2.3008 -6.8945,2.9883 -10.4336,1.9961 -0.8047,-0.2265 -1.5938,-0.539 -2.3438,-0.9375 -1.3086,-0.6992 -2.4492,-1.5937 -3.4296,-2.6328 -0.1563,1.5899 -0.3555,3.1719 -0.7071,4.7188 -0.0781,0.3515 -0.1836,0.6953 -0.3125,1.0312 -1.2265,3.293 -4.5312,5.7344 -7.957,6.2032 -2.75,0.375 -5.3086,-0.4102 -7.332,-1.9766 -0.7735,-0.5977 -1.4688,-1.3086 -2.0664,-2.1133 -1.0391,0.8477 -2.2383,1.5 -3.625,1.8828 -0.879,0.2422 -1.7657,0.3711 -2.6485,0.3985 -0.1523,0.4453 -0.3008,0.8945 -0.457,1.3398 -0.0703,0.1992 -0.1406,0.3945 -0.211,0.5938 -0.3046,0.8593 -0.6328,1.707 -1.0078,2.5351 -1.2617,2.7852 -3.5781,4.9336 -6.5586,5.7539 -3.1992,0.8828 -6.6679,0.0781 -9.1718,-2.0625 -0.1914,-0.1601 -0.3789,-0.332 -0.5586,-0.5117 -0.086,-0.082 -0.168,-0.168 -0.25,-0.2539 -0.5039,0.6797 -1.0352,1.3359 -1.6094,1.9609 -0.5508,0.6016 -1.125,1.125 -1.7266,1.5899 -0.5,0.3867 -1.0195,0.7344 -1.5664,1.0547 -0.457,0.2695 -0.9336,0.5195 -1.4336,0.7617 -2.3007,1.1133 -5.3437,1.0039 -7.7734,0.1523 -0.2148,-0.0742 -0.4219,-0.1523 -0.625,-0.2383 -0.1328,-0.0546 -0.2656,-0.1132 -0.3945,-0.1757 -0.8789,-0.4063 -1.6602,-0.8828 -2.3477,-1.4258 -0.5586,0.0508 -1.1172,0.0547 -1.6758,0.0156 -0.6836,-0.0508 -1.3593,-0.1719 -2.0156,-0.3594 -0.6797,1.5664 -1.4336,3.1055 -2.543,4.3789 -0.0976,-0.1093 -0.1953,-0.2187 -0.2929,-0.3281 -0.0391,-0.0469 -0.0782,-0.0898 -0.1211,-0.1328 -0.0352,-0.0469 -0.0742,-0.0898 -0.1133,-0.1328 -0.1133,-0.1289 -0.2266,-0.2539 -0.3438,-0.3789 -0.1601,-0.1797 -0.3203,-0.3594 -0.4843,-0.5391 -0.3711,-0.414 -0.7461,-0.8281 -1.1211,-1.2422 -0.3242,-0.3593 -0.6446,-0.7148 -0.9649,-1.0742 0,0 -0.0039,0 -0.0039,-0.0039 -0.2265,-0.25 -0.4531,-0.5 -0.6758,-0.7539 -0.1562,-0.1719 -0.3125,-0.3477 -0.4687,-0.5234 -0.0078,-0.0118 -0.0156,-0.0196 -0.0234,-0.0313 -0.6407,-0.832 -1.2618,-1.6797 -1.879,-2.5273 -1.4296,-2.3086 -2.7656,-4.668 -4.1601,-7 -1.7188,-2.875 -3.5586,-5.6719 -5.4063,-8.461 -1.9218,-3.2148 -3.7578,-6.4726 -5.5468,-9.7617 -1.0391,-2.1211 -2.0078,-4.2656 -2.9297,-6.4453 -0.043,-0.1094 -0.0899,-0.2148 -0.1328,-0.3242 0,0 10.7968,3.2578 10.7968,3.2578 0,0 9.3047,9.9492 9.3047,9.9492 0,0 8.7617,-24.914 8.7617,-24.914 0,0 0.004,0 0.004,0 0,0 55.371,-15.7227 55.371,-15.7227 0,0 28.1407,27.8164 28.1407,27.8164 0,0 1.0117,1 1.0117,1 C -0.0039,0 0,0 0,0 Z"
               style="fill:#acacac;fill-opacity:1;fill-rule:nonzero;stroke:none"
               id="path1449" /></g><g
             id="g1451"
             transform="translate(207.1211,287.0391)"><path
               d="m 0,0 c 0,0 -10.6055,0 -10.6055,0 0,0 -62.8281,0 -62.8281,0 0,0 6.4609,3.75 6.4609,3.75 0,0 -39.5781,14.0078 -39.5781,14.0078 0,0 -0.004,0 -0.004,0 0,0 -13.0469,-17.7578 -13.0469,-17.7578 0,0 -4.5078,0 -4.5078,0 0.0781,-0.4141 0.1602,-0.8242 0.2422,-1.2344 0.1211,-0.5937 0.2383,-1.1797 0.3516,-1.7695 0,0 112.8867,0 112.8867,0 0,0 10.4375,0 10.4375,0 0.082,1 0.1406,2 0.1914,3.0039 z"
               style="fill:#acacac;fill-opacity:1;fill-rule:nonzero;stroke:none"
               id="path1453" /></g><g
             id="g1455"
             transform="translate(438.0625,335.9102)"><path
               d="m 0,0 c 0,0 2.2891,13.4883 2.2891,13.4883 -1.6954,0.4414 -3.4961,0.4414 -5.1914,-0.0274 -1.5782,-0.4414 -3,-1.1601 -4.1993,-2.1445 -0.8867,2.4531 -2.2421,4.6563 -4.5117,6.2305 -2.2226,1.5508 -4.7226,2.3594 -7.457,1.9922 -2.9375,-0.4024 -5.5664,-2.1328 -7.1328,-4.6368 -0.7735,2.3477 -1.8867,4.6407 -3.6719,6.2618 -1.9844,1.8047 -4.332,2.9257 -7.0625,2.9257 -0.2344,0 -0.4688,-0.0078 -0.6992,-0.0234 -2.1328,-0.1367 -4.1836,-0.9101 -5.8867,-2.2226 -0.4024,-0.3165 -0.7813,-0.6563 -1.1289,-1.0274 -0.1055,-0.1094 -0.211,-0.2226 -0.3086,-0.3398 -0.0704,0.0351 -0.1407,0.0664 -0.211,0.1015 -1.539,0.7071 -3.2461,1.0117 -4.9375,0.8789 -0.1992,-0.0117 -0.3945,-0.0312 -0.5898,-0.0586 -2.1524,-0.289 -4.168,-1.2968 -5.7031,-2.832 -0.8985,-0.8984 -1.5665,-1.9141 -2.0352,-3.0156 -0.3008,-0.6992 -0.5195,-1.4375 -0.6641,-2.1992 -0.0507,-0.25 -0.0937,-0.5079 -0.125,-0.7657 -1.5,1.1719 -3.2656,1.9844 -5.2812,2.2578 -2.0313,0.2774 -4.0156,-0.082 -5.793,-0.9023 -0.1328,0.1445 -0.2695,0.2891 -0.4101,0.4297 -3.6446,3.6445 -9.8282,3.9687 -13.8907,0.8281 -0.2304,-0.1797 -0.4492,-0.3633 -0.6601,-0.5586 -1.586,0.8203 -3.418,1.2266 -5.1953,1.1602 -0.1524,0.6406 -0.3243,1.2773 -0.5196,1.914 -1.6328,5.2696 -6.914,8.4063 -12.3203,7 -1.0664,-0.2773 -2.0703,-0.6757 -3,-1.2343 -0.0234,0.1015 -0.0508,0.2031 -0.0781,0.3047 -0.6992,2.6015 -2.4492,4.7148 -4.6797,6 -1.3359,0.7695 -2.8437,1.2382 -4.4101,1.3359 -0.6407,0.043 -1.293,0.0234 -1.9454,-0.0664 -0.6992,-0.0938 -1.3867,-0.2656 -2.0468,-0.5039 -0.008,0.1562 -0.0196,0.3125 -0.0313,0.4687 -0.1875,2.6641 -0.3164,5.336 -0.6055,7.9883 -0.0859,0.793 -0.1679,1.5899 -0.25,2.3828 -0.3203,3.0157 -0.6796,6.0274 -1.5898,8.9063 -0.25,0.789 -0.5391,1.5703 -0.8828,2.3359 -1.2383,2.7891 -3.5899,4.9375 -6.5586,5.7539 -3.457,0.9531 -7.1914,-0.0625 -9.7344,-2.5742 -1.5781,-1.5586 -2.6093,-3.2734 -3.1601,-5.4336 -0.0235,-0.0859 -0.043,-0.1758 -0.0625,-0.2617 -0.1446,-0.6289 -0.2266,-1.2656 -0.2969,-1.9024 -0.0352,-0.3203 -0.0664,-0.6367 -0.1016,-0.957 -0.9922,0.8945 -2.1211,1.6172 -3.3632,2.125 -0.3946,0.1641 -0.8047,0.3008 -1.2227,0.418 -4.0117,1.1015 -8.4141,-0.2617 -11.0508,-3.4024 -0.3828,-0.4492 -0.7265,-0.9375 -1.0273,-1.4609 -0.1133,-0.2031 -0.2266,-0.4062 -0.3282,-0.6094 -0.1992,0.7617 -0.4179,1.5117 -0.6718,2.25 -0.0742,0.2227 -0.1524,0.4414 -0.2344,0.6602 -1.0352,2.7305 -2.7188,4.75 -4.9609,6.5781 -3.8008,3.1055 -9.8047,2.6524 -13.1875,-0.8437 -1.3243,-1.3633 -2.3789,-2.7696 -3.1289,-4.5118 -0.0313,-0.0664 -0.0586,-0.1328 -0.086,-0.1992 -0.4375,-1.0664 -0.664,-2.1797 -0.9062,-3.2969 -0.3125,-1.4531 -0.6289,-2.9023 -0.8789,-4.371 -0.0313,-0.1915 -0.0625,-0.3829 -0.0938,-0.5782 -0.0156,-0.1172 -0.0351,-0.2343 -0.0508,-0.3515 -1.875,0.9922 -4.0781,1.414 -6.0937,1.0781 -1.7813,-0.2969 -3.418,-0.8359 -4.8477,-1.8281 -0.4531,-0.3125 -0.8867,-0.6719 -1.2969,-1.0821 -1.6562,-1.6523 -2.6445,-3.8515 -3.0312,-6.1367 -0.008,-0.0469 -0.0156,-0.0937 -0.0234,-0.1406 -0.8868,3.418 -2,6.8164 -3.6602,9.9336 -2.0781,3.9062 -5.6484,6.8164 -10.1094,7.3789 -3.2578,0.4141 -6.207,-0.7461 -8.4648,-2.8008 -0.2383,1.6602 -0.4531,3.3242 -0.6289,4.9883 -0.0508,0.4492 -0.0977,0.8984 -0.1406,1.3476 -0.1836,1.9336 -1.0196,3.6915 -2.2618,5.1055 -0.4804,0.5469 -1.0195,1.043 -1.6054,1.4766 -1.7383,1.2969 -3.8789,2.0664 -6.0469,2.0664 -2.4609,0 -4.8008,-0.9649 -6.6016,-2.5352 -1.9687,-1.7226 -3.289,-4.1679 -3.3906,-6.875 -0.0117,-0.1992 -0.0117,-0.3945 -0.008,-0.5937 0.0976,-4.0039 0.2891,-8.0078 0.5273,-12.0078 0.3203,-5.3125 0.7305,-10.6211 1.1368,-15.9258 0.0742,-0.9961 0.1523,-1.9883 0.2265,-2.9844 0.1016,-1.3476 0.2031,-2.6992 0.3008,-4.0469 0.2266,-2.9961 0.4492,-5.9961 0.668,-8.9922 0.0351,-0.4843 0.0703,-0.9726 0.1054,-1.457 0,0 1.0118,1 1.0118,1 0,0 0.004,0 0.004,0 0,0 1.4765,-0.6055 1.4765,-0.6055 0,0 39.9492,-16.3593 39.9492,-16.3593 0,0 23.6329,30.5156 23.6329,30.5156 0,0 0.004,0 0.004,0 0,0 17.0703,-11.8086 17.0703,-11.8086 0,0 0.004,0 0.004,0 0,0 19.9804,11.957 19.9804,11.957 0,0 1.6563,0.9922 1.6563,0.9922 0,0 0,-0.0039 0,-0.0039 0,0 8.2578,-19.7695 8.2578,-19.7695 0,0 0.004,0 0.004,0 0,0 43.1172,-9.0469 43.1172,-9.0469 0,0 25.1797,19.8516 25.1797,19.8516 0,0 0.0039,0 0.0039,0 0,0 0.5234,-0.4063 0.5234,-0.4063 0,0 0,-0.0039 0,-0.0039 0,0 -0.0039,-0.0039 -0.0039,-0.0039 0,0 25.6875,-26.4141 25.6875,-26.4141 0,0 0.0039,0 0.0039,0 C -31.6055,-14.4727 0,0 0,0 Z"
               style="fill:#acacac;fill-opacity:1;fill-rule:nonzero;stroke:none"
               id="path1457" /></g><g
             id="g1459"
             transform="translate(449.1758,284.0352)"><path
               d="m 0,0 c 0,0 0,3.0039 0,3.0039 0,0 -26.1797,0 -26.1797,0 0,0 -13.1133,13.5586 -13.1133,13.5586 0,0 -37.2422,-1.6602 -37.2422,-1.6602 0,0 -12.2304,-11.8984 -12.2304,-11.8984 0,0 -33.1367,0 -33.1367,0 0,0 -0.004,0 -0.004,0 0,0 -22.0468,31.9649 -22.0468,31.9649 0,0 -9.1641,-3.6172 -9.1641,-3.6172 0,0 -5.0469,-1.75 -5.0469,-1.75 0,0 -6.5156,-2.3672 -6.5156,-2.3672 0,0 -0.582,-0.2149 -0.582,-0.2149 0,0 -6.3867,-2.3359 -6.3867,-2.3359 0,0 -0.086,-0.0313 -0.086,-0.0313 0,0 0,-0.0039 0,-0.0039 0,0 -0.004,0 -0.004,0 0,0 0,0.0039 0,0.0039 0,0 -0.1172,-0.0429 -0.1172,-0.0429 0,0 -0.004,0 -0.004,0 0,0 -0.004,0.0078 -0.004,0.0078 0,0 -0.0234,0.0469 -0.0234,0.0469 0,0 -0.043,0.039 -0.043,0.039 0,0 -6.7422,6.5078 -6.7422,6.5078 0,0 -6.5078,6.0469 -6.5078,6.0469 0,0 0,0.0039 0,0.0039 0,0 -0.004,0 -0.004,0 0,0 -12.6758,-25.1562 -12.6758,-25.1562 0,0 0.004,0 0.004,0 0,0 9.6133,-9.1016 9.6133,-9.1016 0,0 -53.8125,0 -53.8125,0 0,0 -10.6055,0 -10.6055,0 -0.164,-1 -0.1601,-2.0039 -0.0234,-3.0039 0,0 10.4375,0 10.4375,0 C -242.2461,0 0,0 0,0 Z"
               style="fill:#acacac;fill-opacity:1;fill-rule:nonzero;stroke:none"
               id="path1461" /></g><g
             id="g1463"
             transform="translate(440.3516,349.3984)"><path
               d="m 0,0 c 0,0 3.4336,20.2461 3.4336,20.2461 -0.1875,0.332 -0.3789,0.6641 -0.5625,1.0078 -1.0898,2.0078 -2.0469,4.0586 -3.1523,6.0469 -0.1602,0.168 -0.3204,0.3398 -0.4844,0.5078 -0.375,0.3945 -0.7539,0.7852 -1.1289,1.1836 -2.3828,2.5273 -4.4336,5.1523 -6.3672,7.9805 0.2695,-0.4258 0.543,-0.8516 0.8203,-1.2735 -0.5313,0.8086 -1.0625,1.6172 -1.5977,2.4258 0.2579,-0.3906 0.5157,-0.7734 0.7774,-1.1523 -0.2578,0.4062 -0.5156,0.8125 -0.7695,1.2226 -0.0079,-0.0156 -0.0157,-0.0312 -0.0235,-0.0469 -0.1172,-0.2148 -0.2226,-0.4336 -0.3203,-0.6562 -0.5664,0.1367 -1.1445,0.2266 -1.7344,0.2617 -0.125,1.3555 -0.2578,2.7149 -0.4218,4.0664 -0.0235,0.1719 -0.043,0.3399 -0.0665,0.5117 -0.3398,0.5352 -0.6796,1.0664 -1.0312,1.5977 -2.5195,3.2187 -5.3516,6.1055 -7.5899,9.5937 -0.4921,0.7618 -0.9765,1.5313 -1.457,2.3047 -1.2578,0.1758 -2.5664,0.1016 -3.8867,-0.2617 -2.2461,-0.6172 -4.0625,-1.957 -5.3516,-3.7383 -0.4609,-0.6367 -0.8554,-1.3281 -1.1757,-2.0625 -0.6211,0.375 -1.2657,0.711 -1.9063,1.0117 -3.1602,1.4805 -6.832,0.8711 -9.5898,-1.0546 0,0 -0.0039,-0.0039 -0.0039,-0.0039 -1.1016,-0.7657 -2.0547,-1.7461 -2.7696,-2.8829 -0.2773,-0.4336 -0.5156,-0.8945 -0.7148,-1.3711 -0.7539,-1.8125 -1.2383,-3.7187 -1.5938,-5.664 -0.1797,0.8437 -0.3984,1.7031 -0.7578,2.4687 -0.5312,1.1211 -1.1055,2.1641 -1.7734,3.2071 -0.6211,0.9687 -1.3594,1.832 -2.1992,2.5507 -0.375,0.3282 -0.7735,0.625 -1.1914,0.8907 -0.6875,0.4336 -1.4336,0.7851 -2.2266,1.039 -0.5274,0.168 -1.0781,0.293 -1.6484,0.3711 -1.3477,0.1836 -2.7266,0.0782 -4.0313,-0.2812 -0.1211,-0.0352 -0.2422,-0.0703 -0.3672,-0.1094 -1.9101,-0.6094 -3.6406,-1.7734 -4.8594,-3.3984 -1.2656,-1.6875 -2.3789,-3.4688 -2.9179,-5.5274 -0.2383,-0.9258 -0.4649,-1.8515 -0.6875,-2.7773 -0.0782,-0.3164 -0.1524,-0.6328 -0.2266,-0.9531 0,0 0,-0.004 0,-0.004 -0.0156,-0.0546 -0.0312,-0.1054 -0.0391,-0.164 -0.0859,-0.3477 -0.1679,-0.6953 -0.2421,-1.043 -0.043,-0.1719 -0.0821,-0.3476 -0.1211,-0.5234 -0.0938,0.2383 -0.1993,0.4726 -0.3125,0.7031 -0.1524,0.3086 -0.3203,0.6055 -0.5039,0.8945 -0.0235,0.043 -0.0508,0.0821 -0.0743,0.1211 -0.0039,0 -0.0039,0.0039 -0.0039,0.0039 -1.8125,2.7852 -4.9804,4.5899 -8.3945,4.5899 -0.1914,0 -0.3867,-0.0039 -0.5742,-0.0196 -0.8789,-0.0468 -1.7266,-0.2148 -2.5313,-0.4843 -2.0429,-0.6797 -3.7968,-2.0157 -5.0234,-3.7617 -0.1094,-0.1524 -0.2148,-0.3125 -0.3125,-0.4727 0,0 0,-0.0039 -0.0039,-0.0039 -0.7227,-1.1602 -1.2266,-2.4727 -1.4453,-3.8867 -0.1367,-0.8867 -0.2539,-1.7774 -0.3477,-2.6719 -0.0664,-0.5977 -0.125,-1.1914 -0.1758,-1.7891 -0.0898,-1.0117 -0.1601,-2.0234 -0.2226,-3.039 -0.043,-0.6367 -0.082,-1.2735 -0.1172,-1.9102 -0.0234,-0.414 -0.0469,-0.8242 -0.0742,-1.2383 0,0 0,-0.0039 0,-0.0039 -0.0508,-0.8828 -0.1016,-1.7617 -0.1641,-2.6406 -0.1797,-2.5781 -0.3359,-5.1602 -0.4883,-7.7422 -0.0664,0.082 -0.1328,0.1602 -0.1992,0.2422 -2.3125,2.7461 -5.6328,4.2852 -9.2617,3.7891 -0.3398,-0.0469 -0.6797,-0.1094 -1.0117,-0.1914 -0.4414,0.2656 -0.8946,0.5 -1.3555,0.6953 -2.5469,1.0742 -5.2226,0.9414 -7.7734,0 -0.3477,-0.1289 -0.6875,-0.2735 -1.0157,-0.4336 -1.2148,-0.5938 -2.2734,-1.3867 -3.164,-2.336 -0.0195,0.0664 -0.0391,0.1368 -0.0586,0.2071 -0.3399,1.1523 -0.7305,2.3164 -1.1875,3.4648 -0.7617,1.9336 -1.7188,3.8086 -2.9492,5.4492 -0.0625,0.8828 -0.1289,1.7657 -0.1992,2.6485 -0.008,0.1289 -0.0157,0.2578 -0.0274,0.3867 -0.0391,0.5117 -0.0781,1.0273 -0.1172,1.5391 -0.207,2.6992 -0.4219,5.3984 -0.6484,8.1015 -0.0274,0.3594 -0.0547,0.7149 -0.0899,1.0742 0,0 0,0.0039 0,0.0039 -0.1132,1.3907 -0.2304,2.7774 -0.3515,4.168 -0.0352,0.4336 -0.0703,0.8633 -0.1133,1.2969 -0.0547,0.6719 -0.1133,1.3398 -0.1719,2.0117 -0.2812,3.1641 -0.5937,6.3438 -0.9648,9.5156 -0.2031,2.5117 -0.4102,5.0196 -0.6172,7.5313 -0.3359,4.0898 -0.625,8.1914 -0.9727,12.2851 -0.1406,1.6797 -0.2929,3.3594 -0.4648,5.0352 -0.2227,2.1562 -0.4453,4.3086 -0.6992,6.457 -0.2735,2.3203 -0.586,4.6328 -0.9766,6.9453 -0.1172,0.6993 -0.2812,1.3946 -0.4922,2.0703 -1.1054,3.6016 -3.4804,6.7969 -6.9648,8.418 0,0 -25.0469,0 -25.0469,0 -0.6445,-0.5742 -1.2539,-1.1875 -1.832,-1.8164 -0.7422,-0.8008 -1.4336,-1.6289 -2.0742,-2.4414 -2.7188,-3.4453 -4.7813,-7.3867 -6.6641,-11.3281 -0.6289,-1.3164 -1.2227,-2.6524 -1.7813,-4.0039 -0.9843,-2.3711 -1.8671,-4.7969 -2.6875,-7.2422 -1.6015,-0.543 -3.1328,-1.461 -4.2734,-2.625 -0.0664,-0.0664 -0.1289,-0.1367 -0.1914,-0.2031 -1.5703,-1.6641 -2.6484,-3.4961 -3.6602,-5.5508 -0.8984,-1.8125 -1.2617,-3.9297 -1.6953,-5.8867 -0.1992,-0.9063 -0.3867,-1.8125 -0.5547,-2.7227 -0.2304,-1.2422 -0.4335,-2.4961 -0.6093,-3.7539 -0.2578,-1.8477 -0.4571,-3.7031 -0.6524,-5.5586 0,-0.0039 0,-0.0039 0,-0.0078 -0.0195,-0.1719 -0.0351,-0.3438 -0.0547,-0.5156 -0.0859,-0.8672 -0.1796,-1.7383 -0.2734,-2.6094 -0.7461,0.1836 -1.5117,0.2812 -2.2852,0.2812 -2.6367,0 -5.2031,-1.0625 -7.0664,-2.9296 -0.8398,-0.8399 -1.4804,-1.7813 -1.9492,-2.7969 -0.0312,0.082 -0.0625,0.1679 -0.0937,0.25 -1.6133,4.1562 -6.2461,6.6133 -10.5821,6.0234 -0.7851,-0.1094 -1.5664,-0.3203 -2.3164,-0.6289 -1.3672,2.0391 -3.5195,3.6016 -5.7968,4.2266 -1.1954,0.3281 -2.4454,0.4218 -3.6719,0.2929 0,0 -0.004,0 -0.004,0 -2.6953,-0.2773 -5.2852,-1.6093 -6.9102,-3.8281 -0.3906,-0.5273 -0.7539,-1.1015 -1.0742,-1.6992 -0.008,-0.0117 -0.0156,-0.0273 -0.0234,-0.0391 -0.8594,0.1094 -1.7383,0.1133 -2.6094,0 -2.4336,-0.3164 -4.4727,-1.2031 -6.2734,-2.875 -1.0508,0.918 -2.2383,1.5782 -3.4415,2.2813 -0.0976,0.0586 -0.1992,0.1133 -0.3007,0.164 -0.5352,0.2891 -1.1055,0.5274 -1.6914,0.7071 -1.4766,0.4609 -3.0782,0.5898 -4.625,0.375 -0.4414,0.2617 -0.9024,0.4922 -1.3789,0.6914 -1.6485,0.6992 -3.4102,0.9883 -5.1368,0.8828 -0.1601,-0.0078 -0.3203,-0.0195 -0.4765,-0.0352 -0.7735,0.9805 -1.7071,1.8164 -2.6797,2.6016 -1.207,0.9766 -2.6797,1.6133 -4.211,1.9023 -0.3984,2.1563 -1.1054,4.1055 -2.2617,6.0235 -1.8359,3.0312 -5.0859,4.9648 -8.6562,4.9648 -3.3281,0 -6.3203,-1.6679 -8.2227,-4.3242 -1.7812,3.5234 -3.7031,6.9727 -5.8047,10.293 -0.4648,0.7304 -0.9375,1.4531 -1.414,2.1719 -0.3789,-0.3243 -0.7578,-0.6524 -1.1328,-0.9805 -1.5508,-1.4024 -3.1094,-2.793 -4.6797,-4.1758 0.2109,0.1797 0.4258,0.3594 0.6367,0.543 -0.5664,-0.4883 -1.1328,-0.9805 -1.6953,-1.4688 0.3515,0.3086 0.707,0.6172 1.0586,0.9258 -3.418,-2.8711 -7.0157,-5.3711 -10.9414,-7.5664 -0.1953,-0.1094 -0.3907,-0.2188 -0.586,-0.332 -0.5781,-0.3203 -1.1523,-0.6485 -1.7265,-0.9805 -0.1211,-0.0859 -0.2422,-0.1758 -0.3594,-0.2617 -0.3672,-0.3281 -0.7266,-0.6563 -1.082,-0.9922 -2.3243,-2.3711 -4.6719,-4.7188 -6.9961,-7.0899 -1.3672,-1.3906 -2.7266,-2.7929 -4.0703,-4.207 -0.668,-0.8164 -1.3243,-1.6406 -1.961,-2.4844 -0.1289,-0.1914 -0.2578,-0.3789 -0.3867,-0.5703 0,0 0,-0.0039 0,-0.0039 -0.9102,-1.3398 -1.8125,-2.6758 -2.7461,-3.9922 -1.1133,-1.5742 -2.2656,-3.1211 -3.5156,-4.6093 -0.1953,-0.2305 -0.3906,-0.461 -0.5899,-0.6914 -0.3672,-0.4219 -0.7343,-0.8399 -1.1054,-1.254 -0.0782,-0.0898 -0.1563,-0.1757 -0.2344,-0.2656 -0.1133,-0.1289 -0.2266,-0.2539 -0.3438,-0.3789 -0.1601,-0.1797 -0.3203,-0.3594 -0.4843,-0.539 -0.3711,-0.4141 -0.7461,-0.8282 -1.1211,-1.2422 -0.3242,-0.3594 -0.6446,-0.7149 -0.9649,-1.0743 0,0 -0.004,0 -0.004,-0.0039 -0.2265,-0.25 -0.4531,-0.5 -0.6758,-0.7539 0,0 -0.004,0 -0.004,0 -0.1523,-0.1718 -0.3086,-0.3476 -0.4648,-0.5234 -0.008,-0.0117 -0.0156,-0.0195 -0.0234,-0.0313 -0.6407,-0.832 -1.2618,-1.6796 -1.879,-2.5273 -1.4296,-2.3086 -2.7656,-4.668 -4.1601,-7 -1.7188,-2.875 -3.5586,-5.6719 -5.4063,-8.4609 -1.9218,-3.2149 -3.7578,-6.4727 -5.5468,-9.7618 -1.0391,-2.121 -2.0078,-4.2656 -2.9297,-6.4453 -0.043,-0.1093 -0.0899,-0.2148 -0.1328,-0.3242 0,0 10.7968,3.2578 10.7968,3.2578 0,0 9.3047,9.9492 9.3047,9.9492 0,0 0,0.0039 0,0.0039 0,0 0.004,0 0.004,0 0,0 8.7618,-24.9179 8.7618,-24.9179 0,0 55.371,-15.7227 55.371,-15.7227 0,0 28.1407,27.8164 28.1407,27.8164 0,0 1.0117,1 1.0117,1 0,0 0.004,0 0.004,0 0,0 1.4766,-0.6054 1.4766,-0.6054 0,0 39.9492,-16.3594 39.9492,-16.3594 0,0 23.6328,30.5156 23.6328,30.5156 0,0 0.004,0 0.004,0 0,0 17.0703,-11.8086 17.0703,-11.8086 0,0 0.004,0 0.004,0 0,0 19.9805,11.957 19.9805,11.957 0,0 1.6562,0.9922 1.6562,0.9922 0,0 0.004,0 0.004,0 0,0 8.2579,-19.7734 8.2579,-19.7734 0,0 43.1171,-9.0469 43.1171,-9.0469 0,0 25.1797,19.8516 25.1797,19.8516 0,0 0.0039,0 0.0039,0 0,0 0.5235,-0.4063 0.5235,-0.4063 0,0 0,-0.0039 0,-0.0039 0,0 0,-0.0039 0,-0.0039 0,0 25.6875,-26.414 25.6875,-26.414 0,0 31.6054,14.4726 31.6054,14.4726 C -2.2891,-13.4883 0,0 0,0 Z"
               style="fill:#8d8d8d;fill-opacity:1;fill-rule:nonzero;stroke:none"
               id="path1465" /></g><g
             id="g1467"
             transform="translate(251.3152,296.1396)"><path
               d="m 0,0 c 0,0 9.6172,-9.1016 9.6172,-9.1016 0,0 -127.25,0 -127.25,0 0,0 6.4648,3.75 6.4648,3.75 0,0 -39.582,14.0078 -39.582,14.0078 0,0 -13.0469,-17.7578 -13.0469,-17.7578 0,0 -4.5096,0 -4.5096,0 0.1994,-1.0077 0.4022,-2.006 0.5959,-3.0039 0,0 365.57,0 365.57,0 0,0 0,3.0039 0,3.0039 0,0 -26.1797,0 -26.1797,0 0,0 -13.1133,13.5586 -13.1133,13.5586 0,0 -37.2422,-1.6601 -37.2422,-1.6601 0,0 -12.2304,-11.8985 -12.2304,-11.8985 0,0 -33.1407,0 -33.1407,0 0,0 -22.0468,31.9649 -22.0468,31.9649 0,0 -9.1641,-3.6172 -9.1641,-3.6172 0,0 -5.0469,-1.75 -5.0469,-1.75 0,0 -6.5156,-2.3672 -6.5156,-2.3672 0,0 -0.582,-0.2148 -0.582,-0.2148 0,0 -6.3868,-2.336 -6.3868,-2.336 0,0 -0.0898,-0.0351 -0.0898,-0.0351 0,0 0,0.0039 0,0.0039 0,0 -0.1211,-0.043 -0.1211,-0.043 0,0 -0.0039,0.0078 -0.0039,0.0078 0,0 -0.0234,0.0469 -0.0234,0.0469 0,0 -0.043,0.0391 -0.043,0.0391 0,0 -6.7422,6.5078 -6.7422,6.5078 0,0 -6.5117,6.0508 -6.5117,6.0508 C 12.6758,25.1563 0,0 0,0 Z"
               style="fill:#8d8d8d;fill-opacity:1;fill-rule:nonzero;stroke:none"
               id="path1469" /></g><g
             id="g1471"
             transform="translate(245.8152,473.8232)"><path
               d="m 0,0 c -3.2422,-1.1172 -6.5,-2.1836 -9.7539,-3.2812 -5.0195,-1.7618 -10.082,-3.4805 -14.9805,-5.5352 -3.2617,-1.6758 -6.4297,-3.5234 -9.7265,-5.1289 -3.1875,-1.5469 -6.3985,-2.9805 -9.5274,-4.6211 -5.9492,-3.9024 -11.7578,-8.0469 -17.6055,-12.1055 -4.2343,-3.0664 -8.2968,-6.332 -12.3867,-9.5898 -4.4414,-3.5352 -9.2304,-6.4141 -14.1289,-9.2227 -0.8789,-0.5586 -1.75,-1.1289 -2.6133,-1.707 -1.1718,-0.9649 -2.3125,-1.9336 -3.457,-2.9336 -1.5508,-1.4023 -3.1094,-2.793 -4.6797,-4.1758 0.211,0.1797 0.4258,0.3594 0.6367,0.543 -0.5651,-0.489 -1.1303,-0.9779 -1.6955,-1.4669 -0.13,-0.1128 -0.2602,-0.2255 -0.3904,-0.3378 0.1302,0.1126 0.2603,0.2252 0.3904,0.3378 0.354,0.307 0.7075,0.6154 1.0588,0.9239 -3.4179,-2.8711 -7.0156,-5.3711 -10.9414,-7.5664 -0.7734,-0.4336 -1.543,-0.8672 -2.3125,-1.3125 -0.1211,-0.0859 -0.2422,-0.1758 -0.3594,-0.2617 -0.3671,-0.3281 -0.7265,-0.6563 -1.082,-0.9922 -3.6875,-3.7656 -7.4414,-7.4727 -11.0664,-11.2969 -0.668,-0.8164 -1.3242,-1.6406 -1.9609,-2.4843 -2.293,-3.379 -4.5352,-6.7618 -7.2383,-9.8672 -1.7734,-2.0391 -3.6133,-4.0157 -5.4024,-6.0352 -0.1466,-0.1908 -0.2921,-0.3823 -0.437,-0.5742 0,0 211.3863,0 211.3863,0 0,0 2.6328,0.543 2.6328,0.543 0,0 -0.0039,-0.0196 -0.0039,-0.0196 0,0 7.2851,1.4727 7.2851,1.4727 0,0 -0.0039,-0.0391 -0.0039,-0.0391 0,0 0.5469,0.0742 0.5469,0.0742 0,0 8.1641,1.0391 8.1641,1.0391 0,0 -0.0079,-0.043 -0.0079,-0.043 0,0 1.5586,0.2227 1.5586,0.2227 0,0 17.7891,2.5156 17.7891,2.5156 0,0 -0.4727,-5.1601 -0.4727,-5.1601 0,0 0.3946,0 0.3946,0 0,0 0.4101,0.0039 0.4101,0.0039 0,0 0.4141,0 0.4141,0 0,0 0.4102,0 0.4102,0 0,0 0.4023,0 0.4023,0 0,0 0.4062,0 0.4062,0 0,0 0.3985,0.0039 0.3985,0.0039 0,0 0.3867,0 0.3867,0 0,0 0.3867,0 0.3867,0 0,0 0.3711,0 0.3711,0 0,0 0.375,0 0.375,0 0,0 0.3711,0 0.3711,0 0,0 0.3516,0 0.3516,0 0,0 0.3515,0 0.3515,0 0,0 0.3555,-0.0039 0.3555,-0.0039 0,0 0.3516,-0.0039 0.3516,-0.0039 0,0 0.3515,-0.0079 0.3515,-0.0079 0,0 0.3516,-0.0078 0.3516,-0.0078 0,0 0.3398,-0.0156 0.3398,-0.0156 0,0 0.336,-0.0156 0.336,-0.0156 0,0 0.3437,-0.0235 0.3437,-0.0235 0,0 0.3399,-0.0195 0.3399,-0.0195 0,0 0.3398,-0.0273 0.3398,-0.0273 0,0 0.3399,-0.0313 0.3399,-0.0313 0,0 0.3281,-0.0312 0.3281,-0.0312 0,0 0.332,-0.0352 0.332,-0.0352 0,0 0.3359,-0.043 0.3359,-0.043 0,0 0.3399,-0.0429 0.3399,-0.0429 0,0 0.3476,-0.0508 0.3476,-0.0508 0,0 0.3438,-0.0508 0.3438,-0.0508 0,0 0.3437,-0.0547 0.3437,-0.0547 0,0 0.3516,-0.0625 0.3516,-0.0625 0,0 0.3516,-0.0625 0.3516,-0.0625 0,0 0.1406,-0.0234 0.1406,-0.0234 0,0 73.7847,0 73.7847,0 -0.2731,0.5252 -0.5511,1.0478 -0.8394,1.5664 -0.5352,0.5664 -1.0781,1.125 -1.6133,1.6914 -2.3828,2.5273 -4.4336,5.1523 -6.3672,7.9805 0.2696,-0.4258 0.543,-0.8516 0.8203,-1.2735 -0.5312,0.8086 -1.0625,1.6172 -1.5976,2.4258 0.2578,-0.3906 0.5156,-0.7734 0.7773,-1.1523 -1.4687,2.3125 -2.8515,4.6758 -4.3672,6.957 -2.5195,3.2188 -5.3515,6.1055 -7.5898,9.5938 -2.0898,3.2539 -4.0664,6.5781 -6.0234,9.914 -1.4414,2.3516 -2.9883,4.6524 -4.25,7.1094 -0.7774,1.5195 -1.4493,3.0859 -2.1094,4.6562 -1.1133,0.6524 -2.2422,1.2813 -3.3711,1.9063 -4.207,2.3359 -7.8242,5.2383 -11.4297,8.3828 0.2266,-0.1992 0.457,-0.3984 0.6836,-0.5977 0.0773,-0.0656 0.1541,-0.1313 0.2307,-0.1969 -0.0587,0.0513 -0.1174,0.1027 -0.176,0.154 0.1875,-0.1602 0.375,-0.3242 0.5625,-0.4844 -0.1297,0.1101 -0.2579,0.2203 -0.3865,0.3304 0.5351,-0.4682 1.0705,-0.9364 1.6091,-1.4046 -0.8867,0.7734 -1.7773,1.543 -2.664,2.3125 -1.918,1.6523 -3.8125,3.3203 -5.5938,5.1211 -1.3789,1.3945 -2.7695,2.7578 -4.2382,4.0469 -1.8399,1.4023 -3.7305,2.7304 -5.6797,3.9726 -0.418,0.2149 -0.836,0.418 -1.2618,0.6172 -2.039,0.7656 -4.0937,1.4883 -6.1367,2.2461 0.4669,-0.1796 0.9318,-0.361 1.3975,-0.5403 0.193,-0.0738 0.386,-0.1476 0.5791,-0.2214 -0.1933,0.0732 -0.3863,0.1472 -0.5791,0.2214 -0.8694,0.3325 -1.7383,0.6649 -2.6045,0.9973 0.4023,-0.1523 0.8047,-0.3047 1.207,-0.457 -4.6875,1.832 -9.3242,3.7773 -13.9648,5.7305 -2.125,0.8984 -4.2852,1.7187 -6.3711,2.7148 -1.9023,0.9024 -3.7695,1.8555 -5.7227,2.6484 -2.457,0.8594 -4.9336,1.6719 -7.3945,2.5196 1.0742,-0.3711 2.1484,-0.7383 3.2227,-1.1055 -4.0703,1.3828 -8.1133,2.8008 -12.2227,4.0703 -3.3945,1.0508 -6.6094,2.3711 -9.8516,3.7813 0.4063,-0.1797 0.8086,-0.3555 1.2149,-0.5352 -2.1563,0.9375 -4.3242,1.7188 -6.582,2.3828 -0.5586,0.1641 -1.1172,0.3282 -1.6758,0.4922 -0.3867,0.1055 -0.7774,0.207 -1.168,0.3008 C 59.7031,0.1641 55.8438,0.0625 51.9922,-0.2695 46.1602,-1.0938 40.3594,-2.1055 34.4688,-2.457 30.7148,-2.6836 26.918,-2.5391 23.168,-2.2773 17.2383,-1.8594 10.9414,-0.7891 5.6406,2.0391 3.7891,1.3047 1.8945,0.6523 0,0 Z"
               style="fill:#000000;fill-opacity:1;fill-rule:nonzero;stroke:none"
               id="path1473" /></g><g
             id="g1475"
             transform="translate(345.428,461.5326)"><path
               d="m 0,0 c -0.2197,0.0811 -0.4394,0.1624 -0.6597,0.2437 -0.0039,0 -0.0117,0.0039 -0.0157,0.0039 C -0.4502,0.1651 -0.2251,0.0826 0,0 Z"
               style="fill:#000000;fill-opacity:1;fill-rule:nonzero;stroke:none"
               id="path1477" /></g><g
             id="g1479"
             transform="translate(245.8152,473.8232)"><path
               d="m 0,0 c -3.2422,-1.1172 -6.5,-2.1836 -9.7539,-3.2812 -5.0195,-1.7618 -10.082,-3.4805 -14.9805,-5.5352 -3.2617,-1.6758 -6.4297,-3.5234 -9.7265,-5.1289 -3.1875,-1.5469 -6.3985,-2.9805 -9.5274,-4.6211 -5.9492,-3.9024 -11.7578,-8.0469 -17.6055,-12.1055 -4.2343,-3.0664 -8.2968,-6.332 -12.3867,-9.5898 -4.4414,-3.5352 -9.2304,-6.4141 -14.1289,-9.2227 -0.8789,-0.5586 -1.75,-1.1289 -2.6133,-1.707 -1.1718,-0.9649 -2.3125,-1.9336 -3.457,-2.9336 -1.5508,-1.4023 -3.1094,-2.793 -4.6797,-4.1758 0.211,0.1797 0.4258,0.3594 0.6367,0.543 -0.5651,-0.489 -1.1303,-0.9779 -1.6955,-1.4669 -0.13,-0.1128 -0.2602,-0.2255 -0.3904,-0.3378 0.1302,0.1126 0.2603,0.2252 0.3904,0.3378 0.354,0.307 0.7075,0.6154 1.0588,0.9239 -3.4179,-2.8711 -7.0156,-5.3711 -10.9414,-7.5664 -0.7734,-0.4336 -1.543,-0.8672 -2.3125,-1.3125 -0.1211,-0.0859 -0.2422,-0.1758 -0.3594,-0.2617 -0.3671,-0.3281 -0.7265,-0.6563 -1.082,-0.9922 -3.6875,-3.7656 -7.4414,-7.4727 -11.0664,-11.2969 -0.668,-0.8164 -1.3242,-1.6406 -1.9609,-2.4843 -2.293,-3.379 -4.5352,-6.7618 -7.2383,-9.8672 -1.7734,-2.0391 -3.6133,-4.0157 -5.4024,-6.0352 -0.1466,-0.1908 -0.2921,-0.3823 -0.437,-0.5742 0,0 211.3863,0 211.3863,0 0,0 2.6328,0.543 2.6328,0.543 0,0 -0.0039,-0.0196 -0.0039,-0.0196 0,0 7.2851,1.4727 7.2851,1.4727 0,0 -0.0039,-0.0391 -0.0039,-0.0391 0,0 0.5508,0.0742 0.5508,0.0742 0,0 8.1641,1.0391 8.1641,1.0391 0,0 -0.0078,-0.043 -0.0078,-0.043 0,0 1.5546,0.2227 1.5546,0.2227 0,0 17.7891,2.5156 17.7891,2.5156 0,0 -0.4805,-5.1601 -0.4805,-5.1601 0,0 0.4024,0 0.4024,0 0,0 0.4101,0.0039 0.4101,0.0039 0,0 0.4141,0 0.4141,0 0,0 0.4102,0 0.4102,0 0,0 0.4023,0 0.4023,0 0,0 0.4062,0 0.4062,0 0,0 0.3985,0.0039 0.3985,0.0039 0,0 0.3867,0 0.3867,0 0,0 0.3867,0 0.3867,0 0,0 0.3711,0 0.3711,0 0,0 0.375,0 0.375,0 0,0 0.3711,0 0.3711,0 0,0 0.3516,0 0.3516,0 0,0 0.3515,0 0.3515,0 0,0 0.3555,-0.0039 0.3555,-0.0039 0,0 0.3516,-0.0039 0.3516,-0.0039 0,0 0.3515,-0.0079 0.3515,-0.0079 0,0 0.3516,-0.0078 0.3516,-0.0078 0,0 0.3398,-0.0156 0.3398,-0.0156 0,0 0.336,-0.0156 0.336,-0.0156 0,0 0.3437,-0.0235 0.3437,-0.0235 0,0 0.3399,-0.0195 0.3399,-0.0195 0,0 0.3398,-0.0273 0.3398,-0.0273 0,0 0.3399,-0.0313 0.3399,-0.0313 0,0 0.3281,-0.0312 0.3281,-0.0312 0,0 0.332,-0.0352 0.332,-0.0352 0,0 0.3359,-0.043 0.3359,-0.043 0,0 0.3399,-0.0429 0.3399,-0.0429 0,0 0.3476,-0.0508 0.3476,-0.0508 0,0 0.3438,-0.0508 0.3438,-0.0508 0,0 0.3437,-0.0547 0.3437,-0.0547 0,0 0.3516,-0.0625 0.3516,-0.0625 0,0 0.3516,-0.0625 0.3516,-0.0625 0,0 0.1406,-0.0234 0.1406,-0.0234 0,0 73.7847,0 73.7847,0 -0.2731,0.5252 -0.5511,1.0478 -0.8394,1.5664 -0.5352,0.5664 -1.0781,1.125 -1.6133,1.6914 -2.3828,2.5273 -4.4336,5.1523 -6.3672,7.9805 0.2696,-0.4258 0.543,-0.8516 0.8203,-1.2735 -0.5312,0.8086 -1.0625,1.6172 -1.5976,2.4258 0.2578,-0.3906 0.5156,-0.7734 0.7773,-1.1523 -1.4687,2.3125 -2.8515,4.6758 -4.3672,6.957 -2.5195,3.2188 -5.3515,6.1055 -7.5898,9.5938 -2.0898,3.2539 -4.0664,6.5781 -6.0234,9.914 -1.4414,2.3516 -2.9883,4.6524 -4.25,7.1094 -0.7774,1.5195 -1.4493,3.0859 -2.1094,4.6562 -1.1133,0.6524 -2.2422,1.2813 -3.3711,1.9063 -4.207,2.3359 -7.8242,5.2383 -11.4297,8.3828 0.2266,-0.1992 0.457,-0.3984 0.6836,-0.5977 0.0773,-0.0656 0.1541,-0.1313 0.2307,-0.1969 -0.0587,0.0513 -0.1174,0.1027 -0.176,0.154 0.1875,-0.1602 0.375,-0.3242 0.5625,-0.4844 -0.1297,0.1101 -0.2579,0.2203 -0.3865,0.3304 0.5351,-0.4682 1.0705,-0.9364 1.6091,-1.4046 -0.8867,0.7734 -1.7773,1.543 -2.664,2.3125 -1.918,1.6523 -3.8125,3.3203 -5.5938,5.1211 -1.3789,1.3945 -2.7695,2.7578 -4.2382,4.0469 -1.8399,1.4023 -3.7305,2.7304 -5.6797,3.9726 -0.418,0.2149 -0.836,0.418 -1.2618,0.6172 -2.039,0.7656 -4.0937,1.4883 -6.1367,2.2461 0.4669,-0.1796 0.9318,-0.361 1.3975,-0.5403 0.193,-0.0738 0.386,-0.1476 0.5791,-0.2214 -0.1933,0.0732 -0.3863,0.1472 -0.5791,0.2214 -0.8694,0.3325 -1.7383,0.6649 -2.6045,0.9973 0.4023,-0.1523 0.8047,-0.3047 1.207,-0.457 -4.6875,1.832 -9.3242,3.7773 -13.9648,5.7305 -2.125,0.8984 -4.2852,1.7187 -6.3711,2.7148 -1.9023,0.9024 -3.7695,1.8555 -5.7227,2.6484 -2.457,0.8594 -4.9336,1.6719 -7.3945,2.5196 1.0742,-0.3711 2.1484,-0.7383 3.2227,-1.1055 -4.0703,1.3828 -8.1133,2.8008 -12.2227,4.0703 -3.3945,1.0508 -6.6094,2.3711 -9.8516,3.7813 0.4063,-0.1797 0.8086,-0.3555 1.2149,-0.5352 -2.1563,0.9375 -4.3242,1.7188 -6.582,2.3828 -0.5586,0.1641 -1.1172,0.3282 -1.6758,0.4922 -0.3867,0.1055 -0.7774,0.207 -1.168,0.3008 C 59.7031,0.1641 55.8438,0.0625 51.9922,-0.2695 46.1602,-1.0938 40.3594,-2.1055 34.4688,-2.457 30.7148,-2.6836 26.918,-2.5391 23.168,-2.2773 17.2383,-1.8594 10.9414,-0.7891 5.6406,2.0391 3.7891,1.3047 1.8945,0.6523 0,0 Z"
               style="fill:#ffffff;fill-opacity:1;fill-rule:nonzero;stroke:none"
               id="path1481" /></g><g
             id="g1483"
             transform="translate(345.428,461.5326)"><path
               d="m 0,0 c -0.2197,0.0811 -0.4394,0.1624 -0.6597,0.2437 -0.0039,0 -0.0117,0.0039 -0.0157,0.0039 C -0.4502,0.1651 -0.2251,0.0826 0,0 Z"
               style="fill:#ffffff;fill-opacity:1;fill-rule:nonzero;stroke:none"
               id="path1485" /></g><g
             id="g1487"
             transform="translate(291.6878,379.9588)"><path
               d="m 0,0 c 0,0 0.754,-4.8283 0.754,-4.8283 0,0 34.1518,0 34.1518,0 0,0 31.5975,4.3424 31.5975,4.3424 0,0 0.3817,13.3658 0.3817,13.3658 C 66.885,12.8799 0,0 0,0 Z"
               style="fill:#ffffff;fill-opacity:1;fill-rule:nonzero;stroke:none"
               id="path1489" /></g><g
             id="g1491"
             transform="translate(362.8347,399.6591)"><path
               d="m 0,0 c -0.1914,-0.0039 -0.3867,-0.0117 -0.582,-0.0273 0,0 -79.3711,-16.6407 -79.3711,-16.6407 0,0 -4.4961,-7.8633 -4.4961,-7.8633 0,0 162.525,0 162.525,0 -0.2737,0.5265 -0.5524,1.0506 -0.8414,1.5704 -0.5352,0.5664 -1.0781,1.125 -1.6133,1.6914 -0.3003,0.3185 -0.5952,0.6384 -0.8854,0.9602 0,0 -51.638,20.0007 -51.638,20.0007 -0.9493,0.0039 -1.8985,0.0039 -2.8516,0 -1.6797,0.0274 -3.3633,0.0625 -5.043,0.082 C 13.25,-0.1758 11.3164,-0.0117 9.3633,0.1055 8.3906,0.1602 7.418,0.1875 6.4297,0.1875 4.2891,0.1875 2.1328,0.0781 0,0 Z"
               style="fill:#ffffff;fill-opacity:1;fill-rule:nonzero;stroke:none"
               id="path1493" /></g><g
             id="g1495"
             transform="translate(272.9334,375.1278)"><path
               d="m 0,0 c 0,0 2.7392,0 2.7392,0 0,0 -2.0921,0.9804 -2.0921,0.9804 C 0.6471,0.9804 0,0 0,0 Z"
               style="fill:#ffffff;fill-opacity:1;fill-rule:nonzero;stroke:none"
               id="path1497" /></g><g
             id="g1499"
             transform="translate(203.3437,345.9375)"><path
               d="m 0,0 c 0,0 -5.75,13.0859 -5.75,13.0859 0,0 -5.1836,11.793 -5.1836,11.793 0,0 -7.2344,16.457 -7.2344,16.457 0,0 -0.3554,0.8125 -0.3554,0.8125 0,0 -4.086,0.0352 -4.086,0.0352 0,0 -2.7031,0.0234 -2.7031,0.0234 0,0 -8.0234,0.0664 -8.0234,0.0664 0,0 -7.625,0.0664 -7.625,0.0664 0,0 -24.1836,0.2071 -24.1836,0.2071 0,0 -16.9571,0.1445 -16.9571,0.1445 0,0 -1.7851,-3.8398 -1.7851,-3.8398 0,0 -0.9297,-2.0039 -0.9297,-2.0039 0,0 -0.1445,-0.3125 -0.1445,-0.3125 0,0 -2.6407,-5.6758 -2.6407,-5.6758 0,0 -1.6601,-3.5742 -1.6601,-3.5742 0,0 -0.0235,-0.0547 -0.0235,-0.0547 0,0 -8,-17.2149 -8,-17.2149 0,0 0.5586,-1.5859 0.5586,-1.5859 0,0 0,-0.0039 0,-0.0039 0,0 8.7618,-24.9141 8.7618,-24.9141 0,0 0.0039,0 0.0039,0 0,0 55.3711,-15.7226 55.3711,-15.7226 0,0 28.1406,27.8164 28.1406,27.8164 0,0 1.0117,1 1.0117,1 0,0 0.0039,0 0.0039,0 0,0 1.0625,1.0508 1.0625,1.0508 C -2.3711,-2.3437 0,0 0,0 Z"
               style="fill:#ffffff;fill-opacity:1;fill-rule:nonzero;stroke:none"
               id="path1501" /></g><g
             id="g1503"
             transform="translate(183.027,350.5443)"><path
               d="m 0,0 c 0,0 11.7736,-5.9128 11.7736,-5.9128 0,0 46.535,-19.0531 46.535,-19.0531 0,0 24.5407,31.6856 24.5407,31.6856 0,0 -17.3177,28.7487 -17.3177,28.7487 0,0 -63.3495,1.8524 -63.3495,1.8524 C 2.1821,37.3208 0,0 0,0 Z"
               style="fill:#ffffff;fill-opacity:1;fill-rule:nonzero;stroke:none"
               id="path1505" /></g><g
             id="g1507"
             transform="translate(120.7852,378.6211)"><path
               d="m 0,0 c 0,0 1.1797,3.875 1.1797,3.875 0,0 -3.3828,-0.0234 -3.3828,-0.0234 0,0 -0.1992,0 -0.1992,0 0,0 -5.7969,-0.0391 -5.7969,-0.0391 C -8.3945,3.582 -8.5898,3.3516 -8.7891,3.1211 -9.1562,2.6992 -9.5234,2.2812 -9.8945,1.8672 -9.9727,1.7773 -10.0508,1.6914 -10.1289,1.6016 -10.2422,1.4727 -10.3555,1.3477 -10.4727,1.2227 -10.6328,1.043 -10.793,0.8633 -10.957,0.6836 c -0.3711,-0.4141 -0.7461,-0.8281 -1.1211,-1.2422 -0.3242,-0.3594 -0.6446,-0.7148 -0.9649,-1.0742 0,0 -0.0039,0 -0.0039,-0.0039 -0.2265,-0.25 -0.4531,-0.5 -0.6758,-0.7539 0,0 -0.0039,0 -0.0039,0 -0.1523,-0.1719 -0.3086,-0.3477 -0.4648,-0.5235 -0.0078,-0.0117 -0.0156,-0.0195 -0.0234,-0.0312 -0.6407,-0.832 -1.2618,-1.6797 -1.879,-2.5274 -1.4296,-2.3085 -2.7656,-4.6679 -4.1601,-7 -1.7188,-2.875 -3.5586,-5.6718 -5.4063,-8.4609 -1.9218,-3.2148 -3.7578,-6.4727 -5.5468,-9.7617 -1.0391,-2.1211 -2.0078,-4.2656 -2.9297,-6.4453 -0.043,-0.1094 -0.0899,-0.2149 -0.1328,-0.3242 0,0 10.7968,3.2578 10.7968,3.2578 0,0 9.3047,9.9492 9.3047,9.9492 0,0 0,0.0039 0,0.0039 0,0 0.0039,0 0.0039,0 0,0 10.0586,10.7617 10.0586,10.7617 0,0 1.168,3.836 1.168,3.836 0,0 0.7109,2.3437 0.7109,2.3437 0,0 1.7266,5.6719 1.7266,5.6719 C -0.5,-1.6406 0,0 0,0 Z"
               style="fill:#ffffff;fill-opacity:1;fill-rule:nonzero;stroke:none"
               id="path1509" /></g><g
             id="g1511"
             transform="translate(304.9219,357.9727)"><path
               d="m 0,0 c 0,0 -5.4453,22.6055 -5.4453,22.6055 0,0 -5.75,0.5039 -5.75,0.5039 0,0 -14.0313,1.2265 -14.0313,1.2265 0,0 -2.0273,0.1797 -2.0273,0.1797 0,0 -21.5117,1.8828 -21.5117,1.8828 0,0 -6.9766,0.6094 -6.9766,0.6094 0,0 -9.4648,0.8281 -9.4648,0.8281 0,0 3.4843,-10.9843 3.4843,-10.9843 0,0 4.7813,-15.0703 4.7813,-15.0703 0,0 12.1055,-0.2852 12.1055,-0.2852 0,0 4.8828,-3.375 4.8828,-3.375 0,0 0.0039,0 0.0039,0 0,0 17.0703,-11.8086 17.0703,-11.8086 0,0 0.0039,0 0.0039,0 0,0 19.9805,11.957 19.9805,11.957 0,0 1.6562,0.9922 1.6562,0.9922 0,0 0.0039,0 0.0039,0 C -1.2344,-0.7383 0,0 0,0 Z"
               style="fill:#ffffff;fill-opacity:1;fill-rule:nonzero;stroke:none"
               id="path1513" /></g><g
             id="g1515"
             transform="translate(440.3516,349.3984)"><path
               d="m 0,0 c 0,0 3.4336,20.2461 3.4336,20.2461 -0.1875,0.332 -0.3789,0.6641 -0.5625,1.0078 -1.0898,2.0078 -2.0469,4.0586 -3.1523,6.0469 -0.1602,0.168 -0.3204,0.3398 -0.4844,0.5078 0,0 -31.1055,3.7695 -31.1055,3.7695 0,0 -2.4727,0.3008 -2.4727,0.3008 0,0 -18.0546,-23.9102 -18.0546,-23.9102 0,0 -3.6719,-4.8593 -3.6719,-4.8593 0,0 -1.9766,-2.6172 -1.9766,-2.6172 0,0 -1.5351,-2.0313 -1.5351,-2.0313 0,0 0,-0.0039 0,-0.0039 0,0 -0.0039,-0.0039 -0.0039,-0.0039 0,0 25.6875,-26.414 25.6875,-26.414 0,0 0.0039,0 0.0039,0 0,0 31.6054,14.4726 31.6054,14.4726 C -2.2891,-13.4883 0,0 0,0 Z"
               style="fill:#ffffff;fill-opacity:1;fill-rule:nonzero;stroke:none"
               id="path1517" /></g><g
             id="g1519"
             transform="translate(291.6746,385.9903)"><path
               d="m 0,0 c 0,0 20.2677,-48.5305 20.2677,-48.5305 0,0 43.1165,-9.045 43.1165,-9.045 0,0 32.4621,25.5862 32.4621,25.5862 0,0 24.7401,11.455 24.7401,11.455 0.5478,1.9991 1.0917,3.9984 1.6361,5.998 0,0 -8.8415,15.5427 -8.8415,15.5427 C 113.381,1.0064 0,0 0,0 Z"
               style="fill:#ffffff;fill-opacity:1;fill-rule:nonzero;stroke:none"
               id="path1521" /></g><g
             id="g1523"
             transform="translate(377.6934,350.2467)"><path
               d="m 0,0 c 0,0 3.7741,-2.9326 3.7741,-2.9326 0,0 5.657,1.4924 5.657,1.4924 0,0 -3.8176,4.9714 -3.8176,4.9714 C 5.6135,3.5312 0,0 0,0 Z"
               style="fill:#ffffff;fill-opacity:1;fill-rule:nonzero;stroke:none"
               id="path1525" /></g><g
             id="g1527"
             transform="translate(135.4229,407.6238)"><path
               d="m 0,0 c -0.5748,-0.3235 -1.1479,-0.6487 -1.721,-0.9803 -0.1211,-0.086 -0.2422,-0.1758 -0.3594,-0.2617 -0.3672,-0.3282 -0.7266,-0.6563 -1.082,-0.9922 -3.6875,-3.7656 -7.4415,-7.4727 -11.0665,-11.2969 -0.6679,-0.8164 -1.3242,-1.6406 -1.9609,-2.4844 -0.1283,-0.1891 -0.2563,-0.378 -0.3844,-0.5671 -0.3767,-1.5961 -0.5765,-3.2548 -0.5765,-4.9524 0,-12.0508 10.0586,-22.1094 22.1093,-22.1094 12.0508,0 22.1133,10.0586 22.1133,22.1094 0,12.0508 -10.0625,22.1133 -22.1133,22.1133 C 3.2589,0.5783 1.5979,0.3777 0,0 Z"
               style="fill:#ffffff;fill-opacity:1;fill-rule:nonzero;stroke:none"
               id="path1529" /></g><g
             id="g1531"
             transform="translate(171.8347,433.5615)"><path
               d="m 0,0 c -4.4414,-3.5352 -9.2305,-6.4141 -14.1289,-9.2227 -0.8789,-0.5585 -1.75,-1.1289 -2.6133,-1.707 -1.1719,-0.9648 -2.3125,-1.9336 -3.457,-2.9336 -1.5508,-1.4023 -3.1094,-2.793 -4.6797,-4.1758 0.2109,0.1797 0.4258,0.3594 0.6367,0.543 -0.5651,-0.4889 -1.1303,-0.9779 -1.6955,-1.4669 -0.1301,-0.1128 -0.2603,-0.2254 -0.3904,-0.3378 0.1301,0.1126 0.2602,0.2252 0.3904,0.3378 0.354,0.307 0.7074,0.6154 1.0588,0.9239 -2.9928,-2.5139 -6.1237,-4.7435 -9.4917,-6.7331 0,0 -0.0903,-0.6262 -0.0903,-0.6262 0,0 -1.6908,-0.393 -1.6908,-0.393 -0.662,-0.3718 -1.3216,-0.7449 -1.9811,-1.1266 -0.1211,-0.0859 -0.2422,-0.1758 -0.3594,-0.2617 -0.3672,-0.3281 -0.7266,-0.6562 -1.082,-0.9922 -3.6875,-3.7656 -7.4414,-7.4726 -11.0664,-11.2969 -0.668,-0.8164 -1.3242,-1.6406 -1.961,-2.4843 -0.1773,-0.2613 -0.3541,-0.5225 -0.5311,-0.7837 0,0 10.2655,-12.8491 10.2655,-12.8491 0,0 46.2188,-3.4649 46.2188,-3.4649 0,0 28.3672,26.0547 28.3672,26.0547 0,0 -24.4375,38.7511 -24.4375,38.7511 C 4.8362,3.8626 2.4229,1.93 0,0 Z"
               style="fill:#000000;fill-opacity:1;fill-rule:nonzero;stroke:none"
               id="path1533" /></g><g
             id="g1535"
             transform="translate(297.5114,402.1671)"><path
               d="m 0,0 c 0,0 17.2701,28.4277 17.2701,28.4277 0,0 -25.7598,17.2874 -25.7598,17.2874 0,0 -31.1129,-3.4228 -31.1129,-3.4228 0,0 3.0019,-23.0527 3.0019,-23.0527 0,0 19.9901,-17.2354 19.9901,-17.2354 C -16.6106,2.0042 0,0 0,0 Z"
               style="fill:#000000;fill-opacity:1;fill-rule:nonzero;stroke:none"
               id="path1537" /></g><g
             id="g1539"
             transform="translate(327.8673,414.3398)"><path
               d="m 0,0 c 0,0 22.35,-27.3301 22.35,-27.3301 0,0 25.0179,-0.6768 25.0179,-0.6768 0,0 16.5933,18.8882 16.5933,18.8882 0,0 -8.2338,12.0223 -8.2338,12.0223 -0.4797,0.5566 -0.9575,1.1145 -1.4055,1.6948 -0.4685,0.6117 -0.9891,1.2711 -1.2104,2.0172 -0.0163,0.0554 -0.0304,0.1119 -0.0422,0.1691 0,0 -8.3607,12.2076 -8.3607,12.2076 0,0 -32.6356,3.5486 -32.6356,3.5486 C 12.073,22.5409 0,0 0,0 Z"
               style="fill:#000000;fill-opacity:1;fill-rule:nonzero;stroke:none"
               id="path1541" /></g><g
             id="g1543"
             transform="translate(251.6082,460.7802)"><path
               d="m 0,0 c -6.4727,-1.8008 -11.7031,-5.3906 -15.9687,-10.5508 -1.0079,-1.2109 -1.8711,-2.5156 -2.6016,-3.8828 -2.7891,-0.1719 -5.5781,-0.375 -8.3555,-0.5703 -2.0273,-0.1445 -4.043,-0.3242 -6.0508,-0.5352 -0.3789,0.25 -0.7695,0.4961 -1.1601,0.7266 -8.7778,5.1388 -19.0161,4.2744 -28.1578,0.7354 -1.6971,-1.1859 -3.393,-2.3724 -5.0922,-3.5518 -4.2344,-3.0664 -8.2969,-6.332 -12.3867,-9.5899 -4.4414,-3.5351 -9.2305,-6.414 -14.1289,-9.2226 -0.879,-0.5586 -1.75,-1.1289 -2.6133,-1.707 -1.1719,-0.9649 -2.3125,-1.9336 -3.4571,-2.9336 -1.5507,-1.4024 -3.1093,-2.793 -4.6796,-4.1758 0.2109,0.1797 0.4257,0.3594 0.6367,0.543 -0.5652,-0.489 -1.1304,-0.978 -1.6955,-1.4669 -0.1301,-0.1129 -0.2603,-0.2255 -0.3905,-0.3378 0.1302,0.1126 0.2603,0.2252 0.3905,0.3378 0.354,0.3069 0.7074,0.6154 1.0588,0.9239 -3.418,-2.8711 -7.0157,-5.3711 -10.9415,-7.5664 -0.7734,-0.4336 -1.5429,-0.8672 -2.3125,-1.3125 -0.121,-0.086 -0.2421,-0.1758 -0.3593,-0.2617 -0.3672,-0.3282 -0.7266,-0.6563 -1.0821,-0.9922 -3.6875,-3.7657 -7.4414,-7.4727 -11.0664,-11.2969 -0.6679,-0.8164 -1.3242,-1.6406 -1.9609,-2.4844 -2.293,-3.3789 -4.5352,-6.7617 -7.2383,-9.8672 -1.7734,-2.039 -3.6133,-4.0156 -5.4023,-6.0351 -0.007,-0.0095 -0.0146,-0.0191 -0.0219,-0.0286 2.9888,-1.4576 6.3979,-2.4831 10.1859,-2.9519 3.5977,-18.1289 26.8946,-23.8672 40.3516,-12.5078 19.5039,-4.7461 38.7422,9.1055 46.9727,26.2031 0.7226,0.4063 1.4414,0.836 2.1406,1.2891 5.4687,3.5117 10.2812,8.0586 14.1758,13.2812 3.6601,0.4532 7.3242,0.8086 11.0117,1.0938 5.5664,0.332 11.1719,0.6992 16.75,0.6094 11.4101,-8.2227 25.1562,-13.6055 39.2656,-14.168 14.4961,-9.1992 31.9766,-12.9609 49.0117,-12.4219 9.0157,-4.414 19.1211,-6.1797 29.1485,-4.8711 8.6484,1.0899 17.4609,4.9219 22.5039,12.3125 4.5625,4.6602 7.4101,9.8906 8.8086,15.3047 -0.1368,0.2695 -0.2774,0.5391 -0.4141,0.8086 -0.1328,0.2617 -0.1602,0.5508 -0.0938,0.8203 -0.1875,0.3242 -0.3867,0.6445 -0.582,0.961 -0.2265,0.3632 -0.4375,0.7382 -0.6758,1.0937 -1.0234,1.5391 -2.0468,3.0781 -3.1953,4.5313 -1.5703,1.9921 -3.1836,3.9492 -4.789,5.9101 -0.8438,1.0313 -1.6914,2.0625 -2.5469,3.0859 -0.7969,0.9649 -1.6485,1.8907 -2.4102,2.879 -0.4687,0.6093 -0.9883,1.2695 -1.2109,2.0156 -0.1641,0.5586 -0.1133,1.2383 0.3789,1.6172 0.2344,0.1836 0.5039,0.2656 0.7695,0.2656 0.2852,0 0.5625,-0.0859 0.8125,-0.2422 0.3008,-0.1914 0.5899,-0.3945 0.8828,-0.5977 0.5157,-0.3593 1.0039,-0.7578 1.4727,-1.1718 -0.0781,0.3437 0.004,0.7265 0.2422,1.0039 0.2265,0.2656 0.543,0.3984 0.8594,0.3984 0.2695,0 0.5351,-0.0937 0.75,-0.2734 0.7382,-0.6094 1.4531,-1.2305 2.1015,-1.9336 -0.004,0.0078 -0.008,0.0117 -0.008,0.0156 0,-0.0039 0.004,-0.0078 0.008,-0.0156 0,0 0.004,-0.0039 0.004,-0.0039 0.5469,-0.5899 1.0782,-1.1797 1.5821,-1.8086 0.4882,-0.5938 0.9453,-1.211 1.414,-1.8203 0.3946,-0.5078 0.8047,-1.0117 1.1953,-1.5274 -0.1562,0.3438 -0.3086,0.6836 -0.4609,1.0274 -0.2695,0.6133 -0.5781,1.207 -0.832,1.8281 -0.3907,0.9414 -0.8828,1.832 -1.2969,2.7617 -0.1406,0.3086 -0.2969,0.6211 -0.3438,0.957 -0.0507,0.3711 -0.0312,0.7149 0.0664,1.0743 0.1133,0.4297 0.2696,0.8398 0.6133,1.1406 0.2969,0.2539 0.668,0.4062 1.0586,0.4258 0.0274,0 0.0547,0 0.0781,0 0.336,0 0.6446,-0.0821 0.8985,-0.2735 0,0.0039 -0.004,0.0039 -0.008,0.0078 0.004,-0.0039 0.008,-0.0039 0.0117,-0.0078 0.0156,-0.0156 0.0273,-0.0234 0.043,-0.0351 -0.002,0 -0.003,0 -0.004,4e-4 0.1036,-0.0851 0.1921,-0.1814 0.2615,-0.2817 0,0 -0.1719,0.4571 -0.1719,0.4571 0,0 1.5469,-2.3399 1.5469,-2.3399 -4.8711,11.5156 -15.2227,21.1914 -28.2227,24.6289 -8.1992,7.1719 -18.707,10.9805 -28.875,14.461 -9.0937,2.9257 -19.8281,-1.6446 -24.6679,-9.711 -3.711,1.7383 -7.7422,2.8828 -11.8321,3.3907 C 45.5504,-5.8945 41.441,-6.0625 37.4332,-6.8711 28.707,-2.4805 18.8008,1.0391 8.918,1.0391 5.9336,1.0391 2.9492,0.7148 0,0 Z"
               style="fill:#ffffff;fill-opacity:1;fill-rule:nonzero;stroke:none"
               id="path1545" /></g><g
             id="g1547"
             transform="translate(393.5356,423.3727)"><path
               d="M 0,0 C -0.0028,0.0057 -0.0058,0.0114 -0.0099,0.0171 -0.0114,0.0181 -0.0125,0.0192 -0.0128,0.0208 -0.0142,0.0226 -0.0156,0.0243 -0.0173,0.026 -0.0477,0.0607 -0.0781,0.0911 -0.1084,0.1215 -0.0694,0.0824 -0.0347,0.0434 0,0 Z"
               style="fill:#ffffff;fill-opacity:1;fill-rule:nonzero;stroke:none"
               id="path1549" /></g><g
             id="g1551"
             transform="translate(391.514,422.9953)"><path
               d="m 0,0 c 0,0 0,0.0043 0,0.0043 -0.0087,-0.0477 -0.013,-0.0954 -0.0217,-0.1431 0,0.0043 0,0.0043 0,0.0086 0,-0.013 0,-0.0216 0,-0.0303 C -0.013,-0.0868 0,-0.0087 0.0174,0.0694 0.013,0.0434 0.0043,0.0217 0,0 Z"
               style="fill:#ffffff;fill-opacity:1;fill-rule:nonzero;stroke:none"
               id="path1553" /></g><g
             id="g1555"
             transform="translate(391.4793,422.9172)"><path
               d="m 0,0 c 0,0 0,0.0043 0,0.0043 0,-0.0477 0,-0.0997 0,-0.1475 0,-0.0216 0.0043,-0.0433 0.0043,-0.065 0,0.0043 0,0.0043 0,0.0086 0,0.0087 0,0.0131 0,0.0217 0,-0.0043 0,-0.0086 0,-0.013 0,0 0,0.0044 0,0.0044 0,0.0043 0,0.0086 0,0.0086 C 0,-0.0737 0.0087,0.0347 0.026,0.1432 0.0173,0.0955 0.0087,0.0477 0,0 Z"
               style="fill:#ffffff;fill-opacity:1;fill-rule:nonzero;stroke:none"
               id="path1557" /></g><g
             id="g1559"
             transform="translate(393.7004,422.3923)"><path
               d="m 0,0 c 0.0087,0.0304 0.0217,0.0607 0.0304,0.0954 0,0 -0.0044,-0.0043 -0.0044,-0.0043 0,-0.0043 0,-0.0043 0,-0.0087 0,0.0044 0,0.0044 0,0.0087 C 0.0347,0.1302 0.0391,0.1649 0.0434,0.2039 0.0347,0.1388 0.0174,0.0694 0,0 Z"
               style="fill:#ffffff;fill-opacity:1;fill-rule:nonzero;stroke:none"
               id="path1561" /></g><g
             id="g1563"
             transform="translate(262.2415,420.3837)"><path
               d="m 0,0 c 0,0 65.0544,3.2536 65.0544,3.2536 0,0 3.388,-22.1938 3.388,-22.1938 0,0 39.6981,-16.7712 39.6981,-16.7712 0,0 24.2267,18.6443 24.2267,18.6443 -0.8528,1.2764 -1.7198,2.5427 -2.6706,3.7491 -1.5704,1.9912 -3.1841,3.9477 -4.7893,5.9085 -0.7073,0.8634 -1.415,1.7264 -2.1275,2.5847 0,0 -17.5111,-16.4493 -17.5111,-16.4493 0,0 -24.5754,13.9817 -24.5754,13.9817 0,0 -13.1705,22.6276 -13.1705,22.6276 0,0 -59.6317,-4.5463 -59.6317,-4.5463 0,0 -21.3826,14.6411 -21.3826,14.6411 C -13.4915,25.43 0,0 0,0 Z"
               style="fill:#000000;fill-opacity:1;fill-rule:nonzero;stroke:none"
               id="path1565" /></g><g
             id="g1567"
             transform="translate(389.4935,419.7603)"><path
               d="m 0,0 c 0.4619,-0.5041 0.9127,-1.0145 1.3418,-1.5499 0.4858,-0.5944 0.9457,-1.2104 1.4142,-1.822 0.3935,-0.5093 0.8041,-1.0085 1.1923,-1.5246 -0.155,0.3403 -0.3071,0.6822 -0.4592,1.0257 -0.2689,0.6116 -0.577,1.206 -0.8329,1.8263 C 2.2658,-1.1031 1.7756,-0.2094 1.3591,0.7189 1.3027,0.8491 1.242,0.9792 1.1856,1.1137 1.1856,1.1137 0,0 0,0 Z"
               style="fill:#000000;fill-opacity:1;fill-rule:nonzero;stroke:none"
               id="path1569" /></g><g
             id="g1571"
             transform="translate(393.7003,422.3923)"><path
               d="m 0,0 c 0.0087,0.0304 0.0217,0.0607 0.0304,0.0954 0,0 -0.0044,-0.0043 -0.0044,-0.0043 0,-0.0043 0,-0.0043 0,-0.0087 0,0.0044 0,0.0044 0,0.0087 C 0.0347,0.1302 0.039,0.1649 0.0434,0.2039 0.0347,0.1388 0.0174,0.0694 0,0 Z"
               style="fill:#000000;fill-opacity:1;fill-rule:nonzero;stroke:none"
               id="path1573" /></g><g
             id="g1575"
             transform="translate(393.5847,423.6044)"><path
               d="m 0,0 c 0,0 9.2266,-13.9766 9.2266,-13.9766 0,0 8.985,6.9166 8.985,6.9166 -0.6822,1.1129 -1.342,2.239 -1.9382,3.3998 -0.7773,1.5196 -1.4492,3.086 -2.1093,4.6563 C 13.0508,1.6484 11.9219,2.2773 10.793,2.9023 9.1825,3.7966 7.6587,4.774 6.1886,5.816 6.1886,5.816 0,0 0,0 Z"
               style="fill:#000000;fill-opacity:1;fill-rule:nonzero;stroke:none"
               id="path1577" /></g><g
             id="g1579"
             transform="translate(121.1941,394.0927)"><path
               d="m 0,0 c -0.668,-0.8164 -1.3242,-1.6406 -1.9609,-2.4844 -1.0381,-1.5296 -2.0659,-3.0601 -3.1306,-4.5652 0,0 33.5095,-22.5246 33.5095,-22.5246 0,0 35.2383,29.293 35.2383,29.293 0,0 -35.8516,-13.5274 -35.8516,-13.5274 0,0 -23.7343,18.0178 -23.7343,18.0178 C 2.7026,2.8163 1.3423,1.4161 0,0 Z"
               style="fill:#000000;fill-opacity:1;fill-rule:nonzero;stroke:none"
               id="path1581" /></g><g
             id="g1583"
             transform="translate(211.3542,459.8779)"><path
               d="m 0,0 c -1.3735,-0.6666 -2.7513,-1.3121 -4.1251,-1.9622 0,0 5.0782,1.138 5.0782,1.138 0,0 1.9226,2.2903 1.9226,2.2903 C 1.9244,0.9634 0.9679,0.4713 0,0 Z"
               style="fill:#000000;fill-opacity:1;fill-rule:nonzero;stroke:none"
               id="path1585" /></g><g
             id="g1587"
             transform="translate(133.7019,406.6435)"><path
               d="m 0,0 c -0.1211,-0.0859 -0.2422,-0.1758 -0.3594,-0.2617 -0.3672,-0.3281 -0.7265,-0.6563 -1.082,-0.9922 -2.9547,-3.0173 -5.9518,-5.9971 -8.8913,-9.0295 0,0 2.9538,-2.7518 2.9538,-2.7518 0,0 8.2128,13.5136 8.2128,13.5136 C 0.5558,0.3201 0.2779,0.1608 0,0 Z"
               style="fill:#000000;fill-opacity:1;fill-rule:nonzero;stroke:none"
               id="path1589" /></g><g
             id="g1591"
             transform="translate(236.0613,470.5419)"><path
               d="m 0,0 c -5.0195,-1.7617 -10.082,-3.4805 -14.9805,-5.5352 -3.2617,-1.6757 -6.4297,-3.5234 -9.7265,-5.1289 -3.1875,-1.5468 -6.3985,-2.9804 -9.5274,-4.6211 -4.4405,-2.9127 -8.8028,-5.9604 -13.1613,-9.0065 0,0 51.0612,25.5191 51.0612,25.5191 C 2.4438,0.8198 1.2216,0.4121 0,0 Z"
               style="fill:#ffffff;fill-opacity:1;fill-rule:nonzero;stroke:none"
               id="path1593" /></g><g
             id="g1595"
             transform="translate(184.2214,443.1513)"><path
               d="m 0,0 c -4.2344,-3.0664 -8.2969,-6.332 -12.3867,-9.5898 -4.4414,-3.5352 -9.2305,-6.4141 -14.1289,-9.2227 -0.8789,-0.5586 -1.75,-1.1289 -2.6133,-1.707 -1.1719,-0.9649 -2.3125,-1.9336 -3.457,-2.9336 -1.5508,-1.4024 -3.1094,-2.793 -4.6797,-4.1758 0.2109,0.1797 0.4258,0.3594 0.6367,0.543 -0.5652,-0.489 -1.1304,-0.978 -1.6955,-1.4669 -0.1301,-0.1128 -0.2603,-0.2255 -0.3904,-0.3378 0.1301,0.1126 0.2602,0.2252 0.3904,0.3378 0.354,0.307 0.7074,0.6154 1.0588,0.9239 -3.418,-2.8711 -7.0157,-5.3711 -10.9414,-7.5664 -0.7735,-0.4336 -1.543,-0.8672 -2.3125,-1.3125 -0.1211,-0.086 -0.2422,-0.1758 -0.3594,-0.2617 -0.3672,-0.3282 -0.7266,-0.6563 -1.082,-0.9922 -3.6875,-3.7656 -7.4414,-7.4727 -11.0664,-11.2969 -0.668,-0.8164 -1.3243,-1.6406 -1.961,-2.4844 -2.293,-3.3789 -4.5351,-6.7617 -7.2383,-9.8672 -1.6194,-1.8619 -3.2941,-3.6719 -4.935,-5.5099 0,0 46.5132,-19.9119 46.5132,-19.9119 0,0 32.8437,38.4531 32.8437,38.4531 0,0 1.7034,51.0966 1.7034,51.0966 C 2.5996,1.8098 1.3009,0.9029 0,0 Z"
               style="fill:#ffffff;fill-opacity:1;fill-rule:nonzero;stroke:none"
               id="path1597" /></g><g
             id="g1599"
             transform="translate(242.5571,411.0079)"><path
               d="m 0,0 c 0.2733,-0.2386 0.5423,-0.4815 0.8156,-0.7245 0,0 63.3582,-11.3571 63.3582,-11.3571 0,0 40.7001,-25.8812 40.7001,-25.8812 0,0 41.3683,7.8259 41.3683,7.8259 0,0 9.2008,15.789 9.2008,15.789 -0.5018,1.0024 -1.0091,2.0016 -1.518,2.9994 -0.1301,0.2603 -0.1562,0.5509 -0.0911,0.8199 -0.1865,0.3254 -0.3904,0.642 -0.5856,0.9587 -0.2256,0.3644 -0.4382,0.7375 -0.6768,1.0932 -1.0238,1.5401 -2.0476,3.0801 -3.1928,4.5334 -1.5704,1.9912 -3.1842,3.9476 -4.7893,5.9085 -0.8459,1.0325 -1.6919,2.0649 -2.5465,3.0887 -0.7982,0.9631 -1.6485,1.8871 -2.412,2.8762 -0.4685,0.6116 -0.9891,1.271 -1.2103,2.0172 -0.1649,0.5596 -0.1128,1.2364 0.3774,1.6181 0.2343,0.1822 0.5032,0.2646 0.7765,0.2646 0.2777,0 0.5596,-0.0867 0.8069,-0.2429 0.2993,-0.1909 0.59,-0.3947 0.8806,-0.5986 0.5213,-0.3617 1.01,-0.7589 1.4809,-1.1778 -0.0813,0.349 -7e-4,0.7357 0.2414,1.0172 0.2256,0.2603 0.5379,0.3905 0.8589,0.3905 0.2647,0 0.5336,-0.0911 0.7505,-0.269 0.7071,-0.5813 1.3926,-1.18 2.0216,-1.8437 -7e-4,0 -0.001,3e-4 -0.001,4e-4 0.005,-0.0059 0.009,-0.0118 0.0145,-0.0178 0.026,-0.026 0.052,-0.0563 0.0781,-0.0824 -0.004,0.0044 -0.004,0.0044 -0.009,0.0087 0.5423,-0.5856 1.0759,-1.1843 1.5834,-1.809 0.4859,-0.5943 0.9457,-1.2103 1.4143,-1.822 0.3904,-0.5076 0.8025,-1.0021 1.1886,-1.5183 -0.1562,0.3383 -0.3037,0.6767 -0.4555,1.0151 -0.269,0.6117 -0.577,1.206 -0.8329,1.8263 -0.3905,0.9414 -0.8807,1.835 -1.2971,2.7634 -0.1388,0.308 -0.295,0.6204 -0.3427,0.9587 -0.0521,0.3688 -0.0304,0.7115 0.065,1.0715 0.1128,0.4295 0.269,0.8416 0.6161,1.141 0.2949,0.2559 0.668,0.4077 1.0585,0.4251 0.026,0 0.052,0 0.078,0 0.3297,0 0.6377,-0.0781 0.898,-0.2733 -0.004,0.0044 -0.004,0.0044 -0.009,0.0087 0.009,-0.0043 0.0131,-0.0087 0.0217,-0.0174 0.009,-0.0043 0.0131,-0.013 0.0217,-0.0173 0.013,-0.013 0.0304,-0.0217 0.0434,-0.0347 -0.004,0.0043 -0.009,0.0043 -0.013,0.0087 0.0911,-0.0738 0.1692,-0.1606 0.2342,-0.256 0,0 -0.0824,0.2169 -0.0824,0.2169 0,0 -0.5379,0.8199 -0.5379,0.8199 0,0 -90.9833,21.5821 -90.9833,21.5821 0,0 -0.3427,0.1172 -0.3427,0.1172 0,0 -2.399,0.8242 -2.399,0.8242 0,0 -4.3771,1.5617 -4.3771,1.5617 0,0 -57.6189,5.5615 -57.6189,5.5615 C -5.3706,43.1686 0,0 0,0 Z"
               style="fill:#ffffff;fill-opacity:1;fill-rule:nonzero;stroke:none"
               id="path1601" /></g><g
             id="g1603"
             transform="translate(402.8287,408.1708)"><path
               d="m 0,0 c 0,0 -0.0608,0.0477 -0.0608,0.0477 0.0391,-0.6116 -0.5075,-1.1669 -1.1235,-1.1843 0.0173,-0.0347 0.0434,-0.0867 0.0651,-0.1345 0.2429,-0.5596 0.0737,-1.219 -0.4859,-1.514 -0.5293,-0.2819 -1.2884,-0.0954 -1.5487,0.4729 -0.0217,0.0434 -0.0434,0.0868 -0.0694,0.1301 -0.0087,0.0131 -0.0174,0.0261 -0.0261,0.0347 -0.0173,0.0217 -0.0347,0.0391 -0.052,0.0608 -0.013,0.013 -0.0261,0.026 -0.0391,0.039 0.0825,-0.1778 0.1606,-0.3601 0.2343,-0.5422 0.2776,-0.6811 0.6854,-1.5791 0.2256,-2.2689 -0.0191,-0.0284 -0.0391,-0.0554 -0.0596,-0.0811 0.1812,-0.3829 0.3266,-0.7822 0.3719,-1.2073 0.0651,-0.59 -0.2689,-1.1843 -0.8286,-1.3925 -0.1388,-0.0521 -0.2906,-0.0868 -0.4424,-0.0998 0.2083,-0.3765 0.4099,-0.7544 0.6047,-1.1356 0,0 4.6357,7.9551 4.6357,7.9551 0,0 -0.8503,1.2928 -0.8503,1.2928 C 0.5509,0.4729 0,0 0,0 Z"
               style="fill:#ffffff;fill-opacity:1;fill-rule:nonzero;stroke:none"
               id="path1605" /></g><g
             id="g1607"
             transform="translate(398.0091,397.46)"><path
               d="M 0,0 C -0.0173,0.0434 -0.039,0.0824 -0.0564,0.1258 -0.039,0.0824 -0.0217,0.0434 0,0 Z"
               style="fill:#ffffff;fill-opacity:1;fill-rule:nonzero;stroke:none"
               id="path1609" /></g><g
             id="g1611"
             transform="translate(391.5149,422.9941)"><path
               d="M 0,0 C 0,0 0,0.0044 0,0.0044 -0.0044,-0.0197 -0.0076,-0.0437 -0.0109,-0.0677 -0.0033,-0.0223 0.007,0.0228 0.0173,0.0694 0.013,0.0477 0.0043,0.0217 0,0 Z"
               style="fill:#ffffff;fill-opacity:1;fill-rule:nonzero;stroke:none"
               id="path1613" /></g><g
             id="g1615"
             transform="translate(391.4802,422.9161)"><path
               d="m 0,0 c 0,0 0,0.0043 0,0.0043 0,-0.0477 0,-0.0998 0,-0.1475 0,-0.0217 0.0043,-0.0434 0.0043,-0.0651 0,0.0044 0,0.0087 0,0.0087 0,0.0087 0,0.0174 0,0.0217 0,-0.0043 0,-0.0087 0,-0.013 0,0.0043 0,0.0043 0,0.0043 0,0.0044 0,0.0087 0,0.0131 C 0,-0.0694 0.0043,0.0347 0.026,0.1432 0.0173,0.0954 0.0087,0.0477 0,0 Z"
               style="fill:#ffffff;fill-opacity:1;fill-rule:nonzero;stroke:none"
               id="path1617" /></g><g
             id="g1619"
             transform="translate(393.7013,422.3955)"><path
               d="m 0,0 c 0,-0.0043 0,-0.0043 0,-0.0043 0.0087,0.0347 0.0217,0.0651 0.0304,0.0954 -0.002,0 -0.003,0 -0.0036,-4e-4 -2e-4,-0.0013 -5e-4,-0.0026 -8e-4,-0.0039 0,0 0,-0.0044 0,-0.0087 0,0.0043 0,0.0087 0,0.0087 0,0.0023 1e-4,0.0034 8e-4,0.0039 C 0.0349,0.1281 0.0392,0.1618 0.0434,0.1996 0.0304,0.1345 0.0174,0.0694 0,0 Z"
               style="fill:#ffffff;fill-opacity:1;fill-rule:nonzero;stroke:none"
               id="path1621" /></g><g
             id="g1623"
             transform="translate(378.416,432.2771)"><path
               d="m 0,0 c -8.3904,-0.5857 -14.244,-9.2598 -12.3596,-17.3003 0.8373,-4.7763 4.8847,-8.4376 8.0165,-11.9214 2.9034,-2.9372 5.3916,-6.041 7.8871,-9.3136 2.0762,-1.866 3.6226,-4.4649 6.1079,-5.7391 11.1804,-6.7129 24.7183,4.1124 20.7003,16.4429 -0.3382,4.0996 -2.4788,7.5564 -5.6147,10.1151 -2.4689,2.6582 -4.6965,5.5295 -7.4202,7.9467 C 12.6429,-4.8908 7.4437,0.9512 0,0 Z"
               style="fill:#ffffff;fill-opacity:1;fill-rule:nonzero;stroke:none"
               id="path1625" /></g><g
             id="g1627"
             transform="translate(449.1758,284.0352)"><path
               d="m 0,0 c 0,0 0,3.0039 0,3.0039 0,0 -26.1797,0 -26.1797,0 0,0 -13.1133,13.5586 -13.1133,13.5586 0,0 -37.2383,-1.6641 -37.2383,-1.6641 0,0 -12.2343,-11.8945 -12.2343,-11.8945 0,0 -33.1367,0 -33.1367,0 0,0 -0.004,0 -0.004,0 0,0 -22.0468,31.9649 -22.0468,31.9649 0,0 -9.1641,-3.6172 -9.1641,-3.6172 0,0 -5.0469,-1.75 -5.0469,-1.75 0,0 -6.5156,-2.3672 -6.5156,-2.3672 0,0 -0.582,-0.2149 -0.582,-0.2149 0,0 -6.3867,-2.3359 -6.3867,-2.3359 0,0 -0.086,-0.0352 -0.086,-0.0352 0,0 -0.004,0 -0.004,0 0,0 -0.1172,-0.039 -0.1172,-0.039 0,0 -0.004,0 -0.004,0 0,0 -0.004,0.0078 -0.004,0.0078 0,0 -0.0234,0.0469 -0.0234,0.0469 0,0 -0.043,0.039 -0.043,0.039 0,0 -6.7422,6.5078 -6.7422,6.5078 0,0 -6.5078,6.0469 -6.5078,6.0469 0,0 -12.6758,-25.1523 -12.6758,-25.1523 0,0 9.6133,-9.1016 9.6133,-9.1016 0,0 -53.8125,0 -53.8125,0 0,0 -10.6055,0 -10.6055,0 0,0 -62.8281,0 -62.8281,0 0,0 6.461,3.75 6.461,3.75 0,0 -39.5782,14.0078 -39.5782,14.0078 0,0 -13.0468,-17.7578 -13.0468,-17.7578 0,0 -0.004,0 -0.004,0 0,0 -4.5079,0 -4.5079,0 0,0 -0.004,0 -0.004,0 0.0821,-0.4141 0.1641,-0.8242 0.2461,-1.2344 0.1211,-0.5937 0.2383,-1.1797 0.3516,-1.7695 0.4375,-2.2695 0.832,-4.5352 1.0312,-6.9062 0.2032,-2.3946 0.2344,-4.8047 0.3633,-7.2032 0.1797,-1.125 0.3867,-2.2461 0.6094,-3.3633 0.3242,-1.3867 0.6602,-2.7773 0.9805,-4.1718 0,0 362.5859,0 362.5859,0 C 0,-21.6445 0,0 0,0 Z"
               style="fill:#ffffff;fill-opacity:1;fill-rule:nonzero;stroke:none"
               id="path1629" /></g><g
             id="g1631"
             transform="translate(460.3594,284.7773)"><path
               d="m 0,0 c 0.0586,1.5859 0.0547,3.1992 0.0195,4.793 -0.0742,3.6797 -0.1718,7.3554 -0.3554,11.0351 -0.1875,3.7696 -0.3946,7.5352 -0.5938,11.3047 -0.1953,3.6875 -0.3398,7.3672 -1.0117,11.0078 -0.3203,1.7227 -0.9453,3.3086 -1.9414,4.6641 -0.1797,1.5312 -0.3633,3.0625 -0.5703,4.5976 -0.2461,1.8633 -0.5,3.7227 -0.875,5.5704 -0.1211,0.5937 -0.2344,1.1757 -0.3633,1.7461 0.0195,2.9882 0.1328,6.0234 -0.2852,8.9843 -0.1875,1.336 -0.6406,2.5899 -1.3046,3.6992 -0.0079,0.4688 -0.0157,0.9336 -0.0274,1.3985 -0.5508,0.9258 -1.043,1.875 -1.4414,2.8476 -0.4922,1.1914 -0.9687,2.3907 -1.4492,3.5821 -0.2617,0.5976 -0.5313,1.1953 -0.8125,1.7812 -2,2.5196 -3.9297,5.0547 -5.5586,7.8477 0,0 0,0.0039 0,0.0039 0,0 0,0.0039 -0.0039,0.0039 0,0 -3.4336,-20.2461 -3.4336,-20.2461 0,0 -2.2891,-13.4883 -2.2891,-13.4883 0,0 -31.6054,-14.4726 -31.6054,-14.4726 0,0 -0.004,0 -0.004,0 0,0 -25.6875,26.414 -25.6875,26.414 0,0 0.004,0.0039 0.004,0.0039 0,0 0,0.0039 0,0.0039 0,0 -0.5235,0.4063 -0.5235,0.4063 0,0 -0.0039,0 -0.0039,0 0,0 -25.1797,-19.8516 -25.1797,-19.8516 0,0 -43.1172,9.0469 -43.1172,9.0469 0,0 -0.004,0 -0.004,0 0,0 -8.2578,19.7695 -8.2578,19.7695 0,0 0,0.0039 0,0.0039 0,0 -1.6562,-0.9922 -1.6562,-0.9922 0,0 -19.9805,-11.957 -19.9805,-11.957 0,0 -0.004,0 -0.004,0 0,0 -17.0703,11.8086 -17.0703,11.8086 0,0 -0.004,-0.0039 -0.004,-0.0039 0,0 -23.6328,-30.5117 -23.6328,-30.5117 0,0 -39.9493,16.3594 -39.9493,16.3594 0,0 -1.4765,0.6054 -1.4765,0.6054 0,0 -0.004,0 -0.004,0 0,0 -1.0117,-1 -1.0117,-1 0,0 -28.1407,-27.8164 -28.1407,-27.8164 0,0 -55.3711,15.7227 -55.3711,15.7227 0,0 -0.004,0 -0.004,0 0,0 -8.7617,24.914 -8.7617,24.914 0,0 -9.3047,-9.9492 -9.3047,-9.9492 0,0 -10.7968,-3.2578 -10.7968,-3.2578 0,0 0,-0.0039 0,-0.0039 0,0 -0.004,0 -0.004,0 -0.789,-1.9258 -1.6015,-3.8437 -2.3906,-5.7734 0.1719,-1.8946 0.2383,-3.8047 0.3047,-5.6836 0.0977,-2.7578 0.1641,-5.5196 0.1719,-8.2774 0.0117,-3.7734 -0.0352,-7.5429 -0.3633,-11.3008 -0.625,-7.1875 -1.3164,-14.3515 -1.3203,-21.5703 0.0156,-0.4609 0.0391,-0.9218 0.0703,-1.3789 0.008,-0.0429 0.0156,-0.0859 0.0234,-0.1289 0,0 0.004,0 0.004,0 0,0 4.5079,0 4.5079,0 0,0 13.0468,17.7578 13.0468,17.7578 0,0 0.004,0 0.004,0 0,0 39.5782,-14.0078 39.5782,-14.0078 0,0 -6.461,-3.75 -6.461,-3.75 0,0 62.8282,0 62.8282,0 0,0 10.6054,0 10.6054,0 0,0 53.8125,0 53.8125,0 0,0 -9.6133,9.1016 -9.6133,9.1016 0,0 -0.004,0 -0.004,0 0,0 12.6758,25.1562 12.6758,25.1562 0,0 0.004,0 0.004,0 0,0 0,-0.0039 0,-0.0039 0,0 6.5078,-6.0468 6.5078,-6.0468 0,0 6.7422,-6.5079 6.7422,-6.5079 0,0 0.043,-0.039 0.043,-0.039 0,0 0.0234,-0.0469 0.0234,-0.0469 0,0 0.004,-0.0078 0.004,-0.0078 0,0 0.004,0 0.004,0 0,0 0.1172,0.043 0.1172,0.043 0,0 0,-0.0039 0,-0.0039 0,0 0.004,0 0.004,0 0,0 0,0.0039 0,0.0039 0,0 0.086,0.0312 0.086,0.0312 0,0 6.3867,2.3359 6.3867,2.3359 0,0 0.582,0.2149 0.582,0.2149 0,0 6.5156,2.3672 6.5156,2.3672 0,0 5.0469,1.75 5.0469,1.75 0,0 9.1641,3.6172 9.1641,3.6172 0,0 22.0469,-31.9649 22.0469,-31.9649 0,0 0.004,0 0.004,0 0,0 33.1367,0 33.1367,0 0,0 12.2304,11.8985 12.2304,11.8985 0,0 37.2422,1.6601 37.2422,1.6601 0,0 13.1133,-13.5586 13.1133,-13.5586 0,0 26.1797,0 26.1797,0 0,0 0,-3.0039 0,-3.0039 0,0 2.4883,0 2.4883,0 0,0 8.668,0 8.668,0 C -0.0195,-0.4961 -0.0117,-0.25 0,0 Z"
               style="fill:#acacac;fill-opacity:1;fill-rule:nonzero;stroke:none"
               id="path1633" /></g><g
             id="g1635"
             transform="translate(352.8672,425.2383)"><path
               d="m 0,0 c 47.3984,-28.7227 78.8828,-79.4336 78.8828,-137.1992 0,-89.5547 -75.6562,-162.1485 -168.9766,-162.1485 -93.3281,0 -168.9843,72.5938 -168.9843,162.1485 0,89.2578 75.1679,161.6719 168.0781,162.1406 0.0703,0 0.1406,0 0.2109,0 0.0743,0 0.1407,0 0.211,0 0.164,0 0.3203,0 0.4843,0 0.1719,0 0.3438,0 0.5157,0 0.0586,0 0.1054,0 0.1601,0 0.1211,0 0.2422,0 0.3594,0 0.0625,0 0.1289,-0.0039 0.1914,-0.0039 0.1094,0 0.2227,0 0.3359,0 0.0547,0 0.125,-0.0039 0.1797,-0.0039 0.1094,0 0.2188,0 0.3282,-0.0039 0.0781,0 0.1484,0 0.2265,0 0.0899,-0.0039 0.1875,-0.0039 0.2774,-0.0039 0.0781,-0.0039 0.1562,-0.0039 0.2343,-0.0039 0.0977,-0.0039 0.1954,-0.0039 0.293,-0.0039 0.0742,-0.0039 0.1524,-0.0039 0.2266,-0.0039 0.125,-0.0039 0.25,-0.0078 0.375,-0.0078 0.0429,-0.004 0.082,-0.004 0.125,-0.004 0.1718,-0.0039 0.3398,-0.0078 0.5117,-0.0117 0.0664,0 0.1328,-0.0039 0.1992,-0.0039 0.1055,-0.0039 0.2109,-0.0078 0.3164,-0.0078 0.0781,-0.0039 0.1485,-0.0039 0.2266,-0.0078 0.0937,-0.0039 0.1875,-0.0039 0.2812,-0.0078 0.0782,-0.0039 0.1641,-0.0039 0.2422,-0.0078 0.0899,-0.0039 0.1836,-0.0039 0.2735,-0.0078 0.082,-0.0039 0.1679,-0.0079 0.246,-0.0079 0.086,-0.0039 0.1719,-0.0078 0.2618,-0.0117 0.082,0 0.1679,-0.0039 0.25,-0.0078 0.0898,-0.0039 0.1836,-0.0078 0.2734,-0.0117 0.0781,0 0.1563,-0.0039 0.2344,-0.0078 0.1015,-0.0039 0.1992,-0.0078 0.3008,-0.0117 0.0664,-0.0039 0.1406,-0.0078 0.2109,-0.0078 0.1016,-0.004 0.2031,-0.0118 0.3047,-0.0157 0.332,-0.0156 0.6758,-0.0312 1.0078,-0.0468 0.0625,-0.004 0.125,-0.0079 0.1875,-0.0079 0.0937,-0.0078 0.1914,-0.0117 0.2812,-0.0156 0.0782,-0.0039 0.1563,-0.0078 0.2305,-0.0117 0.0899,-0.0078 0.1914,-0.0117 0.2813,-0.0156 0.0742,-0.0039 0.1484,-0.0078 0.2187,-0.0157 0.0977,-0.0039 0.207,-0.0117 0.3008,-0.0156 0.0586,-0.0039 0.1211,-0.0078 0.1797,-0.0117 0.1133,-0.0039 0.2265,-0.0117 0.3359,-0.0195 0.0508,-0.0039 0.0977,-0.0039 0.1485,-0.0078 0.1132,-0.0079 0.2343,-0.0157 0.3437,-0.0235 0.0469,-0.0039 0.0938,-0.0039 0.1367,-0.0078 0.5782,-0.0391 1.1485,-0.0781 1.7227,-0.1211 0.0273,-0.0039 0.0586,-0.0039 0.0859,-0.0078 0.1289,-0.0078 0.2617,-0.0195 0.3906,-0.0273 0.0313,-0.0039 0.0625,-0.0079 0.0977,-0.0079 0.1328,-0.0117 0.2539,-0.0195 0.3867,-0.0312 0.0352,-0.0039 0.0664,-0.0039 0.1016,-0.0078 0.1289,-0.0117 0.2656,-0.0235 0.3945,-0.0313 0.0274,-0.0039 0.0508,-0.0078 0.0781,-0.0078 0.1329,-0.0117 0.2774,-0.0234 0.4102,-0.0351 0.0195,0 0.0391,-0.0039 0.0586,-0.0039 C -47.6328,21.9414 -22.3516,13.4492 -0.4531,0.2695 -0.4141,0.25 -0.3789,0.2266 -0.3437,0.207 -0.2656,0.1602 -0.1992,0.1172 -0.1211,0.0703 -0.082,0.0469 -0.0391,0.0234 0,0 Z m -88.9531,-334.3633 c 111.8359,0 202.5,87.5313 202.5,195.5 0,107.9766 -90.6641,195.5 -202.5,195.5 -111.836,0 -202.5,-87.5234 -202.5,-195.5 0,-107.9687 90.664,-195.5 202.5,-195.5 z"
               style="fill:#324c6d;fill-opacity:1;fill-rule:nonzero;stroke:none"
               id="path1637" /></g></g></g></g></g></svg>
