<?xml version="1.0" encoding="UTF-8" standalone="no"?>
<svg
   xmlns:dc="http://purl.org/dc/elements/1.1/"
   xmlns:cc="http://creativecommons.org/ns#"
   xmlns:rdf="http://www.w3.org/1999/02/22-rdf-syntax-ns#"
   xmlns:svg="http://www.w3.org/2000/svg"
   xmlns="http://www.w3.org/2000/svg"
   xmlns:sodipodi="http://sodipodi.sourceforge.net/DTD/sodipodi-0.dtd"
   xmlns:inkscape="http://www.inkscape.org/namespaces/inkscape"
   viewBox="175.615 124.042 77.185165 21.814493"
   version="1.1"
   id="svg4"
   sodipodi:docname="expand.svg"
   width="77.185165"
   height="21.814493"
   inkscape:version="1.0.1 (3bc2e813f5, 2020-09-07)">
  <metadata
     id="metadata10">
    <rdf:RDF>
      <cc:Work
         rdf:about="">
        <dc:format>image/svg+xml</dc:format>
        <dc:type
           rdf:resource="http://purl.org/dc/dcmitype/StillImage" />
      </cc:Work>
    </rdf:RDF>
  </metadata>
  <defs
     id="defs8" />
  <sodipodi:namedview
     pagecolor="#ffffff"
     bordercolor="#666666"
     borderopacity="1"
     objecttolerance="10"
     gridtolerance="10"
     guidetolerance="10"
     inkscape:pageopacity="0"
     inkscape:pageshadow="2"
     inkscape:window-width="1920"
     inkscape:window-height="1001"
     id="namedview6"
     showgrid="false"
     inkscape:zoom="3.0683384"
     inkscape:cx="4.2999189"
     inkscape:cy="-17.924106"
     inkscape:window-x="-9"
     inkscape:window-y="-9"
     inkscape:window-maximized="1"
     inkscape:current-layer="svg4" />
  <path
     id="rect2"
     style="fill:#cdcdcd;stroke-width:0.565687"
     d="m 178.24176,124.04496 c -0.99754,-0.0476 -1.95739,0.48244 -2.39648,1.42383 -0.58546,1.25517 -0.0165,2.75092 1.27539,3.35351 l 35.93554,16.76172 c 0.064,0.0299 0.13036,0.044 0.19532,0.0684 0.0945,0.0399 0.19004,0.0733 0.28906,0.10156 0.006,0.001 0.0115,0.004 0.0176,0.006 0.57385,0.15913 1.20892,0.12958 1.80078,-0.14648 L 251.2945,128.8516 c 1.2919,-0.60259 1.86085,-2.09834 1.27539,-3.35352 -0.58546,-1.25517 -2.09677,-1.78032 -3.38868,-1.17773 l -34.9414,16.29883 -35.00586,-16.32813 c -0.32298,-0.15065 -0.65968,-0.23022 -0.99219,-0.24609 z" />
</svg>
