<?xml version="1.0" encoding="UTF-8" standalone="no"?>
<!-- Created with Inkscape (http://www.inkscape.org/) -->

<svg
   version="1.1"
   id="svg2502"
   xml:space="preserve"
   width="666.66669"
   height="666.66669"
   viewBox="0 0 666.66669 666.66669"
   sodipodi:docname="icon_newSnow_wet.svg"
   inkscape:version="1.1.1 (3bf5ae0d25, 2021-09-20)"
   xmlns:inkscape="http://www.inkscape.org/namespaces/inkscape"
   xmlns:sodipodi="http://sodipodi.sourceforge.net/DTD/sodipodi-0.dtd"
   xmlns="http://www.w3.org/2000/svg"
   xmlns:svg="http://www.w3.org/2000/svg"><defs
     id="defs2506"><clipPath
       clipPathUnits="userSpaceOnUse"
       id="clipPath2518"><path
         d="m 47.25,54.25 h 405.5 v 391.5 H 47.25 Z"
         id="path2516" /></clipPath></defs><sodipodi:namedview
     id="namedview2504"
     pagecolor="#ffffff"
     bordercolor="#111111"
     borderopacity="1"
     inkscape:pageshadow="0"
     inkscape:pageopacity="0"
     inkscape:pagecheckerboard="1"
     showgrid="false"
     inkscape:zoom="1.293"
     inkscape:cx="332.94665"
     inkscape:cy="333.72004"
     inkscape:window-width="1920"
     inkscape:window-height="1051"
     inkscape:window-x="-9"
     inkscape:window-y="-9"
     inkscape:window-maximized="1"
     inkscape:current-layer="g2508" /><g
     id="g2508"
     inkscape:groupmode="layer"
     inkscape:label="icon_newSnow_wet"
     transform="matrix(1.3333333,0,0,-1.3333333,0,666.66667)"><g
       id="g2510"
       transform="matrix(1,0,0,-1,0,500)"><g
         id="g2512"><g
           id="g2514"
           clip-path="url(#clipPath2518)"><g
             id="g2520"
             transform="translate(225.043,233.5898)"><path
               d="m 0,0 c 0.9609,-0.9609 1.9766,-1.8633 3.0391,-2.6992 -4.3516,1.8711 -9.0782,2.8711 -13.8672,2.8711 -4.7578,0 -9.4492,-0.9844 -13.7774,-2.8321 1.6289,1.1446 3.1641,2.4336 4.586,3.8555 5.375,5.3672 8.8554,12.4024 9.9336,19.8672 C -9.2187,13.1523 -5.6602,5.6562 0,0 Z m 33.3438,-60.7344 c 0.0664,-0.0664 0.1289,-0.1289 0.1992,-0.1953 -3.375,1.0586 -6.9102,1.6172 -10.4883,1.6172 -3.4414,0 -6.8477,-0.5156 -10.1094,-1.5 0.3633,0.3281 0.7149,0.668 1.0625,1.0156 0.207,0.2071 0.4102,0.418 0.6133,0.6289 0.1875,0.1953 0.3711,0.3946 0.5508,0.5977 0.1406,0.1523 0.2773,0.3086 0.4179,0.4648 0.1211,0.1407 0.2461,0.2852 0.3672,0.4297 0.2578,0.3047 0.5078,0.6094 0.7539,0.9219 0.125,0.1523 0.2461,0.3086 0.3633,0.4687 0.1094,0.1368 0.2149,0.2774 0.3164,0.418 0.1328,0.1797 0.2617,0.3555 0.3867,0.5352 0.1172,0.164 0.2266,0.3242 0.3399,0.4882 0.1172,0.1641 0.2266,0.3321 0.3398,0.5 0,0.004 0.0039,0.004 0.0039,0.0079 0.2657,0.4023 0.5196,0.8086 0.7657,1.2187 0.0898,0.1445 0.1757,0.293 0.2617,0.4414 0.0898,0.1485 0.1719,0.2969 0.2578,0.4453 0.0977,0.1719 0.1914,0.3399 0.2812,0.5117 0.0079,0.0118 0.0157,0.0274 0.0196,0.0391 0.0703,0.125 0.1367,0.25 0.1992,0.375 0.1016,0.1875 0.1992,0.375 0.293,0.5664 0.0859,0.168 0.1718,0.3399 0.2539,0.5117 0.0625,0.1289 0.1211,0.2578 0.1836,0.3868 0.1797,0.3867 0.3515,0.7773 0.5195,1.1718 0.0625,0.1407 0.1211,0.2813 0.1797,0.4258 0.0859,0.2149 0.1719,0.4297 0.2539,0.6445 0.0937,0.2383 0.1836,0.4766 0.2695,0.7188 0.0821,0.2305 0.1641,0.4609 0.2422,0.6953 0.0469,0.1367 0.0899,0.2695 0.1367,0.4063 0.0196,0.0703 0.043,0.1445 0.0664,0.2148 0.1172,0.3711 0.2305,0.7461 0.336,1.1211 0.0586,0.207 0.1133,0.4101 0.1679,0.6172 0.0547,0.207 0.1055,0.414 0.1563,0.6211 0.1016,0.414 0.1953,0.832 0.2812,1.25 0.0196,-0.1133 0.0391,-0.2227 0.0625,-0.3282 0.0196,-0.1093 0.043,-0.2187 0.0625,-0.3281 0.0079,-0.0586 0.0196,-0.1133 0.0352,-0.1719 0.0547,-0.2773 0.1133,-0.5507 0.1758,-0.8242 0.0469,-0.2187 0.0976,-0.4336 0.1523,-0.6484 0.0274,-0.1094 0.0547,-0.2149 0.0821,-0.3203 0.0585,-0.2344 0.121,-0.4688 0.1875,-0.6992 0.0664,-0.2422 0.1328,-0.4805 0.207,-0.7188 0.0351,-0.1133 0.0703,-0.2266 0.1055,-0.3359 0.0039,-0.0157 0.0078,-0.0274 0.0117,-0.043 0.0586,-0.1914 0.1211,-0.3828 0.1836,-0.5742 0.0898,-0.2656 0.1797,-0.5274 0.2734,-0.7852 0.0742,-0.2109 0.1523,-0.4218 0.2305,-0.6289 0.0078,-0.0156 0.0117,-0.0312 0.0195,-0.0469 0.043,-0.1132 0.0859,-0.2265 0.1328,-0.3398 0.0703,-0.1836 0.1445,-0.3672 0.2188,-0.5469 0.0117,-0.0312 0.0273,-0.0664 0.0429,-0.0976 0.0157,-0.0391 0.0313,-0.0742 0.0469,-0.1133 0.043,-0.1016 0.0859,-0.2031 0.1289,-0.3047 0.0156,-0.0312 0.0274,-0.0625 0.043,-0.0937 0.0586,-0.1407 0.1211,-0.2813 0.1836,-0.4219 0.0508,-0.1133 0.1015,-0.2227 0.1523,-0.336 0.0625,-0.1367 0.1289,-0.2734 0.1953,-0.4101 0.0118,-0.0235 0.0235,-0.0469 0.0313,-0.0703 0.0859,-0.1797 0.1758,-0.3594 0.2656,-0.5352 0.1289,-0.2578 0.2578,-0.5117 0.3945,-0.7656 0.1172,-0.2188 0.2383,-0.4414 0.3594,-0.6602 0.1328,-0.2343 0.2656,-0.4687 0.4063,-0.6992 0.1367,-0.2344 0.2773,-0.4609 0.4179,-0.6914 0.0743,-0.1211 0.1485,-0.2383 0.2266,-0.3594 0.2656,-0.4179 0.543,-0.832 0.8281,-1.2382 0.125,-0.1797 0.2539,-0.3594 0.3867,-0.5391 0,-0.0039 0,-0.0039 0.0039,-0.0078 0.1094,-0.1524 0.2227,-0.3047 0.3399,-0.4531 0.2891,-0.3868 0.5898,-0.7696 0.8945,-1.1446 0.168,-0.1992 0.3321,-0.3984 0.5039,-0.5937 0.1758,-0.2032 0.3516,-0.4063 0.5352,-0.6055 0.0351,-0.043 0.0742,-0.0859 0.1133,-0.125 0.1445,-0.1602 0.289,-0.3203 0.4414,-0.4766 0.0351,-0.039 0.0703,-0.0781 0.1054,-0.1171 0.1914,-0.1954 0.3789,-0.3907 0.5704,-0.5821 z M 35.8594,-8.5 c 0.1992,0.0625 0.3984,0.1328 0.5976,0.2031 -0.2695,-0.2148 -0.539,-0.4297 -0.8047,-0.6523 -0.2031,-0.168 -0.4062,-0.3438 -0.6093,-0.5195 -0.1016,-0.086 -0.2032,-0.1758 -0.3008,-0.2696 -0.1758,-0.1523 -0.3477,-0.3086 -0.5156,-0.4687 -0.3008,-0.2735 -0.5938,-0.5586 -0.8828,-0.8477 -0.2071,-0.207 -0.4102,-0.418 -0.6133,-0.6289 -0.1875,-0.1953 -0.3711,-0.3945 -0.5508,-0.5976 -0.3477,-0.379 -0.6836,-0.7657 -1.0078,-1.1602 -0.1367,-0.1602 -0.2656,-0.3242 -0.3946,-0.4883 -0.1015,-0.125 -0.2031,-0.25 -0.2968,-0.375 -0.1328,-0.168 -0.2617,-0.3359 -0.3867,-0.5078 -0.8438,-1.1211 -1.6133,-2.2969 -2.3125,-3.5078 -0.0782,-0.1367 -0.1563,-0.2735 -0.2344,-0.4102 -0.1133,-0.207 -0.2266,-0.4101 -0.336,-0.6172 -0.1367,-0.2539 -0.2656,-0.5078 -0.3945,-0.7656 -0.0859,-0.168 -0.1719,-0.3398 -0.2539,-0.5117 -0.0625,-0.1289 -0.1211,-0.2578 -0.1836,-0.3867 -0.1797,-0.3867 -0.3555,-0.7774 -0.5195,-1.1719 -0.0664,-0.1562 -0.1328,-0.3164 -0.1992,-0.4766 -0.0391,-0.0976 -0.0782,-0.1914 -0.1172,-0.289 -0.0547,-0.1406 -0.1094,-0.2813 -0.1641,-0.4219 -0.2383,-0.6328 -0.4648,-1.2734 -0.668,-1.918 -0.1171,-0.3711 -0.2304,-0.7461 -0.3359,-1.1211 -0.0586,-0.207 -0.1133,-0.4101 -0.168,-0.6171 -0.0547,-0.2071 -0.1054,-0.4141 -0.1562,-0.6211 -0.1016,-0.4141 -0.1953,-0.8321 -0.2813,-1.25 -0.0468,0.2695 -0.0976,0.539 -0.1562,0.8086 -0.0547,0.2812 -0.1133,0.5625 -0.1797,0.8437 -0.0586,0.2617 -0.1172,0.5195 -0.1836,0.7773 -0.0156,0.0665 -0.0312,0.129 -0.0508,0.1954 -0.0586,0.2304 -0.1211,0.4648 -0.1875,0.6953 -0.0742,0.2734 -0.1523,0.5429 -0.2383,0.8164 0,0.0078 -0.0039,0.0156 -0.0039,0.0273 -0.0859,0.2696 -0.1679,0.5352 -0.2578,0.8008 -0.0898,0.2695 -0.1836,0.543 -0.2812,0.8125 -0.0782,0.2266 -0.1641,0.4531 -0.25,0.6758 -0.0157,0.043 -0.0313,0.0859 -0.0508,0.1289 -0.0977,0.2578 -0.1992,0.5117 -0.3047,0.7656 -0.0117,0.0274 -0.0234,0.0547 -0.0312,0.082 -0.1055,0.25 -0.211,0.4922 -0.3204,0.7383 -0.0937,0.2149 -0.1914,0.4297 -0.2929,0.6446 -0.043,0.0937 -0.0899,0.1914 -0.1367,0.289 -0.0977,0.2071 -0.1993,0.4141 -0.3047,0.6211 -0.125,0.2578 -0.2578,0.5117 -0.3946,0.7617 -0.25,0.4727 -0.5117,0.9375 -0.7812,1.3946 -0.0469,0.0742 -0.0899,0.1484 -0.1328,0.2226 -0.125,0.2071 -0.2539,0.4141 -0.3828,0.6172 -0.1329,0.211 -0.2657,0.418 -0.4063,0.625 -0.1758,0.2735 -0.3594,0.543 -0.5469,0.8086 -0.1601,0.2305 -0.3242,0.457 -0.4922,0.6836 -0.1289,0.1758 -0.2578,0.3477 -0.3906,0.5156 -0.1015,0.1367 -0.207,0.2696 -0.3125,0.4024 -0.8359,1.0586 -1.7344,2.0703 -2.6914,3.0273 -0.2109,0.211 -0.4258,0.418 -0.6406,0.625 -0.1211,0.1133 -0.2422,0.2305 -0.3672,0.3399 -0.2227,0.207 -0.4453,0.4101 -0.6758,0.6054 -0.1445,0.1328 -0.293,0.2578 -0.4414,0.3789 -0.0625,0.0586 -0.125,0.1094 -0.1875,0.1602 -0.2266,0.1914 -0.457,0.3789 -0.6914,0.5625 -0.0117,0.0078 -0.0234,0.0195 -0.0352,0.0273 0.2735,-0.1172 0.5469,-0.2304 0.8204,-0.3398 0.2734,-0.1094 0.5507,-0.2188 0.8281,-0.3203 0.25,-0.0938 0.5,-0.1836 0.75,-0.2696 0.0703,-0.0234 0.1406,-0.0468 0.2109,-0.0703 0.1797,-0.0625 0.3633,-0.125 0.543,-0.1797 0.0937,-0.0312 0.1875,-0.0625 0.2812,-0.0898 0.1094,-0.0352 0.2188,-0.0664 0.3282,-0.1016 0.1054,-0.0312 0.2148,-0.0664 0.3242,-0.0976 0.043,-0.0117 0.0898,-0.0235 0.1328,-0.0391 0.0195,-0.0078 0.043,-0.0117 0.0625,-0.0156 0.1172,-0.0352 0.2305,-0.0664 0.3477,-0.0977 0.1328,-0.039 0.2734,-0.0742 0.4101,-0.1093 0.1133,-0.0274 0.2266,-0.0586 0.3399,-0.086 0.1132,-0.0273 0.2265,-0.0586 0.3398,-0.082 0.0977,-0.0273 0.1953,-0.0508 0.293,-0.0703 0.1406,-0.0352 0.2851,-0.0664 0.4297,-0.0977 0.0156,-0.0039 0.0273,-0.0039 0.0429,-0.0078 0.25,-0.0586 0.5039,-0.1094 0.7578,-0.1562 0.1758,-0.0352 0.3516,-0.0703 0.5313,-0.0977 0.1016,-0.0195 0.207,-0.0391 0.3086,-0.0547 0.1601,-0.0312 0.3242,-0.0547 0.4844,-0.082 0.2578,-0.0391 0.5195,-0.0742 0.7812,-0.1094 C 20.3398,-9.9961 20.3633,-10 20.3906,-10 c 0.168,-0.0234 0.336,-0.0469 0.5078,-0.0625 0.0196,-0.0039 0.043,-0.0039 0.0625,-0.0078 0.0235,-0.0039 0.0508,-0.0039 0.0743,-0.0078 0.164,-0.0196 0.332,-0.0352 0.4961,-0.0508 0.207,-0.0195 0.414,-0.0391 0.621,-0.0547 0.2969,-0.0234 0.5938,-0.043 0.8907,-0.0586 0.5976,-0.0312 1.1953,-0.0469 1.7929,-0.0469 0.2891,0 0.5782,0.0039 0.8672,0.0118 0.2657,0.0078 0.5313,0.0156 0.7969,0.0273 0.0586,0.0039 0.1172,0.0078 0.1758,0.0117 0.2226,0.0117 0.4414,0.0235 0.664,0.0391 0.1915,0.0156 0.3829,0.0312 0.5743,0.0508 0.1914,0.0117 0.3828,0.0312 0.5703,0.0507 0.2265,0.0235 0.4531,0.0508 0.6758,0.0782 0.1718,0.0234 0.3398,0.0468 0.5117,0.0703 0.0273,0.0039 0.0508,0.0078 0.0781,0.0117 0.1445,0.0195 0.2852,0.0391 0.4297,0.0625 0.125,0.0195 0.2461,0.0391 0.3711,0.0625 0.1289,0.0195 0.2539,0.043 0.3828,0.0664 0.2539,0.043 0.5078,0.0899 0.7617,0.1406 0.0117,0 0.0235,0.0039 0.0352,0.0078 0.2383,0.0469 0.4726,0.0977 0.7109,0.1524 0.0274,0.0078 0.0547,0.0117 0.082,0.0195 0.0196,0 0.043,0.0039 0.0625,0.0117 0.2188,0.0469 0.4336,0.0977 0.6485,0.1563 0.0312,0.0078 0.0664,0.0156 0.0976,0.0234 0.0235,0.0039 0.0469,0.0078 0.0743,0.0157 0.2226,0.0585 0.4453,0.1171 0.6679,0.1757 0.3281,0.0899 0.6563,0.1875 0.9844,0.2852 0.2695,0.082 0.5352,0.168 0.8008,0.2578 z m 34.0742,6.3516 c 0.3711,-0.3711 0.75,-0.7344 1.1367,-1.0821 -4.0781,1.6094 -8.4531,2.4649 -12.8867,2.4649 -3.9805,0 -7.9102,-0.6875 -11.6211,-1.9961 0.2539,0.1992 0.5039,0.4023 0.75,0.6094 0.0469,0.0351 0.0938,0.0781 0.1406,0.1171 0.1992,0.168 0.3985,0.336 0.5938,0.5118 0.0703,0.0586 0.1367,0.1171 0.2031,0.1796 0.1836,0.1602 0.3633,0.3243 0.543,0.4961 0.3008,0.2735 0.5937,0.5586 0.8828,0.8477 0.2031,0.2031 0.4062,0.4102 0.6055,0.6211 0.1953,0.2031 0.3867,0.4102 0.5742,0.6211 0.0156,0.0117 0.0273,0.0273 0.039,0.043 0.1524,0.164 0.2969,0.3281 0.4414,0.4961 0.1407,0.1601 0.2774,0.3242 0.4141,0.4882 0.125,0.1446 0.2461,0.293 0.3633,0.4414 0.0195,0.0196 0.0312,0.0352 0.0469,0.0547 0.1406,0.1758 0.2812,0.3516 0.4179,0.5313 0.4532,0.582 0.8867,1.1797 1.2969,1.789 0.0938,0.1328 0.1836,0.2657 0.2695,0.3985 0.125,0.1914 0.25,0.3867 0.3711,0.5781 0.125,0.1953 0.2422,0.3906 0.3594,0.5859 0.375,0.6133 0.7266,1.2383 1.0586,1.875 0.0937,0.1758 0.1836,0.3555 0.2734,0.5352 0.1016,0.1992 0.2032,0.4062 0.3008,0.6094 0.0469,0.0937 0.0899,0.1875 0.1328,0.2812 0.1016,0.2188 0.2032,0.4375 0.2969,0.6563 0.0039,0.0039 0.0039,0.0039 0.0039,0.0078 0.1172,0.2617 0.2305,0.5234 0.3399,0.789 0.2148,0.5235 0.4218,1.0508 0.6093,1.586 0.0117,0.0234 0.0235,0.0508 0.0274,0.0742 0.0781,0.2148 0.1562,0.4336 0.2265,0.6523 0.0235,0.0664 0.0469,0.1329 0.0664,0.2032 0.0664,0.1914 0.1289,0.3867 0.1875,0.582 0.0235,0.0664 0.043,0.1367 0.0625,0.207 0.0782,0.25 0.1485,0.5 0.2188,0.7539 0.0664,0.2305 0.1289,0.461 0.1875,0.6954 0.0273,0.0976 0.0508,0.1953 0.0742,0.2929 0.0547,0.2266 0.1094,0.4531 0.1602,0.6797 0.0625,0.2774 0.125,0.5547 0.1797,0.8359 0,0.004 0.0039,0.0079 0,0.0118 0.0585,0.2695 0.1093,0.539 0.1562,0.8125 0.0039,0.0156 0.0039,0.0312 0.0078,0.0468 0.0352,0.2071 0.0703,0.418 0.1016,0.6289 0.0234,0.1329 0.0429,0.2657 0.0625,0.3985 0.0351,0.2383 0.0664,0.4765 0.0976,0.7148 0.5196,-8.5156 4.1719,-16.6758 10.2266,-22.7265 z m 49.6758,0 c 6.5547,6.5507 10.2929,15.5703 10.2929,24.8398 0,9.2656 -3.7382,18.2891 -10.2929,24.8399 -6.5469,6.5507 -15.5703,10.289 -24.836,10.289 -9.2695,0 -18.289,-3.7383 -24.8398,-10.289 C 69.7305,47.3281 69.5273,47.1211 69.3281,46.9102 69.1328,46.707 68.9414,46.5 68.7539,46.2891 68.7383,46.2773 68.7266,46.2617 68.7148,46.2461 68.5781,46.0977 68.4453,45.9453 68.3125,45.793 68.2969,45.7773 68.2852,45.7656 68.2734,45.75 68.1328,45.5898 67.9961,45.4258 67.8594,45.2617 67.7344,45.1172 67.6133,44.9688 67.4961,44.8203 67.4766,44.8008 67.4648,44.7852 67.4492,44.7656 67.3086,44.5898 67.168,44.4141 67.0313,44.2344 66.2109,43.1758 65.4531,42.0703 64.7617,40.9258 64.668,40.7773 64.582,40.6289 64.4922,40.4766 c -0.0977,-0.168 -0.1992,-0.3399 -0.293,-0.5118 -0.082,-0.1445 -0.1601,-0.2851 -0.2383,-0.4296 -0.0703,-0.125 -0.1367,-0.25 -0.2031,-0.375 -0.0117,-0.0196 -0.0234,-0.043 -0.0312,-0.0625 -0.1094,-0.2071 -0.2188,-0.4141 -0.3243,-0.625 -0.1054,-0.2071 -0.207,-0.4141 -0.3085,-0.625 C 63.043,37.7344 62.9883,37.625 62.9375,37.5117 62.9063,37.4453 62.875,37.3789 62.8477,37.3125 62.7695,37.1406 62.6914,36.9688 62.6172,36.7969 62.5,36.5352 62.3906,36.2734 62.2813,36.0117 62.2109,35.8398 62.1445,35.6719 62.0781,35.5 62.0547,35.4453 62.0313,35.3867 62.0117,35.332 61.9102,35.0703 61.8125,34.8086 61.7188,34.543 61.707,34.5195 61.6992,34.4922 61.6914,34.4688 61.6211,34.2734 61.5547,34.0781 61.4883,33.8828 61.4297,33.7109 61.3711,33.5352 61.3164,33.3594 61.3086,33.3477 61.3047,33.332 61.3008,33.3164 61.2344,33.1055 61.168,32.8945 61.1055,32.6797 60.9609,32.2031 60.832,31.7227 60.707,31.2383 60.6367,30.9609 60.5703,30.6836 60.5078,30.4023 60.4766,30.2617 60.4453,30.1172 60.4141,29.9766 60.3828,29.8359 60.3555,29.6992 60.3281,29.5586 60.2813,29.3281 60.2344,29.0977 60.1953,28.8633 60.168,28.7227 60.1445,28.5859 60.125,28.4453 60.1133,28.4063 60.1094,28.3672 60.1055,28.3281 60.0664,28.1094 60.0313,27.8906 60,27.668 c -0.0352,-0.2383 -0.0664,-0.4766 -0.0977,-0.7149 0,0.0157 -0.0039,0.0352 -0.0039,0.0508 -0.0156,0.2461 -0.0312,0.4883 -0.0546,0.7344 -0.0118,0.1328 -0.0196,0.2656 -0.0352,0.3984 -0.0117,0.1328 -0.0234,0.2656 -0.0391,0.3985 -0.0273,0.2617 -0.0586,0.5234 -0.0937,0.789 0,0.0039 0,0.0117 -0.0039,0.0196 -0.0117,0.0976 -0.0235,0.1953 -0.0391,0.2929 -0.0039,0.043 -0.0117,0.086 -0.0156,0.1289 -0.0039,0.0117 -0.0039,0.0274 -0.0078,0.0391 -0.0039,0.0234 -0.0078,0.0469 -0.0117,0.0742 -0.0118,0.0781 -0.0235,0.1602 -0.0352,0.2383 -0.1602,1.0508 -0.3672,2.0898 -0.625,3.1211 -0.0195,0.0859 -0.043,0.1719 -0.0664,0.2617 -0.0234,0.0859 -0.0469,0.1758 -0.0703,0.2617 -0.0078,0.0274 -0.0156,0.0586 -0.0195,0.086 -0.0118,0.0546 -0.0274,0.1093 -0.043,0.1601 -0.0039,0.0156 -0.0078,0.0313 -0.0117,0.0469 -0.0078,0.0351 -0.0196,0.0664 -0.0313,0.1016 -0.0039,0.0195 -0.0078,0.0429 -0.0156,0.0625 -0.0117,0.0429 -0.0234,0.0859 -0.0352,0.1289 -0.0156,0.0546 -0.0312,0.1093 -0.0468,0.1601 -0.0196,0.0703 -0.0391,0.1445 -0.0625,0.2149 -0.0196,0.0703 -0.043,0.1367 -0.0625,0.207 -0.0274,0.1016 -0.0586,0.1992 -0.0899,0.2969 0,0.0039 -0.0039,0.0078 -0.0039,0.0117 -0.0039,0.0156 -0.0117,0.0351 -0.0156,0.0508 -0.0391,0.1328 -0.082,0.2656 -0.125,0.3984 -0.0078,0.0195 -0.0117,0.0391 -0.0195,0.0586 -0.0079,0.0195 -0.0118,0.0391 -0.0196,0.0586 -0.0117,0.0351 -0.0234,0.0703 -0.0351,0.1094 -0.0118,0.039 -0.0274,0.082 -0.043,0.1211 -0.0547,0.1718 -0.1172,0.3437 -0.1797,0.5156 0,0.0078 -0.0039,0.0195 -0.0078,0.0273 -0.0078,0.0235 -0.0156,0.043 -0.0234,0.0664 -0.0079,0.0235 -0.0157,0.0469 -0.0274,0.0703 -0.0195,0.0508 -0.0351,0.1016 -0.0547,0.1524 -0.039,0.1133 -0.082,0.2226 -0.125,0.332 -0.0156,0.0469 -0.0312,0.0899 -0.0508,0.1328 -0.0078,0.0274 -0.0156,0.0508 -0.0273,0.0782 -0.0156,0.0429 -0.0312,0.082 -0.0508,0.125 -0.0156,0.0429 -0.0312,0.0859 -0.0469,0.1289 -0.0039,0.0156 -0.0117,0.0273 -0.0195,0.0429 -0.0273,0.0782 -0.0586,0.1524 -0.0898,0.2266 -0.0117,0.0273 -0.0235,0.0547 -0.0352,0.082 -0.0078,0.0196 -0.0156,0.0391 -0.0234,0.0586 -0.0039,0.0156 -0.0117,0.0313 -0.0156,0.0469 -0.0118,0.0352 -0.0274,0.0703 -0.043,0.1016 -0.0195,0.0586 -0.043,0.1132 -0.0703,0.1718 -0.0039,0.0118 -0.0117,0.0274 -0.0157,0.0391 -0.0585,0.1367 -0.1171,0.2734 -0.1757,0.4102 -0.0313,0.0742 -0.0625,0.1484 -0.0977,0.2226 -0.0234,0.0547 -0.0469,0.1133 -0.0742,0.168 -0.0508,0.1094 -0.0977,0.2187 -0.1484,0.3242 -0.0469,0.1016 -0.0938,0.2031 -0.1407,0.3047 -0.0156,0.0351 -0.0351,0.0703 -0.0508,0.1055 -0.0156,0.0351 -0.0312,0.0703 -0.0507,0.1054 -0.0782,0.1641 -0.1602,0.3281 -0.2422,0.4922 -0.0156,0.0352 -0.0352,0.0664 -0.0508,0.1016 -0.2383,0.4726 -0.4844,0.9414 -0.7461,1.4023 -0.0625,0.1094 -0.125,0.2227 -0.1914,0.332 -0.0742,0.1329 -0.1484,0.2618 -0.2266,0.3907 -0.0664,0.1133 -0.1328,0.2265 -0.2031,0.3359 -0.0742,0.1289 -0.1523,0.2539 -0.2344,0.3789 -0.0039,0.0117 -0.0117,0.0235 -0.0234,0.0352 -0.0156,0.0234 -0.0273,0.0508 -0.043,0.0742 -0.0156,0.0273 -0.0351,0.0508 -0.0508,0.0781 -0.0312,0.0508 -0.0625,0.0977 -0.0976,0.1485 -0.0742,0.1171 -0.1484,0.2343 -0.2266,0.3515 -0.0742,0.1172 -0.1523,0.2344 -0.2343,0.3516 -0.0821,0.1211 -0.1641,0.2383 -0.2461,0.3594 -0.0079,0.0117 -0.0157,0.0273 -0.0274,0.039 -0.0078,0.0078 -0.0117,0.0195 -0.0195,0.0274 -0.0195,0.0312 -0.0391,0.0625 -0.0625,0.0937 -0.0313,0.0469 -0.0664,0.0938 -0.0977,0.1367 -0.0234,0.0313 -0.0429,0.0586 -0.0664,0.0899 -0.0508,0.0781 -0.1094,0.1562 -0.1679,0.2343 -0.0118,0.0196 -0.0274,0.0352 -0.0391,0.0547 -0.043,0.0625 -0.0859,0.1211 -0.1328,0.1797 -0.0274,0.0391 -0.0547,0.0742 -0.0821,0.1094 -0.0195,0.0312 -0.0429,0.0625 -0.0664,0.0937 -0.0546,0.0704 -0.1054,0.1407 -0.1601,0.211 -0.0586,0.0781 -0.1211,0.1601 -0.1836,0.2383 -0.0274,0.0351 -0.0547,0.0742 -0.0859,0.1093 -0.0196,0.0235 -0.0391,0.0508 -0.0586,0.0743 -0.0586,0.0781 -0.1172,0.1523 -0.1836,0.2304 -0.0664,0.0821 -0.1289,0.1641 -0.1953,0.2422 -0.0313,0.043 -0.0665,0.082 -0.0977,0.1211 -0.0313,0.0391 -0.0664,0.0781 -0.1016,0.1211 -0.1523,0.1836 -0.3047,0.3633 -0.4609,0.543 -0.0039,0.0078 -0.0078,0.0117 -0.0156,0.0156 -0.0352,0.043 -0.0742,0.0859 -0.1094,0.1289 -0.0234,0.0234 -0.043,0.0508 -0.0664,0.0742 -0.0781,0.0899 -0.1563,0.1797 -0.2383,0.2696 -0.0234,0.0273 -0.0469,0.0507 -0.0703,0.0781 -0.082,0.0937 -0.168,0.1875 -0.2539,0.2773 -0.1094,0.1211 -0.2227,0.2422 -0.3359,0.3594 -0.1993,0.2109 -0.4024,0.418 -0.6055,0.6211 C 43.125,56.2305 34.1055,59.9688 24.8359,59.9688 15.5703,59.9688 6.5469,56.2305 0,49.6797 -0.2031,49.4766 -0.4062,49.2695 -0.6055,49.0586 -0.6094,49.0547 -0.6172,49.0469 -0.6172,49.043 -0.7422,48.9141 -0.8633,48.7852 -0.9844,48.6523 -1.0703,48.5586 -1.1563,48.4648 -1.2383,48.3711 -1.25,48.3594 -1.2617,48.3477 -1.2773,48.332 -1.3008,48.3047 -1.3242,48.2773 -1.3516,48.25 -1.3594,48.2383 -1.3672,48.2305 -1.375,48.2227 -1.3984,48.1953 -1.4219,48.168 -1.4453,48.1406 -1.4492,48.1367 -1.4531,48.1328 -1.457,48.1289 c -0.0508,-0.0547 -0.0977,-0.1094 -0.1446,-0.1641 -0.0156,-0.0195 -0.0351,-0.039 -0.0507,-0.0585 -0.0391,-0.043 -0.0782,-0.086 -0.1172,-0.1329 -0.0313,-0.039 -0.0625,-0.0742 -0.0938,-0.1132 -0.039,-0.0391 -0.0742,-0.0821 -0.1094,-0.125 -0.0742,-0.086 -0.1484,-0.1758 -0.2187,-0.2657 -0.0234,-0.0234 -0.043,-0.0468 -0.0625,-0.0742 -0.043,-0.0508 -0.0859,-0.1015 -0.125,-0.1523 C -2.5156,46.875 -2.6484,46.707 -2.7812,46.5391 -2.793,46.5234 -2.8047,46.5078 -2.8203,46.4922 -2.8672,46.4258 -2.9219,46.3594 -2.9727,46.293 -3.0234,46.2266 -3.0703,46.1641 -3.1211,46.0977 -3.1953,46 -3.2695,45.8984 -3.3437,45.8008 c -0.0352,-0.0469 -0.0704,-0.0977 -0.1055,-0.1445 -0.0625,-0.0821 -0.125,-0.168 -0.1836,-0.25 -0.0234,-0.0313 -0.0469,-0.0665 -0.0664,-0.0977 -0.0117,-0.0117 -0.0156,-0.0195 -0.0235,-0.0313 -0.0312,-0.039 -0.0585,-0.082 -0.0859,-0.121 -0.0508,-0.0665 -0.0976,-0.1368 -0.1445,-0.2032 -0.0274,-0.0429 -0.0586,-0.0859 -0.0899,-0.1289 -0.0195,-0.0273 -0.0429,-0.0586 -0.0625,-0.0898 -0.0078,-0.0117 -0.0156,-0.0274 -0.0234,-0.0391 -0.0625,-0.0859 -0.1211,-0.1719 -0.1797,-0.2617 -0.0312,-0.043 -0.0586,-0.0898 -0.0898,-0.1328 -0.0352,-0.0547 -0.0743,-0.1133 -0.1094,-0.168 -0.1133,-0.1719 -0.2227,-0.3437 -0.332,-0.5156 -0.0274,-0.043 -0.0586,-0.0899 -0.086,-0.1367 -0.0156,-0.0274 -0.0351,-0.0547 -0.0508,-0.0821 -0.0468,-0.0703 -0.0898,-0.1445 -0.1328,-0.2148 -0.082,-0.1328 -0.164,-0.2695 -0.2461,-0.4063 C -5.3828,42.7266 -5.4141,42.6758 -5.4453,42.6211 -5.5469,42.4492 -5.6445,42.2734 -5.7422,42.1016 -5.7461,42.0977 -5.75,42.0898 -5.75,42.0859 -5.7578,42.0703 -5.7656,42.0586 -5.7734,42.043 c -0.086,-0.1485 -0.168,-0.293 -0.2461,-0.4414 -0.0391,-0.0703 -0.0782,-0.1446 -0.1172,-0.2149 0,0 0,-0.0039 0,-0.0039 0,0 0,-0.0039 0,-0.0039 C -6.2109,41.25 -6.2812,41.1133 -6.3477,40.9805 -6.3633,40.9492 -6.3828,40.9141 -6.3984,40.8828 -6.4258,40.832 -6.4531,40.7773 -6.4805,40.7227 -6.5156,40.6563 -6.5469,40.5938 -6.5781,40.5273 -6.6133,40.457 -6.6484,40.3906 -6.6797,40.3203 -6.7148,40.25 -6.75,40.1758 -6.7852,40.1055 c -0.0273,-0.0547 -0.0546,-0.1094 -0.082,-0.168 -0.0703,-0.1523 -0.1406,-0.3008 -0.2109,-0.4531 -0.0313,-0.0703 -0.0625,-0.1406 -0.0938,-0.211 -0.0039,-0.0039 -0.0039,-0.0117 -0.0078,-0.0156 -0.0117,-0.0234 -0.0234,-0.0469 -0.0351,-0.0742 -0.0235,-0.0547 -0.0508,-0.1133 -0.0743,-0.1719 0,-0.0039 -0.0039,-0.0039 -0.0039,-0.0078 -0.0351,-0.0703 -0.0625,-0.1406 -0.0937,-0.2109 -0.0117,-0.0313 -0.0274,-0.0664 -0.043,-0.1016 0,-0.0039 -0.0039,-0.0078 -0.0039,-0.0117 -0.0117,-0.0234 -0.0195,-0.0469 -0.0312,-0.0703 -0.0235,-0.0547 -0.043,-0.1055 -0.0664,-0.1602 -0.043,-0.1015 -0.086,-0.207 -0.129,-0.3125 C -7.707,38.0273 -7.75,37.918 -7.793,37.8086 -7.8164,37.7539 -7.8398,37.6992 -7.8594,37.6445 -7.8828,37.5898 -7.9023,37.5352 -7.9219,37.4805 -7.9766,37.3477 -8.0273,37.2109 -8.0742,37.0781 -8.125,36.9453 -8.1758,36.8086 -8.2227,36.6758 -8.2344,36.6445 -8.2461,36.6172 -8.2539,36.5859 -8.293,36.4844 -8.3242,36.3828 -8.3594,36.2813 -8.3984,36.1797 -8.4336,36.0781 -8.4648,35.9766 -8.4687,35.9727 -8.4687,35.9727 -8.4687,35.9688 -8.4805,35.9336 -8.4922,35.8984 -8.5039,35.8633 -8.5273,35.7852 -8.5547,35.707 -8.5781,35.6289 -8.6289,35.4727 -8.6797,35.3164 -8.7266,35.1602 -8.7578,35.0586 -8.7891,34.9531 -8.8203,34.8516 -8.875,34.668 -8.9297,34.4844 -8.9805,34.2969 c -0.0117,-0.0391 -0.0234,-0.0821 -0.0351,-0.1211 0,-0.0039 -0.0039,-0.0117 -0.0039,-0.0156 -0.043,-0.1446 -0.0821,-0.293 -0.1172,-0.4414 -0.0117,-0.0391 -0.0235,-0.0743 -0.0313,-0.1133 -0.0547,-0.211 -0.1054,-0.418 -0.1562,-0.6289 -0.0391,-0.1563 -0.0742,-0.3164 -0.1133,-0.4727 -0.0469,-0.2031 -0.0898,-0.4062 -0.1289,-0.6094 -0.0039,-0.0195 -0.0078,-0.039 -0.0117,-0.0586 -0.0117,-0.0429 -0.0196,-0.0859 -0.0274,-0.1289 -0.0429,-0.2109 -0.082,-0.4218 -0.1211,-0.6328 -0.0039,-0.0195 -0.0078,-0.0351 -0.0078,-0.0547 -0.0195,-0.0859 -0.0351,-0.1718 -0.0468,-0.2578 -0.0157,-0.0859 -0.0274,-0.1719 -0.043,-0.2539 -0.0391,-0.2344 -0.0742,-0.4648 -0.1094,-0.6992 -0.0039,0.0469 -0.0117,0.0937 -0.0156,0.1406 -0.0235,0.1914 -0.043,0.3789 -0.0703,0.5703 -0.0039,0.0352 -0.0078,0.0703 -0.0157,0.1055 -0.0273,0.2188 -0.0585,0.4414 -0.0937,0.6602 -0.0391,0.2578 -0.082,0.5156 -0.125,0.7695 -0.0508,0.2851 -0.1016,0.5664 -0.1602,0.8476 -0.0468,0.2383 -0.0976,0.4805 -0.1523,0.7188 -0.043,0.1953 -0.0898,0.3906 -0.1367,0.582 -0.0469,0.1992 -0.0938,0.3985 -0.1485,0.5938 -0.0507,0.207 -0.1054,0.4101 -0.164,0.6133 -0.0274,0.1093 -0.0586,0.2187 -0.0938,0.3281 -0.0312,0.1094 -0.0625,0.2187 -0.0937,0.3281 -0.1836,0.6055 -0.3789,1.207 -0.5938,1.8008 -0.0976,0.2695 -0.1953,0.5391 -0.3008,0.8047 -0.0664,0.1758 -0.1367,0.3515 -0.207,0.5273 -0.0664,0.1719 -0.1367,0.3399 -0.2109,0.5078 -0.1211,0.2852 -0.2422,0.5703 -0.375,0.8516 -0.0938,0.2109 -0.1875,0.418 -0.2891,0.625 -0.4453,0.9336 -0.9297,1.8437 -1.457,2.7344 -0.0703,0.125 -0.1445,0.25 -0.2266,0.375 -0.2617,0.4375 -0.539,0.8711 -0.8242,1.3008 -0.1484,0.2187 -0.2969,0.4335 -0.4453,0.6484 -0.3008,0.4297 -0.6094,0.8476 -0.9297,1.2617 -0.1367,0.1836 -0.2813,0.3633 -0.4258,0.5391 -0.0156,0.0234 -0.0351,0.0468 -0.0547,0.0703 -0.0937,0.1211 -0.1953,0.2422 -0.2929,0.3594 -0.1094,0.1328 -0.2227,0.2656 -0.336,0.3984 -0.0508,0.0586 -0.1015,0.1211 -0.1562,0.1797 -0.1289,0.1523 -0.2617,0.3047 -0.4024,0.4531 -0.414,0.4688 -0.8437,0.9219 -1.289,1.3672 -6.5508,6.5547 -15.5703,10.293 -24.8399,10.293 -9.2656,0 -18.289,-3.7383 -24.8359,-10.293 -6.5547,-6.5508 -10.293,-15.5703 -10.293,-24.8398 0,-9.2657 3.7383,-18.2891 10.293,-24.836 6.5469,-6.5547 15.5703,-10.293 24.8359,-10.293 0.375,0 0.75,0.0079 1.125,0.0196 0.2188,0.0078 0.4375,0.0156 0.6524,0.0273 0.3828,0.0196 0.7656,0.043 1.1445,0.0781 0.2109,0.0157 0.418,0.0352 0.625,0.0586 0.293,0.0274 0.5859,0.0625 0.8789,0.1016 0.293,0.0352 0.5859,0.0781 0.8789,0.125 0.6445,0.0977 1.2852,0.2148 1.9219,0.3555 0.2265,0.0429 0.4531,0.0937 0.6758,0.1484 0.289,0.0664 0.5742,0.1367 0.8593,0.2109 0.2852,0.0704 0.5664,0.1485 0.8477,0.2305 0.2852,0.082 0.5664,0.1641 0.8477,0.2539 0.2773,0.086 0.5585,0.1797 0.8359,0.2735 0.2383,0.082 0.4766,0.164 0.7148,0.25 0.1094,0.0429 0.2227,0.082 0.3321,0.125 0.2031,0.0781 0.4062,0.1562 0.6054,0.2343 0.2735,0.1094 0.5469,0.2188 0.8164,0.336 -0.0039,0 -0.0039,-0.0039 -0.0078,-0.0078 -0.1992,-0.1407 -0.3984,-0.2813 -0.5976,-0.4297 -0.2422,-0.1797 -0.4844,-0.3633 -0.7227,-0.5508 -0.0312,-0.0234 -0.0586,-0.0469 -0.0898,-0.0703 -0.0742,-0.0547 -0.1485,-0.1133 -0.2188,-0.168 -0.0117,-0.0117 -0.0195,-0.0195 -0.0312,-0.0273 -0.0078,-0.0078 -0.0117,-0.0118 -0.0196,-0.0157 -0.0586,-0.0468 -0.1171,-0.0937 -0.1757,-0.1406 -0.0235,-0.0234 -0.0508,-0.043 -0.0743,-0.0625 -0.0742,-0.0625 -0.1484,-0.1211 -0.2226,-0.1836 -0.1055,-0.0859 -0.211,-0.1758 -0.3164,-0.2656 -0.0391,-0.0313 -0.0781,-0.0664 -0.1172,-0.0977 -0.0234,-0.0195 -0.0469,-0.039 -0.0703,-0.0625 -0.0899,-0.0742 -0.1758,-0.1523 -0.2656,-0.2304 -0.0157,-0.0157 -0.0352,-0.0274 -0.0508,-0.043 -0.0508,-0.0469 -0.1016,-0.0898 -0.1524,-0.1367 -0.0937,-0.082 -0.1875,-0.168 -0.2773,-0.25 -0.1797,-0.1641 -0.3594,-0.332 -0.5391,-0.5 -0.0156,-0.0156 -0.0312,-0.0313 -0.0469,-0.0469 -0.1914,-0.1836 -0.3867,-0.3672 -0.5742,-0.5586 -6.5547,-6.5508 -10.2929,-15.5742 -10.2929,-24.8398 0,-9.2696 3.7382,-18.2891 10.2929,-24.8399 6.5508,-6.5547 15.5703,-10.289 24.8399,-10.289 0.2148,0 0.4297,0.0039 0.6445,0.0078 0.043,0 0.0859,0 0.1289,0.0039 0.0313,0 0.0625,0 0.0938,0 0.0312,0 0.0625,0 0.0937,0.0039 0.0117,0 0.0195,0 0.0313,0 0.0234,0 0.0429,0 0.0664,0.0039 0.0547,0 0.1133,0 0.1679,0.0039 0.0743,0 0.1446,0.0039 0.2149,0.0078 0.043,0 0.0859,0.0039 0.1289,0.0039 0.0391,0 0.082,0.0039 0.1211,0.0078 0,0 0.0039,0 0.0039,0 0.0312,0 0.0664,0.0039 0.0976,0.0039 0,0 0.004,0 0.004,0 0.0234,0 0.0507,0.0039 0.0742,0.0039 0.2343,0.0157 0.4687,0.0274 0.7031,0.0469 0.0937,0.0078 0.1914,0.0156 0.2852,0.0235 0.1679,0.0117 0.3359,0.0273 0.5,0.0429 0.0898,0.0078 0.1796,0.0156 0.2656,0.0274 0.1601,0.0156 0.3242,0.0351 0.4844,0.0547 0.1289,0.0156 0.2539,0.0312 0.3828,0.0468 0.1406,0.0196 0.2812,0.0391 0.4218,0.0586 0.0704,0.0117 0.1446,0.0196 0.2149,0.0313 0.0976,0.0117 0.1953,0.0273 0.293,0.0468 0.0703,0.0118 0.1406,0.0196 0.207,0.0313 0.0703,0.0117 0.1406,0.0195 0.207,0.0352 0.0547,0.0078 0.1133,0.0156 0.168,0.0273 0.0156,0.0039 0.0312,0.0039 0.0469,0.0078 0.0507,0.0078 0.0976,0.0195 0.1484,0.0274 0.0195,0.0039 0.0352,0.0078 0.0547,0.0117 0.0508,0.0078 0.0976,0.0156 0.1484,0.0273 0.1211,0.0235 0.2383,0.0469 0.3555,0.0703 0.0586,0.0117 0.1172,0.0235 0.1758,0.0352 0.0273,0.0039 0.0586,0.0117 0.0859,0.0156 0.1016,0.0195 0.1953,0.043 0.293,0.0625 0.0664,0.0117 0.1367,0.0274 0.2031,0.043 0.0117,0.0039 0.0234,0.0039 0.0391,0.0078 0.0078,0.0039 0.0156,0.0039 0.0234,0.0078 0.1133,0.0234 0.2305,0.0508 0.3438,0.0781 0.1132,0.0235 0.2304,0.0547 0.3437,0.0821 0.2109,0.0468 0.4141,0.1015 0.6211,0.1562 0.207,0.0547 0.4141,0.1094 0.6172,0.168 0.2031,0.0586 0.4101,0.1172 0.6133,0.1797 0,0 -0.0039,-0.0039 -0.0039,-0.0039 -0.3633,-0.3321 -0.7149,-0.668 -1.0665,-1.0196 -6.5546,-6.5508 -10.2929,-15.5703 -10.2929,-24.8398 0,-9.2656 3.7383,-18.2891 10.2929,-24.836 6.5469,-6.5546 15.5704,-10.2929 24.836,-10.2929 9.2695,0 18.2891,3.7383 24.8398,10.2929 6.5547,6.5469 10.293,15.5704 10.293,24.836 0,9.2695 -3.7383,18.289 -10.293,24.8398 -0.0664,0.0664 -0.1367,0.1367 -0.207,0.2032 0.2109,-0.0665 0.4219,-0.129 0.6328,-0.1915 0.1953,-0.0585 0.3906,-0.1132 0.586,-0.1679 0.0664,-0.0196 0.1328,-0.0352 0.1992,-0.0547 0.1015,-0.0274 0.1992,-0.0508 0.3008,-0.0781 0.0234,-0.0078 0.0507,-0.0118 0.0742,-0.0196 0.0664,-0.0156 0.1289,-0.0351 0.1953,-0.0507 0.1133,-0.0274 0.2226,-0.0547 0.3398,-0.0821 0.0078,-0.0039 0.0196,-0.0039 0.0274,-0.0078 0.0195,-0.0039 0.0351,-0.0078 0.0547,-0.0117 0.0976,-0.0274 0.1953,-0.0508 0.2929,-0.0703 0.0703,-0.0156 0.1407,-0.0313 0.211,-0.0469 0.1953,-0.043 0.3906,-0.0859 0.5859,-0.125 0.0664,-0.0156 0.1289,-0.0273 0.1953,-0.0391 0.0586,-0.0117 0.1133,-0.0234 0.1719,-0.0351 0.082,-0.0156 0.1641,-0.0313 0.2422,-0.0469 0.1133,-0.0195 0.2226,-0.043 0.3359,-0.0625 0.0235,-0.0039 0.0469,-0.0078 0.0703,-0.0117 0.0664,-0.0117 0.1367,-0.0234 0.2071,-0.0352 0.0234,-0.0039 0.0507,-0.0078 0.0742,-0.0117 0.125,-0.0195 0.2461,-0.039 0.3711,-0.0586 0.1953,-0.0312 0.3906,-0.0586 0.5898,-0.0859 0.0235,-0.0039 0.0508,-0.0078 0.0742,-0.0117 0.0196,-0.0039 0.0391,-0.0039 0.0586,-0.0078 0.0117,0 0.0274,-0.004 0.0391,-0.004 0.1875,-0.0273 0.375,-0.0468 0.5625,-0.0703 0.4414,-0.0547 0.8867,-0.0976 1.3281,-0.1289 0.0664,-0.0078 0.1328,-0.0117 0.1953,-0.0156 0.0196,-0.0039 0.0352,-0.0039 0.0547,-0.0039 0.0547,-0.0039 0.1133,-0.0078 0.168,-0.0117 0.043,-0.0039 0.0898,-0.0078 0.1328,-0.0078 0.0391,-0.0039 0.0781,-0.0039 0.1172,-0.0078 0.0351,0 0.0664,-0.004 0.1015,-0.004 0.043,-0.0039 0.0821,-0.0078 0.125,-0.0078 0.0313,-0.0039 0.0625,-0.0039 0.0938,-0.0039 0.0703,-0.0039 0.1406,-0.0078 0.2148,-0.0078 0.1055,-0.0078 0.211,-0.0117 0.3164,-0.0117 0.0196,-0.0039 0.0391,-0.0039 0.0586,-0.0039 0.0391,0 0.0782,-0.0039 0.1172,-0.0039 0.0508,0 0.1016,-0.0039 0.1524,-0.0039 0.0039,0 0.0078,0 0.0078,0 0.0117,0 0.0273,0 0.0351,-0.0039 0.0039,0 0.0039,0 0.0079,0 0.0117,0 0.0273,0 0.039,0 0.0235,0 0.043,0 0.0664,0 0.2227,-0.0039 0.4492,-0.0078 0.6719,-0.0078 9.2695,0 18.2891,3.7382 24.8398,10.289 6.5508,6.5508 10.2891,15.5703 10.2891,24.8399 0,9.2695 -3.7383,18.289 -10.2891,24.8398 -0.3711,0.3711 -0.7421,0.7266 -1.1289,1.0781 0.0313,-0.0117 0.0586,-0.0234 0.0899,-0.0351 0.1445,-0.0586 0.2929,-0.1133 0.4375,-0.168 0.0937,-0.0351 0.1875,-0.0703 0.2812,-0.1055 0.0157,-0.0078 0.0352,-0.0117 0.0508,-0.0195 0.1875,-0.0664 0.375,-0.1328 0.5664,-0.1992 0.0352,-0.0117 0.0703,-0.0234 0.1094,-0.0352 0,-0.0039 0.0039,-0.0039 0.0078,-0.0039 0.2539,-0.0898 0.5117,-0.1718 0.7695,-0.2539 0.0352,-0.0117 0.0703,-0.0234 0.1055,-0.0312 0.0273,-0.0117 0.0547,-0.0196 0.082,-0.0274 0.168,-0.0507 0.336,-0.1015 0.5078,-0.1523 0.0547,-0.0156 0.1094,-0.0313 0.1641,-0.0469 0.2149,-0.0625 0.4297,-0.125 0.6484,-0.1836 0.0704,-0.0195 0.1407,-0.0351 0.211,-0.0547 0.1523,-0.039 0.3008,-0.0781 0.4531,-0.1132 0.0195,-0.0079 0.0352,-0.0118 0.0547,-0.0157 0.1523,-0.039 0.3086,-0.0742 0.4609,-0.1093 0.0899,-0.0235 0.1836,-0.043 0.2774,-0.0625 0.0742,-0.0196 0.1484,-0.0352 0.2226,-0.0508 0.1055,-0.0235 0.211,-0.043 0.3164,-0.0625 0.0274,-0.0078 0.0547,-0.0157 0.086,-0.0196 0.0078,-0.0039 0.0195,-0.0078 0.0273,-0.0078 0.0664,-0.0156 0.1367,-0.0273 0.2071,-0.039 0.1523,-0.0313 0.3046,-0.0625 0.457,-0.086 0.0351,-0.0117 0.0742,-0.0195 0.1133,-0.0234 0.0664,-0.0117 0.1328,-0.0234 0.2031,-0.0352 0.0547,-0.0117 0.1133,-0.0234 0.1719,-0.0312 0.0117,0 0.0195,-0.0039 0.0312,-0.0039 0.1055,-0.0196 0.2188,-0.0352 0.3281,-0.0547 0.0039,0 0.0118,0 0.0157,-0.0039 0.1132,-0.0156 0.2304,-0.0352 0.3437,-0.0508 0.2735,-0.043 0.5469,-0.0781 0.8203,-0.1133 0.125,-0.0156 0.25,-0.0273 0.375,-0.0429 0.0039,0 0.0117,0 0.0157,0 0.1835,-0.0235 0.3671,-0.043 0.5546,-0.0586 1.0977,-0.1055 2.2032,-0.1602 3.3125,-0.1602 9.2657,0 18.2891,3.7344 24.836,10.2891 z"
               style="fill:#324c6d;fill-opacity:1;fill-rule:nonzero;stroke:none"
               id="path2522" /></g><g
             id="g2524"
             transform="translate(401.7773,320.7383)"><path
               d="m 0,0 c -2.7227,5.543 -5.7656,10.9102 -9.1016,16.0859 -1.4687,2.2813 -2.9961,4.5235 -4.5781,6.7266 -1.75,2.4414 -3.5703,4.832 -5.457,7.1719 -12.1055,15.0312 -26.8985,27.9648 -43.6875,38.1367 -0.043,0.0234 -0.0821,0.0508 -0.125,0.0742 -0.0742,0.0469 -0.1446,0.0899 -0.2188,0.1328 -0.039,0.0235 -0.0742,0.043 -0.1093,0.0664 -7.2735,4.375 -14.918,8.2344 -22.879,11.5196 0,0 0,0.0039 0,0.0039 -6.8398,2.8242 -13.9179,5.2304 -21.1914,7.1797 -0.5664,0.1562 -1.1406,0.3046 -1.7109,0.4531 -7.9102,2.0312 -16.0469,3.5312 -24.3672,4.4453 -1.3789,0.1523 -2.7656,0.2891 -4.1562,0.4102 -0.0196,0.0039 -0.0391,0.0039 -0.0586,0.0039 -0.1328,0.0117 -0.2735,0.0273 -0.4102,0.0351 -0.0273,0.0039 -0.0508,0.0039 -0.0781,0.0078 -0.1289,0.0117 -0.2656,0.0235 -0.3945,0.0313 -0.0313,0.0039 -0.0664,0.0078 -0.0977,0.0078 -0.1367,0.0117 -0.2578,0.0234 -0.3906,0.0312 -0.0313,0.0039 -0.0625,0.0079 -0.0977,0.0079 -0.1289,0.0117 -0.2578,0.0195 -0.3867,0.0312 -0.0273,0 -0.0586,0.0039 -0.0859,0.0078 -0.5782,0.043 -1.1485,0.082 -1.7227,0.1172 -0.0469,0.0039 -0.0937,0.0078 -0.1367,0.0117 -0.1133,0.0078 -0.2344,0.0117 -0.3477,0.0196 -0.0468,0.0039 -0.0937,0.0078 -0.1445,0.0117 -0.1133,0.0039 -0.2266,0.0117 -0.3398,0.0195 -0.0586,0.0039 -0.1172,0.0078 -0.1758,0.0117 -0.0977,0.0039 -0.207,0.0117 -0.3008,0.0156 -0.0742,0.004 -0.1484,0.0079 -0.2187,0.0118 -0.0899,0.0039 -0.1915,0.0117 -0.2813,0.0156 -0.0781,0.0039 -0.1562,0.0078 -0.2305,0.0117 -0.0898,0.0039 -0.1914,0.0117 -0.2812,0.0156 -0.0625,0.0039 -0.125,0.0078 -0.1914,0.0078 -0.3281,0.0196 -0.6719,0.0352 -1.0039,0.0508 -0.1016,0.0039 -0.2071,0.0078 -0.3086,0.0117 -0.0664,0.004 -0.1406,0.0079 -0.211,0.0079 -0.0976,0.0039 -0.1992,0.0078 -0.2968,0.0156 -0.0821,0 -0.1563,0.0039 -0.2344,0.0078 -0.0899,0.0039 -0.1836,0.0078 -0.2734,0.0078 -0.086,0.0039 -0.168,0.0078 -0.254,0.0117 -0.0859,0.0039 -0.1718,0.0039 -0.2578,0.0078 -0.082,0.0039 -0.1679,0.0079 -0.2461,0.0079 -0.0898,0.0039 -0.1836,0.0078 -0.2773,0.0117 -0.0781,0 -0.1602,0.0039 -0.2383,0.0039 -0.0937,0.0039 -0.1875,0.0078 -0.2812,0.0117 -0.0821,0 -0.1524,0.0039 -0.2305,0.0039 -0.1055,0.0039 -0.207,0.0078 -0.3125,0.0078 -0.0703,0.0039 -0.1328,0.0039 -0.2031,0.0078 -0.168,0.0039 -0.3399,0.0078 -0.5078,0.0117 -0.0469,0 -0.0821,0 -0.1289,0 -0.1211,0.004 -0.25,0.004 -0.3711,0.0079 -0.0743,0 -0.1524,0.0039 -0.2266,0.0039 -0.0977,0.0039 -0.1953,0.0039 -0.293,0.0039 -0.0781,0.0039 -0.1562,0.0039 -0.2343,0.0039 -0.0938,0.0039 -0.1875,0.0039 -0.2774,0.0039 -0.082,0 -0.1484,0.0039 -0.2266,0.0039 -0.1093,0 -0.2187,0.0039 -0.3281,0.0039 -0.0586,0 -0.125,0 -0.1836,0 -0.1093,0 -0.2226,0.0039 -0.3359,0.0039 -0.0625,0 -0.125,0 -0.1875,0 -0.1211,0 -0.2422,0.0039 -0.3594,0.0039 -0.0586,0 -0.1055,0 -0.164,0 -0.1719,0 -0.3438,0 -0.5157,0 -0.1601,0 -0.3203,0 -0.4804,0 -0.0743,0 -0.1407,0 -0.2149,0 -0.0703,0 -0.1406,-0.0039 -0.2109,-0.0039 -26.7656,-0.1328 -52.0586,-6.2383 -74.5039,-16.9961 -16.0391,-7.6875 -30.625,-17.75 -43.2578,-29.707 -2.7422,-2.5977 -5.3907,-5.2852 -7.9454,-8.0508 -1.6093,-1.7461 -3.1796,-3.5234 -4.7031,-5.332 -2.0898,-2.4688 -4.1015,-5 -6.0351,-7.586 13.6679,-8.0117 32.3984,-12.9492 53.0625,-12.9492 23.9882,0 45.3711,6.6563 59.2539,17.043 0.289,-0.4297 0.5898,-0.8594 0.9062,-1.2852 0.0547,-0.0742 0.1094,-0.1484 0.1641,-0.2226 0.125,-0.1719 0.2578,-0.3438 0.3906,-0.5157 0.168,-0.2226 0.3438,-0.4453 0.5195,-0.6679 17.2305,-21.7266 59.711,-37.0977 109.3868,-37.0977 C -41.8672,-10.3047 -18.9297,-6.5 0,0 Z"
               style="fill:#324c6d;fill-opacity:1;fill-rule:nonzero;stroke:none"
               id="path2526" /></g><g
             id="g2528"
             transform="translate(289.5007,421.9262)"><path
               d="m 0,0 c 1.7108,0.4146 3.4434,0.8087 5.1993,1.1825 -10e-5,6e-4 -3e-4,0.0012 -4e-4,0.0019 C 3.4434,0.8099 1.7103,0.4148 0,0 Z"
               style="fill:#ffffff;fill-opacity:1;fill-rule:nonzero;stroke:none"
               id="path2530" /></g><g
             id="g2532"
             transform="translate(288.953,421.7926)"><path
               d="M 0,0 C 0.1833,0.045 0.3619,0.0887 0.5457,0.1332 0.3635,0.089 0.1817,0.0446 0,0 Z"
               style="fill:#ffffff;fill-opacity:1;fill-rule:nonzero;stroke:none"
               id="path2534" /></g><g
             id="g2536"
             transform="translate(288.382,421.6514)"><path
               d="M 0,0 C 0.0764,0.019 0.1544,0.0384 0.2308,0.0573 0.1539,0.0383 0.0768,0.0191 0,0 Z"
               style="fill:#ffffff;fill-opacity:1;fill-rule:nonzero;stroke:none"
               id="path2538" /></g><g
             id="g2540"
             transform="translate(239.9094,399.2708)"><path
               d="M 0,0 C 0.0419,0.0348 0.0872,0.0724 0.1292,0.1071 0.0862,0.0716 0.0428,0.0356 0,0 Z"
               style="fill:#ffffff;fill-opacity:1;fill-rule:nonzero;stroke:none"
               id="path2542" /></g><g
             id="g2544"
             transform="translate(239.6993,399.0955)"><path
               d="M 0,0 C 0.0473,0.0396 0.0972,0.0813 0.1446,0.1208 0.0963,0.0806 0.0481,0.0403 0,0 Z"
               style="fill:#ffffff;fill-opacity:1;fill-rule:nonzero;stroke:none"
               id="path2546" /></g><g
             id="g2548"
             transform="translate(239.5028,398.9303)"><path
               d="M 0,0 C 0.0527,0.0444 0.1065,0.0896 0.1594,0.134 0.1061,0.0893 0.053,0.0447 0,0 Z"
               style="fill:#ffffff;fill-opacity:1;fill-rule:nonzero;stroke:none"
               id="path2550" /></g><g
             id="g2552"
             transform="translate(235.9847,395.7395)"><path
               d="M 0,0 C 1e-4,-3e-4 2e-4,-6e-4 2e-4,-9e-4 1.1078,1.0824 2.2812,2.1468 3.517,3.1899 2.2807,2.1466 1.1075,1.0829 0,0 Z"
               style="fill:#ffffff;fill-opacity:1;fill-rule:nonzero;stroke:none"
               id="path2554" /></g><g
             id="g2556"
             transform="translate(230.6355,389.68)"><path
               d="m 0,0 c 0.0341,0.0455 0.0691,0.0919 0.1034,0.1374 -2e-4,1e-4 -1e-4,1e-4 -3e-4,2e-4 C 0.0683,0.0916 0.0345,0.0461 0,0 Z"
               style="fill:#ffffff;fill-opacity:1;fill-rule:nonzero;stroke:none"
               id="path2558" /></g><g
             id="g2560"
             transform="translate(230.4734,389.4627)"><path
               d="M 0,0 C 0.0325,0.0438 0.0666,0.0896 0.0993,0.1333 0.0663,0.0892 0.0327,0.0442 0,0 Z"
               style="fill:#ffffff;fill-opacity:1;fill-rule:nonzero;stroke:none"
               id="path2562" /></g><g
             id="g2564"
             transform="translate(277.5195,359.8086)"><path
               d="m 0,0 c 0.3242,-1.625 0.6523,-3.25 0.9844,-4.875 -1.6094,1.7734 -3.3125,3.4687 -5.0664,5.1328 0.2851,0.4219 0.5742,0.8438 0.8711,1.2578 0.75,1 1.5195,1.9766 2.3281,2.9258 C -0.5898,2.9609 -0.293,1.4805 0,0 Z m 124.2578,-39.0703 c -2.7226,5.543 -5.7656,10.9101 -9.1015,16.0859 -1.4688,2.2813 -2.9961,4.5235 -4.5782,6.7266 -1.75,2.4414 -3.5703,4.832 -5.457,7.1719 -12.1055,15.0312 -26.8984,27.9648 -43.6875,38.1367 -0.043,0.0234 -0.082,0.0508 -0.125,0.0742 -0.0742,0.0469 -0.1445,0.0898 -0.2188,0.1328 -0.039,0.0235 -0.0742,0.043 -0.1093,0.0664 -7.2735,4.375 -14.918,8.2344 -22.8789,11.5196 0,0 0,0.0039 0,0.0039 -6.8399,2.8242 -13.918,5.2304 -21.1914,7.1796 0.0546,-2.4296 0.1406,-4.8593 0.2031,-7.2773 0,-0.0234 0.0039,-0.0469 0.0039,-0.0742 -0.1524,0.6172 -0.3047,1.2344 -0.457,1.8515 -0.4883,1.9844 -0.9727,3.9688 -1.461,5.9532 -7.9101,2.0312 -16.0469,3.5312 -24.3672,4.4453 0.086,-0.8555 0.1797,-1.707 0.293,-2.5586 0.3906,-2.957 0.7305,-5.9219 1.2148,-8.8633 0.5352,-3.2187 1.0704,-6.4414 1.6055,-9.6601 0.457,-2.7422 0.9375,-5.4844 1.4414,-8.2227 -1.8789,-0.9883 -3.6172,-2.2422 -5.2461,-3.6875 -2.3398,-2.0742 -4.3906,-4.5078 -6.289,-7.0039 -0.4532,0.4961 -0.9297,0.9805 -1.4336,1.457 -0.6055,0.5742 -1.3086,1.0508 -2.0547,1.4531 -0.7227,1.9649 -1.4531,3.9297 -2.1875,5.8907 -1.7813,4.7578 -3.6016,9.5 -5.4141,14.2461 -0.7773,2.039 -1.5586,4.0781 -2.3633,6.1093 -0.4492,1.1407 -0.9023,2.2774 -1.3632,3.4102 -0.2579,0.6367 -0.5079,1.2852 -0.7696,1.9297 -3.5586,-2.0742 -6.832,-4.2774 -9.789,-6.5899 -0.0039,-0.0039 -0.0079,-0.0039 -0.0118,-0.0078 -0.1484,-0.1172 -0.3007,-0.2343 -0.4492,-0.3554 -0.0195,-0.0118 -0.0312,-0.0235 -0.0508,-0.0391 -0.0586,-0.043 -0.1132,-0.0898 -0.1718,-0.1367 -0.0196,-0.0156 -0.0391,-0.0313 -0.0586,-0.0469 -0.0469,-0.0391 -0.0938,-0.0781 -0.1407,-0.1133 -0.0312,-0.0234 -0.0546,-0.0469 -0.0859,-0.0703 -0.0469,-0.0351 -0.0898,-0.0703 -0.1367,-0.1094 -0.0234,-0.0195 -0.0469,-0.039 -0.0742,-0.0586 -0.0664,-0.0546 -0.1328,-0.1093 -0.1953,-0.164 -0.0274,-0.0196 -0.0547,-0.043 -0.0821,-0.0664 -0.039,-0.0313 -0.0781,-0.0625 -0.1172,-0.0977 -0.0429,-0.0312 -0.0859,-0.0703 -0.1289,-0.1055 -0.0234,-0.0195 -0.0429,-0.0351 -0.0664,-0.0546 -0.0468,-0.0391 -0.0976,-0.0821 -0.1445,-0.1211 -0.0117,-0.0118 -0.0234,-0.0196 -0.0352,-0.0313 -0.0546,-0.043 -0.1093,-0.0898 -0.1601,-0.1328 0,0 0,0 -0.0039,0 -1.2344,-1.043 -2.4063,-2.1094 -3.5156,-3.1914 0.0898,-0.3281 0.1796,-0.6523 0.2734,-0.9805 0.0351,-0.1289 0.0742,-0.2617 0.1094,-0.3906 0.6679,-2.3477 1.3203,-4.6992 2.0195,-7.0391 0.3984,-1.3203 0.7969,-2.6445 1.2031,-3.9648 -2.8515,2.2852 -5.7656,4.4844 -8.8515,6.4531 -0.0352,-0.0469 -0.0704,-0.0937 -0.1016,-0.1367 -0.0234,-0.0273 -0.043,-0.0586 -0.0625,-0.0859 -0.0352,-0.043 -0.0703,-0.0899 -0.1016,-0.1328 -0.0507,-0.0665 -0.1015,-0.1368 -0.1484,-0.2032 -0.0273,-0.0351 -0.0469,-0.0625 -0.0703,-0.0976 -0.0586,-0.0782 -0.1133,-0.1524 -0.168,-0.2305 -0.0156,-0.0195 -0.0312,-0.043 -0.0469,-0.0625 -0.0625,-0.0859 -0.125,-0.1758 -0.1875,-0.2617 0,-0.0039 0,-0.0039 -0.0039,-0.0078 -2.2422,-3.1797 -3.9492,-6.4766 -5.0703,-9.8789 -0.4219,-1.2735 -0.7617,-2.5664 -1.0156,-3.8672 0,-0.0039 0,-0.0078 0,-0.0078 -0.0195,-0.1094 -0.043,-0.2188 -0.0625,-0.3243 0,-0.0039 0,-0.0078 0,-0.0117 -0.0391,-0.2187 -0.0781,-0.4375 -0.1133,-0.6562 0,-0.0039 0,-0.0078 0,-0.0117 -0.0195,-0.1055 -0.0351,-0.211 -0.0508,-0.3165 0,-0.0078 -0.0039,-0.0156 -0.0039,-0.0234 -0.0156,-0.1016 -0.0312,-0.207 -0.0429,-0.3086 -0.0039,-0.0117 -0.0039,-0.0234 -0.0039,-0.039 -0.0157,-0.1016 -0.0313,-0.2032 -0.043,-0.3047 0,-0.0078 0,-0.0157 -0.0039,-0.0235 -0.0235,-0.2148 -0.0508,-0.4297 -0.0703,-0.6406 0,-0.0078 -0.0039,-0.0195 -0.0039,-0.0273 -0.0118,-0.0977 -0.0196,-0.1993 -0.0274,-0.2969 -0.0039,-0.0195 -0.0039,-0.0352 -0.0078,-0.0547 -0.0078,-0.0977 -0.0156,-0.1953 -0.0234,-0.293 0,-0.0156 -0.0039,-0.0351 -0.0039,-0.0508 -0.0039,-0.0507 -0.0079,-0.0976 -0.0118,-0.1484 -0.0039,-0.0508 -0.0078,-0.0976 -0.0117,-0.1484 0,-0.0157 0,-0.0235 0,-0.0391 -0.0156,-0.207 -0.0273,-0.418 -0.039,-0.625 0,-0.0156 0,-0.0273 0,-0.043 -0.0039,-0.0976 -0.0079,-0.1953 -0.0118,-0.2929 0,-0.0196 0,-0.0391 -0.0039,-0.0586 0,-0.0977 -0.0039,-0.1914 -0.0078,-0.2891 0,-0.0156 0,-0.039 0,-0.0586 -0.0039,-0.0976 -0.0039,-0.1953 -0.0039,-0.2929 0,-0.0157 0,-0.0274 0,-0.0391 -0.0039,-0.1055 -0.0039,-0.2109 -0.0039,-0.3164 0,-3.0899 0.4805,-6.125 1.4024,-9.0899 1.0507,-3.371 2.6757,-6.6445 4.8281,-9.8007 0.289,-0.4297 0.5898,-0.8594 0.9062,-1.2852 0.0547,-0.0742 0.1094,-0.1484 0.1641,-0.2226 0.125,-0.1719 0.2578,-0.3438 0.3906,-0.5157 0.168,-0.2226 0.3438,-0.4453 0.5195,-0.6679 17.2305,-21.7266 59.711,-37.0977 109.3868,-37.0977 24.7226,0 47.6601,3.8047 66.5898,10.3047 z"
               style="fill:#ffffff;fill-opacity:1;fill-rule:nonzero;stroke:none"
               id="path2566" /></g><g
             id="g2568"
             transform="translate(408.0569,360.0381)"><path
               d="M 0,0 C -3e-4,0.0016 -4e-4,0.0033 -4e-4,0.005 -0.0277,0.0597 -0.059,0.1183 -0.0902,0.1729 -0.0602,0.1166 -0.0301,0.0566 0,0 Z"
               style="fill:#ffffff;fill-opacity:1;fill-rule:nonzero;stroke:none"
               id="path2570" /></g><g
             id="g2572"
             transform="translate(236.0391,382.3906)"><path
               d="m 0,0 c 1.3164,3.4102 0.5117,8.1523 -2.5391,10.4141 -0.9101,0.6757 -1.7851,1.1953 -2.75,1.5664 -0.0859,0.039 -0.1718,0.0703 -0.2578,0.1015 -1.4414,2.3203 -4.1562,4.125 -6.9297,4.0899 -0.957,-0.0117 -1.8867,0.0039 -2.8281,-0.2149 -0.957,-0.2187 -1.8047,-0.625 -2.6641,-1.0742 -0.332,-0.1719 -0.6484,-0.3672 -0.9492,-0.582 -0.3242,0.5039 -0.6836,0.9804 -1.0742,1.4023 -1.4531,1.5664 -3.2539,2.2813 -5.293,2.7383 -0.4843,0.1094 -0.9804,0.1563 -1.4726,0.1563 -1.4688,0 -2.9453,-0.4141 -4.3242,-0.836 -1.7735,-0.5429 -3.4375,-1.8047 -4.8243,-2.9961 -1.2148,-1.039 -2.3476,-2.1289 -3.4492,-3.2656 -0.1328,0.0664 -0.2656,0.1328 -0.3984,0.1992 -3.6211,1.707 -8.2774,0.6563 -11.3867,-1.6914 -0.4336,-0.3281 -0.8516,-0.6641 -1.2578,-1.0117 -0.2383,0.5351 -0.5313,1.0547 -0.8868,1.5586 -1.1523,1.6172 -2.7617,2.9023 -4.664,3.5117 -1.4961,0.4805 -3.0938,0.5742 -4.6446,0.3477 -16.039,-7.6875 -30.625,-17.75 -43.2578,-29.7071 -2.7422,-2.5976 -5.3906,-5.2851 -7.9453,-8.0508 -1.6094,-1.746 -3.1797,-3.5234 -4.7031,-5.332 -2.0898,-2.4687 -4.1016,-5 -6.0352,-7.5859 13.668,-8.0117 32.3985,-12.9492 53.0625,-12.9492 23.9883,0 45.3711,6.6562 59.254,17.0429 0.2929,-0.4297 0.5937,-0.8593 0.9062,-1.2851 0.0547,-0.0742 0.1094,-0.1485 0.1641,-0.2227 0.1289,-0.1719 0.2578,-0.3437 0.3906,-0.5156 0.168,-0.2227 0.3437,-0.4453 0.5195,-0.668 0.9297,2.1446 1.8321,4.293 2.8672,6.3946 1.1016,2.2343 2.332,4.3984 3.4336,6.6289 0.0195,0.039 0.0391,0.0742 0.0547,0.1132 0.5781,1.1719 1.1445,2.3555 1.6836,3.5469 0.707,1.5703 1.1094,3.2188 0.9531,4.9531 -0.1758,1.9102 -0.9609,3.461 -2.1289,4.8282 0.0391,0.0859 0.082,0.1758 0.125,0.2617 0.0391,0.082 0.0742,0.1601 0.1133,0.2422 0.6445,1.3867 1.2109,2.8047 1.7578,4.2344 C -0.9141,-2.4375 -0.4687,-1.2148 0,0 Z"
               style="fill:#ffffff;fill-opacity:1;fill-rule:nonzero;stroke:none"
               id="path2574" /></g><g
             id="g2576"
             transform="translate(390.0352,335.2422)"><path
               d="m 0,0 c 0.8867,0.5195 1.7578,1.0625 2.6406,1.582 -1.4687,2.2813 -2.9961,4.5235 -4.5781,6.7266 -1.75,2.4414 -3.5703,4.832 -5.457,7.1719 -0.7539,-0.4414 -1.5078,-0.875 -2.2774,-1.2852 -2.7422,-1.3359 -5.5,-2.6797 -8.3672,-3.7226 -2.4648,-0.8321 -4.957,-1.5899 -7.4257,-2.4219 -1.504,-0.5 -3.0469,-0.8438 -4.5469,-1.3438 -1.8672,-0.6211 -3.6953,-1.3359 -5.5352,-2.0273 -1.3437,-0.5039 -2.707,-0.9531 -4.0469,-1.4805 -1.7968,-0.7031 -3.4804,-1.6289 -5.1796,-2.5351 -0.4141,-0.1914 -0.8282,-0.3711 -1.2461,-0.543 -2.4297,-0.7148 -4.9571,-1.1758 -7.4336,-1.6914 -1.211,-0.2305 -2.4258,-0.4219 -3.6524,-0.543 -3.8828,-0.2031 -7.7851,-0.0898 -11.6758,-0.0859 -3.5117,0 -7.0429,0.0508 -10.5546,0.2383 -0.711,0.0781 -1.4102,0.1875 -2.1172,0.3125 -1.5313,0.3203 -3.0586,0.6367 -4.6016,0.8906 -1.0781,0.1797 -2.1562,0.3359 -3.2266,0.5273 -0.4726,0.1211 -0.9335,0.2578 -1.3945,0.4102 -1.957,0.6797 -3.9336,1.293 -5.8984,1.9492 -1.5508,0.5703 -3.0821,1.1914 -4.5703,1.8984 -0.4688,0.2539 -0.9219,0.5235 -1.3711,0.8047 -1.3516,0.9453 -2.6875,1.9102 -4.0938,2.7813 -1.5898,0.9883 -3.3281,1.7109 -5.0195,2.5039 -0.3555,0.1953 -0.7031,0.3984 -1.043,0.6133 -1.1133,0.8203 -2.1719,1.7109 -3.2656,2.5507 -1.2656,0.9805 -2.6523,1.7657 -4,2.625 -0.9922,0.7266 -1.9336,1.5157 -2.9141,2.2579 -0.914,0.6953 -1.8828,1.3164 -2.8359,1.9492 -3.4297,2.3359 -6.8945,4.7187 -10.043,7.418 -0.5976,0.5351 -1.1992,1.0742 -1.7617,1.6445 -0.6172,0.7851 -1.164,1.6172 -1.7578,2.4219 -0.9531,1.2968 -2.0937,2.3984 -3.2969,3.4531 -1.8672,1.6367 -3.8359,3.2187 -5.8086,4.7265 -2.1015,1.6055 -4.5156,2.8243 -7.0195,3.7149 -0.5273,0.1914 -1.0586,0.3633 -1.5937,0.5234 -1.793,0.5391 -3.6602,0.9024 -5.5391,0.9102 -0.0195,0 -0.043,0 -0.0664,0 -2.0508,0 -4.0078,-0.4844 -6,-0.9063 -0.7774,-0.164 -1.543,-0.3359 -2.3008,-0.539 -0.8477,-0.2227 -1.6875,-0.4883 -2.5273,-0.8125 -1.3399,-0.5157 -2.6055,-1.2149 -3.8789,-1.8789 -2.1172,-0.9961 -4.2969,-1.8125 -6.504,-2.5977 -2.2929,-0.8164 -4.4843,-1.8242 -6.6718,-2.8828 -4.418,-2.1367 -8.9375,-4.0508 -13.3203,-6.2617 0.3125,0.1601 0.625,0.3164 0.9375,0.4726 -0.3907,-0.1914 -0.7813,-0.375 -1.1836,-0.539 -0.125,-0.0352 -0.2539,-0.0664 -0.3828,-0.0977 -2.0508,-0.3906 -4.0743,-0.8359 -6.1055,-1.3164 -2.0938,-0.4922 -4.086,-1.1875 -6.0938,-1.9414 -0.0742,-0.0234 -0.1523,-0.043 -0.2304,-0.0664 -0.0118,-0.0039 -0.0274,-0.0039 -0.043,-0.0078 -1.3789,-0.0352 -2.7695,0.0273 -4.1484,0.1055 -2.8086,0.2578 -5.5977,0.6953 -8.4102,0.9179 -3.0781,0.2422 -6.1641,0.2735 -9.2422,0.4375 -1.9219,0.1797 -3.8047,0.5391 -5.707,0.8672 -1.8242,0.3203 -3.6641,0.5586 -5.4883,0.8945 -1.1992,0.2735 -2.3789,0.6016 -3.5469,0.9883 -1.2461,0.4453 -2.4883,0.8906 -3.75,1.293 -0.7812,0.2539 -1.5859,0.4453 -2.375,0.6758 -0.1015,0.039 -0.1992,0.082 -0.3008,0.125 -2.7421,-2.5977 -5.3906,-5.2852 -7.9453,-8.0508 -1.6093,-1.7461 -3.1797,-3.5234 -4.7031,-5.332 0.9063,-0.4141 1.8203,-0.7813 2.7852,-1.125 -0.25,0.0859 -0.5,0.1757 -0.75,0.2617 1.5468,-0.543 3.0117,-1.2617 4.5429,-1.836 1.7266,-0.6484 3.5235,-1.0781 5.2774,-1.6523 2.0156,-0.7109 4.0234,-1.4102 6.1054,-1.9024 2.4688,-0.5781 4.9844,-0.871 7.4766,-1.3046 2.5469,-0.4414 5.0469,-0.8868 7.6328,-1.043 2.4102,-0.1445 4.8281,-0.1563 7.2422,-0.2852 1.4297,-0.1093 2.8633,-0.2382 4.2891,-0.3867 2.3008,-0.2305 4.5586,-0.625 6.875,-0.7148 2.2773,-0.0821 4.6562,-0.2969 6.9062,0.1211 1.8516,0.3437 3.5391,1.0117 5.2774,1.6523 1.7773,0.5586 3.6172,0.9961 5.4375,1.3984 1.3007,0.2422 2.6015,0.4454 3.8867,0.754 1.5156,0.371 2.9219,1.0742 4.3047,1.7734 4.2773,2.1133 8.6679,3.9844 12.9687,6.0469 2.3711,1.1406 4.8242,2.0156 7.2969,2.9101 1.332,0.4844 2.625,1.043 3.8984,1.6407 1.0118,0.4765 2.0157,0.9726 3.0157,1.4765 0.4336,0.207 0.8711,0.3985 1.3164,0.5742 0.4492,0.1328 0.9062,0.2461 1.3672,0.3438 0.7539,0.1562 1.5078,0.3164 2.2578,0.4765 0.164,0.0274 0.3281,0.0547 0.4922,0.0782 0.0156,-0.0039 0.0351,-0.0078 0.0546,-0.0078 0.4258,-0.1055 0.8477,-0.2266 1.2657,-0.3555 0.6015,-0.2344 1.1914,-0.4922 1.7734,-0.7695 0.1289,-0.0743 0.2578,-0.1485 0.3828,-0.2227 0.4219,-0.3047 0.832,-0.6211 1.2383,-0.9492 0.6797,-0.5391 1.3477,-1.1016 2.0156,-1.6602 0.7578,-0.6289 1.543,-1.2265 2.3008,-1.8554 0.1563,-0.1524 0.3125,-0.3047 0.4648,-0.4649 1.1797,-1.4531 2.1602,-3.0351 3.4649,-4.414 1.543,-1.629 3.3476,-3.043 5.082,-4.4571 3.2461,-2.6445 6.7852,-5.0156 10.2696,-7.3476 0.9609,-0.6719 1.875,-1.4063 2.7929,-2.1407 1.4258,-1.1367 2.9961,-2.0468 4.5235,-3.0312 1.7187,-1.2422 3.3125,-2.6406 5.082,-3.8203 1.7265,-1.1446 3.6172,-1.9531 5.4844,-2.836 0.6562,-0.3515 1.2929,-0.7265 1.9218,-1.1289 1.1563,-0.8047 2.3008,-1.6172 3.4766,-2.3906 1.4727,-0.9648 3.1211,-1.6875 4.7344,-2.375 2.7461,-1.1719 5.582,-2.0312 8.414,-2.9609 0.8282,-0.2969 1.6563,-0.5977 2.4922,-0.8789 1.1836,-0.3946 2.3828,-0.6407 3.6055,-0.8829 1.9844,-0.3984 4,-0.6367 5.9883,-1.0273 -0.0547,0.0117 -0.1055,0.0234 -0.1602,0.0352 2.3047,-0.461 4.5703,-0.8477 6.9453,-0.9141 1.7696,-0.0508 3.5391,-0.0977 5.3086,-0.168 4.1016,-0.1679 8.2305,-0.0703 12.3321,-0.0586 2.2734,0.0039 4.539,0.0782 6.8007,0.2774 2.2735,0.1992 4.5274,0.7226 6.75,1.2265 2.0078,0.4571 4.0391,0.8399 6.0313,1.3594 2.5469,0.6719 4.8359,1.9492 7.1406,3.1797 1.3867,0.6367 2.8164,1.1524 4.25,1.6719 1.6172,0.582 3.2149,1.2109 4.8281,1.8086 0.9453,0.3008 1.9024,0.5625 2.8594,0.8242 1.3086,0.3633 2.5859,0.8281 3.8633,1.2852 2.3164,0.7617 4.6562,1.4453 6.957,2.25 2.0196,0.707 3.9102,1.5625 5.8282,2.5078 C -4.0195,-1.9688 -1.9414,-1.1367 0,0 Z"
               style="fill:#ffffff;fill-opacity:1;fill-rule:nonzero;stroke:none"
               id="path2578" /></g><g
             id="g2580"
             transform="translate(408.0569,360.0381)"><path
               d="M 0,0 C -3e-4,0.0016 -4e-4,0.0033 -4e-4,0.005 -0.0277,0.0597 -0.059,0.1183 -0.0902,0.1729 -0.0602,0.1166 -0.0301,0.0566 0,0 Z"
               style="fill:#ffffff;fill-opacity:1;fill-rule:nonzero;stroke:none"
               id="path2582" /></g><g
             id="g2584"
             transform="translate(400.287,339.7983)"><path
               d="M 0,0 C 0.1276,0.0436 0.2552,0.0874 0.3827,0.1318 0.2551,0.0879 0.1276,0.0439 0,0 Z"
               style="fill:#ffffff;fill-opacity:1;fill-rule:nonzero;stroke:none"
               id="path2586" /></g><g
             id="g2588"
             transform="translate(388.0977,343.5508)"><path
               d="m 0,0 c -1.75,2.4414 -3.5703,4.832 -5.457,7.1719 -12.1055,15.0312 -26.8985,27.9648 -43.6875,38.1367 -0.043,0.0234 -0.0821,0.0508 -0.125,0.0742 -0.0743,0.0469 -0.1446,0.0899 -0.2188,0.1328 -0.039,0.0235 -0.0742,0.043 -0.1094,0.0664 -7.2734,4.375 -14.9179,8.2344 -22.8789,11.5196 0,0 0,0.0039 0,0.0039 -6.8398,2.8242 -13.9179,5.2304 -21.1914,7.1797 -0.5664,0.1562 -1.1406,0.3046 -1.7109,0.4531 -7.9102,2.0312 -16.0469,3.5312 -24.3672,4.4453 -1.3789,0.1523 -2.7656,0.2891 -4.1562,0.4102 -0.0196,0.0039 -0.0391,0.0039 -0.0586,0.0039 -0.1329,0.0117 -0.2735,0.0273 -0.4102,0.0351 -0.0273,0.0039 -0.0508,0.0039 -0.0781,0.0078 -0.1289,0.0117 -0.2656,0.0235 -0.3946,0.0313 -0.0312,0.0039 -0.0664,0.0078 -0.0976,0.0078 -0.1367,0.0117 -0.2578,0.0234 -0.3906,0.0312 -0.0313,0.0039 -0.0625,0.0079 -0.0977,0.0079 -0.1289,0.0117 -0.2578,0.0195 -0.3867,0.0312 -0.0274,0 -0.0586,0.0039 -0.0859,0.0078 -0.5782,0.043 -1.1485,0.082 -1.7227,0.1172 -0.0469,0.0039 -0.0938,0.0078 -0.1367,0.0117 -0.1133,0.0078 -0.2344,0.0117 -0.3477,0.0196 -0.0468,0.0039 -0.0937,0.0078 -0.1445,0.0117 -0.1133,0.0039 -0.2266,0.0117 -0.3398,0.0195 -0.0586,0.0039 -0.1172,0.0078 -0.1758,0.0117 -0.0977,0.0039 -0.2071,0.0117 -0.3008,0.0156 -0.0742,0.004 -0.1484,0.0079 -0.2188,0.0118 -0.0898,0.0039 -0.1914,0.0117 -0.2812,0.0156 -0.0781,0.0039 -0.1563,0.0078 -0.2305,0.0117 -0.0898,0.0039 -0.1914,0.0117 -0.2812,0.0156 -0.0625,0.0039 -0.125,0.0078 -0.1914,0.0078 -0.3282,0.0196 -0.6719,0.0352 -1.0039,0.0508 -0.1016,0.0039 -0.2071,0.0078 -0.3086,0.0117 -0.0664,0.004 -0.1407,0.0079 -0.211,0.0079 -0.0976,0.0039 -0.1992,0.0078 -0.2968,0.0156 -0.0821,0 -0.1563,0.0039 -0.2344,0.0078 -0.0899,0.0039 -0.1836,0.0078 -0.2735,0.0078 -0.0859,0.0039 -0.1679,0.0078 -0.2539,0.0117 -0.0859,0.0039 -0.1718,0.0039 -0.2578,0.0078 -0.082,0.0039 -0.1679,0.0079 -0.2461,0.0079 -0.0898,0.0039 -0.1836,0.0078 -0.2773,0.0117 -0.0781,0 -0.1602,0.0039 -0.2383,0.0039 -0.0937,0.0039 -0.1875,0.0078 -0.2812,0.0117 -0.0821,0 -0.1524,0.0039 -0.2305,0.0039 -0.1055,0.0039 -0.207,0.0078 -0.3125,0.0078 -0.0703,0.0039 -0.1328,0.0039 -0.2031,0.0078 -0.168,0.0039 -0.3399,0.0078 -0.5079,0.0117 -0.0468,0 -0.082,0 -0.1289,0 -0.1211,0.004 -0.25,0.004 -0.3711,0.0079 -0.0742,0 -0.1523,0.0039 -0.2265,0.0039 -0.0977,0.0039 -0.1953,0.0039 -0.293,0.0039 -0.0781,0.0039 -0.1562,0.0039 -0.2344,0.0039 -0.0937,0.0039 -0.1875,0.0039 -0.2773,0.0039 -0.082,0 -0.1484,0.0039 -0.2266,0.0039 -0.1093,0 -0.2187,0.0039 -0.3281,0.0039 -0.0586,0 -0.125,0 -0.1836,0 -0.1094,0 -0.2226,0.0039 -0.3359,0.0039 -0.0625,0 -0.125,0 -0.1875,0 -0.1211,0 -0.2422,0.0039 -0.3594,0.0039 -0.0586,0 -0.1055,0 -0.1641,0 -0.1718,0 -0.3437,0 -0.5156,0 -0.1601,0 -0.3203,0 -0.4805,0 -0.0742,0 -0.1406,0 -0.2148,0 -0.0703,0 -0.1406,-0.0039 -0.2109,-0.0039 -26.7657,-0.1328 -52.0586,-6.2383 -74.5039,-16.9961 -16.0391,-7.6875 -30.625,-17.75 -43.2579,-29.707 -2.7421,-2.5977 -5.3906,-5.2852 -7.9453,-8.0508 2.9844,-1.7578 6.8321,-1.3555 9.7735,0.4336 1.707,1.0351 3.3086,2.2187 4.8672,3.4609 -0.0313,-1.2578 0.1953,-2.5195 0.6679,-3.6367 1.1758,-2.7773 3.7813,-4.7617 6.7578,-5.1758 1.793,-0.2539 3.668,-0.2187 5.5157,-0.1836 0.6875,0.0117 1.3711,0.0235 2.0468,0.0235 2.0625,-0.0039 4.125,-0.0078 6.1914,-0.0352 4.2813,-0.0586 8.5508,-0.1797 12.8243,-0.4336 2.1445,-0.1914 4.2929,-0.3828 6.4336,-0.5781 2.7304,-0.2539 5.4375,-0.2813 8.1523,0.125 1.5625,0.2305 3.0547,0.7148 4.457,1.4375 1.3125,0.6758 2.2657,1.6289 3.2032,2.75 1.7304,2.0664 2.25,5.2383 1.4453,7.8984 0.832,0.1914 1.6601,0.418 2.4726,0.6211 1.9532,0.4844 3.9024,0.9766 5.8555,1.4688 3.7969,0.9609 7.5859,1.9219 11.3555,2.9922 1.1523,0.3281 2.289,0.6953 3.4101,1.1015 4.4492,1.5977 8.6797,3.7383 12.8555,5.9688 0.7305,-1.043 1.5,-2.0547 2.2617,-3.0274 1.0938,-1.3984 2.168,-2.7148 3.0703,-3.9023 1.7969,-2.3711 3.4766,-4.7734 5.4688,-6.9922 1.0898,-1.2148 2.3398,-2.4102 3.6718,-3.3359 1.7305,-1.2032 3.6211,-1.8516 5.7383,-1.8516 0.5391,0 1.0625,0.0508 1.5703,0.1484 0.7071,-1.1054 1.4258,-2.207 2.1602,-3.2968 1.6953,-2.5274 3.5898,-4.8633 5.7148,-7.043 1.4571,-1.5 3.1485,-2.918 5.0157,-3.8477 1.75,-0.8711 3.707,-1.0703 5.5546,-0.7031 1.0079,-0.957 2,-1.9219 2.9532,-2.9414 0.6015,-0.7617 1.2695,-1.4805 2.0429,-2.0781 0.8594,-0.6641 1.7735,-1.082 2.7579,-1.3789 0.1406,-1.0196 0.3984,-2.0117 0.7929,-2.9414 1.7852,-4.2149 6.1524,-7.2891 10.836,-6.6758 1.6289,0.2109 3.1523,0.793 4.4765,1.668 1.2188,-1.4571 3.0117,-2.7305 4.8399,-3.1133 0.9648,-0.2032 1.8945,-0.4375 2.8906,-0.4375 1,0 2.1328,0.1484 3.1016,0.414 0.7148,0.1953 1.4335,0.4571 2.1289,0.7735 2.9101,-2.6485 7.4336,-2.8282 10.664,-0.625 1.5469,-1.3125 3.5156,-2.0157 5.5899,-2.0703 1.6992,-0.043 3.375,0.2734 4.8476,1.1601 1.4141,0.8516 2.5039,1.9063 3.6367,3.0821 0.2461,0.2539 0.4883,0.5156 0.7266,0.7812 1.3047,-0.7969 2.8164,-1.2461 4.375,-1.1992 1.668,0.0469 3.2617,0.2226 4.8086,0.8867 1.2109,0.5195 2.3906,1.125 3.5508,1.7578 2.4922,1.3594 4.7422,3.1992 6.8164,5.1445 1.5273,-0.4843 3.1445,-0.7265 4.7773,-0.8281 1.211,-0.0742 2.4844,0.1016 3.711,0.3867 1.1562,-0.664 2.3945,-1.1836 3.6875,-1.5234 3.9179,-1.0273 8.1133,-0.9805 11.8828,0.6328 C -6.8828,-7.2852 -3.0547,-3.9336 0,0 Z"
               style="fill:#ffffff;fill-opacity:1;fill-rule:nonzero;stroke:none"
               id="path2590" /></g><g
             id="g2592"
             transform="translate(408.0569,360.0381)"><path
               d="M 0,0 C -3e-4,0.0016 -4e-4,0.0033 -4e-4,0.005 -0.0277,0.0597 -0.059,0.1183 -0.0902,0.1729 -0.0602,0.1166 -0.0301,0.0566 0,0 Z"
               style="fill:#ffffff;fill-opacity:1;fill-rule:nonzero;stroke:none"
               id="path2594" /></g><g
             id="g2596"
             transform="translate(392.0068,433.5303)"><path
               d="M 0,0 C 0,0.0039 0,0.0039 0,0.0078 -0.0273,0.0703 -0.0547,0.1328 -0.082,0.1953 -0.0977,0.2344 -0.1133,0.2695 -0.1328,0.3086 -0.0859,0.207 -0.043,0.1016 0,0 Z"
               style="fill:#000000;fill-opacity:1;fill-rule:nonzero;stroke:none"
               id="path2598" /></g><g
             id="g2600"
             transform="translate(294.9755,281.1202)"><path
               d="m 0,0 c -6.5533,-6.5503 -10.2906,-15.5715 -10.2906,-24.8392 0,-9.2677 3.7373,-18.2889 10.2906,-24.8391 6.5502,-6.5534 15.5714,-10.2906 24.8391,-10.2906 9.2678,0 18.289,3.7372 24.8392,10.2906 6.5534,6.5502 10.2906,15.5714 10.2906,24.8391 0,9.2677 -3.7372,18.2889 -10.2906,24.8392 C 43.1281,6.5533 34.1069,10.2906 24.8391,10.2906 15.5714,10.2906 6.5502,6.5533 0,0 Z"
               style="fill:#ffffff;fill-opacity:1;fill-rule:nonzero;stroke:none"
               id="path2602" /></g><g
             id="g2604"
             transform="translate(225.0415,283.2683)"><path
               d="m 0,0 c -6.5533,-6.5503 -10.2906,-15.5715 -10.2906,-24.8392 0,-9.2677 3.7373,-18.2889 10.2906,-24.8391 6.5502,-6.5533 15.5714,-10.2906 24.8391,-10.2906 9.2678,0 18.289,3.7373 24.8392,10.2906 6.5534,6.5502 10.2906,15.5714 10.2906,24.8391 0,9.2677 -3.7372,18.2889 -10.2906,24.8392 C 43.1281,6.5533 34.1069,10.2906 24.8391,10.2906 15.5714,10.2906 6.5502,6.5533 0,0 Z"
               style="fill:#ffffff;fill-opacity:1;fill-rule:nonzero;stroke:none"
               id="path2606" /></g><g
             id="g2608"
             transform="translate(155.3462,284.4618)"><path
               d="m 0,0 c -6.5533,-6.5503 -10.2906,-15.5715 -10.2906,-24.8392 0,-9.2677 3.7373,-18.2889 10.2906,-24.8391 6.5502,-6.5533 15.5714,-10.2906 24.8392,-10.2906 9.2677,0 18.2889,3.7373 24.8391,10.2906 6.5534,6.5502 10.2906,15.5714 10.2906,24.8391 0,9.2677 -3.7372,18.2889 -10.2906,24.8392 C 43.1281,6.5533 34.1069,10.2906 24.8392,10.2906 15.5714,10.2906 6.5502,6.5533 0,0 Z"
               style="fill:#ffffff;fill-opacity:1;fill-rule:nonzero;stroke:none"
               id="path2610" /></g><g
             id="g2612"
             transform="translate(258.3874,222.5344)"><path
               d="m 0,0 c -6.5534,-6.5502 -10.2906,-15.5715 -10.2906,-24.8392 0,-9.2677 3.7372,-18.2889 10.2906,-24.8391 6.5502,-6.5534 15.5714,-10.2906 24.8391,-10.2906 9.2678,0 18.289,3.7372 24.8392,10.2906 6.5534,6.5502 10.2906,15.5714 10.2906,24.8391 0,9.2677 -3.7372,18.289 -10.2906,24.8392 C 43.1281,6.5533 34.1069,10.2906 24.8391,10.2906 15.5714,10.2906 6.5502,6.5533 0,0 Z"
               style="fill:#ffffff;fill-opacity:1;fill-rule:nonzero;stroke:none"
               id="path2614" /></g><g
             id="g2616"
             transform="translate(189.3741,223.4713)"><path
               d="m 0,0 c -6.5533,-6.5502 -10.2906,-15.5715 -10.2906,-24.8392 0,-9.2677 3.7373,-18.2889 10.2906,-24.8391 6.5502,-6.5534 15.5714,-10.2906 24.8392,-10.2906 9.2677,0 18.2889,3.7372 24.8391,10.2906 6.5533,6.5502 10.2906,15.5714 10.2906,24.8391 0,9.2677 -3.7373,18.289 -10.2906,24.8392 C 43.1281,6.5533 34.1069,10.2906 24.8392,10.2906 15.5714,10.2906 6.5502,6.5533 0,0 Z"
               style="fill:#ffffff;fill-opacity:1;fill-rule:nonzero;stroke:none"
               id="path2618" /></g><g
             id="g2620"
             transform="translate(223.2603,163.9855)"><path
               d="m 0,0 c -6.5533,-6.5503 -10.2906,-15.5715 -10.2906,-24.8392 0,-9.2677 3.7373,-18.2889 10.2906,-24.8391 6.5502,-6.5534 15.5714,-10.2907 24.8392,-10.2907 9.2677,0 18.2889,3.7373 24.8391,10.2907 6.5534,6.5502 10.2906,15.5714 10.2906,24.8391 0,9.2677 -3.7372,18.2889 -10.2906,24.8392 C 43.1281,6.5533 34.1069,10.2906 24.8392,10.2906 15.5714,10.2906 6.5502,6.5533 0,0 Z"
               style="fill:#ffffff;fill-opacity:1;fill-rule:nonzero;stroke:none"
               id="path2622" /></g><g
             id="g2624"
             transform="translate(354.9453,256.2812)"><path
               d="m 0,0 c 0,-9.2695 -3.7383,-18.2891 -10.293,-24.8398 -6.5468,-6.5547 -15.5703,-10.2891 -24.8359,-10.2891 -4.4336,0 -8.8125,0.8555 -12.8867,2.4648 0.3867,-0.3476 0.7656,-0.7109 1.1367,-1.082 6.5508,-6.5508 10.2891,-15.5703 10.2891,-24.8398 0,-9.2696 -3.7383,-18.2891 -10.2891,-24.8399 -6.5508,-6.5508 -15.5703,-10.289 -24.8399,-10.289 -3.5781,0 -7.121,0.5585 -10.496,1.621 0.0703,-0.0664 0.1406,-0.1367 0.207,-0.2031 6.5547,-6.5508 10.293,-15.5703 10.293,-24.8398 0,-9.2656 -3.7383,-18.2891 -10.293,-24.836 -6.5508,-6.5546 -15.5703,-10.2929 -24.8399,-10.2929 -9.2656,0 -18.289,3.7383 -24.8359,10.2929 -6.5547,6.5469 -10.293,15.5704 -10.293,24.836 0,9.2695 3.7383,18.289 10.293,24.8398 0.3516,0.3516 0.707,0.6914 1.0703,1.0235 -3.2617,-0.9883 -6.6719,-1.5039 -10.1172,-1.5039 -9.2695,0 -18.289,3.7343 -24.8398,10.289 -6.5547,6.5508 -10.293,15.5703 -10.293,24.8399 0,9.2656 3.7383,18.289 10.293,24.8398 1.4141,1.4141 2.9453,2.6992 4.5703,3.8477 -4.3242,-1.8438 -9.0078,-2.8282 -13.7617,-2.8282 -9.2656,0 -18.2891,3.7383 -24.836,10.293 -6.5546,6.5469 -10.2929,15.5703 -10.2929,24.8359 0,9.2696 3.7383,18.2891 10.2929,24.8399 6.5469,6.5547 15.5704,10.293 24.836,10.293 9.2695,0 18.289,-3.7383 24.8398,-10.293 5.6602,-5.6563 9.2188,-13.1524 10.086,-21.0625 1.0781,7.4648 4.5586,14.5 9.9336,19.8711 6.5468,6.5508 15.5703,10.289 24.8359,10.289 9.2695,0 18.2891,-3.7382 24.8398,-10.289 C -74.168,20.9336 -70.5156,12.7695 -70,4.25 c 0.957,7.7344 4.4844,15.0469 10.0312,20.5898 6.5508,6.5508 15.5704,10.2891 24.8399,10.2891 9.2656,0 18.2891,-3.7383 24.8359,-10.2891 C -3.7383,18.2891 0,9.2656 0,0 Z M 37.7305,80.543 C 41.0664,75.3672 44.1094,70 46.832,64.457 27.9023,57.957 4.9648,54.1523 -19.7578,54.1523 c -49.6758,0 -92.1563,15.3711 -109.3867,37.0977 -0.1758,0.2227 -0.3516,0.4453 -0.5196,0.668 -0.1328,0.1718 -0.2656,0.3437 -0.3906,0.5156 -0.0547,0.0742 -0.1094,0.1484 -0.164,0.2227 -0.3165,0.4257 -0.6172,0.8554 -0.9063,1.2851 -13.8828,-10.3867 -35.2656,-17.043 -59.2539,-17.043 -20.6641,0 -39.3945,4.9375 -53.0625,12.9493 1.9336,2.5859 3.9453,5.1171 6.0352,7.5859 1.5234,1.8086 3.0937,3.5859 4.7031,5.332 2.5547,2.7657 5.2031,5.4532 7.9453,8.0508 12.6328,11.957 27.2187,22.0195 43.2578,29.707 22.4453,10.7578 47.7383,16.8633 74.5039,16.9961 0.0703,0 0.1406,0.004 0.2109,0.004 0.0743,0 0.1407,0 0.2149,0 0.1601,0 0.3203,0 0.4805,0 0.1718,0 0.3437,0 0.5156,0 0.0586,0 0.1054,0 0.164,0 0.1172,0 0.2383,-0.004 0.3594,-0.004 0.0625,0 0.125,0 0.1875,0 0.1133,0 0.2266,-0.004 0.336,-0.004 0.0585,0 0.125,0 0.1835,0 0.1094,0 0.2188,-0.004 0.3282,-0.004 0.0781,0 0.1445,-0.004 0.2265,-0.004 0.0899,0 0.1836,0 0.2774,-0.004 0.0781,0 0.1562,0 0.2344,-0.004 0.0976,0 0.1953,0 0.2929,-0.004 0.0742,0 0.1524,-0.004 0.2266,-0.004 0.1211,-0.004 0.25,-0.004 0.3711,-0.008 0.0469,0 0.082,0 0.1289,0 0.168,-0.004 0.3398,-0.008 0.5078,-0.0117 0.0703,-0.004 0.1328,-0.004 0.2031,-0.008 0.1055,0 0.2071,-0.004 0.3125,-0.008 0.0781,0 0.1485,-0.004 0.2305,-0.004 0.0937,-0.004 0.1875,-0.008 0.2812,-0.0117 0.0782,0 0.1602,-0.004 0.2383,-0.004 0.0938,-0.004 0.1875,-0.008 0.2774,-0.0117 0.0781,0 0.164,-0.004 0.2461,-0.008 0.0859,-0.004 0.1718,-0.004 0.2578,-0.008 0.0859,-0.004 0.1679,-0.008 0.2539,-0.0118 0.0898,0 0.1836,-0.004 0.2734,-0.008 0.0781,-0.004 0.1524,-0.008 0.2344,-0.008 0.0976,-0.008 0.1992,-0.0117 0.2969,-0.0156 0.0703,0 0.1445,-0.004 0.2109,-0.008 0.1016,-0.004 0.207,-0.008 0.3086,-0.0117 0.332,-0.0157 0.6758,-0.0313 1.0039,-0.0508 0.0664,0 0.1289,-0.004 0.1914,-0.008 0.0899,-0.004 0.1914,-0.0118 0.2813,-0.0157 0.0742,-0.004 0.1523,-0.008 0.2304,-0.0117 0.0899,-0.004 0.1914,-0.0117 0.2813,-0.0156 0.0703,-0.004 0.1445,-0.008 0.2187,-0.0117 0.0938,-0.004 0.2032,-0.0117 0.3008,-0.0157 0.0586,-0.004 0.1172,-0.008 0.1758,-0.0117 0.1133,-0.008 0.2266,-0.0156 0.3398,-0.0195 0.0508,-0.004 0.0977,-0.008 0.1446,-0.0117 0.1132,-0.008 0.2343,-0.0117 0.3476,-0.0196 0.043,-0.004 0.0899,-0.008 0.1367,-0.0117 0.5743,-0.0351 1.1446,-0.0742 1.7227,-0.1172 0.0273,-0.004 0.0586,-0.008 0.0859,-0.008 0.1289,-0.0117 0.2578,-0.0195 0.3868,-0.0312 0.0351,0 0.0664,-0.004 0.0976,-0.008 0.1328,-0.008 0.2539,-0.0196 0.3906,-0.0313 0.0313,0 0.0664,-0.004 0.0977,-0.008 0.1289,-0.008 0.2656,-0.0195 0.3945,-0.0312 0.0274,-0.004 0.0508,-0.004 0.0781,-0.008 0.1368,-0.008 0.2774,-0.0234 0.4102,-0.0351 0.0195,0 0.0391,0 0.0586,-0.004 1.3906,-0.1211 2.7773,-0.2578 4.1562,-0.4102 8.3204,-0.914 16.4571,-2.414 24.3672,-4.4453 0.5703,-0.1484 1.1446,-0.2969 1.711,-0.4531 7.2734,-1.9492 14.3515,-4.3555 21.1914,-7.1797 0,0 0,-0.004 0,-0.004 7.9609,-3.2852 15.6054,-7.1445 22.8789,-11.5195 0.0351,-0.0235 0.0703,-0.043 0.1094,-0.0664 0.0742,-0.043 0.1445,-0.086 0.2187,-0.1329 0.043,-0.0234 0.082,-0.0507 0.125,-0.0742 16.7891,-10.1718 31.582,-23.1054 43.6875,-38.1367 1.8867,-2.3398 3.707,-4.7305 5.457,-7.1719 1.5821,-2.2031 3.1094,-4.4453 4.5782,-6.7265 z m -142.6758,-282.3242 c 111.8359,0 202.5,87.5273 202.5,195.5 0,107.9726 -90.6641,195.4999 -202.5,195.4999 -111.8359,0 -202.5,-87.5273 -202.5,-195.4999 0,-107.9727 90.6641,-195.5 202.5,-195.5 z"
               style="fill:#5aabea;fill-opacity:1;fill-rule:nonzero;stroke:none"
               id="path2626" /></g><g
             id="g2628"
             transform="translate(228.082,230.8906)"><path
               d="m 0,0 c -1.0625,0.8359 -2.0781,1.7383 -3.0391,2.6992 -5.6601,5.6563 -9.2187,13.1524 -10.0859,21.0625 -1.0781,-7.4648 -4.5586,-14.5 -9.9336,-19.8672 -1.4219,-1.4218 -2.957,-2.7109 -4.5859,-3.8554 4.3281,1.8476 9.0195,2.832 13.7773,2.832 4.7891,0 9.5156,-1 13.8672,-2.8711 z"
               style="fill:#5aabea;fill-opacity:1;fill-rule:nonzero;stroke:none"
               id="path2630" /></g><g
             id="g2632"
             transform="translate(258.3867,222.5352)"><path
               d="M 0,0 C 0.9844,0.9844 2.0273,1.9063 3.1172,2.7578 -0.5937,1.4531 -4.5273,0.7656 -8.5078,0.7656 c -4.7891,0 -9.5156,1 -13.8672,2.8711 1.0625,-0.8359 2.0781,-1.7383 3.0391,-2.6992 5.1132,-5.1094 8.5117,-11.7266 9.7617,-18.7852 C -8.2031,-11.1406 -4.8828,-4.8828 0,0 Z"
               style="fill:#5aabea;fill-opacity:1;fill-rule:nonzero;stroke:none"
               id="path2634" /></g><g
             id="g2636"
             transform="translate(296.1133,230.3594)"><path
               d="m 0,0 c -0.3867,0.3477 -0.7656,0.7109 -1.1367,1.082 -6.0586,6.0547 -9.711,14.2188 -10.2266,22.7383 -0.9531,-7.7344 -4.4844,-15.0469 -10.0312,-20.5898 -0.9844,-0.9844 -2.0274,-1.9102 -3.1172,-2.7618 3.7109,1.3086 7.6445,1.9961 11.625,1.9961 C -8.4531,2.4648 -4.0781,1.6094 0,0 Z"
               style="fill:#5aabea;fill-opacity:1;fill-rule:nonzero;stroke:none"
               id="path2638" /></g><g
             id="g2640"
             transform="translate(258.5898,172.6602)"><path
               d="M 0,0 C -0.0703,0.0625 -0.1367,0.1289 -0.2031,0.1953 -5.3125,5.3047 -8.7109,11.918 -9.9609,18.9805 -11.332,12.2734 -14.6523,6.0156 -19.5391,1.1328 c -0.3476,-0.3476 -0.7031,-0.6914 -1.0664,-1.0156 3.2617,0.9844 6.6719,1.5 10.1133,1.5 C -6.9141,1.6172 -3.375,1.0586 0,0 Z"
               style="fill:#5aabea;fill-opacity:1;fill-rule:nonzero;stroke:none"
               id="path2642" /></g></g></g></g></g></svg>
