<?xml version="1.0" encoding="UTF-8" standalone="no"?>
<!-- Created with Inkscape (http://www.inkscape.org/) -->

<svg
   version="1.1"
   id="svg1637"
   xml:space="preserve"
   width="666.66669"
   height="666.66669"
   viewBox="0 0 666.66669 666.66669"
   sodipodi:docname="icon_sohjo_saturoitunut.svg"
   inkscape:version="1.1.1 (3bf5ae0d25, 2021-09-20)"
   xmlns:inkscape="http://www.inkscape.org/namespaces/inkscape"
   xmlns:sodipodi="http://sodipodi.sourceforge.net/DTD/sodipodi-0.dtd"
   xmlns="http://www.w3.org/2000/svg"
   xmlns:svg="http://www.w3.org/2000/svg"><defs
     id="defs1641"><clipPath
       clipPathUnits="userSpaceOnUse"
       id="clipPath1653"><path
         d="m 47.25,54.25 h 405.5 v 391.5 H 47.25 Z"
         id="path1651" /></clipPath></defs><sodipodi:namedview
     id="namedview1639"
     pagecolor="#ffffff"
     bordercolor="#111111"
     borderopacity="1"
     inkscape:pageshadow="0"
     inkscape:pageopacity="0"
     inkscape:pagecheckerboard="1"
     showgrid="false"
     inkscape:zoom="1.293"
     inkscape:cx="332.94665"
     inkscape:cy="333.72004"
     inkscape:window-width="1920"
     inkscape:window-height="1051"
     inkscape:window-x="-9"
     inkscape:window-y="-9"
     inkscape:window-maximized="1"
     inkscape:current-layer="g1643" /><g
     id="g1643"
     inkscape:groupmode="layer"
     inkscape:label="icon_sohjo_saturoitunut"
     transform="matrix(1.3333333,0,0,-1.3333333,0,666.66667)"><g
       id="g1645"
       transform="matrix(1,0,0,-1,0,500)"><g
         id="g1647"><g
           id="g1649"
           clip-path="url(#clipPath1653)"><g
             id="g1655"
             transform="translate(250,54.5)"><path
               d="M 0,0 C 111.8359,0 202.5,87.5273 202.5,195.5 202.5,303.4727 111.8359,391 0,391 -111.8359,391 -202.5,303.4727 -202.5,195.5 -202.5,87.5273 -111.8359,0 0,0 Z"
               style="fill:#919394;fill-opacity:1;fill-rule:nonzero;stroke:none"
               id="path1657" /></g><g
             id="g1659"
             transform="translate(344.5291,364.8429)"><path
               d="M 0,0 C -0.0643,1e-4 -0.1274,3e-4 -0.1917,4e-4 -0.1311,3e-4 -0.0606,1e-4 0,0 Z"
               style="fill:#ffffff;fill-opacity:1;fill-rule:nonzero;stroke:none"
               id="path1661" /></g><g
             id="g1663"
             transform="translate(345.0865,364.8409)"><path
               d="M 0,0 C -0.0643,3e-4 -0.1313,6e-4 -0.1956,8e-4 -0.1302,5e-4 -0.0653,3e-4 0,0 Z"
               style="fill:#ffffff;fill-opacity:1;fill-rule:nonzero;stroke:none"
               id="path1665" /></g><g
             id="g1667"
             transform="translate(342.0905,364.8386)"><path
               d="M 0,0 C 0.0559,3e-4 0.1097,6e-4 0.1656,9e-4 0.1103,6e-4 0.0553,3e-4 0,0 Z"
               style="fill:#ffffff;fill-opacity:1;fill-rule:nonzero;stroke:none"
               id="path1669" /></g><g
             id="g1671"
             transform="translate(346.3526,364.8324)"><path
               d="M 0,0 C -0.0798,7e-4 -0.1565,0.0014 -0.2363,0.002 -0.1572,0.0014 -0.0791,7e-4 0,0 Z"
               style="fill:#ffffff;fill-opacity:1;fill-rule:nonzero;stroke:none"
               id="path1673" /></g><g
             id="g1675"
             transform="translate(341.2256,364.8321)"><path
               d="M 0,0 C 0.0744,6e-4 0.1472,0.0013 0.2217,0.0019 0.1482,0.0013 0.0735,6e-4 0,0 Z"
               style="fill:#ffffff;fill-opacity:1;fill-rule:nonzero;stroke:none"
               id="path1677" /></g><g
             id="g1679"
             transform="translate(346.886,364.8271)"><path
               d="M 0,0 C -0.0688,7e-4 -0.1352,0.0014 -0.2039,0.0021 -0.1389,0.0014 -0.0651,7e-4 0,0 Z"
               style="fill:#ffffff;fill-opacity:1;fill-rule:nonzero;stroke:none"
               id="path1681" /></g><g
             id="g1683"
             transform="translate(340.3647,364.8229)"><path
               d="M 0,0 C 0.0836,0.001 0.1707,0.002 0.2543,0.003 0.1697,0.002 0.0846,0.001 0,0 Z"
               style="fill:#ffffff;fill-opacity:1;fill-rule:nonzero;stroke:none"
               id="path1685" /></g><g
             id="g1687"
             transform="translate(347.581,364.8187)"><path
               d="M 0,0 C -0.0641,9e-4 -0.1281,0.0018 -0.1921,0.0026 -0.1271,0.0018 -0.065,9e-4 0,0 Z"
               style="fill:#ffffff;fill-opacity:1;fill-rule:nonzero;stroke:none"
               id="path1689" /></g><g
             id="g1691"
             transform="translate(339.4822,364.8108)"><path
               d="M 0,0 C 0.1113,0.0017 0.2207,0.0034 0.3321,0.0049 0.2214,0.0034 0.1107,0.0016 0,0 Z"
               style="fill:#ffffff;fill-opacity:1;fill-rule:nonzero;stroke:none"
               id="path1693" /></g><g
             id="g1695"
             transform="translate(348.1653,364.8103)"><path
               d="M 0,0 C -0.0889,0.0014 -0.1766,0.0027 -0.2656,0.004 -0.1774,0.0027 -0.0881,0.0014 0,0 Z"
               style="fill:#ffffff;fill-opacity:1;fill-rule:nonzero;stroke:none"
               id="path1697" /></g><g
             id="g1699"
             transform="translate(348.7181,364.8012)"><path
               d="M 0,0 C -0.0997,0.0018 -0.2001,0.0034 -0.2999,0.0051 -0.1979,0.0034 -0.1019,0.0018 0,0 Z"
               style="fill:#ffffff;fill-opacity:1;fill-rule:nonzero;stroke:none"
               id="path1701" /></g><g
             id="g1703"
             transform="translate(338.5603,364.7951)"><path
               d="M 0,0 C 0.1945,0.0036 0.3852,0.0069 0.5798,0.0101 0.3864,0.0069 0.1933,0.0036 0,0 Z"
               style="fill:#ffffff;fill-opacity:1;fill-rule:nonzero;stroke:none"
               id="path1705" /></g><g
             id="g1707"
             transform="translate(349.4627,364.7873)"><path
               d="M 0,0 C -0.2132,0.0043 -0.4302,0.0084 -0.6437,0.0122 -0.4306,0.0084 -0.2128,0.0043 0,0 Z"
               style="fill:#ffffff;fill-opacity:1;fill-rule:nonzero;stroke:none"
               id="path1709" /></g><g
             id="g1711"
             transform="translate(317.9855,363.6471)"><path
               d="M 0,0 C 1e-4,-6e-4 1e-4,-0.001 2e-4,-0.0017 6.6346,0.6222 13.444,1.0104 20.3761,1.1443 13.4408,1.011 6.6349,0.6244 0,0 Z"
               style="fill:#ffffff;fill-opacity:1;fill-rule:nonzero;stroke:none"
               id="path1713" /></g><g
             id="g1715"
             transform="translate(349.9733,364.7766)"><path
               d="M 0,0 C -0.1042,0.0023 -0.2061,0.0045 -0.3104,0.0066 -0.2086,0.0045 -0.1017,0.0023 0,0 Z"
               style="fill:#ffffff;fill-opacity:1;fill-rule:nonzero;stroke:none"
               id="path1717" /></g><g
             id="g1719"
             transform="translate(351.314,364.7441)"><path
               d="M 0,0 C -0.3767,0.01 -0.7503,0.0192 -1.1279,0.0277 -0.7537,0.0193 -0.3734,0.0099 0,0 Z"
               style="fill:#ffffff;fill-opacity:1;fill-rule:nonzero;stroke:none"
               id="path1721" /></g><g
             id="g1723"
             transform="translate(351.791,364.7311)"><path
               d="M 0,0 C -0.127,0.0036 -0.2536,0.007 -0.3807,0.0105 -0.2517,0.007 -0.129,0.0037 0,0 Z"
               style="fill:#ffffff;fill-opacity:1;fill-rule:nonzero;stroke:none"
               id="path1725" /></g><g
             id="g1727"
             transform="translate(384.0776,361.8808)"><path
               d="M 0,0 C -1e-4,1e-4 -1e-4,1e-4 -2e-4,2e-4 -10.2724,1.5553 -21.0544,2.5298 -32.19,2.8456 -21.0536,2.5298 -10.2757,1.5553 0,0 Z"
               style="fill:#ffffff;fill-opacity:1;fill-rule:nonzero;stroke:none"
               id="path1729" /></g><g
             id="g1731"
             transform="translate(303.8531,361.9262)"><path
               d="M 0,0 C 3.9057,0.5859 7.8795,1.0875 11.9221,1.502 7.8805,1.0891 3.9039,0.5864 0,0 Z"
               style="fill:#ffffff;fill-opacity:1;fill-rule:nonzero;stroke:none"
               id="path1733" /></g><g
             id="g1735"
             transform="translate(303.354,361.8508)"><path
               d="M 0,0 C 0.0764,0.0117 0.1489,0.0226 0.2254,0.0341 0.1501,0.0227 0.0752,0.0114 0,0 Z"
               style="fill:#ffffff;fill-opacity:1;fill-rule:nonzero;stroke:none"
               id="path1737" /></g><g
             id="g1739"
             transform="translate(283.3519,357.9337)"><path
               d="m 0,0 c 2.0161,0.4886 4.0577,0.953 6.127,1.3935 -2e-4,7e-4 -4e-4,0.0014 -6e-4,0.0021 C 4.0577,0.9544 2.0155,0.4888 0,0 Z"
               style="fill:#ffffff;fill-opacity:1;fill-rule:nonzero;stroke:none"
               id="path1741" /></g><g
             id="g1743"
             transform="translate(282.7065,357.7762)"><path
               d="M 0,0 C 0.216,0.0531 0.4265,0.1045 0.6431,0.157 0.4284,0.1049 0.2141,0.0526 0,0 Z"
               style="fill:#ffffff;fill-opacity:1;fill-rule:nonzero;stroke:none"
               id="path1745" /></g><g
             id="g1747"
             transform="translate(282.0337,357.6098)"><path
               d="M 0,0 C 0.09,0.0224 0.1819,0.0452 0.272,0.0676 0.1813,0.0451 0.0905,0.0226 0,0 Z"
               style="fill:#ffffff;fill-opacity:1;fill-rule:nonzero;stroke:none"
               id="path1749" /></g><g
             id="g1751"
             transform="translate(224.9135,331.2365)"><path
               d="M 0,0 C 0.0493,0.041 0.1028,0.0853 0.1523,0.1263 0.1016,0.0844 0.0505,0.0419 0,0 Z"
               style="fill:#ffffff;fill-opacity:1;fill-rule:nonzero;stroke:none"
               id="path1753" /></g><g
             id="g1755"
             transform="translate(224.666,331.0299)"><path
               d="M 0,0 C 0.0557,0.0467 0.1145,0.0958 0.1704,0.1424 0.1135,0.095 0.0567,0.0475 0,0 Z"
               style="fill:#ffffff;fill-opacity:1;fill-rule:nonzero;stroke:none"
               id="path1757" /></g><g
             id="g1759"
             transform="translate(224.4343,330.8353)"><path
               d="M 0,0 C 0.0621,0.0524 0.1255,0.1056 0.1878,0.158 0.1251,0.1053 0.0625,0.0527 0,0 Z"
               style="fill:#ffffff;fill-opacity:1;fill-rule:nonzero;stroke:none"
               id="path1761" /></g><g
             id="g1763"
             transform="translate(220.2887,327.0752)"><path
               d="M 0,0 C 1e-4,-4e-4 2e-4,-7e-4 3e-4,-0.0011 1.3055,1.2755 2.6881,2.5298 4.1445,3.759 2.6876,2.5295 1.3051,1.2761 0,0 Z"
               style="fill:#ffffff;fill-opacity:1;fill-rule:nonzero;stroke:none"
               id="path1765" /></g><g
             id="g1767"
             transform="translate(213.9852,319.9347)"><path
               d="m 0,0 c 0.0402,0.0536 0.0814,0.1084 0.1219,0.1619 -3e-4,1e-4 -2e-4,1e-4 -4e-4,2e-4 C 0.0805,0.108 0.0406,0.0543 0,0 Z"
               style="fill:#ffffff;fill-opacity:1;fill-rule:nonzero;stroke:none"
               id="path1769" /></g><g
             id="g1771"
             transform="translate(213.7941,319.6786)"><path
               d="M 0,0 C 0.0383,0.0516 0.0785,0.1056 0.117,0.1571 0.0782,0.1052 0.0386,0.052 0,0 Z"
               style="fill:#ffffff;fill-opacity:1;fill-rule:nonzero;stroke:none"
               id="path1773" /></g><g
             id="g1775"
             transform="translate(337.7203,364.8469)"><path
               d="m 0,0 c -0.1758,0 -0.3555,0 -0.5312,0 -0.2579,0 -0.5118,0 -0.7696,0 -0.0273,0 -0.0547,0 -0.082,0 -0.2344,0 -0.4688,-0.0039 -0.6992,-0.0039 -0.0547,0 -0.1094,0 -0.1641,0 -0.2187,0 -0.4297,-0.0039 -0.6445,-0.0039 -0.0742,0 -0.1485,0 -0.2227,-0.0078 -0.2031,0 -0.4062,0 -0.6054,-0.0039 -0.086,0 -0.1719,0 -0.254,-0.0039 -0.1835,0 -0.371,-0.0039 -0.5546,-0.0039 -0.1094,-0.0039 -0.2188,-0.0039 -0.3282,-0.0039 -0.1172,-0.004 -0.2265,-0.004 -0.3437,-0.004 -0.1914,-0.0078 -0.3867,-0.0117 -0.5781,-0.0156 -0.0704,0 -0.1329,0 -0.1993,0 -6.9336,-0.1367 -13.7461,-0.5234 -20.3789,-1.1445 0.5313,-5.418 1.1094,-10.8242 1.7227,-16.2305 0.4101,-3.6211 0.8281,-7.2383 1.2422,-10.8555 -0.0391,-0.6757 -0.0782,-1.3554 -0.1133,-2.0351 -0.0274,-0.5508 -0.0547,-1.1094 -0.082,-1.668 -0.2579,1.9766 -0.5039,3.9492 -0.7227,5.9297 -0.4062,3.6563 -0.8164,7.3047 -1.1836,10.961 -0.168,1.6562 -0.332,3.3203 -0.4922,4.9804 -0.2304,2.4024 -0.3828,4.8321 -0.957,7.1836 -0.1406,0.5625 -0.3203,1.1055 -0.5391,1.6211 -0.2148,-0.0234 -0.4258,-0.0391 -0.6406,-0.0625 -0.0234,0 -0.043,-0.0039 -0.0703,-0.0039 -0.125,-0.0156 -0.2461,-0.0273 -0.3711,-0.043 -4.043,-0.414 -8.0195,-0.914 -11.9219,-1.5 -0.0937,-0.0156 -0.1836,-0.0273 -0.2773,-0.0429 -0.0742,-0.0078 -0.1485,-0.0235 -0.2266,-0.0313 -0.1875,-0.0312 -0.375,-0.0586 -0.5664,-0.0859 0,0 0,0 -0.0039,0 -2.0859,-0.3242 -4.1523,-0.6719 -6.1953,-1.043 -0.25,-1.2109 -0.3281,-2.4414 -0.4375,-3.6758 0.0508,0.4453 0.1016,0.8985 0.1523,1.3438 -0.9726,-8.4844 -0.4922,-17.125 -0.2812,-25.6407 0,-0.0273 0.0039,-0.0546 0.0039,-0.0859 -0.1797,0.7266 -0.3594,1.4531 -0.5391,2.1797 -1.6328,6.6602 -3.2773,13.3281 -4.9062,19.9883 -0.3672,1.5 -0.7344,2.9961 -1.0977,4.4922 -2.0703,-0.4375 -4.1133,-0.9024 -6.1289,-1.3907 -0.2148,-0.0546 -0.4297,-0.1054 -0.6445,-0.1562 -0.1328,-0.0352 -0.2656,-0.0703 -0.3985,-0.1016 -0.0937,-0.0234 -0.1875,-0.0468 -0.2734,-0.0664 -0.2109,-0.0508 -0.418,-0.1015 -0.6289,-0.1601 -0.0352,-0.0078 -0.0625,-0.0117 -0.0937,-0.0196 -5.8282,-1.4765 -11.4141,-3.1445 -16.7305,-4.9961 0.2344,-2.7851 0.4492,-5.5781 0.8125,-8.3515 0.4609,-3.4844 0.8594,-6.9766 1.4336,-10.4414 0.6289,-3.793 1.2578,-7.5938 1.8906,-11.3867 0.5391,-3.2305 1.1055,-6.461 1.6992,-9.6875 -2.2148,-1.1641 -4.2617,-2.6446 -6.1836,-4.3477 -2.7578,-2.4414 -5.1718,-5.3086 -7.4101,-8.25 -0.5352,0.582 -1.0977,1.1523 -1.6914,1.7148 -0.711,0.6758 -1.5391,1.2383 -2.418,1.711 -0.8516,2.3164 -1.7148,4.6328 -2.5781,6.9453 -2.1016,5.6055 -4.2461,11.1914 -6.3828,16.7851 -0.9141,2.4024 -1.836,4.8047 -2.7813,7.1993 -0.5312,1.3437 -1.0664,2.6836 -1.6094,4.0195 -0.3047,0.75 -0.5976,1.5156 -0.9062,2.2734 -4.1914,-2.4453 -8.0508,-5.039 -11.5352,-7.7656 -0.004,-0.0039 -0.008,-0.0039 -0.0117,-0.0078 -0.1758,-0.1406 -0.3555,-0.2773 -0.5312,-0.4219 -0.0235,-0.0117 -0.0352,-0.0273 -0.0586,-0.0429 -0.0703,-0.0508 -0.1328,-0.1055 -0.2032,-0.1641 -0.0234,-0.0156 -0.0468,-0.0352 -0.0703,-0.0547 -0.0547,-0.043 -0.1093,-0.0898 -0.164,-0.1328 -0.0391,-0.0274 -0.0664,-0.0547 -0.1016,-0.082 -0.0547,-0.043 -0.1055,-0.0821 -0.1602,-0.1289 -0.0312,-0.0235 -0.0585,-0.0469 -0.0898,-0.0704 -0.0781,-0.0625 -0.1562,-0.1289 -0.2305,-0.1914 -0.0312,-0.0234 -0.0625,-0.0507 -0.0937,-0.0781 -0.0469,-0.0391 -0.0938,-0.0742 -0.1406,-0.1172 -0.0508,-0.0351 -0.1016,-0.082 -0.1524,-0.125 -0.0273,-0.0195 -0.0508,-0.039 -0.0781,-0.0625 -0.0547,-0.0469 -0.1133,-0.0976 -0.168,-0.1445 -0.0156,-0.0117 -0.0273,-0.0195 -0.0429,-0.0352 -0.0625,-0.0507 -0.129,-0.1054 -0.1875,-0.1562 0,0 0,0 -0.004,0 -1.457,-1.2305 -2.8359,-2.4844 -4.1445,-3.7617 0.1055,-0.3868 0.211,-0.7696 0.3203,-1.1563 0.8321,-2.918 1.6407,-5.8437 2.5117,-8.7539 0.4688,-1.5547 0.9375,-3.1172 1.418,-4.6719 -3.3633,2.6914 -6.7969,5.2852 -10.4336,7.6055 -0.039,-0.0547 -0.082,-0.1133 -0.1172,-0.1641 -0.0273,-0.0312 -0.0507,-0.0664 -0.0742,-0.0976 -0.0429,-0.0508 -0.082,-0.1094 -0.1211,-0.1602 -0.0586,-0.0781 -0.1172,-0.1601 -0.1758,-0.2383 -0.0312,-0.039 -0.0546,-0.0742 -0.082,-0.1132 -0.0664,-0.0938 -0.1328,-0.1797 -0.1953,-0.2735 -0.0195,-0.0234 -0.0391,-0.0508 -0.0586,-0.0742 -0.0703,-0.1016 -0.1445,-0.207 -0.2187,-0.3086 0,-0.0039 0,-0.0039 -0.004,-0.0078 -3.6329,-5.1523 -6.0782,-10.5742 -7.1719,-16.1992 0,-0.0039 0,-0.0078 0,-0.0078 -0.0235,-0.1289 -0.0508,-0.2578 -0.0742,-0.3828 0,-0.0039 0,-0.0079 0,-0.0118 -0.0469,-0.2578 -0.0938,-0.5156 -0.1329,-0.7734 0,-0.0078 0,-0.0117 0,-0.0156 -0.0234,-0.125 -0.0429,-0.25 -0.0625,-0.3711 0,-0.0117 -0.004,-0.0195 -0.004,-0.0274 -0.0156,-0.1211 -0.0351,-0.2461 -0.0507,-0.3671 -0.004,-0.0118 -0.004,-0.0274 -0.004,-0.043 -0.0196,-0.1211 -0.0352,-0.2422 -0.0508,-0.3594 0,-0.0117 0,-0.0195 -0.004,-0.0273 -0.0274,-0.2539 -0.0586,-0.5078 -0.0821,-0.7578 0,-0.0079 -0.004,-0.0196 -0.004,-0.0313 -0.0156,-0.1133 -0.0234,-0.2344 -0.0351,-0.3477 -0.004,-0.0234 -0.004,-0.0429 -0.008,-0.0664 -0.008,-0.1132 -0.0196,-0.2304 -0.0274,-0.3437 0,-0.0195 -0.004,-0.043 -0.004,-0.0625 -0.0117,-0.1133 -0.0195,-0.2344 -0.0273,-0.3477 0,-0.0195 0,-0.0273 0,-0.0468 -0.0196,-0.2422 -0.0352,-0.4922 -0.0469,-0.7344 0,-0.0195 0,-0.0352 0,-0.0508 -0.004,-0.1172 -0.0117,-0.2305 -0.0156,-0.3477 0,-0.0234 0,-0.0468 -0.004,-0.0703 0,-0.1132 -0.004,-0.2226 -0.008,-0.3398 0,-0.0156 0,-0.043 0,-0.0664 -0.004,-0.1172 -0.004,-0.2305 -0.004,-0.3477 0,-0.0156 0,-0.0312 0,-0.0468 -0.008,-0.1211 -0.008,-0.2461 -0.008,-0.3711 0,-12.2618 6.3985,-23.7774 17.6133,-33.7618 0,0 0.0156,0.0196 0.0156,0.0196 0,0 3,-2.2657 3,-2.2657 0,0 2.6758,-1.9531 2.6758,-1.9531 0,0 3.2578,-2.2969 3.2578,-2.2969 0,0 3.2344,-2.1914 3.2344,-2.1914 0,0 6.0898,-3.9843 6.0898,-3.9843 8.2188,-4.5235 17.6211,-8.5 27.961,-11.8086 0,0 0.0078,0 0.0078,0 0,0 5.5391,-1.6602 5.5391,-1.6602 0,0 4.3398,-1.0234 4.3398,-1.0234 0,0 4.4922,-1.1289 4.4922,-1.1289 0,0 7.918,-1.9649 7.918,-1.9649 0,0 0.7304,-0.1562 0.7304,-0.1562 8.8242,-1.7695 18.1016,-3.1016 27.7149,-3.9414 0,0 0.0117,0.008 0.0117,0.008 0,0 0.5898,-0.0586 0.5898,-0.0586 4.043,-0.3438 8.1446,-0.5977 12.2969,-0.7617 0,0 2.8906,-0.0235 2.8906,-0.0235 0,0 5.1172,-0.1796 5.1172,-0.1796 1.0235,-0.008 2.0508,-0.0157 3.0821,-0.0157 12.5177,0 24.6504,0.8296 36.1872,2.3813 0,0 0.0081,0.005 0.0081,0.005 0,0 2.5468,0.3868 2.5468,0.3868 0,0 0.4077,0.0709 0.4077,0.0709 0,0 17.8228,3.2845 17.8228,3.2845 0,0 2.6055,0.5703 2.6055,0.5703 21.0351,5.0039 39.1406,12.5743 52.6953,21.9024 -0.207,0.75 -0.3984,1.5 -0.5195,2.2734 -0.1329,0.8594 -0.168,1.7344 -0.3125,2.6055 -0.008,0.0351 -0.0157,0.0703 -0.0274,0.1094 -0.2422,0.6836 -0.5508,1.3437 -0.8281,2.0156 -0.4141,0.9883 -0.75,1.9414 -1.0313,2.9883 0.0547,-0.1992 0.1055,-0.4024 0.1602,-0.5977 -0.1836,0.6485 -0.4258,1.2735 -0.6758,1.8945 -0.3047,0.6797 -0.6523,1.3594 -1.0156,2.0079 -0.5781,0.9882 -1.0859,1.9687 -1.4688,3.0664 -0.3281,0.9336 -0.539,1.8945 -0.7734,2.8515 -0.1328,0.5117 -0.2734,1.0274 -0.4453,1.5235 -0.4258,0.9961 -0.8594,1.9765 -1.2344,2.9922 0,0.0078 0,0.0117 -0.004,0.0156 0,0 -0.004,0.0039 -0.004,0.0039 -0.4531,1.2539 -1.0078,2.5195 -1.5898,3.7305 -0.3946,0.7539 -0.8047,1.5039 -1.1485,2.2851 -0.2773,0.6563 -0.4765,1.3438 -0.6836,2.0234 -0.3672,1.0469 -0.8164,2.0508 -1.2539,3.0743 -0.5469,1.2617 -0.9648,2.5273 -1.3672,3.8359 0.0039,-0.0156 0.0078,-0.0312 0.0118,-0.0469 -0.3672,1.1524 -0.8594,2.3164 -1.3282,3.4453 -0.1953,0.4454 -0.3906,0.8985 -0.5742,1.3477 0.0195,-0.0508 0.043,-0.1016 0.0586,-0.1484 -0.3359,0.8046 -0.707,1.5859 -1.0312,2.3945 0.0781,-0.1953 0.1562,-0.3906 0.2343,-0.582 -0.3281,0.8125 -0.6914,1.6289 -1.1015,2.4101 -0.4805,0.918 -0.8125,1.8789 -1.1641,2.8477 -0.3242,0.8437 -0.6445,1.7031 -1.0547,2.5117 -0.5508,1 -1.125,1.9922 -1.7109,2.9687 -0.7149,1.1954 -1.3594,2.4336 -2.1055,3.6133 -0.5937,0.8828 -1.2266,1.7461 -1.8008,2.6406 -0.4687,0.7422 -0.9492,1.4805 -1.4687,2.1836 -0.4219,0.5352 -0.875,1.0391 -1.3164,1.5664 -0.5664,0.6758 -1.0782,1.3907 -1.6289,2.0704 -1.086,1.3515 -2.0586,2.789 -3.1485,4.1484 0.0039,0 0.0039,0 0.0039,0 0,0 0,0 -0.0039,0 -0.0078,0.0117 -0.0156,0.0234 -0.0234,0.0352 -0.0039,0.0039 -0.0117,0.0117 -0.0156,0.0195 -0.0039,0.0039 -0.0039,0.0039 -0.0039,0.0078 -0.0079,0.0078 -0.0157,0.0156 -0.0235,0.0234 0.0039,-0.0039 0.0117,-0.0117 0.0156,-0.0156 -0.5781,0.7305 -1.1289,1.4766 -1.6992,2.2149 -0.4062,0.4882 -0.8281,0.9687 -1.2422,1.4531 0,0 -0.0039,0 -0.0039,0.0039 -0.0117,0.0156 -0.0234,0.0273 -0.0351,0.043 0,0 0,0 0,-0.004 -1.4805,1.6875 -2.8321,3.4649 -4.2617,5.1993 -0.6563,0.7968 -1.3672,1.5468 -2.0391,2.332 -0.6211,0.7227 -1.2266,1.4687 -1.8633,2.1797 -0.082,0.0898 -0.1719,0.1875 -0.2539,0.2773 0.0117,-0.0156 0.0274,-0.0312 0.0391,-0.0468 -0.0977,0.1093 -0.1953,0.2148 -0.293,0.3242 -0.0078,0.0078 -0.0156,0.0156 -0.0195,0.0234 0.0039,-0.0039 0.0078,-0.0078 0.0117,-0.0117 -0.0039,0.0039 -0.0078,0.0078 -0.0117,0.0117 -0.0078,0.0078 -0.0157,0.0195 -0.0235,0.0274 -1.0468,1.164 -2.0664,2.3554 -3.1132,3.5234 -1.3516,1.4766 -2.793,2.8789 -4.2032,4.3086 -1.0312,0.9844 -2.0586,1.9766 -3.0547,3.0039 -2.3515,2.418 -4.9179,4.6172 -7.2734,7.0352 -0.4414,0.4492 -0.875,0.9023 -1.3125,1.3554 -12.6172,2.332 -26.0977,3.7813 -40.1367,4.1836 -0.0352,0 -0.0625,0 -0.0977,0 -0.1289,0.0078 -0.2539,0.0117 -0.3828,0.0156 -0.0273,0 -0.0664,0 -0.0976,0 -0.3711,0.0079 -0.75,0.0196 -1.129,0.0274 -0.0664,0.0039 -0.1406,0.0039 -0.2109,0.0039 -0.1016,0.0039 -0.207,0.0039 -0.3086,0.0117 -0.0703,0 -0.1328,0 -0.2031,0.0039 -0.2109,0.0039 -0.4258,0.0039 -0.6445,0.0078 -0.0313,0 -0.0625,0.0039 -0.0938,0.0039 -0.1094,0 -0.1992,0 -0.3047,0.0078 -0.082,0 -0.1679,0 -0.2539,0.004 -0.0859,0 -0.1758,0 -0.2617,0.0039 -0.1055,0 -0.2109,0 -0.3164,0 -0.0703,0.0039 -0.1289,0.0039 -0.1953,0.0039 -0.1719,0 -0.336,0.0039 -0.5,0.0039 -0.0703,0 -0.1446,0.0039 -0.2071,0.0039 -0.1132,0 -0.2226,0 -0.3281,0 -0.082,0.0078 -0.1601,0.0078 -0.2383,0.0078 -0.1367,0 -0.2695,0 -0.4023,0.0039 -0.0352,0 -0.0742,0 -0.1094,0 -0.1758,0 -0.3476,0 -0.5156,0 -0.0703,0 -0.1328,0 -0.1992,0 C 0.4297,0 0.3125,0 0.1914,0 0.1289,0 0.0586,0 0,0 Z m -73.2969,-79.8086 c 0.336,0.4961 0.6758,0.9922 1.0274,1.4805 0.8828,1.1797 1.789,2.332 2.7422,3.4492 0.3476,-1.7461 0.6953,-3.4883 1.039,-5.2344 0.3828,-1.914 0.7695,-3.8281 1.1602,-5.7461 -1.8946,2.0899 -3.9024,4.0899 -5.9688,6.0508 z"
               style="fill:#ffffff;fill-opacity:1;fill-rule:nonzero;stroke:none"
               id="path1777" /></g><g
             id="g1779"
             transform="translate(405.1643,340.4409)"><path
               d="M 0,0 C -0.0782,0.0829 -0.1519,0.1703 -0.2301,0.2531 -0.1565,0.1703 -0.0782,0.0829 0,0 Z"
               style="fill:#ffffff;fill-opacity:1;fill-rule:nonzero;stroke:none"
               id="path1781" /></g><g
             id="g1783"
             transform="translate(425.7219,314.2399)"><path
               d="M 0,0 C -0.0507,0.0782 -0.1059,0.1611 -0.1611,0.244 -0.1059,0.1611 -0.0552,0.0782 0,0 Z"
               style="fill:#ffffff;fill-opacity:1;fill-rule:nonzero;stroke:none"
               id="path1785" /></g><g
             id="g1787"
             transform="translate(92.8355,353.3252)"><path
               d="M 0,0 C -0.6264,-0.5876 -1.2833,-1.1274 -1.9269,-1.6895 -2.5668,-2.3109 -3.156,-2.983 -3.782,-3.6182 c -0.6582,-0.6674 -1.3625,-1.2889 -2.0576,-1.9103 -0.824,-0.7365 -1.6065,-1.5144 -2.412,-2.2693 -0.6537,-0.6076 -1.3303,-1.1876 -1.9656,-1.8137 -1.1001,-1.1369 -2.1819,-2.2831 -3.3142,-3.3879 0.0874,0.0829 0.1749,0.1704 0.2623,0.2532 -1.2336,-1.2198 -2.4166,-2.5363 -3.5075,-3.8896 -0.3959,-0.5294 -0.755,-1.091 -1.1969,-1.5881 -0.1611,-0.1804 -0.3283,-0.3574 -0.4999,-0.5309 -0.5532,-0.788 -1.1475,-1.5457 -1.6773,-2.3599 -0.5018,-0.8009 -1.0173,-1.5835 -1.5881,-2.3384 -0.5018,-0.6721 -1.0311,-1.3349 -1.5052,-2.0299 -0.6905,-1.1002 -1.3488,-2.2234 -2.0484,-3.3189 -0.801,-1.2567 -1.6019,-2.5133 -2.3292,-3.816 -0.4557,-0.8654 -0.916,-1.7262 -1.3902,-2.5824 0,0 0,0.0046 0,0.0093 -0.6812,-1.2521 -1.3119,-2.5318 -2.0069,-3.77 -0.7411,-1.3073 -1.5098,-2.5962 -2.2141,-3.9265 -1.0818,-2.0484 -2.2326,-4.0738 -3.3373,-6.1176 -1.2336,-2.4995 -2.3614,-5.0726 -3.4708,-7.6273 0.0553,0.1289 0.1105,0.2577 0.1611,0.3912 -0.0614,-0.1404 -0.1187,-0.2809 -0.1798,-0.4253 -0.0048,-0.0098 -0.0092,-0.0196 -0.0135,-0.0304 -0.0092,-0.0276 -0.023,-0.0598 -0.0322,-0.0874 -0.0046,-0.0092 -0.0138,-0.0231 -0.0184,-0.0323 -0.6399,-1.5236 -1.2567,-3.0564 -1.9472,-4.5663 -0.0782,-0.1657 -0.1518,-0.3314 -0.2255,-0.4971 10.9739,-22.0306 45.1383,-38.0909 85.5906,-38.0909 28.2679,0 53.4654,7.8437 69.825,20.0834 0.7272,-1.0725 1.5052,-2.1266 2.3338,-3.1715 1.0955,2.5271 2.1588,5.0588 3.3787,7.5353 1.298,2.633 2.748,5.1831 4.0461,7.8115 0.7043,1.427 1.3947,2.8631 2.0484,4.3132 0.8332,1.8504 1.3073,3.7929 1.1231,5.8367 -0.2071,2.2509 -1.1323,4.0784 -2.5087,5.6895 0.0921,0.1979 0.1888,0.3959 0.2808,0.5938 1.4086,3.0243 2.4995,6.1866 3.6964,9.2983 1.5512,4.0185 0.603,9.6067 -2.9921,12.272 -1.1692,0.8654 -2.2832,1.5144 -3.5444,1.9655 -1.6985,2.7343 -4.8978,4.8609 -8.166,4.8195 -1.1277,-0.0138 -2.2233,0.0046 -3.3326,-0.2532 -1.1278,-0.2578 -2.1267,-0.7365 -3.1394,-1.2658 -0.3912,-0.2026 -0.7641,-0.4328 -1.1185,-0.6859 -0.3821,0.5938 -0.8056,1.1554 -1.2659,1.6525 -1.7123,1.8459 -3.8344,2.6882 -6.2372,3.2268 -2.2832,0.5156 -4.663,-0.1381 -6.8311,-0.8009 -2.0898,-0.6399 -4.0507,-2.1267 -5.6849,-3.5306 -1.4315,-1.2245 -2.7664,-2.5087 -4.0645,-3.8482 -0.1565,0.0782 -0.313,0.1564 -0.4695,0.2347 -4.2671,2.0116 -9.7541,0.7733 -13.4182,-1.9931 -0.5109,-0.3867 -1.0034,-0.7826 -1.4822,-1.1923 -0.2808,0.6307 -0.626,1.2429 -1.0449,1.8367 -1.3579,1.9057 -3.2544,3.4201 -5.4961,4.1382 -2.4074,0.7733 -5.045,0.6951 -7.4525,-0.0276 -0.8193,0.8285 -1.786,1.5144 -2.9,2.0161 -1.9885,0.893 -4.0507,1.358 -6.2372,1.16 -2.7619,-0.2486 -5.2292,-1.5834 -7.3926,-3.236 -1.7492,-1.3348 -3.3557,-2.8585 -4.8748,-4.465 -0.0138,0.0046 -0.0322,0.0138 -0.046,0.023 -4.2119,1.9702 -8.907,0.8424 -12.5942,-1.6433 -0.6214,0.4281 -1.2704,0.7963 -1.901,1.0955 -0.9529,0.4465 -1.961,0.7596 -2.9921,0.9529 0.2302,4.0001 -0.2992,8.5618 -3.2084,11.4848 -1.1784,1.1784 -2.4811,2.2785 -3.9817,3.0105 0.6399,0.6996 1.2751,1.4039 1.9149,2.1082 1.6065,1.7676 3.0979,3.6687 4.5847,5.5422 1.0358,1.2981 2.0668,2.6007 3.1071,3.9034 0.9391,1.1784 1.8183,2.4028 2.7113,3.6181 0.9805,1.3395 1.5236,3.0012 1.7676,4.6629 C 12.7812,3.6674 6.1658,2.0453 0,0 Z"
               style="fill:#ffffff;fill-opacity:1;fill-rule:nonzero;stroke:none"
               id="path1789" /></g><g
             id="g1791"
             transform="translate(65.2531,320.7849)"><path
               d="M 0,0 C 0.0527,0.0992 0.1032,0.1982 0.1531,0.296 0.1019,0.1976 0.0499,0.0998 0,0 Z"
               style="fill:#ffffff;fill-opacity:1;fill-rule:nonzero;stroke:none"
               id="path1793" /></g><g
             id="g1795"
             transform="translate(244.3627,417.3948)"><path
               d="m 0,0 c -0.6767,-0.0276 -1.3487,-0.0644 -2.0208,-0.1565 -0.4281,-0.0829 -0.8562,-0.1749 -1.2843,-0.2164 -0.6858,-0.0552 -1.3118,-0.0091 -1.9931,0.0599 -0.2762,0.0276 -0.5524,0.0599 -0.8331,0.0967 -0.2855,-0.0875 -0.5755,-0.1704 -0.8747,-0.2394 -0.5892,-0.1381 -1.1692,-0.1473 -1.7583,-0.1381 -0.0093,-0.0046 -0.0231,-0.0046 -0.0369,-0.0092 -0.7641,-0.1979 -1.519,-0.3821 -2.3292,-0.3867 -0.2946,0 -0.5846,0.0046 -0.8746,0.0138 -0.2578,-0.0368 -0.5155,-0.0828 -0.7687,-0.1381 0.1381,0.0323 0.2762,0.0599 0.4097,0.0921 -1.1462,-0.244 -2.2371,-0.3268 -3.4064,-0.4097 0.1934,0.0138 0.3913,0.0276 0.5847,0.0415 -0.8378,-0.0691 -1.6249,-0.1704 -2.4443,-0.1796 -0.1519,-0.0276 -0.3038,-0.0506 -0.4511,-0.0782 0.0829,0.0138 0.1703,0.0276 0.2532,0.0414 -0.7411,-0.1243 -1.4546,-0.3268 -2.2003,-0.4419 0.1381,0.0184 0.2716,0.0368 0.4051,0.0552 -0.7458,-0.1058 -1.4869,-0.2301 -2.2326,-0.3268 0.1934,0.023 0.3867,0.0507 0.58,0.0783 -0.9436,-0.1381 -1.878,-0.2486 -2.8217,-0.3452 -0.6766,-0.1013 -1.3441,-0.2717 -2.03,-0.3453 -0.9022,-0.0921 -1.7998,-0.2762 -2.6928,-0.4419 -0.8516,-0.1703 -1.6986,-0.3176 -2.5502,-0.4649 -1.2152,-0.244 -2.4212,-0.5616 -3.6364,-0.8378 -1.1462,-0.2532 -2.3154,-0.359 -3.4662,-0.5892 -1.1047,-0.267 -2.2049,-0.5431 -3.2958,-0.8746 -1.0864,-0.3498 -2.1957,-0.6444 -3.2958,-0.9528 -0.2118,-0.0599 -0.4236,-0.1243 -0.6353,-0.1842 -1.3119,-0.382 -2.5731,-0.9344 -3.8942,-1.298 -1.2337,-0.3361 -2.4581,-0.7365 -3.6641,-1.1554 -0.7411,-0.2716 -1.4869,-0.534 -2.2372,-0.7779 0.0322,0.0092 0.0691,0.0184 0.1013,0.0276 -0.1427,-0.0461 -0.29,-0.0921 -0.4327,-0.1381 0.0184,0.0092 0.0414,0.0138 0.0599,0.023 -0.0185,-0.0046 -0.0369,-0.0092 -0.0507,-0.0184 -0.0092,-0.0046 -0.0184,-0.0046 -0.0276,-0.0092 -0.0092,0 -0.0138,-0.0046 -0.0184,-0.0046 -0.0092,-0.0046 -0.0184,-0.0046 -0.0276,-0.0092 -0.0185,-0.0092 -0.0415,-0.0184 -0.0645,-0.0231 -0.0046,0 -0.0092,-0.0045 -0.0138,-0.0045 0,0 0.0046,0 0.0046,0 -0.0092,0 -0.023,-0.0047 -0.0322,-0.0093 -0.0092,-0.0046 -0.0184,-0.0046 -0.0276,-0.0092 -0.0046,0 -0.0046,0 -0.0092,0 0,0 -0.0046,-0.0046 -0.0046,-0.0046 -0.0231,-0.0046 -0.0507,-0.0138 -0.0737,-0.0184 -0.6904,-0.2393 -1.3764,-0.4925 -2.0944,-0.6766 -0.4097,-0.1013 -0.8194,-0.2072 -1.229,-0.3177 -0.3131,-0.092 -0.6307,-0.1841 -0.9437,-0.2715 -0.6168,-0.175 -1.206,-0.4281 -1.8044,-0.6675 -0.5386,-0.2163 -1.0956,-0.359 -1.6571,-0.5063 -0.0185,-0.0047 -0.0369,-0.0093 -0.0553,-0.0138 -0.2393,-0.1105 -0.4833,-0.2072 -0.7411,-0.2947 -0.0092,0 -0.0138,-0.0046 -0.023,-0.0046 -0.023,-0.0092 -0.0506,-0.0229 -0.0737,-0.0322 -0.2854,-0.1058 -0.5753,-0.1979 -0.87,-0.2762 -0.3037,-0.0966 -0.6122,-0.1933 -0.916,-0.2854 -0.2854,-0.092 -0.5661,-0.1887 -0.847,-0.2992 -0.2531,-0.1243 -0.4971,-0.2623 -0.7364,-0.4051 0.1657,0.1013 0.336,0.2026 0.5017,0.3039 -0.7503,-0.4557 -1.45,-0.8332 -2.2647,-1.1646 0.1795,0.0736 0.3636,0.1519 0.5431,0.2255 -0.9114,-0.382 -1.8228,-0.7917 -2.6928,-1.2612 -0.0138,-0.0092 -0.0276,-0.0138 -0.0414,-0.023 0.0138,0.0092 0.0276,0.0138 0.0414,0.023 0.0092,0.0046 0.023,0.0138 0.0322,0.0184 -0.8562,-0.4603 -1.7216,-0.8378 -2.6376,-1.1784 -0.893,-0.336 -1.7952,-0.6905 -2.656,-1.0956 -1.114,-0.5708 -2.2279,-1.1599 -3.3971,-1.5973 -1.3533,-0.5063 -2.7021,-1.0264 -4.0462,-1.5512 0.1796,0.0736 0.3591,0.1473 0.5432,0.221 -0.7963,-0.3223 -1.5973,-0.6261 -2.3982,-0.9253 -1.6571,-0.6398 -3.3097,-1.2751 -4.999,-1.8182 0.0276,0.0092 0.0598,0.0184 0.092,0.0276 -1.7722,-0.5662 -3.4707,-1.3763 -5.1969,-2.0668 -1.3395,-0.5386 -2.6882,-1.0772 -3.9955,-1.7078 -0.4741,-0.2485 -0.939,-0.5155 -1.3948,-0.7963 -0.985,-0.6583 -1.9425,-1.3441 -2.9597,-1.9517 -1.068,-0.6399 -2.1313,-1.2797 -3.2269,-1.8643 -1.6709,-0.8976 -3.3188,-1.8735 -4.9299,-2.8724 -0.5386,-0.3452 -1.0725,-0.695 -1.6157,-1.0357 -0.9253,-0.5799 -1.8827,-1.0863 -2.8355,-1.6249 -1.091,-0.672 -2.1267,-1.4361 -3.2637,-2.03 -0.4511,-0.2347 -0.9344,-0.4465 -1.3717,-0.6996 0.0783,0.046 0.1519,0.092 0.2302,0.1381 -0.3269,-0.1795 -0.6583,-0.336 -0.9989,-0.4834 -0.0645,-0.0276 -0.1289,-0.0552 -0.1887,-0.0874 -0.0277,-0.0184 -0.0599,-0.0368 -0.0875,-0.0553 0.0276,0.0185 0.0598,0.0369 0.0875,0.0553 0.0276,0.0138 0.0506,0.0276 0.0782,0.0414 0,0 -0.005,0 -0.005,0 -0.005,0 -0.005,0 -0.009,-0.0046 0,0.0046 0,0.0046 0,0.0046 -0.005,0 -0.009,-0.0046 -0.0138,-0.0092 -0.4327,-0.2394 -0.8746,-0.4649 -1.3349,-0.649 -0.5616,-0.3407 -1.1232,-0.6859 -1.6802,-1.0403 -2.343,-1.4823 -4.6906,-2.9138 -6.9921,-4.4513 -2.0208,-1.3671 -3.9035,-2.9046 -5.892,-4.2993 -0.3851,-0.2522 -0.7725,-0.5017 -1.1611,-0.7493 -0.0533,-0.0413 -0.1056,-0.0839 -0.1554,-0.1299 0.0358,0.0326 0.0693,0.0651 0.1021,0.096 -0.0128,-0.0082 -0.0258,-0.0165 -0.0386,-0.0246 -0.2273,-0.208 -0.4584,-0.404 -0.6895,-0.5916 -0.0783,-0.0782 -0.1566,-0.1565 -0.2348,-0.2347 -0.5432,-0.5294 -1.0956,-1.0449 -1.6387,-1.5697 -1.1186,-1.0909 -2.3384,-2.076 -3.4524,-3.1761 -0.5477,-0.5892 -1.0587,-1.2061 -1.5881,-1.8137 -0.5523,-0.6398 -1.1691,-1.2198 -1.7353,-1.8458 -0.5985,-0.6629 -1.1784,-1.3488 -1.8275,-1.961 -0.6352,-0.5937 -1.3027,-1.1461 -1.9563,-1.7169 -0.6399,-0.6215 -1.2291,-1.2935 -1.8551,-1.9288 -0.6582,-0.6674 -1.3625,-1.2888 -2.0576,-1.9102 -0.8239,-0.7365 -1.6065,-1.5145 -2.412,-2.2694 -0.6537,-0.603 -1.3303,-1.1876 -1.9655,-1.8136 -1.0146,-1.0485 -2.0136,-2.1048 -3.051,-3.1293 0.0595,0.055 0.1145,0.1145 0.174,0.1695 -0.055,-0.0551 -0.1147,-0.1147 -0.1743,-0.1697 -0.001,-0.0013 -0.003,-0.0027 -0.004,-0.004 -1.2325,-1.2234 -2.4144,-2.5388 -3.5043,-3.8909 -0.3959,-0.5294 -0.7549,-1.0863 -1.1968,-1.5881 -0.162,-0.1814 -0.3302,-0.3593 -0.5028,-0.5337 -0.5564,-0.787 -1.1499,-1.5439 -1.6791,-2.357 -0.5018,-0.801 -1.0173,-1.5835 -1.5835,-2.3385 -0.5063,-0.6766 -1.0311,-1.3349 -1.5052,-2.0299 -0.6905,-1.1048 -1.3533,-2.2233 -2.0484,-3.3189 -0.8056,-1.2566 -1.6065,-2.5133 -2.3338,-3.816 -0.4557,-0.8699 -0.916,-1.7307 -1.3901,-2.5823 0.0368,0.0644 0.0736,0.1289 0.1104,0.1933 -0.7226,-1.3073 -1.3809,-2.6514 -2.1128,-3.9541 -0.7411,-1.3073 -1.5098,-2.5962 -2.2141,-3.9265 -1.0864,-2.053 -2.2371,-4.0737 -3.3373,-6.1175 -1.2382,-2.5041 -2.366,-5.0727 -3.4754,-7.632 0.0553,0.1335 0.1105,0.2623 0.1658,0.3959 -0.0691,-0.1566 -0.1381,-0.3176 -0.2026,-0.4788 -0.009,-0.0214 -0.0184,-0.0429 -0.0276,-0.0644 0,-0.005 -0.005,-0.009 -0.005,-0.0138 0,-0.003 -0.002,-0.007 -0.006,-0.012 0.001,0.004 0.003,0.009 0.006,0.012 0,0.005 0,0.009 0,0.009 -0.1289,-0.3131 -0.2624,-0.626 -0.3913,-0.9436 0.2164,-0.2671 0.4466,-0.5248 0.6905,-0.7734 3.7285,-3.7239 10.5872,-4.0876 14.2559,0 0.9897,1.1048 1.9794,2.1865 2.8171,3.4109 0.801,1.1784 1.4408,2.4075 2.0576,3.6687 0.005,0.009 0.009,0.0185 0.0138,0.023 1.2245,1.6894 2.5594,3.2775 3.6872,5.0405 1.3579,2.122 2.191,4.4788 3.2544,6.7435 0.1242,0.2302 0.2577,0.4558 0.3912,0.6767 1.0726,1.4408 2.3016,2.7665 3.3649,4.2165 1.5605,2.122 3.0473,4.2901 4.7366,6.3063 0.2118,0.2301 0.4327,0.4511 0.6583,0.672 0.6122,0.488 1.2566,0.9391 1.8919,1.4132 1.4592,1.1093 2.6928,2.4765 3.8252,3.908 1.3579,1.717 2.6652,3.4938 4.0691,5.1694 0.175,0.1841 0.3545,0.3682 0.5386,0.5478 1.3257,1.0679 2.7573,2.0806 4.1474,3.0334 1.0726,0.7227 2.1359,1.4546 3.2038,2.1819 2.7527,1.8274 5.556,3.5858 8.3593,5.3488 1.3902,0.8746 2.7757,1.7538 4.0968,2.7343 1.0679,0.7871 2.0714,1.6525 3.1577,2.4167 0.6905,0.4695 1.3764,0.9436 2.0622,1.4131 1.3764,0.8884 2.8263,1.6617 4.2027,2.5594 1.4408,0.939 2.9,1.8734 4.3868,2.748 1.7538,1.0311 3.4569,2.1221 5.0956,3.3327 1.473,1.0909 2.7987,2.3568 4.1475,3.595 0.7503,0.6168 1.5374,1.1968 2.3291,1.7584 1.1278,0.7135 2.3154,1.3488 3.503,1.9564 1.7124,0.8469 3.4386,1.6893 5.2246,2.3614 2.6514,0.893 5.289,1.8182 7.8621,2.9229 2.4259,1.0496 4.8655,2.1359 7.3466,3.0519 1.3257,0.4327 2.656,0.8516 3.9587,1.3487 1.381,0.534 2.7021,1.2153 4.0186,1.8919 1.9563,0.9529 3.9817,1.6986 6.0116,2.4811 1.7861,0.6951 3.5307,1.4914 5.3213,2.1681 1.6663,0.5385 3.3465,1.0127 5.0082,1.5743 -0.2578,-0.0875 -0.5156,-0.1796 -0.7733,-0.2716 1.5973,0.5478 3.2544,0.9666 4.7964,1.6663 0.9068,0.4143 1.8137,0.8516 2.6468,1.3994 0.4558,0.2992 0.8746,0.6214 1.2797,0.9574 0.046,0.0184 0.0921,0.0322 0.1381,0.0507 1.8182,0.6214 3.7009,1.1507 5.5836,1.5696 3.1439,0.6123 6.2741,1.2705 9.3858,2.0484 2.8217,0.7043 5.4823,1.9195 8.1889,2.9506 0.1796,0.0506 0.3637,0.1013 0.5432,0.1519 1.1646,0.1795 2.3476,0.3084 3.5214,0.4281 0.2762,-0.0414 0.5524,-0.0921 0.8286,-0.1473 -0.2394,0.0507 -0.4787,0.1013 -0.7181,0.1473 0.0046,0 0.0092,0 0.0138,0 1.5835,-0.3084 3.0841,-0.5155 4.732,-0.5616 1.0035,-0.0276 2.0116,0.0415 3.0105,0.0967 3.0473,0.1703 6.0439,0.7227 9.082,0.9805 0.9206,0.0552 1.8458,0.1012 2.771,0.0506 -0.1058,0.0092 -0.2117,0.0138 -0.3176,0.023 4.8793,-0.2992 9.7724,-0.2578 14.6563,-0.5248 2.1451,-0.2071 4.2441,-0.7273 6.3892,-0.916 2.0714,-0.1795 4.0691,-0.1795 6.1406,-0.0184 0.8976,0.0737 1.786,0.1887 2.679,0.2854 0.4695,-0.2256 0.9344,-0.4557 1.4131,-0.6582 0.7043,-0.29 1.4224,-0.5294 2.1221,-0.8286 1.542,-0.847 3.0196,-1.8458 4.5295,-2.7527 0.8332,-0.4925 1.6294,-1.0311 2.4949,-1.4638 1.1784,-0.5938 2.3844,-1.0955 3.5674,-1.6663 1.5375,-0.7503 3.1394,-1.3441 4.7505,-1.9195 1.2152,-0.4327 2.4442,-0.8654 3.6916,-1.2014 1.1509,-0.3084 2.3338,-0.488 3.5076,-0.6951 0.87,-0.2255 1.7124,-0.534 2.587,-0.7687 1.4684,-0.3913 2.9736,-0.5662 4.4697,-0.8102 0.2715,-0.069 0.5385,-0.1427 0.8055,-0.2301 0.7503,-0.267 1.5052,-0.5248 2.2786,-0.7181 0.5477,-0.1381 1.0955,-0.244 1.6387,-0.3867 1.3026,-0.7043 2.5731,-1.4592 3.885,-2.1496 1.6755,-0.8838 3.3971,-1.6618 5.0957,-2.4949 1.8412,-0.9529 3.6733,-1.9149 5.5329,-2.8356 0.3821,-0.2071 0.7503,-0.4235 1.114,-0.6582 1.5973,-1.0956 3.1946,-2.1727 4.8701,-3.1486 1.3027,-0.7641 2.5087,-1.6755 3.839,-2.3982 1.6157,-0.8746 3.3281,-1.6203 4.9898,-2.4074 1.7354,-0.8194 3.5813,-1.3718 5.3304,-2.1543 0.5478,-0.2992 1.0864,-0.6214 1.6157,-0.9528 1.763,-1.2521 3.4524,-2.6284 5.174,-3.9311 1.7722,-1.3395 3.6364,-2.564 5.3534,-3.9863 1.0726,-0.9713 2.1221,-1.9748 3.1439,-3.0013 1.1554,-1.16 2.2095,-2.4166 3.4386,-3.503 1.7538,-1.5558 3.6088,-2.9229 5.6757,-4.0323 1.054,-0.5662 2.1036,-1.1186 3.1163,-1.7492 1.1231,-0.8332 2.1772,-1.7584 3.2682,-2.6376 1.0449,-0.8378 2.1128,-1.6387 3.1393,-2.5041 2.3522,-1.9932 4.8701,-3.7884 7.2085,-5.7953 0.8792,-0.7825 1.7584,-1.5651 2.6883,-2.2832 0.8745,-0.672 1.8228,-1.2566 2.748,-1.8596 0.3361,-0.2302 0.6629,-0.4696 0.9851,-0.7181 0.0736,-0.0783 0.1473,-0.1519 0.2209,-0.2302 1.068,-1.2336 2.1267,-2.4719 3.2084,-3.6963 1.6111,-1.8689 3.2729,-3.7608 4.6998,-5.7815 0.4926,-0.7411 0.9897,-1.4914 1.519,-2.2095 0.4834,-0.6583 1.045,-1.2521 1.6019,-1.8459 0.0645,-0.0829 0.1289,-0.1703 0.1934,-0.2532 0,0 0.005,-0.005 0.005,-0.005 1.0311,-4.4236 5.068,-7.8023 9.7678,-7.8023 3.8666,0 7.2776,2.2832 8.9439,5.556 -0.4419,0.7779 -0.8792,1.5605 -1.3579,2.32 -0.5938,0.8838 -1.2245,1.7445 -1.7998,2.6376 -0.4742,0.7411 -0.9483,1.4776 -1.4684,2.1864 -0.4281,0.534 -0.8746,1.0404 -1.3165,1.5605 -0.5662,0.6767 -1.0772,1.3902 -1.6295,2.0714 -1.1094,1.381 -2.0991,2.854 -3.213,4.2349 0.023,-0.0276 0.046,-0.0552 0.069,-0.0829 -0.5984,0.7504 -1.1646,1.5237 -1.7538,2.2832 -0.4234,0.5109 -0.8607,1.0081 -1.2888,1.5098 0.0138,-0.0184 0.0322,-0.0414 0.046,-0.0598 -1.496,1.7032 -2.8585,3.4984 -4.2993,5.243 -0.6583,0.7963 -1.3672,1.5466 -2.0392,2.3338 -0.6214,0.7226 -1.2291,1.4683 -1.8643,2.1772 -0.0644,0.0783 -0.1289,0.1519 -0.1979,0.2256 0.0138,-0.0138 0.023,-0.0322 0.0368,-0.0507 -0.023,0.0231 -0.0414,0.0461 -0.0599,0.0691 -0.0137,0.0138 -0.0276,0.0276 -0.0368,0.0368 0.009,-0.0092 0.0184,-0.0184 0.0323,-0.0322 -0.0967,0.1059 -0.1888,0.2118 -0.2854,0.313 -0.0139,0.0184 -0.0323,0.0322 -0.0461,0.0506 0.0138,-0.0138 0.0277,-0.0276 0.0415,-0.0414 -1.0588,1.1738 -2.0899,2.3798 -3.1486,3.5629 -1.3533,1.4776 -2.7941,2.8815 -4.2026,4.3039 -1.0312,0.9896 -2.0577,1.9839 -3.0565,3.0058 -2.3522,2.4167 -4.9161,4.617 -7.273,7.0336 -1.1646,1.1922 -2.3061,2.4167 -3.5398,3.5398 -0.9206,0.8378 -1.6295,1.8321 -2.4028,2.7895 -0.5432,0.6168 -1.1416,1.1876 -1.6755,1.809 -0.1612,0.1887 -0.3177,0.3775 -0.4788,0.5754 -1.2152,1.2429 -2.4857,2.4351 -3.7884,3.5813 -2.4948,2.2003 -5.243,4.1198 -7.9404,6.0669 -1.3349,0.9667 -2.5777,2.0484 -3.9126,3.0058 -1.8505,1.3211 -3.7469,2.4397 -5.7953,3.4202 -1.6572,0.7963 -3.4248,1.3303 -5.1141,2.0576 -1.091,0.4695 -2.1635,1.0034 -3.2314,1.519 -0.6721,0.3636 -1.3165,0.7641 -1.9518,1.1876 0.244,-0.1657 0.488,-0.3268 0.7273,-0.4925 -1.5006,0.9989 -3.0472,1.9057 -4.5617,2.8815 -1.1093,0.7688 -2.2003,1.5651 -3.3557,2.2602 -1.1415,0.6951 -2.3844,1.229 -3.5904,1.8136 -2.2509,1.137 -4.5065,2.274 -6.762,3.4017 -1.8182,0.9437 -3.5767,1.9932 -5.3857,2.9414 -1.427,0.7457 -2.8907,1.3671 -4.4604,1.7584 -0.8792,0.221 -1.7492,0.3913 -2.61,0.6767 0.1197,-0.0415 0.2348,-0.0783 0.3545,-0.1197 -1.381,0.4603 -2.7159,0.8562 -4.1751,1.1186 -0.7733,0.1426 -1.5558,0.2439 -2.3338,0.3636 -0.7825,0.2118 -1.5374,0.4879 -2.3199,0.6997 -0.4005,0.1105 -0.8056,0.2025 -1.2107,0.29 -0.4603,0.0184 -0.9206,0.023 -1.3763,0.0644 -1.1048,0.1059 -2.1451,0.3361 -3.19,0.6537 0.0139,-0.0046 0.023,-0.0093 0.0368,-0.0138 -0.8101,0.2531 -1.6387,0.4603 -2.4626,0.6766 -0.7043,0.1841 -1.381,0.4143 -2.0852,0.5708 -0.801,0.1611 -1.6065,0.3222 -2.4029,0.5017 0.1059,-0.023 0.2164,-0.0506 0.3223,-0.0782 -1.0956,0.2577 -2.1912,0.5017 -3.2775,0.7779 -0.7319,0.1657 -1.4638,0.3084 -2.1911,0.4972 0.1934,-0.0507 0.3913,-0.1013 0.5892,-0.1519 -0.8745,0.2209 -1.7676,0.3728 -2.6422,0.5937 -0.8838,0.2256 -1.7584,0.4558 -2.6606,0.5892 0.2025,-0.0275 0.4097,-0.0598 0.6168,-0.0874 -1.7584,0.2439 -3.4753,0.649 -5.2199,0.9667 0.2071,-0.0369 0.4096,-0.0737 0.6168,-0.1105 -1.3027,0.2301 -2.5271,0.6629 -3.8022,0.9621 -0.4971,0.1012 -0.9942,0.2117 -1.4868,0.3268 -1.2705,0.267 -2.5547,0.428 -3.8206,0.6858 -1.2244,0.2486 -2.4535,0.4557 -3.6871,0.6583 0.2026,-0.0322 0.4097,-0.0645 0.6122,-0.0967 -1.3441,0.2117 -2.6882,0.511 -4.0415,0.649 -1.1877,0.1243 -2.3431,0.3913 -3.5214,0.5662 -2.1773,0.3176 -4.327,0.7687 -6.4996,1.1094 -0.2992,0.0368 -0.5984,0.0737 -0.9022,0.0921 -0.8838,0.0184 -1.7584,0.0368 -2.6377,0.0828 -0.0322,0 -0.0598,0 -0.092,0 -0.0368,0 -0.0783,0.0046 -0.1151,0.0046 0.0092,0 0.0184,0 0.0276,0 -0.0229,0 -0.0506,0 -0.0736,0.0046 -0.0046,0 -0.0138,0 -0.0184,0 0.0046,0 0.0092,0 0.0138,0 -1.6845,0.0927 -3.3508,0.309 -5.0264,0.4885 C 1.7676,-0.0276 1.0863,0.0046 0.4051,0.0046 0.2716,0.0046 0.1335,0 0,0 Z"
               style="fill:#ffffff;fill-opacity:1;fill-rule:nonzero;stroke:none"
               id="path1797" /></g><g
             id="g1799"
             transform="translate(65.252,320.786)"><path
               d="M 0,0 C 0.0783,0.1427 0.1565,0.29 0.2302,0.4373 0.1519,0.29 0.0737,0.1427 0,0 Z"
               style="fill:#ffffff;fill-opacity:1;fill-rule:nonzero;stroke:none"
               id="path1801" /></g><g
             id="g1803"
             transform="translate(425.7227,314.2376)"><path
               d="M 0,0 C -0.0552,0.0829 -0.1059,0.1657 -0.1611,0.244 -0.1059,0.1611 -0.0552,0.0829 0,0 Z"
               style="fill:#ffffff;fill-opacity:1;fill-rule:nonzero;stroke:none"
               id="path1805" /></g><g
             id="g1807"
             transform="translate(188.6991,406.8365)"><path
               d="M 0,0 C -0.0012,-0.0011 -0.002,-0.0019 -0.0027,-0.0026 0.0451,0.0118 0.093,0.0274 0.1415,0.0429 0.1446,0.0444 0.1477,0.0458 0.1508,0.0471 0.1005,0.0315 0.0502,0.0144 0,0 Z"
               style="fill:#ffffff;fill-opacity:1;fill-rule:nonzero;stroke:none"
               id="path1809" /></g><g
             id="g1811"
             transform="translate(121.205,375.8058)"><path
               d="M 0,0 C 5e-4,2e-4 0.001,2e-4 0.0016,3e-4 0.0081,0.0036 0.0147,0.0069 0.0213,0.0102 0.1318,0.0746 0.2423,0.1391 0.3528,0.2036 0.2352,0.1357 0.1176,0.0678 0,0 Z"
               style="fill:#ffffff;fill-opacity:1;fill-rule:nonzero;stroke:none"
               id="path1813" /></g><g
             id="g1815"
             transform="translate(226.3343,415.8212)"><path
               d="m 0,0 c 0.0645,0.0046 0.1289,0.0046 0.1933,0.0092 -0.1819,0 -0.3639,0.0075 -0.5477,0.0205 C -0.2355,0.0195 -0.1176,0.0089 0,0 Z"
               style="fill:#ffffff;fill-opacity:1;fill-rule:nonzero;stroke:none"
               id="path1817" /></g><g
             id="g1819"
             transform="translate(188.6438,406.8175)"><path
               d="M 0,0 C 0.009,0.0027 0.0183,0.0057 0.0274,0.0085 0.0365,0.0114 0.0457,0.0143 0.0548,0.0171 0.1004,0.032 0.1459,0.0467 0.1914,0.0616 0.1276,0.0425 0.0638,0.0213 0,0 Z"
               style="fill:#ffffff;fill-opacity:1;fill-rule:nonzero;stroke:none"
               id="path1821" /></g><g
             id="g1823"
             transform="translate(110.4677,369.1754)"><path
               d="M 0,0 C 0.2346,0.1593 0.4706,0.3178 0.7068,0.4779 0.4705,0.3199 0.2351,0.1603 0,0 Z"
               style="fill:#ffffff;fill-opacity:1;fill-rule:nonzero;stroke:none"
               id="path1825" /></g><g
             id="g1827"
             transform="translate(110.1834,368.9812)"><path
               d="M 0,0 C 0.0946,0.0652 0.1894,0.1295 0.2843,0.1942 0.1893,0.1297 0.0945,0.065 0,0 Z"
               style="fill:#ffffff;fill-opacity:1;fill-rule:nonzero;stroke:none"
               id="path1829" /></g><g
             id="g1831"
             transform="translate(408.7964,324.5824)"><path
               d="m 0,0 c -1.6433,-2.122 -2.3706,-4.8609 -2.007,-7.5169 0.244,-1.8182 0.9713,-3.4017 2.0484,-4.7734 0.4005,-0.8378 0.8148,-1.671 1.2935,-2.4719 0.6122,-1.0219 1.3165,-1.984 2.007,-2.9552 0.6812,-1.1094 1.2428,-2.2924 1.9425,-3.3972 1.0173,-1.611 2.2601,-2.9782 3.526,-4.3729 0.0414,-0.0553 0.0874,-0.1105 0.1289,-0.1612 0.4373,-1.3211 0.87,-2.6467 1.473,-3.8942 0.6951,-1.4408 1.45,-2.854 2.2371,-4.2441 1.0173,-1.8044 2.1543,-3.549 3.0979,-5.3857 -0.1427,0.2808 -0.2854,0.557 -0.4235,0.8378 0.7918,-1.5604 1.6756,-3.0749 2.4949,-4.6215 0.0507,-0.1151 0.0967,-0.2255 0.1427,-0.3407 0.2026,-0.6121 0.3959,-1.2244 0.5708,-1.8412 0.0967,-2.0576 0.7595,-4.037 2.0576,-5.7171 1.8919,-2.4443 4.8655,-3.9081 7.9588,-3.9081 2.2636,0 4.4764,0.7784 6.2412,2.1746 -0.2421,0.7841 -0.4213,1.5787 -0.6162,2.3734 -0.138,0.5109 -0.2715,1.0264 -0.4465,1.5236 -0.4256,1.0023 -0.8603,1.9865 -1.2363,3.0068 0.0031,-0.0089 0.0059,-0.0175 0.0089,-0.0264 0.0026,-0.0068 0.0051,-0.0137 0.0076,-0.0206 -0.0029,0.0073 -0.0053,0.014 -0.0076,0.0206 -0.4589,1.2638 -1.0175,2.5408 -1.6035,3.7586 -0.3958,0.7549 -0.8055,1.5052 -1.1461,2.2877 -0.2855,0.6537 -0.4788,1.3441 -0.6859,2.0208 -0.3729,1.0495 -0.8148,2.053 -1.2521,3.0749 -0.5478,1.2613 -0.9666,2.5271 -1.3671,3.839 0.0067,-0.0302 0.0158,-0.0627 0.0256,-0.0941 0.0037,-0.0116 0.0076,-0.0232 0.0112,-0.0348 -0.0038,0.0113 -0.0075,0.023 -0.0112,0.0348 -0.3717,1.1716 -0.8681,2.3516 -1.3421,3.4912 -0.198,0.4465 -0.3913,0.8976 -0.5754,1.3487 0.0184,-0.0506 0.0414,-0.1012 0.0598,-0.1519 -0.336,0.8056 -0.7088,1.5881 -1.0311,2.3983 0.0783,-0.198 0.1565,-0.3913 0.2348,-0.5846 -0.3314,0.8147 -0.6951,1.6294 -1.1048,2.412 -0.4787,0.916 -0.8101,1.8781 -1.1646,2.8447 -0.3222,0.847 -0.6444,1.7032 -1.054,2.5133 -0.5478,0.9989 -1.1232,1.9932 -1.7078,2.969 -0.7181,1.1969 -1.3625,2.4351 -2.1082,3.6181 -0.5939,0.8838 -1.2245,1.74 -1.7999,2.6376 -0.4695,0.7411 -0.9482,1.4776 -1.4684,2.1819 -0.4281,0.534 -0.8746,1.0449 -1.3165,1.5651 -0.5662,0.6766 -1.0771,1.3901 -1.6295,2.0714 C 9.3735,-0.1537 8.3992,1.291 7.3096,2.6503 7.3127,2.6461 7.3159,2.6419 7.319,2.6376 7.3032,2.6575 7.2876,2.6777 7.2718,2.6976 7.2644,2.7068 7.2573,2.716 7.2499,2.725 7.252,2.7225 7.2542,2.72 7.2563,2.7174 6.9803,3.0674 6.7105,3.4211 6.442,3.7753 3.938,3.3531 1.5686,2.0328 0,0 Z"
               style="fill:#ffffff;fill-opacity:1;fill-rule:nonzero;stroke:none"
               id="path1833" /></g><g
             id="g1835"
             transform="translate(425.722,314.2392)"><path
               d="M 0,0 C -0.0506,0.0829 -0.1058,0.1611 -0.1611,0.244 -0.1058,0.1611 -0.0552,0.0782 0,0 Z"
               style="fill:#ffffff;fill-opacity:1;fill-rule:nonzero;stroke:none"
               id="path1837" /></g><g
             id="g1839"
             transform="translate(423.5816,275.757)"><path
               d="m 0,0 c 0,-5.5376 4.6215,-10.1591 10.1591,-10.1591 4.4533,0 8.3172,2.9893 9.6596,7.0399 -0.1552,0.5737 -0.2887,1.1513 -0.4303,1.7291 -0.1381,0.5109 -0.2716,1.0265 -0.4465,1.5236 C 18.5162,1.1358 18.0815,2.12 17.7055,3.1403 17.7086,3.1314 17.7114,3.1228 17.7144,3.114 17.717,3.1071 17.7195,3.1002 17.722,3.0933 17.7191,3.1006 17.7167,3.1073 17.7144,3.114 17.2556,4.3777 16.697,5.6547 16.1109,6.8725 c -0.3417,0.6517 -0.6936,1.3 -1.0026,1.9684 -1.4719,0.8374 -3.163,1.3182 -4.9492,1.3182 C 4.6215,10.1591 0,5.5376 0,0 Z"
               style="fill:#ffffff;fill-opacity:1;fill-rule:nonzero;stroke:none"
               id="path1841" /></g><g
             id="g1843"
             transform="translate(64.8133,309.9178)"><path
               d="m 0,0 c -2.2376,0 -4.6624,-0.7768 -6.6373,-2.1121 -0.6391,-1.1611 -1.2832,-2.3195 -1.9107,-3.4853 -1.0266,-2.076 -1.9772,-4.1965 -2.9043,-6.3191 0.0134,-0.1469 0.03,-0.2944 0.0503,-0.4429 0.3545,-2.6192 1.7584,-5.0313 3.8483,-6.647 1.2934,-0.9988 2.8125,-1.6341 4.3914,-1.9103 0.4833,-0.8147 0.9712,-1.6203 1.5742,-2.3706 1.4408,-1.7814 3.2038,-3.2313 5.1095,-4.4834 1.7216,-1.1324 3.8206,-1.671 5.7585,-2.2924 1.2567,-0.4051 2.5455,-0.6812 3.8068,-1.0587 0.6859,-0.267 1.3625,-0.557 2.0208,-0.8884 -0.3222,0.1657 -0.6491,0.3268 -0.9667,0.488 1.6756,-0.8471 3.2821,-1.5421 5.0404,-2.1681 -0.2945,0.1012 -0.5892,0.2071 -0.8838,0.3084 1.8229,-0.6399 3.5491,-1.4868 5.3535,-2.1635 2.0346,-0.7641 4.152,-1.2705 6.2188,-1.9471 2.3752,-0.8378 4.7412,-1.6618 7.1947,-2.2418 2.9092,-0.6812 5.8736,-1.0264 8.8104,-1.5374 3.0013,-0.5201 5.9473,-1.0449 8.9945,-1.229 2.8402,-0.1704 5.6895,-0.1841 8.5342,-0.3361 1.6848,-0.1288 3.3741,-0.2807 5.0543,-0.4557 2.7112,-0.2716 5.3719,-0.7365 8.1015,-0.8424 2.6836,-0.0966 5.4869,-0.3498 8.1383,0.1428 2.1819,0.405 4.1704,1.1922 6.2189,1.9471 2.0944,0.6582 4.2624,1.1738 6.4075,1.6479 1.5328,0.2854 3.0657,0.5248 4.5801,0.8884 1.786,0.4373 3.4432,1.2659 5.0727,2.0898 5.0404,2.4903 10.2143,4.6952 15.2824,7.1257 2.7941,1.3441 5.6849,2.3752 8.5986,3.4293 2.8172,1.0219 5.4824,2.3338 8.1476,3.6733 0.5109,0.2439 1.0265,0.4695 1.5512,0.6767 0.5294,0.1565 1.068,0.29 1.6111,0.405 0.8885,0.1842 1.7768,0.3729 2.6606,0.5616 0.1934,0.0323 0.3867,0.0645 0.5801,0.0921 0.0184,-0.0046 0.0414,-0.0092 0.0644,-0.0092 0.5017,-0.1243 0.9989,-0.267 1.4914,-0.4189 0.7089,-0.2762 1.4039,-0.58 2.0898,-0.9068 0.1519,-0.0875 0.3038,-0.175 0.4511,-0.2624 1.3257,-0.9621 2.5778,-2.0254 3.8344,-3.0749 0.893,-0.7411 1.8183,-1.4454 2.7113,-2.1865 0.1841,-0.1795 0.3682,-0.359 0.5477,-0.5478 1.3902,-1.7123 2.5456,-3.5766 4.083,-5.2015 1.8183,-1.9195 3.9449,-3.5858 5.9887,-5.2522 3.8252,-3.1163 7.9956,-5.9104 12.1016,-8.6585 1.1324,-0.7917 2.2096,-1.6571 3.2913,-2.5225 1.6801,-1.3395 3.5306,-2.412 5.3304,-3.572 2.0254,-1.4638 3.9034,-3.1117 5.9886,-4.5019 2.0346,-1.3487 4.2626,-2.3015 6.4629,-3.3418 0.7733,-0.4143 1.5236,-0.8562 2.2646,-1.3304 1.3626,-0.9482 2.7113,-1.9056 4.0969,-2.8171 1.7353,-1.1369 3.6779,-1.9885 5.579,-2.7987 3.236,-1.3809 6.5778,-2.3936 9.9151,-3.4891 0.9759,-0.3499 1.9518,-0.7043 2.9368,-1.0357 1.3948,-0.465 2.8079,-0.755 4.2487,-1.0404 2.3384,-0.4695 4.7136,-0.7503 7.0566,-1.2106 -0.4419,0.0921 -0.8792,0.1795 -1.3165,0.2716 3.1117,-0.6398 6.1268,-1.2198 9.3121,-1.3073 2.0853,-0.0598 4.1705,-0.1151 6.2557,-0.1979 4.8333,-0.1979 9.6988,-0.0829 14.5321,-0.0691 2.679,0.0046 5.3489,0.0921 8.014,0.3269 2.6791,0.2347 5.3351,0.8516 7.9543,1.4453 2.366,0.5386 4.7596,0.9897 7.1072,1.6019 3.0013,0.7918 5.6987,2.297 8.4145,3.747 1.6341,0.7503 3.3189,1.3579 5.0082,1.9701 1.9057,0.6859 3.7884,1.427 5.6895,2.1313 1.1139,0.3544 2.2417,0.6628 3.3695,0.9712 1.542,0.4281 3.0473,0.9759 4.5525,1.5145 2.7297,0.8976 5.4869,1.7031 8.1982,2.6514 2.3798,0.8332 4.6077,1.8412 6.8679,2.9552 2.3706,1.1692 4.8194,2.1496 7.1072,3.4892 1.5834,0.9298 3.1301,1.9241 4.7504,2.7802 0.6628,0.3177 1.3349,0.6215 2.0208,0.893 1.6893,0.5294 3.3741,1.0403 5.0542,1.6111 1.4132,0.4926 2.8217,1.0035 4.2349,1.5099 0.7319,0.2347 1.4684,0.4327 2.2141,0.6076 0.8562,0.1703 1.7032,0.3452 2.5317,0.6122 0.8332,0.2716 1.6526,0.5524 2.4995,0.7595 1.1692,0.29 2.3016,0.5984 3.4064,1.091 1.0771,0.4833 2.1036,1.0725 3.1393,1.6341 0.0552,0.0276 0.1151,0.0506 0.1703,0.0782 0.046,0.0092 0.0921,0.023 0.1427,0.0322 0.0874,0.0139 0.1749,0.0277 0.2624,0.0415 3.8021,-0.9529 8.2166,0.3038 10.5411,3.5674 0.2762,0.3821 0.5202,0.7733 0.7411,1.1738 -0.2163,0.7273 -0.382,1.4592 -0.5615,2.1911 -0.1381,0.5109 -0.2716,1.0265 -0.4511,1.5236 -0.4189,1.0035 -0.8562,1.984 -1.2291,3.0059 0,-0.0014 3e-4,-0.0028 5e-4,-0.0042 -0.4631,1.2537 -1.0122,2.525 -1.5978,3.7373 -0.3958,0.7549 -0.8055,1.5052 -1.1462,2.2878 -0.2807,0.6398 -0.4695,1.3211 -0.6766,1.9839 -2.389,0.893 -4.953,0.7872 -7.4571,0.5386 -1.3855,-0.1335 -2.7711,-0.4005 -4.1198,-0.7549 -2.03,-0.534 -3.839,-1.5605 -5.6757,-2.5363 -0.7457,-0.198 -1.5098,-0.3499 -2.2509,-0.5801 -0.847,-0.2669 -1.6801,-0.5477 -2.5501,-0.7457 -1.0449,-0.2163 -2.076,-0.4511 -3.1025,-0.7687 -1.4868,-0.4603 -2.9414,-1.0495 -4.4098,-1.5696 -0.7964,-0.2716 -1.5927,-0.5478 -2.3844,-0.824 -0.9437,-0.3222 -1.9057,-0.5616 -2.8678,-0.8332 -1.4362,-0.4051 -2.8125,-0.9988 -4.1612,-1.6249 -2.9414,-1.3671 -5.6112,-3.1715 -8.4652,-4.6906 -3.2314,-1.5742 -6.4812,-3.1577 -9.8599,-4.3867 -3.3235,-1.1186 -6.6837,-2.1267 -9.998,-3.2867 0.4143,0.1473 0.8286,0.29 1.2475,0.4327 -1.7722,-0.5892 -3.5905,-0.9943 -5.3581,-1.5834 -2.2003,-0.732 -4.3546,-1.5744 -6.5226,-2.3891 -1.5835,-0.5938 -3.19,-1.1232 -4.7689,-1.7446 -2.1174,-0.8285 -4.1013,-1.9195 -6.1037,-2.9874 -0.488,-0.2256 -0.9759,-0.4373 -1.4684,-0.6398 -2.8632,-0.8424 -5.8414,-1.3856 -8.7598,-1.9932 -1.4269,-0.2716 -2.8585,-0.4971 -4.3039,-0.6398 -4.5755,-0.2394 -9.1741,-0.1059 -13.7588,-0.1013 -4.1382,0 -8.2994,0.0598 -12.4376,0.2808 -0.8378,0.092 -1.6618,0.2209 -2.4949,0.3682 -1.8044,0.3775 -3.6043,0.7503 -5.4225,1.0495 -1.2705,0.2118 -2.5409,0.3959 -3.8022,0.6215 -0.557,0.1427 -1.1002,0.3038 -1.6433,0.4833 -2.3062,0.801 -4.6354,1.5236 -6.9508,2.297 -1.8274,0.672 -3.6319,1.4039 -5.3856,2.2371 -0.5524,0.2992 -1.0863,0.6168 -1.6157,0.9482 -1.5927,1.114 -3.167,2.251 -4.8241,3.2775 -1.8735,1.1645 -3.9218,2.0161 -5.915,2.9505 -0.4189,0.2302 -0.8286,0.4696 -1.2291,0.7228 -1.3118,0.9666 -2.5593,2.0161 -3.8482,3.0058 -1.4914,1.1554 -3.1255,2.0806 -4.7136,3.0933 -1.1692,0.8562 -2.2785,1.786 -3.4339,2.6606 -1.0771,0.8194 -2.2187,1.5513 -3.3419,2.297 -4.0415,2.7527 -8.1245,5.5605 -11.8346,8.7413 -0.7043,0.6306 -1.4132,1.2659 -2.076,1.938 -0.7273,0.9252 -1.3718,1.9057 -2.0714,2.8539 -1.1232,1.5282 -2.4673,2.8263 -3.8851,4.0692 -2.2003,1.9287 -4.5203,3.793 -6.8448,5.5697 -3.0013,2.2924 -6.5365,3.9127 -10.15,4.9945 -2.1128,0.6352 -4.3131,1.0633 -6.5272,1.0725 -2.6054,0.0138 -5.0864,-0.6445 -7.6182,-1.1646 0.2072,0.0414 0.4097,0.0828 0.6122,0.1243 -1.9931,-0.4097 -3.908,-0.8746 -5.8322,-1.6203 -1.5788,-0.6076 -3.0702,-1.4316 -4.5708,-2.2141 -2.4949,-1.1739 -5.0635,-2.1359 -7.6643,-3.0611 -2.702,-0.9621 -5.2844,-2.1497 -7.8621,-3.3971 -5.2062,-2.518 -10.532,-4.7735 -15.6967,-7.3789 0.3683,0.1888 0.7365,0.3729 1.1048,0.557 -0.4604,-0.2255 -0.9207,-0.4419 -1.3948,-0.6352 -0.1473,-0.0415 -0.2992,-0.0783 -0.4511,-0.1151 -2.4166,-0.4603 -4.8011,-0.9851 -7.1947,-1.5512 -2.4673,-0.58 -4.8149,-1.3994 -7.1809,-2.2878 -0.0874,-0.0276 -0.1795,-0.0506 -0.2716,-0.0783 -0.0138,-0.0046 -0.0322,-0.0046 -0.0506,-0.0091 -1.6249,-0.0415 -3.2636,0.0322 -4.8885,0.1242 -3.3097,0.3039 -6.5963,0.8194 -9.9106,1.0818 -3.6272,0.2854 -7.2637,0.3222 -10.891,0.5155 -2.2647,0.2117 -4.4834,0.6352 -6.7251,1.0219 -2.1497,0.3775 -4.3178,0.6583 -6.4675,1.0541 -1.4131,0.3222 -2.8033,0.7089 -4.1796,1.1646 -1.4684,0.5248 -2.9322,1.0495 -4.419,1.5236 -0.9206,0.2993 -1.8689,0.5248 -2.7987,0.7964 -0.7825,0.3084 -1.5467,0.6582 -2.3154,0.9943 -1.0403,0.4557 -2.1082,0.8331 -3.1807,1.206 -0.6123,0.2163 -1.2061,0.4603 -1.7953,0.7457 -1.9747,0.9667 -3.9448,1.8412 -6.0991,2.4212 -1.229,0.3315 -2.4443,0.6629 -3.6549,1.0404 -0.2071,0.359 -0.4097,0.7181 -0.6398,1.0633 -0.8194,1.2474 -1.7722,2.2831 -2.7573,3.3648 C 10.067,-5.1602 9.418,-4.4835 8.6125,-3.8528 8.3593,-3.6503 8.0969,-3.4708 7.8299,-3.3051 7.4985,-2.9506 7.1395,-2.6054 6.7436,-2.2647 4.976,-0.7181 2.3798,-0.023 0.0736,0 0.0506,0 0.023,0 0,0 Z"
               style="fill:#ffffff;fill-opacity:1;fill-rule:nonzero;stroke:none"
               id="path1845" /></g><g
             id="g1847"
             transform="translate(413.9028,261.154)"><path
               d="M 0,0 C 0.1504,0.0514 0.3007,0.103 0.451,0.1553 0.3006,0.1035 0.1503,0.0518 0,0 Z"
               style="fill:#ffffff;fill-opacity:1;fill-rule:nonzero;stroke:none"
               id="path1849" /></g><g
             id="g1851"
             transform="translate(413.6471,261.0672)"><path
               d="m 0,0 c -0.1786,-0.0622 -0.3574,-0.1245 -0.5362,-0.1859 0.264,0.0909 0.528,0.1818 0.7919,0.2728 C 0.1705,0.0577 0.0852,0.0288 0,0 Z"
               style="fill:#ffffff;fill-opacity:1;fill-rule:nonzero;stroke:none"
               id="path1853" /></g><g
             id="g1855"
             transform="translate(246.809,401.6266)"><path
               d="m 0,0 c -0.3766,-0.1664 -0.748,-0.3479 -1.113,-0.544 -2.4801,-0.2859 -4.9197,-0.9881 -7.3011,-1.7694 -1.0038,0.0556 -2.0079,0.1047 -3.0109,0.1499 -6.4582,0.2946 -13.0545,0.557 -19.5035,-0.023 -6.8724,-0.6168 -13.86,-1.5696 -20.3366,-4.0738 -2.2003,-0.8469 -4.3914,-1.7446 -6.2832,-3.1807 -1.5512,-1.1779 -2.6837,-2.7444 -3.3694,-4.4822 -0.3177,-0.1196 -0.6354,-0.2397 -0.953,-0.3603 -2.0504,-0.7751 -4.0691,-1.6692 -6.0654,-2.6174 -1.9592,1.1854 -4.2921,1.7502 -6.538,1.3193 -0.6122,-0.1151 -1.2198,-0.2393 -1.832,-0.3682 -1.1554,-0.3177 -2.1727,-0.8885 -3.2222,-1.4546 -1.5467,-0.8378 -2.9737,-2.0576 -4.3822,-3.1026 -1.0772,-0.7917 -2.1635,-1.5696 -3.2406,-2.3567 -1.1533,-0.8369 -2.3247,-1.6497 -3.4862,-2.4754 -3.0447,-0.9866 -6.0339,-2.2479 -8.841,-3.7757 -1.662,-0.9054 -3.303,-1.8451 -4.9328,-2.8045 -2.0277,0.472 -4.2062,0.337 -6.2252,-0.5006 -0.8091,-0.3377 -1.5188,-0.791 -2.2276,-1.2717 -2.809,-1.8598 -5.6452,-3.6796 -8.5437,-5.4074 -1.5329,-0.9068 -3.0795,-1.7676 -4.6032,-2.6882 -2.0806,-1.2567 -4.0737,-2.6054 -6.0715,-3.9863 -2.6974,-1.8643 -5.2107,-4.0554 -7.7148,-6.1682 -1.5973,-1.3487 -3.19,-2.6975 -4.7643,-4.083 -2.5795,-2.2692 -5.6178,-4.7149 -6.9364,-7.986 -1.0449,-0.6905 -2.0879,-1.3825 -3.126,-2.081 -2.9967,-2.0255 -6.8633,-4.0554 -8.5848,-7.342 -0.1223,-0.2338 -0.2365,-0.4705 -0.3429,-0.7091 -2.1114,-1.6379 -3.8308,-3.8645 -5.3927,-5.9839 -1.5604,-2.1174 -3.1163,-4.2487 -4.5018,-6.4858 -1.2981,-2.0899 -2.4535,-4.5479 -2.3568,-7.0704 0.001,-0.0257 0.002,-0.0511 0.003,-0.0767 -0.5887,-0.7662 -1.1048,-1.5985 -1.5271,-2.5287 -1.2888,-2.8539 -0.9758,-6.3661 0.5892,-9.0359 1.5012,-2.5657 4.0728,-4.3125 6.9488,-4.8379 1.3324,-0.6933 2.81,-1.0868 4.3008,-1.1615 0.5997,-2.1381 1.9218,-4.0892 3.6278,-5.5407 3.641,-3.0933 8.9116,-2.7941 12.8243,-0.4143 2.013,1.2225 3.8973,2.6147 5.7358,4.0805 -0.0371,-1.4832 0.2312,-2.9703 0.7868,-4.2876 1.3856,-3.2728 4.4558,-5.6113 7.9634,-6.0992 2.1129,-0.2992 4.3224,-0.2577 6.4996,-0.2163 0.8102,0.0138 1.6158,0.0276 2.4121,0.0276 2.4304,-0.005 4.8609,-0.009 7.296,-0.0414 5.0422,-0.0686 10.0765,-0.2133 15.1103,-0.5118 2.5292,-0.2225 5.0584,-0.4493 7.5831,-0.6804 3.2176,-0.2992 6.4076,-0.3315 9.6067,0.1473 1.8413,0.2716 3.5997,0.8423 5.2522,1.6939 1.5467,0.7963 2.6698,1.9195 3.7746,3.2406 2.0383,2.4346 2.6505,6.1742 1.7034,9.3098 0.9817,0.2223 1.9545,0.4904 2.9135,0.7296 2.3016,0.5708 4.5985,1.1508 6.9001,1.7308 4.4743,1.1324 8.9393,2.2648 13.3813,3.526 6.739,1.9116 13.0021,5.0394 19.1662,8.3334 2.1026,-2.9986 4.4845,-5.7963 6.2845,-8.1676 2.1175,-2.7942 4.0968,-5.6251 6.4444,-8.2397 1.2843,-1.4315 2.7573,-2.8401 4.327,-3.931 2.0392,-1.4178 4.2671,-2.1819 6.762,-2.1819 0.6345,0 1.2507,0.0599 1.8475,0.1743 0.8358,-1.3033 1.6847,-2.5983 2.5485,-3.8845 1.9977,-2.9782 4.2303,-5.7308 6.7343,-8.2994 1.717,-1.7676 3.7102,-3.4385 5.9105,-4.5341 2.0635,-1.0239 4.3694,-1.2588 6.5455,-0.8303 1.186,-1.1239 2.3582,-2.2629 3.4779,-3.4628 0.7124,-0.9006 1.4983,-1.744 2.4096,-2.4505 1.014,-0.7831 2.0914,-1.2762 3.2481,-1.6262 0.1647,-1.198 0.4716,-2.3673 0.9362,-3.4648 2.1036,-4.9668 7.2499,-8.5895 12.7691,-7.8668 1.9194,0.2491 3.7135,0.9342 5.2724,1.9679 1.4388,-1.7195 3.5496,-3.2173 5.706,-3.671 1.137,-0.2394 2.2326,-0.5156 3.4063,-0.5156 1.1784,0 2.5133,0.1749 3.6549,0.4879 0.8396,0.2316 1.6866,0.5385 2.5091,0.9122 3.4291,-3.1209 8.7572,-3.3327 12.5658,-0.7361 1.8234,-1.5483 4.1412,-2.3763 6.5875,-2.4408 2.0023,-0.0506 3.9771,0.3222 5.7124,1.3671 1.6664,1.0035 2.9506,2.2464 4.2856,3.6319 0.2901,0.3017 0.5743,0.6085 0.854,0.9198 1.5407,-0.9368 3.3194,-1.4672 5.1577,-1.4123 1.9655,0.0552 3.8436,0.2623 5.6664,1.0449 1.427,0.6122 2.8171,1.3257 4.1843,2.0714 2.935,1.6031 5.5885,3.7688 8.033,6.0617 1.7995,-0.5684 3.7062,-0.8564 5.629,-0.9753 1.4274,-0.0875 2.9277,0.1179 4.3705,0.4552 1.3666,-0.7793 2.8223,-1.3948 4.3479,-1.7947 4.6169,-1.2106 9.5607,-1.1554 14.0027,0.7457 7.8161,3.3511 13.8002,10.1637 17.8141,17.5196 0.6758,1.2391 1.2962,2.5162 1.857,3.8211 0.7077,0.1237 1.412,0.2673 2.1126,0.4308 2.9719,-0.9007 6.1091,-0.7708 8.915,0.4702 2.1169,-0.1977 4.3904,-0.1648 6.3473,0.4057 2.0622,0.6031 3.9541,1.5605 5.4915,3.0979 1.961,1.961 3.3143,4.953 3.2591,7.7471 -0.0415,2.1036 -0.3453,4.0416 -1.2797,5.9427 -0.9943,2.0253 -2.2924,3.793 -3.8022,5.4593 -1.809,2.0024 -3.839,3.7377 -5.8736,5.5007 -2.4662,2.1368 -5.2835,3.9227 -8.0366,5.6727 -0.6251,0.8696 -1.2535,1.7362 -1.8785,2.6038 -2.6791,3.7331 -5.5468,7.3328 -8.7414,10.6378 -2.5746,2.6633 -5.4621,5.1725 -8.6001,7.296 0.1079,1.2476 0.009,2.5123 -0.2793,3.6963 -0.8562,3.5352 -3.5721,6.4674 -6.1774,8.8748 -1.2475,1.1554 -2.4995,2.3062 -3.77,3.4385 -2.5087,2.2372 -5.0174,4.4651 -7.701,6.4951 -5.3627,4.0645 -11.2133,7.4156 -17.0132,10.8173 -2.8632,1.6802 -5.7954,3.2544 -8.8518,4.5664 -3.0263,1.2989 -6.4609,1.8756 -9.6401,1.093 -0.1954,0.1243 -0.3914,0.248 -0.5881,0.3707 -1.3929,0.8712 -2.8297,1.6699 -4.299,2.4054 -0.0045,0.0059 -0.0088,0.0116 -0.0133,0.0175 0.0341,2.123 -0.4824,4.257 -1.5107,6.0147 -2.4212,4.1336 -6.854,6.5963 -11.0245,8.6355 -5.381,2.633 -11.0797,4.442 -16.7553,6.3017 -2.2178,0.7272 -4.441,1.4764 -6.6716,2.22 -2.47,0.9027 -4.9696,1.7274 -7.4999,2.43 -4.0234,1.2453 -8.08,2.3744 -12.1861,3.2303 -1.4377,0.6824 -3.0035,1.1375 -4.5939,1.3765 -2.9074,0.4337 -5.8172,0.4855 -8.7186,0.2938 -2.5919,0.1483 -5.182,0.2409 -7.7882,0.254 -0.0723,4e-4 -0.1449,6e-4 -0.2172,6e-4 C 7.6077,2.1964 3.5932,1.5819 0,0 Z"
               style="fill:#ffffff;fill-opacity:1;fill-rule:nonzero;stroke:none"
               id="path1857" /></g><g
             id="g1859"
             transform="translate(183.5478,405.2913)"><path
               d="M 0,0 C 0.088,0.0283 0.1767,0.0571 0.2647,0.086 0.1761,0.0586 0.0878,0.03 0,0 Z"
               style="fill:#000000;fill-opacity:1;fill-rule:nonzero;stroke:none"
               id="path1861" /></g><g
             id="g1863"
             transform="translate(404.1453,371.6079)"><path
               d="M 0,0 C 0,0.0046 0,0.0046 0,0.0092 -0.0322,0.0828 -0.0645,0.1565 -0.0966,0.2301 -0.1151,0.2762 -0.1335,0.3176 -0.1565,0.3636 -0.1013,0.244 -0.0506,0.1197 0,0 Z"
               style="fill:#000000;fill-opacity:1;fill-rule:nonzero;stroke:none"
               id="path1865" /></g><g
             id="g1867"
             transform="translate(118.5117,283.7227)"><path
               d="m 0,0 c 5.8984,0 10.5586,5.6445 10.2891,11.3203 -0.1368,2.8477 -1.418,5.5703 -3.5313,7.4883 -2.1836,1.9844 -4.8828,2.8008 -7.7891,2.8008 -5.8984,0 -10.5585,-5.6446 -10.289,-11.3203 0.1367,-2.8477 1.418,-5.5704 3.5273,-7.4883 C -5.6055,0.8164 -2.9062,0 0,0 Z"
               style="fill:#7dd1dd;fill-opacity:1;fill-rule:nonzero;stroke:none"
               id="path1869" /></g><g
             id="g1871"
             transform="translate(96.5703,321.3672)"><path
               d="m 0,0 c 5.8984,0 10.5586,5.6406 10.2891,11.3203 -0.1368,2.8477 -1.418,5.5703 -3.5274,7.4883 -2.1875,1.9844 -4.8867,2.8008 -7.793,2.8008 -5.8984,0 -10.5585,-5.6407 -10.289,-11.3203 0.1367,-2.8477 1.418,-5.5704 3.5273,-7.4883 C -5.6055,0.8164 -2.9062,0 0,0 Z"
               style="fill:#7dd1dd;fill-opacity:1;fill-rule:nonzero;stroke:none"
               id="path1873" /></g><g
             id="g1875"
             transform="translate(139.4336,319.1641)"><path
               d="m 0,0 c 5.8828,0 10.5312,5.625 10.2617,11.2852 -0.1367,2.8437 -1.414,5.5546 -3.5195,7.4687 -2.1758,1.9805 -4.8711,2.793 -7.7656,2.793 -5.8828,0 -10.5313,-5.625 -10.2618,-11.2852 C -11.1484,7.418 -9.8711,4.707 -7.7656,2.793 -5.5898,0.8125 -2.8945,0 0,0 Z"
               style="fill:#7dd1dd;fill-opacity:1;fill-rule:nonzero;stroke:none"
               id="path1877" /></g><g
             id="g1879"
             transform="translate(76.7344,265.2383)"><path
               d="m 0,0 c 0.082,-1.7148 0.5781,-3.3828 1.4219,-4.8555 0,0 0.5625,4.1407 0.5625,4.1407 0,0 1.2743,-0.4129 1.2743,-0.4129 0,0 -0.0087,0.0066 -0.0087,0.0066 0,0 15.9291,-5.0463 15.9291,-5.0463 1.5755,2.0362 2.4752,4.6098 2.3522,7.1908 -0.1368,2.8399 -1.4102,5.5508 -3.5157,7.4649 -2.1758,1.9765 -4.8672,2.789 -7.7617,2.789 C 4.375,11.2773 -0.2695,5.6562 0,0 Z"
               style="fill:#7dd1dd;fill-opacity:1;fill-rule:nonzero;stroke:none"
               id="path1881" /></g><g
             id="g1883"
             transform="translate(126.9297,257.8781)"><path
               d="m 0,0 c 0.0715,-1.5317 0.4765,-3.026 1.1638,-4.3786 0,0 5.2424,-0.3519 5.2424,-0.3519 0,0 3.7266,0.0235 3.7266,0.0235 0,0 4.9258,0.3164 4.9258,0.3164 0,0 5.4537,0.3288 5.4537,0.3288 0.7522,1.5833 1.1416,3.3363 1.058,5.0931 -0.1328,2.8437 -1.414,5.5585 -3.5195,7.4765 -2.1836,1.9805 -4.8789,2.793 -7.7813,2.793 C 4.3828,11.3008 -0.2695,5.668 0,0 Z"
               style="fill:#7dd1dd;fill-opacity:1;fill-rule:nonzero;stroke:none"
               id="path1885" /></g><g
             id="g1887"
             transform="translate(161.5312,284.1328)"><path
               d="m 0,0 c 5.8789,0 10.5234,5.6211 10.2539,11.2773 -0.1367,2.8399 -1.4141,5.5508 -3.5156,7.4649 -2.1758,1.9766 -4.8672,2.7891 -7.7617,2.7891 -5.8789,0 -10.5235,-5.6211 -10.2539,-11.2774 0.1367,-2.8398 1.414,-5.5508 3.5156,-7.4648 C -5.5859,0.8125 -2.8945,0 0,0 Z"
               style="fill:#7dd1dd;fill-opacity:1;fill-rule:nonzero;stroke:none"
               id="path1889" /></g><g
             id="g1891"
             transform="translate(172.9071,266.0824)"><path
               d="m 0,0 c 0.1297,-2.6949 1.2868,-5.2701 3.2006,-7.1617 0,0 5.2213,1.5211 5.2213,1.5211 0,0 3.1718,1.1015 3.1718,1.1015 0,0 3.2618,1.4141 3.2618,1.4141 0,0 2.8398,1.4141 2.8398,1.4141 0,0 3.8302,1.8579 3.8302,1.8579 0.0121,0.2916 0.0117,0.5839 -0.0021,0.8764 -0.1367,2.8399 -1.414,5.5469 -3.5156,7.461 -2.1758,1.9765 -4.8672,2.789 -7.7578,2.789 C 4.375,11.2734 -0.2656,5.6523 0,0 Z"
               style="fill:#7dd1dd;fill-opacity:1;fill-rule:nonzero;stroke:none"
               id="path1893" /></g><g
             id="g1895"
             transform="translate(214.168,281.7305)"><path
               d="m 0,0 c 5.8594,0 10.4922,5.6055 10.2227,11.2461 -0.1329,2.832 -1.4063,5.5352 -3.504,7.4414 -2.1718,1.9727 -4.8554,2.7813 -7.7421,2.7813 -5.8594,0 -10.4922,-5.6055 -10.2227,-11.2461 0.1328,-2.8321 1.4063,-5.5352 3.5039,-7.4415 C -5.5703,0.8086 -2.8867,0 0,0 Z"
               style="fill:#7dd1dd;fill-opacity:1;fill-rule:nonzero;stroke:none"
               id="path1897" /></g><g
             id="g1899"
             transform="translate(192.5781,319.457)"><path
               d="m 0,0 c 5.8867,0 10.5391,5.6289 10.2695,11.293 -0.1367,2.8437 -1.414,5.5586 -3.5234,7.4726 -2.1797,1.9805 -4.8711,2.7969 -7.7695,2.7969 -5.8868,0 -10.5391,-5.6289 -10.2696,-11.293 0.1368,-2.8437 1.4141,-5.5586 3.5235,-7.4726 C -5.5898,0.8164 -2.8984,0 0,0 Z"
               style="fill:#7dd1dd;fill-opacity:1;fill-rule:nonzero;stroke:none"
               id="path1901" /></g><g
             id="g1903"
             transform="translate(177.1211,360.3242)"><path
               d="m 0,0 c 5.8906,0 10.543,5.6328 10.2734,11.3047 -0.1367,2.8437 -1.414,5.5625 -3.5234,7.4766 -2.1797,1.9843 -4.8789,2.7968 -7.7813,2.7968 -5.8906,0 -10.5429,-5.6328 -10.2734,-11.3047 C -11.168,7.4297 -9.8906,4.7109 -7.7812,2.7969 -5.6016,0.8125 -2.9023,0 0,0 Z"
               style="fill:#7dd1dd;fill-opacity:1;fill-rule:nonzero;stroke:none"
               id="path1905" /></g><g
             id="g1907"
             transform="translate(129.9609,357.0273)"><path
               d="m 0,0 c 5.8906,0 10.5469,5.6367 10.2773,11.3086 -0.1367,2.8476 -1.414,5.5625 -3.5234,7.4805 -2.1836,1.9843 -4.8828,2.7968 -7.7852,2.7968 -5.8906,0 -10.5468,-5.6367 -10.2773,-11.3086 0.1367,-2.8476 1.4141,-5.5625 3.5234,-7.4804 C -5.6016,0.8125 -2.9023,0 0,0 Z"
               style="fill:#7dd1dd;fill-opacity:1;fill-rule:nonzero;stroke:none"
               id="path1909" /></g><g
             id="g1911"
             transform="translate(238.2266,348.7305)"><path
               d="m 0,0 c 5.9023,0 10.5664,5.6445 10.2969,11.3281 -0.1367,2.8516 -1.418,5.5742 -3.5313,7.4961 -2.1836,1.9844 -4.8906,2.8008 -7.7969,2.8008 -5.9023,0 -10.5664,-5.6445 -10.2968,-11.3281 0.1367,-2.8516 1.4179,-5.5742 3.5312,-7.4961 C -5.6133,0.8164 -2.9062,0 0,0 Z"
               style="fill:#7dd1dd;fill-opacity:1;fill-rule:nonzero;stroke:none"
               id="path1913" /></g><g
             id="g1915"
             transform="translate(219.0156,390.9062)"><path
               d="m 0,0 c 5.875,0 10.5156,5.6172 10.2461,11.2695 -0.1328,2.8399 -1.4102,5.5469 -3.5117,7.4571 -2.1758,1.9804 -4.8672,2.789 -7.7578,2.789 -5.875,0 -10.5157,-5.6172 -10.2461,-11.2695 0.1328,-2.8399 1.4101,-5.5469 3.5117,-7.457 C -5.582,0.8086 -2.8906,0 0,0 Z"
               style="fill:#7dd1dd;fill-opacity:1;fill-rule:nonzero;stroke:none"
               id="path1917" /></g><g
             id="g1919"
             transform="translate(275.6602,383.6367)"><path
               d="m 0,0 c 5.8906,0 10.5469,5.6367 10.2773,11.3086 -0.1367,2.8437 -1.4179,5.5625 -3.5234,7.4805 -2.1836,1.9804 -4.8828,2.7968 -7.7852,2.7968 -5.8906,0 -10.5468,-5.6367 -10.2773,-11.3086 0.1367,-2.8437 1.418,-5.5625 3.5234,-7.4804 C -5.6016,0.8164 -2.9023,0 0,0 Z"
               style="fill:#7dd1dd;fill-opacity:1;fill-rule:nonzero;stroke:none"
               id="path1921" /></g><g
             id="g1923"
             transform="translate(291.0664,338.5625)"><path
               d="m 0,0 c 5.8711,0 10.5078,5.6133 10.2383,11.2617 -0.1367,2.836 -1.4102,5.543 -3.5117,7.4531 C 4.5547,20.6875 1.8672,21.5 -1.0234,21.5 -6.8945,21.5 -11.5312,15.8867 -11.2617,10.2383 -11.125,7.4023 -9.8516,4.6953 -7.75,2.7852 -5.5781,0.8125 -2.8906,0 0,0 Z"
               style="fill:#7dd1dd;fill-opacity:1;fill-rule:nonzero;stroke:none"
               id="path1925" /></g><g
             id="g1927"
             transform="translate(332.6484,371.6367)"><path
               d="m 0,0 c 5.9102,0 10.5781,5.6523 10.3086,11.3398 -0.1367,2.8555 -1.4219,5.5782 -3.5352,7.504 -2.1875,1.9882 -4.8945,2.8046 -7.8047,2.8046 -5.9101,0 -10.5781,-5.6523 -10.3085,-11.3398 C -11.2031,7.4531 -9.918,4.7305 -7.8047,2.8047 -5.6172,0.8164 -2.9102,0 0,0 Z"
               style="fill:#7dd1dd;fill-opacity:1;fill-rule:nonzero;stroke:none"
               id="path1929" /></g><g
             id="g1931"
             transform="translate(332.0703,327.5547)"><path
               d="m 0,0 c 5.875,0 10.5156,5.6172 10.2461,11.2695 -0.1328,2.8399 -1.4102,5.5469 -3.5117,7.4571 -2.1758,1.9804 -4.8672,2.789 -7.7578,2.789 -5.875,0 -10.5157,-5.6172 -10.2461,-11.2695 0.1328,-2.8399 1.4101,-5.5469 3.5117,-7.457 C -5.582,0.8086 -2.8906,0 0,0 Z"
               style="fill:#7dd1dd;fill-opacity:1;fill-rule:nonzero;stroke:none"
               id="path1933" /></g><g
             id="g1935"
             transform="translate(375.1758,332.6836)"><path
               d="m 0,0 c 5.8672,0 10.5039,5.6094 10.2344,11.2578 -0.1328,2.8359 -1.4102,5.5391 -3.5078,7.4492 -2.1719,1.9766 -4.8594,2.7852 -7.75,2.7852 -5.8672,0 -10.5039,-5.6094 -10.2344,-11.2578 C -11.125,7.3984 -9.8477,4.6953 -7.75,2.7852 -5.5781,0.8086 -2.8906,0 0,0 Z"
               style="fill:#7dd1dd;fill-opacity:1;fill-rule:nonzero;stroke:none"
               id="path1937" /></g><g
             id="g1939"
             transform="translate(389.3867,292.3867)"><path
               d="m 0,0 c 5.8984,0 10.5586,5.6406 10.2891,11.3203 -0.1368,2.8477 -1.418,5.5703 -3.5274,7.4883 -2.1875,1.9844 -4.8867,2.8008 -7.793,2.8008 -5.8984,0 -10.5585,-5.6407 -10.289,-11.3203 0.1367,-2.8477 1.418,-5.5704 3.5273,-7.4883 C -5.6055,0.8164 -2.9062,0 0,0 Z"
               style="fill:#7dd1dd;fill-opacity:1;fill-rule:nonzero;stroke:none"
               id="path1941" /></g><g
             id="g1943"
             transform="translate(414.5781,258.293)"><path
               d="m 0,0 c 5.8672,0 10.5,5.6094 10.2305,11.2539 -0.1328,2.8359 -1.4063,5.5391 -3.5078,7.4453 -2.1719,1.9766 -4.8555,2.7852 -7.7461,2.7852 -5.8672,0 -10.5,-5.6094 -10.2305,-11.2539 0.1328,-2.836 1.4062,-5.5391 3.5078,-7.4453 C -5.5742,0.8086 -2.8906,0 0,0 Z"
               style="fill:#7dd1dd;fill-opacity:1;fill-rule:nonzero;stroke:none"
               id="path1945" /></g><g
             id="g1947"
             transform="translate(372.1316,234.415)"><path
               d="m 0,0 c 0.0887,-1.931 0.71,-3.8008 1.7584,-5.4 0,0 2.0424,0.3102 2.0424,0.3102 0,0 0.6403,0.1114 0.6403,0.1114 0,0 16.8011,3.0956 16.8011,3.0956 0.2266,0.9492 0.3281,1.9258 0.2812,2.9062 -0.1328,2.8399 -1.4101,5.5508 -3.5117,7.461 -2.1758,1.9804 -4.8672,2.789 -7.7617,2.789 C 4.3711,11.2734 -0.2695,5.6562 0,0 Z"
               style="fill:#7dd1dd;fill-opacity:1;fill-rule:nonzero;stroke:none"
               id="path1949" /></g><g
             id="g1951"
             transform="translate(355.8594,254.2773)"><path
               d="M 0,0 C 5.8828,0 10.5273,5.625 10.2578,11.2812 10.125,14.125 8.8477,16.8359 6.7422,18.75 c -2.1797,1.9766 -4.8711,2.7891 -7.7656,2.7891 -5.8828,0 -10.5274,-5.625 -10.2578,-11.2813 0.1328,-2.8437 1.4101,-5.5547 3.5156,-7.4687 C -5.5859,0.8125 -2.8945,0 0,0 Z"
               style="fill:#7dd1dd;fill-opacity:1;fill-rule:nonzero;stroke:none"
               id="path1953" /></g><g
             id="g1955"
             transform="translate(343.957,292.875)"><path
               d="m 0,0 c 5.8594,0 10.4922,5.6055 10.2227,11.2461 -0.1329,2.832 -1.4063,5.5352 -3.504,7.4414 -2.1718,1.9727 -4.8554,2.7813 -7.7421,2.7813 -5.8594,0 -10.4922,-5.6055 -10.2227,-11.2461 0.1328,-2.8321 1.4063,-5.5352 3.5039,-7.4415 C -5.5703,0.8086 -2.8867,0 0,0 Z"
               style="fill:#7dd1dd;fill-opacity:1;fill-rule:nonzero;stroke:none"
               id="path1957" /></g><g
             id="g1959"
             transform="translate(300.7422,293.4336)"><path
               d="m 0,0 c 5.8789,0 10.5195,5.6211 10.25,11.2734 -0.1328,2.8399 -1.4102,5.5508 -3.5156,7.461 -2.1758,1.9765 -4.8633,2.789 -7.7578,2.789 -5.8789,0 -10.5196,-5.6211 -10.25,-11.2734 0.1328,-2.8398 1.4101,-5.5508 3.5156,-7.4609 C -5.582,0.8125 -2.8945,0 0,0 Z"
               style="fill:#7dd1dd;fill-opacity:1;fill-rule:nonzero;stroke:none"
               id="path1961" /></g><g
             id="g1963"
             transform="translate(308.9414,251.1211)"><path
               d="m 0,0 c 5.8633,0 10.4961,5.6055 10.2266,11.25 -0.1329,2.832 -1.4063,5.5352 -3.5079,7.4453 -2.1679,1.9727 -4.8554,2.7813 -7.7421,2.7813 -5.8633,0 -10.4961,-5.6055 -10.2266,-11.25 0.1328,-2.8321 1.4063,-5.5352 3.5078,-7.4454 C -5.5742,0.8086 -2.8867,0 0,0 Z"
               style="fill:#7dd1dd;fill-opacity:1;fill-rule:nonzero;stroke:none"
               id="path1965" /></g><g
             id="g1967"
             transform="translate(313.4364,230.1503)"><path
               d="m 0,0 c 0.0414,-0.8968 0.1959,-1.779 0.4557,-2.6292 0,0 2.4741,-0.243 2.4741,-0.243 0,0 1.1952,-0.0731 1.1952,-0.0731 0,0 3.5898,-0.2891 3.5898,-0.2891 0,0 3.9102,-0.1406 3.9102,-0.1406 0,0 3.9297,-0.0312 3.9297,-0.0312 0,0 5.0898,-0.1797 5.0898,-0.1797 0.6133,1.4531 0.9219,3.0273 0.8477,4.6093 -0.1328,2.836 -1.4063,5.543 -3.5078,7.4493 -2.1719,1.9765 -4.8594,2.7851 -7.75,2.7851 C 4.3672,11.2578 -0.2695,5.6484 0,0 Z"
               style="fill:#7dd1dd;fill-opacity:1;fill-rule:nonzero;stroke:none"
               id="path1969" /></g><g
             id="g1971"
             transform="translate(263.5457,237.7277)"><path
               d="m 0,0 c 0.0095,-0.2029 0.0251,-0.4052 0.0462,-0.6065 0,0 4.4147,-1.3232 4.4147,-1.3232 0,0 4.3399,-1.0234 4.3399,-1.0234 0,0 4.4922,-1.1289 4.4922,-1.1289 0,0 6.2284,-1.5456 6.2284,-1.5456 1.3321,1.9397 2.0756,4.2922 1.963,6.651 -0.1328,2.836 -1.4102,5.5391 -3.5078,7.4453 -2.1719,1.9766 -4.8594,2.7852 -7.7461,2.7852 C 4.3633,11.2539 -0.2695,5.6445 0,0 Z"
               style="fill:#7dd1dd;fill-opacity:1;fill-rule:nonzero;stroke:none"
               id="path1973" /></g><g
             id="g1975"
             transform="translate(266.9297,264.4805)"><path
               d="m 0,0 c 5.8789,0 10.5234,5.6211 10.2539,11.2773 -0.1367,2.8399 -1.4141,5.5508 -3.5156,7.4649 -2.1758,1.9766 -4.8672,2.7891 -7.7617,2.7891 -5.8789,0 -10.5235,-5.6211 -10.2539,-11.2774 0.1367,-2.8398 1.414,-5.5508 3.5156,-7.4648 C -5.5859,0.8125 -2.8945,0 0,0 Z"
               style="fill:#7dd1dd;fill-opacity:1;fill-rule:nonzero;stroke:none"
               id="path1977" /></g><g
             id="g1979"
             transform="translate(252.2461,305.8711)"><path
               d="m 0,0 c 5.8789,0 10.5195,5.6211 10.25,11.2734 -0.1328,2.8399 -1.4102,5.5508 -3.5156,7.461 -2.1758,1.9765 -4.8633,2.789 -7.7578,2.789 -5.8789,0 -10.5196,-5.6211 -10.25,-11.2734 0.1328,-2.8398 1.4101,-5.5508 3.5156,-7.4609 C -5.582,0.8125 -2.8945,0 0,0 Z"
               style="fill:#7dd1dd;fill-opacity:1;fill-rule:nonzero;stroke:none"
               id="path1981" /></g><g
             id="g1983"
             transform="translate(216.6988,261.6076)"><path
               d="m 0,0 c 0,0 2.5383,-1.9169 2.5383,-1.9169 0,0 2.6758,-1.9532 2.6758,-1.9532 0,0 3.2578,-2.2968 3.2578,-2.2968 0,0 3.2344,-2.1915 3.2344,-2.1915 0,0 5.8846,-3.8472 5.8846,-3.8472 1.8533,2.1197 2.9408,4.9387 2.8068,7.7652 -0.1367,2.8555 -1.4219,5.5782 -3.5352,7.5 C 14.675,5.0479 11.9719,5.8643 9.0617,5.8643 5.127,5.8643 1.7418,3.3553 0,0 Z"
               style="fill:#7dd1dd;fill-opacity:1;fill-rule:nonzero;stroke:none"
               id="path1985" /></g><g
             id="g1987"
             transform="translate(338.9531,388.8594)"><path
               d="m 0,0 c 47.3984,-28.7188 78.8828,-79.4336 78.8828,-137.1992 0,-89.5508 -75.6562,-162.1445 -168.9805,-162.1445 -93.3242,0 -168.9804,72.5937 -168.9804,162.1445 0,89.2617 75.1679,161.6758 168.0742,162.1406 0.0703,0 0.1406,0.0039 0.2109,0.0039 0.0742,0 0.1407,0 0.2149,0 0.1601,0 0.3203,0 0.4804,0 0.1719,0 0.3438,0 0.5157,0 0.0586,0 0.1054,0 0.164,0 0.1172,0 0.2383,-0.0039 0.3594,-0.0039 0.0625,0 0.125,0 0.1875,0 0.1133,0 0.2266,-0.0039 0.3359,-0.0039 0.0586,0 0.125,0 0.1836,0 0.1094,0 0.2188,-0.0039 0.3282,-0.0039 0.0781,0 0.1445,-0.0039 0.2265,-0.0039 0.0899,0 0.1836,0 0.2774,-0.0039 0.0781,0 0.1562,0 0.2343,-0.0039 0.0977,0 0.1954,0 0.293,-0.0039 0.0742,0 0.1524,-0.0039 0.2266,-0.0039 0.1211,-0.0039 0.25,-0.0039 0.3711,-0.0078 0.0468,0 0.082,0 0.1289,0 0.1679,-0.004 0.3398,-0.0079 0.5078,-0.0118 0.0703,-0.0039 0.1328,-0.0039 0.2031,-0.0078 0.1055,0 0.207,-0.0039 0.3125,-0.0078 0.0781,0 0.1484,-0.0039 0.2305,-0.0039 0.0937,-0.0039 0.1875,-0.0078 0.2812,-0.0117 0.0782,0 0.1602,-0.0039 0.2383,-0.0039 0.0938,-0.0039 0.1875,-0.0078 0.2774,-0.0117 0.0781,0 0.164,-0.0039 0.246,-0.0079 0.086,-0.0039 0.1719,-0.0039 0.2579,-0.0078 0.0859,-0.0039 0.1679,-0.0078 0.2539,-0.0117 0.0898,0 0.1836,-0.0039 0.2734,-0.0078 0.0781,-0.0039 0.1523,-0.0078 0.2344,-0.0078 0.0976,-0.0078 0.1992,-0.0117 0.2969,-0.0156 0.0703,0 0.1445,-0.0039 0.2109,-0.0078 0.1016,-0.004 0.207,-0.0079 0.3086,-0.0118 0.332,-0.0156 0.6758,-0.0312 1.0039,-0.0507 0.0664,0 0.1289,-0.004 0.1914,-0.0079 0.0898,-0.0039 0.1914,-0.0117 0.2812,-0.0156 0.0743,-0.0039 0.1524,-0.0078 0.2305,-0.0117 0.0899,-0.0039 0.1914,-0.0117 0.2813,-0.0156 0.0703,-0.0039 0.1445,-0.0078 0.2187,-0.0117 0.0938,-0.004 0.2031,-0.0118 0.3008,-0.0157 0.0586,-0.0039 0.1172,-0.0078 0.1758,-0.0117 0.1133,-0.0078 0.2265,-0.0156 0.3398,-0.0195 0.0508,-0.0039 0.0977,-0.0078 0.1446,-0.0117 0.1132,-0.0079 0.2343,-0.0118 0.3476,-0.0196 0.043,-0.0039 0.0899,-0.0078 0.1367,-0.0117 0.5742,-0.0351 1.1446,-0.0742 1.7227,-0.1172 0.0273,-0.0039 0.0586,-0.0078 0.0859,-0.0078 0.1289,-0.0117 0.2578,-0.0195 0.3867,-0.0312 0.0352,0 0.0664,-0.0039 0.0977,-0.0079 0.1328,-0.0078 0.2539,-0.0195 0.3906,-0.0312 0.0313,0 0.0664,-0.0039 0.0977,-0.0078 0.1289,-0.0078 0.2656,-0.0195 0.3945,-0.0313 0.0274,-0.0039 0.0508,-0.0039 0.0781,-0.0078 0.1368,-0.0078 0.2774,-0.0234 0.4102,-0.0351 0.0195,0 0.0391,0 0.0586,-0.0039 C -47.6367,21.9453 -22.3555,13.4492 -0.4531,0.2734 -0.418,0.25 -0.3828,0.2305 -0.3437,0.207 -0.2695,0.1641 -0.1992,0.1211 -0.125,0.0742 -0.082,0.0508 -0.043,0.0234 0,0 Z m -88.9531,-334.3594 c 111.8359,0 202.5,87.5274 202.5,195.5 0,107.9727 -90.6641,195.5 -202.5,195.5 -111.836,0 -202.5,-87.5273 -202.5,-195.5 0,-107.9726 90.664,-195.5 202.5,-195.5 z"
               style="fill:#919394;fill-opacity:1;fill-rule:nonzero;stroke:none"
               id="path1989" /></g></g></g></g></g></svg>
