<?xml version="1.0" encoding="UTF-8" standalone="no"?>
<!-- Created with Inkscape (http://www.inkscape.org/) -->

<svg
   version="1.1"
   id="svg435"
   xml:space="preserve"
   width="666.66669"
   height="666.66669"
   viewBox="0 0 666.66669 666.66669"
   sodipodi:docname="icon_branches.svg"
   inkscape:version="1.1.1 (3bf5ae0d25, 2021-09-20)"
   xmlns:inkscape="http://www.inkscape.org/namespaces/inkscape"
   xmlns:sodipodi="http://sodipodi.sourceforge.net/DTD/sodipodi-0.dtd"
   xmlns="http://www.w3.org/2000/svg"
   xmlns:svg="http://www.w3.org/2000/svg"><defs
     id="defs439"><clipPath
       clipPathUnits="userSpaceOnUse"
       id="clipPath451"><path
         d="M 61.1641,90.2266 H 467.66 V 482.125 H 61.1641 Z"
         id="path449" /></clipPath></defs><sodipodi:namedview
     id="namedview437"
     pagecolor="#ffffff"
     bordercolor="#111111"
     borderopacity="1"
     inkscape:pageshadow="0"
     inkscape:pageopacity="0"
     inkscape:pagecheckerboard="1"
     showgrid="false"
     inkscape:zoom="0.91428904"
     inkscape:cx="374.60801"
     inkscape:cy="416.17036"
     inkscape:window-width="1920"
     inkscape:window-height="1051"
     inkscape:window-x="-9"
     inkscape:window-y="-9"
     inkscape:window-maximized="1"
     inkscape:current-layer="g441" /><g
     id="g441"
     inkscape:groupmode="layer"
     inkscape:label="icon_branches"
     transform="matrix(1.3333333,0,0,-1.3333333,0,666.66667)"><g
       id="g443"
       transform="matrix(1,0,0,-1,-13.299845,537.45568)"><g
         id="g445"><g
           id="g447"
           clip-path="url(#clipPath451)"><g
             id="g453"
             transform="translate(199.3398,262.3906)"><path
               d="m 0,0 c 0,0 30.6172,83.4297 30.6172,83.4297 0,0 -26.8594,8.9492 -26.8594,8.9492 0,0 -12.5117,-54.7969 -12.5117,-54.7969 0,0 -49.4375,-23.0781 -49.4375,-23.0781 0,0 -9.1055,-35.9609 -9.1055,-35.9609 0,0 23.8164,32.2148 23.8164,32.2148 0,0 31.4219,14.6953 31.4219,14.6953 0,0 -13.2656,-54.3476 -13.2656,-54.3476 0,0 -32.9961,-16.9297 -32.9961,-16.9297 0,0 -2.8711,-3.2422 -2.8711,-3.2422 0,0 -10.8984,-18.1875 -10.8984,-18.1875 0,0 3.3984,2.9219 3.3984,2.9219 0,0 -0.0039,-0.0274 -0.0039,-0.0274 0,0 5.2305,4.2422 5.2305,4.2422 0,0 1.2187,0.8086 1.2187,0.8086 0,0 0.0977,0.0664 0.0977,0.0664 0,0 34.6289,22.1133 34.6289,22.1133 0,0 -0.0157,-0.0547 -0.0157,-0.0547 0,0 0,-0.0039 0,-0.0039 0,0 -2.3046,-9.3164 -2.3046,-9.3164 0,0 -4.9571,-20.0508 -4.9571,-20.0508 0,0 8.0664,-2.8945 8.0664,-2.8945 0,0 9.8516,25.2578 9.8516,25.2578 0,0 0.0039,0.0039 0.0039,0.0039 0,0 8.4688,21.6953 8.4688,21.6953 0,0 0.3828,-0.3437 0.3828,-0.3437 0,0 16.6601,-14.9766 16.6601,-14.9766 0,0 0.543,-0.4883 0.543,-0.4883 0,0 14.3516,-2.1601 14.3516,-2.1601 0,0 2.082,-0.3125 2.082,-0.3125 0,0 -2.1641,3.5117 -2.1641,3.5117 0,0 -10.3476,16.8047 -10.3476,16.8047 0,0 -4.8321,7.8515 -4.8321,7.8515 C 8.2695,-12.6055 0,0 0,0 Z"
               style="fill:#000000;fill-opacity:1;fill-rule:nonzero;stroke:none"
               id="path455" /></g><g
             id="g457"
             transform="translate(417.2695,224.8242)"><path
               d="m 0,0 c 0,0 -0.4844,28.707 -0.4844,28.707 0,0 -28.1054,47.125 -28.1054,47.125 0,0 -3.0899,4.4297 -3.0899,4.4297 0,0 -0.4101,0.6172 -0.4101,0.6172 0,0 0.0039,0 0.0039,0 0,0 -1.5469,2.2734 -1.5469,2.2734 0,0 -54.8867,27.4375 -54.8867,27.4375 0,0 -18.0743,107.6719 -18.0743,107.6719 0,0 -38.4765,-9.1562 -38.4765,-9.1562 0,0 22.4062,-65.2344 22.4062,-65.2344 0,0 -36.6171,-56.0547 -36.6171,-56.0547 0,0 13.7656,-43.3906 13.7656,-43.3906 0,0 3.9922,49 3.9922,49 0,0 23.2578,35.6562 23.2578,35.6562 0,0 21.3359,-65.25 21.3359,-65.25 0,0 -23.4531,-39 -23.4531,-39 0,0 -11.2227,-65.2422 -11.2227,-65.2422 0,0 12.3789,39.2266 12.3789,39.2266 0,0 0.0118,-0.0273 0.0118,-0.0273 0,0 2.7109,7.8086 2.7109,7.8086 0,0 0.8047,1.7617 0.8047,1.7617 0,0 21.8047,45.4648 21.8047,45.4648 0,0 0.0195,-0.0586 0.0195,-0.0586 0,-0.0039 0,-0.0078 0,-0.0117 0,0 3.625,-11.207 3.625,-11.207 0,0 0.0039,0 0.0039,0 0,0 7.8008,-24.1133 7.8008,-24.1133 0,0 10.2851,2.1953 10.2851,2.1953 0,0 -6.0703,32.7227 -6.0703,32.7227 0,0 -5.2109,28.1054 -5.2109,28.1054 0,0 0.6289,-0.1132 0.6289,-0.1132 0,0 34.4883,-6.168 34.4883,-6.168 0,0 36.3476,-50.5781 36.3476,-50.5781 0,0 8.3204,-16.8516 8.3204,-16.8516 0,0 -0.0118,-0.0234 -0.0118,-0.0234 0,0 1.8907,-4.1016 1.8907,-4.1016 C -1.7773,3.6211 0,0 0,0 Z"
               style="fill:#000000;fill-opacity:1;fill-rule:nonzero;stroke:none"
               id="path459" /></g><g
             id="g461"
             transform="translate(224.9531,221.6172)"><path
               d="m 0,0 c 0,0 -2.1641,3.5117 -2.1641,3.5117 -0.0273,-0.3906 -0.039,-0.7812 -0.039,-1.1758 0,-0.6836 0.039,-1.3593 0.1211,-2.0234 C -2.082,0.3125 0,0 0,0 Z"
               style="fill:#ffffff;fill-opacity:1;fill-rule:nonzero;stroke:none"
               id="path463" /></g><g
             id="g465"
             transform="translate(224.9531,221.6172)"><path
               d="m 0,0 c 0,0 -2.1641,3.5117 -2.1641,3.5117 0,0 -10.3476,16.8047 -10.3476,16.8047 -0.5469,-0.7617 -1.0469,-1.5625 -1.5,-2.3984 -2.3828,-4.3321 -3.4414,-9.7657 -2.9649,-14.9571 0,0 0.543,-0.4882 0.543,-0.4882 0,0 14.3516,-2.1602 14.3516,-2.1602 C -2.082,0.3125 0,0 0,0 Z"
               style="fill:#000000;fill-opacity:1;fill-rule:nonzero;stroke:none"
               id="path467" /></g><g
             id="g469"
             transform="translate(290.3176,397.6951)"><path
               d="m 0,0 c -0.1443,-0.9486 -0.0067,-1.8667 0.2486,-2.7772 0.4754,-1.7395 1.0927,-3.4269 1.7729,-5.0919 0.7676,-1.8884 1.5397,-3.7651 2.362,-5.6347 1.5197,-3.4737 3.0881,-6.9262 4.6485,-10.3822 1.6288,-3.6248 3.2658,-7.246 4.8377,-10.8955 0.8166,-1.901 1.6915,-3.7912 2.4592,-5.7134 0.814,-2.0619 1.6338,-4.126 2.4559,-6.1845 0.7111,-1.7918 1.4012,-3.5687 2.0332,-5.3902 0.8499,-2.4674 1.702,-4.9291 2.5575,-7.3984 0.6909,-2.369 1.3818,-4.7376 2.0748,-7.1009 0.5591,-1.921 1.0271,-3.8331 1.4873,-5.7826 0.5089,-2.1509 1.0936,-4.2979 1.4977,-6.475 0.4616,-2.5154 0.9304,-5.0274 1.3928,-7.5424 0.7349,-4.7345 1.4283,-9.4723 2.062,-14.227 0.5615,-4.2283 0.8317,-8.4767 1.08,-12.7324 0.0508,-1.9338 0.1028,-3.8605 0.1076,-5.7875 0,0 3.6259,-11.2095 3.6259,-11.2095 1.555,0.1962 2.9794,1.4099 3.1591,3.035 0.2068,1.9634 0.4449,3.9549 0.4475,5.9312 -0.0027,2.1337 -0.0218,4.2603 -0.0864,6.3913 -0.0651,2.4389 -0.2036,4.869 -0.3924,7.2985 0.318,-1.9972 0.6581,-3.9923 0.9057,-5.9958 0.3341,-2.6287 0.6648,-5.2492 0.9651,-7.8781 0.5644,-4.9353 1.0843,-9.8662 1.4078,-14.8226 0.0878,-2.3045 0.2793,-4.6585 0.1081,-6.9521 -0.145,-1.9607 1.644,-3.6375 3.5249,-3.6768 2.0419,-0.042 3.5283,1.5724 3.671,3.5273 0.1363,1.836 0.0042,3.7101 -0.0601,5.5508 -0.0621,1.8804 -0.1336,3.7712 -0.3053,5.6476 -0.3603,4.0697 -0.7951,8.1214 -1.2613,12.1789 -0.0216,0.1909 -0.0435,0.3812 -0.0655,0.572 0,0 -5.21,28.1033 -5.21,28.1033 0,0 0.627,-0.1121 0.627,-0.1121 -0.4184,2.0773 -0.8546,4.1509 -1.3335,6.2146 -0.4542,1.9472 -0.8538,3.9133 -1.3685,5.8438 -0.4984,1.9037 -0.9397,3.8324 -1.4986,5.7195 -1.133,3.787 -2.2415,7.5847 -3.6073,11.2947 -1.387,3.7589 -2.8008,7.5014 -4.3298,11.2083 -2.9657,7.1682 -6.1468,14.2525 -9.2976,21.3452 -3.2322,7.2799 -6.4073,14.5846 -9.878,21.7561 -0.7825,1.6109 -1.6314,3.2074 -2.5139,4.7699 C 9.7668,-2.411 9.222,-1.4474 8.6586,-0.4964 8.4305,-0.1163 8.1896,0.2486 7.9568,0.617 7.7805,0.8889 7.6158,1.19 7.4186,1.4432 7.0242,1.9495 6.6082,2.3496 6.1049,2.7505 4.5499,4.011 2.2608,3.6308 1.0349,2.1297 0.6981,1.7193 0.4064,1.2641 0.2123,0.7715 0.1145,0.5235 0.0415,0.2661 0,0 Z"
               style="fill:#ffffff;fill-opacity:1;fill-rule:nonzero;stroke:none"
               id="path471" /></g><g
             id="g473"
             transform="translate(272.2008,433.9277)"><path
               d="m 0,0 c 0,0 22.4063,-65.2305 22.4063,-65.2305 0,0 -36.6172,-56.0547 -36.6172,-56.0547 0,0 13.7656,-43.3906 13.7656,-43.3906 0,0 3.9922,49 3.9922,49 0,0 23.2578,35.6563 23.2578,35.6563 0,0 21.3359,-65.2539 21.3359,-65.2539 0,0 -23.4531,-39 -23.4531,-39 0,0 -11.2227,-65.2383 -11.2227,-65.2383 0,0 12.5586,39.789 12.5586,39.789 0,0 0.0118,-0.0117 0.0118,-0.0117 0,0 1.5078,4.6446 1.5078,4.6446 0,0 -0.1641,0.1875 -0.1641,0.1875 0,0 0.7109,1.4804 0.7109,1.4804 0,0 0.2383,0.7344 0.2383,0.7344 0,0 0.0039,0.0117 0.0039,0.0117 0,0 0.0743,-0.082 0.0743,-0.082 0,0 22.7695,47.4766 22.7695,47.4766 0,0 11.4492,-35.3907 11.4492,-35.3907 0,0 10.2852,2.1992 10.2852,2.1992 0,0 -11.2813,60.8243 -11.2813,60.8243 0,0 35.1172,-6.2774 35.1172,-6.2774 0,0 36.3476,-50.582 36.3476,-50.582 0,0 8.3204,-16.8516 8.3204,-16.8516 0,0 -0.0118,-0.0195 -0.0118,-0.0195 0,0 1.8907,-4.1055 1.8907,-4.1055 0,0 0,0.004 0,0.004 0,0 1.7775,-3.6244 1.7775,-3.6244 0,0 -0.486,28.708 -0.486,28.708 0,0 -28.104,47.1235 -28.104,47.1235 0,0 -3.0899,4.4336 -3.0899,4.4336 0,0 -0.4101,0.6171 -0.4101,0.6171 0,0 0.004,0 0.004,0 0,0 -1.5469,2.2735 -1.5469,2.2735 0,0 -54.8867,27.4336 -54.8867,27.4336 0,0 -18.0742,107.6758 -18.0742,107.6758 C 38.4766,9.1602 0,0 0,0 Z"
               style="fill:#ffffff;fill-opacity:1;fill-rule:nonzero;stroke:none"
               id="path475" /></g><g
             id="g477"
             transform="translate(297.1921,225.9)"><path
               d="m 0,0 c 0,0 0.8634,-2.2887 0.8634,-2.2887 0,0 2.7109,7.8092 2.7109,7.8092 0,0 0.8022,1.7647 0.8022,1.7647 0,0 -3.0461,-2.2693 -3.0461,-2.2693 C 1.3304,5.0159 0,0 0,0 Z"
               style="fill:#ffffff;fill-opacity:1;fill-rule:nonzero;stroke:none"
               id="path479" /></g><g
             id="g481"
             transform="translate(200.0771,321.8935)"><path
               d="m 0,0 c -0.5075,-0.5948 -0.8066,-1.2897 -1.021,-2.0298 -0.4182,-1.4087 -0.7157,-2.8423 -0.9601,-4.2874 -0.2797,-1.6373 -0.5514,-3.2686 -0.7852,-4.9164 -0.4401,-3.0581 -0.8373,-6.1225 -1.2417,-9.186 -0.4295,-3.2096 -0.8517,-6.4203 -1.3312,-9.6226 -0.2513,-1.6671 -0.4576,-3.3518 -0.7518,-5.0126 -0.3222,-1.7774 -0.6414,-3.5589 -0.9565,-5.3373 -0.2774,-1.5463 -0.563,-3.0731 -0.9079,-4.6059 -0.4716,-2.0736 -0.9392,-4.1442 -1.4076,-6.2215 -0.5394,-1.9372 -1.0787,-3.8741 -1.6141,-5.8083 -0.4382,-1.5703 -0.9356,-3.0953 -1.4545,-4.6429 -0.5717,-1.7079 -1.0893,-3.4458 -1.7448,-5.127 -0.761,-1.9399 -1.5156,-3.8807 -2.276,-5.8208 -1.5252,-3.594 -3.0805,-7.1725 -4.6844,-10.7369 -1.4278,-3.169 -3.0659,-6.2268 -4.7223,-9.2802 -0.7956,-1.3608 -1.5873,-2.7173 -2.412,-4.0536 0,0 -2.3051,-9.3195 -2.3051,-9.3195 1.1609,-0.5322 2.6687,-0.3037 3.4913,0.7442 0.9867,1.2707 2.0071,2.5474 2.8581,3.9147 0.9147,1.4786 1.8151,2.9593 2.6859,4.4626 1.0028,1.7167 1.9508,3.4588 2.8639,5.2222 -0.6379,-1.5196 -1.2595,-3.0471 -1.9488,-4.5407 -0.8979,-1.9637 -1.7949,-3.9203 -2.7163,-5.8696 -1.7295,-3.6598 -3.488,-7.2974 -5.3934,-10.8683 -0.9292,-1.6334 -1.8079,-3.3457 -2.9119,-4.8602 -0.9427,-1.2954 -0.4244,-3.225 0.8612,-4.0603 1.3957,-0.9063 3.1185,-0.4271 4.0572,0.8653 0.8831,1.2126 1.5969,2.5671 2.3432,3.8693 0.7648,1.3287 1.5276,2.6686 2.2148,4.0416 1.499,2.9727 2.9387,5.9651 4.359,8.9748 0.0671,0.1415 0.1337,0.2827 0.2004,0.4242 0,0 8.4663,21.6977 8.4663,21.6977 0,0 0.386,-0.347 0.386,-0.347 0.6028,1.6182 1.1916,3.2413 1.7466,4.8761 0.522,1.5433 1.09,3.0764 1.563,4.6342 0.4728,1.5324 0.9958,3.0574 1.4195,4.6042 0.8425,3.109 1.7065,6.2148 2.3547,9.3705 0.6546,3.1986 1.2835,6.3974 1.8174,9.621 1.026,6.2376 1.867,12.5095 2.7325,18.7743 0.8896,6.4294 1.8292,12.8515 2.5071,19.3082 0.1503,1.4516 0.2484,2.9217 0.3086,4.3828 0.0368,0.9014 0.0736,1.8028 0.0921,2.7032 0.0052,0.3612 -0.0048,0.7174 -0.0077,1.0725 -0.0053,0.264 0.01,0.5433 -0.0177,0.8033 -0.0556,0.52 -0.1717,0.9758 -0.348,1.4696 C 4.8736,0.8226 3.1252,1.5428 1.6315,1.0301 1.222,0.8905 0.8245,0.7007 0.4784,0.443 0.3042,0.3133 0.1431,0.1664 0,0 Z"
               style="fill:#ffffff;fill-opacity:1;fill-rule:nonzero;stroke:none"
               id="path483" /></g><g
             id="g485"
             transform="translate(190.5871,299.9712)"><path
               d="m 0,0 c 0,0 -49.4375,-23.0781 -49.4375,-23.0781 0,0 -9.1055,-35.961 -9.1055,-35.961 0,0 23.8164,32.2149 23.8164,32.2149 0,0 31.4219,14.6953 31.4219,14.6953 0,0 -13.2656,-54.3477 -13.2656,-54.3477 0,0 -32.9961,-16.9297 -32.9961,-16.9297 0,0 -2.8738,-3.2394 -2.8738,-3.2394 0,0 -10.8952,-18.1872 -10.8952,-18.1872 0,0 3.7612,3.2313 3.7612,3.2313 0,0 0.0039,-0.0117 0.0039,-0.0117 0,0 3.043,2.5664 3.043,2.5664 0,0 -0.0352,0.2031 -0.0352,0.2031 0,0 1.1328,0.7188 1.1328,0.7188 0,0 0.4805,0.4062 0.4805,0.4062 0,0 0.0039,0.004 0.0039,0.004 0,0 0.0195,-0.0899 0.0195,-0.0899 0,0 36.1602,23.0938 36.1602,23.0938 0,0 -7.2774,-29.4258 -7.2774,-29.4258 0,0 8.0664,-2.8946 8.0664,-2.8946 0,0 18.3203,46.961 18.3203,46.961 0,0 17.5899,-15.8125 17.5899,-15.8125 0,0 16.4336,-2.4727 16.4336,-2.4727 0,0 -17.3438,28.168 -17.3438,28.168 0,0 -8.2695,12.6055 -8.2695,12.6055 0,0 30.6172,83.4297 30.6172,83.4297 0,0 -26.8594,8.9492 -26.8594,8.9492 C 12.5117,54.7969 0,0 0,0 Z"
               style="fill:#ffffff;fill-opacity:1;fill-rule:nonzero;stroke:none"
               id="path487" /></g><g
             id="g489"
             transform="translate(131.0303,199.9855)"><path
               d="m 0,0 c 0,0 -0.3854,-1.9557 -0.3854,-1.9557 0,0 5.2321,4.2426 5.2321,4.2426 0,0 1.3135,0.8772 1.3135,0.8772 0,0 -3.0841,-0.2626 -3.0841,-0.2626 C 3.0761,2.9015 0,0 0,0 Z"
               style="fill:#ffffff;fill-opacity:1;fill-rule:nonzero;stroke:none"
               id="path491" /></g><g
             id="g493"
             transform="translate(229.957,345.8203)"><path
               d="m 0,0 c 0,0 -30.6172,-83.4297 -30.6172,-83.4297 0,0 8.2695,-12.6055 8.2695,-12.6055 0,0 4.8321,-7.8515 4.8321,-7.8515 0,0 10.3476,-16.8047 10.3476,-16.8047 0,0 2.1641,-3.5117 2.1641,-3.5117 0,0 -2.082,0.3125 -2.082,0.3125 0,0 -14.3516,2.1601 -14.3516,2.1601 0,0 -0.543,0.4883 -0.543,0.4883 0,0 -16.6601,14.9766 -16.6601,14.9766 0,0 -0.3828,0.3437 -0.3828,0.3437 0,0 -8.4688,-21.6953 -8.4688,-21.6953 0,0 -0.0039,-0.004 -0.0039,-0.004 0,0 -9.8516,-25.2578 -9.8516,-25.2578 0,0 -8.0664,2.8945 -8.0664,2.8945 0,0 4.9571,20.0508 4.9571,20.0508 0,0 2.3047,9.3164 2.3047,9.3164 0,0 0,0.004 0,0.004 0,0 0.0156,0.0547 0.0156,0.0547 0,0 -34.6289,-22.1133 -34.6289,-22.1133 0,0 -0.0977,-0.0664 -0.0977,-0.0664 0,0 -1.2187,-0.8086 -1.2187,-0.8086 0,0 -5.2305,-4.2422 -5.2305,-4.2422 0,0 0.0039,0.0274 0.0039,0.0274 0,0 -3.3984,-2.9219 -3.3984,-2.9219 0,0 10.8984,18.1875 10.8984,18.1875 0,0 2.8711,3.2422 2.8711,3.2422 0,0 32.9961,16.9297 32.9961,16.9297 0,0 13.2656,54.3476 13.2656,54.3476 0,0 -31.4219,-14.6953 -31.4219,-14.6953 0,0 -23.8164,-32.2148 -23.8164,-32.2148 0,0 9.1055,35.9609 9.1055,35.9609 0,0 49.4375,23.0781 49.4375,23.0781 0,0 12.5117,54.7969 12.5117,54.7969 C -26.8594,8.9492 0,0 0,0 Z m 186.8281,-92.2891 c 0,0 0.4844,-28.707 0.4844,-28.707 0,0 -1.7773,3.6211 -1.7773,3.6211 0,0 -1.8907,4.1016 -1.8907,4.1016 0,0 0.0117,0.0234 0.0117,0.0234 0,0 -8.3203,16.8516 -8.3203,16.8516 0,0 -36.3476,50.5781 -36.3476,50.5781 0,0 -34.4883,6.168 -34.4883,6.168 0,0 -0.6289,0.1132 -0.6289,0.1132 0,0 5.2109,-28.1054 5.2109,-28.1054 0,0 6.0703,-32.7227 6.0703,-32.7227 0,0 -10.2851,-2.1953 -10.2851,-2.1953 0,0 -7.8008,24.1133 -7.8008,24.1133 0,0 -0.0039,0 -0.0039,0 0,0 -3.625,11.207 -3.625,11.207 0,0.0039 0,0.0078 0,0.0117 0,0 -0.0195,0.0586 -0.0195,0.0586 0,0 -21.8047,-45.4648 -21.8047,-45.4648 0,0 -0.8047,-1.7617 -0.8047,-1.7617 0,0 -2.7109,-7.8086 -2.7109,-7.8086 0,0 -0.0118,0.0273 -0.0118,0.0273 0,0 -12.3789,-39.2265 -12.3789,-39.2265 0,0 11.2227,65.2421 11.2227,65.2421 0,0 23.4531,39 23.4531,39 0,0 -21.3359,65.25 -21.3359,65.25 0,0 -23.2578,-35.6562 -23.2578,-35.6562 0,0 -3.9922,-49 -3.9922,-49 0,0 -13.7656,43.3906 -13.7656,43.3906 0,0 36.6171,56.0547 36.6171,56.0547 0,0 -22.4062,65.2344 -22.4062,65.2344 0,0 38.4766,9.1562 38.4766,9.1562 0,0 18.0742,-107.6718 18.0742,-107.6718 0,0 54.8867,-27.4376 54.8867,-27.4376 0,0 1.5469,-2.2734 1.5469,-2.2734 0,0 -0.004,0 -0.004,0 0,0 0.4101,-0.6172 0.4101,-0.6172 0,0 3.0899,-4.4297 3.0899,-4.4297 0,0 28.1054,-47.125 28.1054,-47.125 z M 34.9531,-255.3437 c 111.836,0 202.5,87.5273 202.5,195.4999 0,81.6485 -51.8437,151.6016 -125.4804,180.8633 -0.1094,0.043 -0.2227,0.086 -0.3321,0.1328 -23.9218,9.6016 -50.1601,14.9024 -77.6836,14.9024 -111.8359,0 -202.5,-87.5234 -202.5,-195.5 0,-81.6445 51.8438,-151.6016 125.4805,-180.8633 0.1602,-0.0625 0.3164,-0.125 0.4766,-0.1875 23.8828,-9.5703 50.0742,-14.8476 77.539,-14.8476 z"
               style="fill:#6d4f32;fill-opacity:1;fill-rule:nonzero;stroke:none"
               id="path495" /></g></g></g></g></g></svg>
