<?xml version="1.0" encoding="UTF-8" standalone="no"?>
<!-- Created with Inkscape (http://www.inkscape.org/) -->

<svg
   version="1.1"
   id="svg4997"
   xml:space="preserve"
   width="666.66669"
   height="666.66669"
   viewBox="0 0 666.66669 666.66669"
   sodipodi:docname="icon_uusi.svg"
   inkscape:version="1.1.1 (3bf5ae0d25, 2021-09-20)"
   xmlns:inkscape="http://www.inkscape.org/namespaces/inkscape"
   xmlns:sodipodi="http://sodipodi.sourceforge.net/DTD/sodipodi-0.dtd"
   xmlns="http://www.w3.org/2000/svg"
   xmlns:svg="http://www.w3.org/2000/svg"><defs
     id="defs5001"><clipPath
       clipPathUnits="userSpaceOnUse"
       id="clipPath5013"><path
         d="m 47.25,54.25 h 405.5 v 391.5 H 47.25 Z"
         id="path5011" /></clipPath></defs><sodipodi:namedview
     id="namedview4999"
     pagecolor="#ffffff"
     bordercolor="#111111"
     borderopacity="1"
     inkscape:pageshadow="0"
     inkscape:pageopacity="0"
     inkscape:pagecheckerboard="1"
     showgrid="false"
     inkscape:zoom="1.293"
     inkscape:cx="332.94665"
     inkscape:cy="333.72004"
     inkscape:window-width="1920"
     inkscape:window-height="1051"
     inkscape:window-x="-9"
     inkscape:window-y="-9"
     inkscape:window-maximized="1"
     inkscape:current-layer="g5003" /><g
     id="g5003"
     inkscape:groupmode="layer"
     inkscape:label="icon_uusi"
     transform="matrix(1.3333333,0,0,-1.3333333,0,666.66667)"><g
       id="g5005"
       transform="matrix(1,0,0,-1,0,500)"><g
         id="g5007"><g
           id="g5009"
           clip-path="url(#clipPath5013)"><g
             id="g5015"
             transform="translate(118.9766,208.0508)"><path
               d="m 0,0 c 9.7031,0 17.8047,8.1016 17.8047,17.8047 0,9.7031 -8.1016,17.8047 -17.8047,17.8047 -9.7031,0 -17.8047,-8.1016 -17.8047,-17.8047 C -17.8047,8.1016 -9.7031,0 0,0 Z"
               style="fill:#5aabed;fill-opacity:1;fill-rule:nonzero;stroke:none"
               id="path5017" /></g><g
             id="g5019"
             transform="translate(163.6406,129.9727)"><path
               d="m 0,0 c 9.7031,0 17.8047,8.1016 17.8047,17.8047 0,9.7031 -8.1016,17.8047 -17.8047,17.8047 -9.7031,0 -17.8047,-8.1016 -17.8047,-17.8047 C -17.8047,8.1016 -9.7031,0 0,0 Z"
               style="fill:#5aabed;fill-opacity:1;fill-rule:nonzero;stroke:none"
               id="path5021" /></g><g
             id="g5023"
             transform="translate(244.1055,196.8008)"><path
               d="m 0,0 c 9.7031,0 17.8047,8.1016 17.8047,17.8047 0,9.7031 -8.1016,17.8047 -17.8047,17.8047 -9.7031,0 -17.8047,-8.1016 -17.8047,-17.8047 C -17.8047,8.1016 -9.7031,0 0,0 Z"
               style="fill:#5aabed;fill-opacity:1;fill-rule:nonzero;stroke:none"
               id="path5025" /></g><g
             id="g5027"
             transform="translate(293.9219,134.3008)"><path
               d="m 0,0 c 0,9.4922 -7.7773,17.4492 -17.207,17.75 -0.7813,-0.0469 -1.5664,-0.0781 -2.3477,-0.0859 C -28.4141,16.7383 -35.5156,9.0703 -35.5156,0 c 0,-9.6758 8.082,-17.7578 17.7578,-17.7578 C -8.082,-17.7578 0,-9.6758 0,0 Z"
               style="fill:#5aabed;fill-opacity:1;fill-rule:nonzero;stroke:none"
               id="path5029" /></g><g
             id="g5031"
             transform="translate(381.418,179.6875)"><path
               d="m 0,0 c 9.625,0 17.6641,8.0391 17.6641,17.6641 0,9.625 -8.0391,17.664 -17.6641,17.664 -9.625,0 -17.6641,-8.039 -17.6641,-17.664 C -17.6641,8.0391 -9.625,0 0,0 Z"
               style="fill:#5aabed;fill-opacity:1;fill-rule:nonzero;stroke:none"
               id="path5033" /></g><g
             id="g5035"
             transform="translate(417.7539,256.8008)"><path
               d="m 0,0 c -0.2148,6.5898 -0.8398,13.082 -1.8516,19.4531 -0.0273,0.1914 -0.0586,0.3867 -0.0937,0.5821 -0.6211,3.832 -1.3828,7.6211 -2.2813,11.3593 -0.2382,1.0039 -0.4921,2.0078 -0.7539,3.0078 -0.0898,0.3516 -0.1836,0.6993 -0.2773,1.0508 -0.2344,0.8789 -0.4805,1.7578 -0.7344,2.6328 -1.8633,6.4883 -4.1367,12.8086 -6.793,18.9414 -0.1835,0.4219 -0.3671,0.8438 -0.5546,1.2618 -2.2813,5.1445 -4.8321,10.1523 -7.6368,15.0078 -7.2265,12.5312 -16.1367,24.0429 -26.4297,34.2617 -0.3554,0.3477 -0.707,0.6992 -1.0664,1.0469 0,0 -0.0039,0 -0.0039,0 -9.1132,8.8867 -19.289,16.7656 -30.3242,23.4531 -0.043,0.0234 -0.082,0.0508 -0.125,0.0742 -0.0742,0.0469 -0.1445,0.0899 -0.2187,0.1328 -0.0391,0.0235 -0.0743,0.043 -0.1094,0.0664 -11.6133,6.9883 -24.1797,12.6602 -37.4649,16.793 -0.7187,0.1172 -1.414,0.2891 -2.1132,0.5 -0.7383,0.2266 -1.4883,0.4141 -2.2383,0.6133 -0.6524,0.1679 -1.2735,0.3789 -1.9258,0.5234 -0.7383,0.1524 -1.4844,0.3008 -2.2187,0.4649 -0.9141,0.207 -1.8204,0.414 -2.7266,0.6445 -0.6758,0.1562 -1.3516,0.2851 -2.0234,0.4609 0.1796,-0.0468 0.3593,-0.0937 0.5429,-0.1406 -0.8047,0.2031 -1.6289,0.3438 -2.4375,0.5469 -0.8164,0.2109 -1.625,0.4219 -2.457,0.5469 -1.4258,0.2304 -2.8281,0.5507 -4.25,0.8085 0.1914,-0.0312 0.3789,-0.0664 0.5703,-0.1015 -1.2031,0.2148 -2.332,0.6133 -3.5117,0.8906 -3.9727,0.6211 -7.9922,1.1094 -12.0508,1.4609 -0.0195,0.004 -0.0391,0.004 -0.0586,0.004 -0.1328,0.0117 -0.2734,0.0273 -0.4101,0.0351 -0.0274,0.004 -0.0508,0.004 -0.0782,0.008 -0.1289,0.0117 -0.2656,0.0235 -0.3945,0.0313 -0.0312,0.004 -0.0664,0.008 -0.0977,0.008 -0.1367,0.0117 -0.2578,0.0234 -0.3906,0.0312 -0.0312,0.004 -0.0625,0.008 -0.0976,0.008 -0.1289,0.0118 -0.2578,0.0196 -0.3868,0.0313 -0.0273,0 -0.0585,0.004 -0.0859,0.008 -0.5781,0.043 -1.1484,0.082 -1.7226,0.1172 -0.0469,0.004 -0.0938,0.008 -0.1368,0.0117 -0.1132,0.008 -0.2343,0.0117 -0.3476,0.0195 -0.0469,0.004 -0.0938,0.008 -0.1446,0.0118 -0.1132,0.004 -0.2265,0.0117 -0.3398,0.0195 -0.0586,0.004 -0.1172,0.008 -0.1758,0.0117 -0.0976,0.004 -0.207,0.0117 -0.3008,0.0156 -0.0742,0.004 -0.1484,0.008 -0.2187,0.0118 -0.0899,0.004 -0.1914,0.0117 -0.2813,0.0156 -0.0781,0.004 -0.1562,0.008 -0.2304,0.0117 -0.0899,0.004 -0.1914,0.0117 -0.2813,0.0156 -0.0625,0.004 -0.125,0.008 -0.1914,0.008 -0.3281,0.0196 -0.6719,0.0352 -1.0039,0.0508 -0.1016,0.004 -0.207,0.008 -0.3086,0.0117 -0.0664,0.004 -0.1406,0.008 -0.2109,0.008 -0.0977,0.004 -0.1992,0.008 -0.2969,0.0156 -0.082,0 -0.1562,0.004 -0.2344,0.008 -0.0898,0.004 -0.1836,0.008 -0.2734,0.008 -0.0859,0.004 -0.168,0.008 -0.2539,0.0117 -0.086,0.004 -0.1719,0.004 -0.2578,0.008 -0.0821,0.004 -0.168,0.008 -0.2461,0.008 -0.0899,0.004 -0.1836,0.008 -0.2774,0.0118 -0.0781,0 -0.1601,0.004 -0.2382,0.004 -0.0938,0.004 -0.1875,0.008 -0.2813,0.0117 -0.082,0 -0.1523,0.004 -0.2305,0.004 -0.1054,0.004 -0.207,0.008 -0.3125,0.008 -0.0703,0.004 -0.1328,0.004 -0.2031,0.008 -0.168,0.004 -0.3398,0.008 -0.5078,0.0117 -0.0469,0 -0.082,0 -0.1289,0 -0.1211,0.004 -0.25,0.004 -0.3711,0.008 -0.0742,0 -0.1523,0.004 -0.2266,0.004 -0.0976,0.004 -0.1953,0.004 -0.2929,0.004 -0.0782,0.004 -0.1563,0.004 -0.2344,0.004 -0.0938,0.004 -0.1875,0.004 -0.2774,0.004 -0.082,0 -0.1484,0.004 -0.2265,0.004 -0.1094,0 -0.2188,0.004 -0.3281,0.004 -0.0586,0 -0.125,0 -0.1836,0 -0.1094,0 -0.2227,0.004 -0.336,0.004 -0.0625,0 -0.125,0 -0.1875,0 -0.1211,0 -0.2422,0.004 -0.3593,0.004 -0.0586,0 -0.1055,0 -0.1641,0 -0.1719,0 -0.3438,0 -0.5156,0 -0.1602,0 -0.3203,0 -0.4805,0 -0.0742,0 -0.1406,0 -0.2148,0 -0.0704,0 -0.1407,-0.004 -0.211,-0.004 -49.5039,-0.2461 -93.9726,-20.9219 -124.7148,-53.6875 -2.8711,-3.0586 -5.6211,-6.2227 -8.2422,-9.4883 -4.75,-5.9023 -9.082,-12.1289 -12.957,-18.6367 -4.2852,-7.1953 -8.0118,-14.7344 -11.1211,-22.5664 -1.1368,-2.8516 -2.1875,-5.7422 -3.1524,-8.6719 -1.1601,-3.5 -2.1992,-7.0508 -3.1094,-10.6523 -0.707,-2.793 -1.3398,-5.6133 -1.8945,-8.461 15.1172,-10.4726 37.4844,-17.0976 62.4492,-17.0976 26.0977,0 49.3594,7.2422 64.461,18.543 0.1484,-0.2227 0.3007,-0.4415 0.457,-0.6602 0.1172,-0.1719 0.2422,-0.3398 0.3633,-0.5117 0.4258,-0.5899 0.8711,-1.1719 1.332,-1.7539 18.7461,-23.6367 64.957,-40.3594 119,-40.3594 33.5664,0 64.1133,6.4492 86.9336,17.0039 z"
               style="fill:#5aabed;fill-opacity:1;fill-rule:nonzero;stroke:none"
               id="path5037" /></g><g
             id="g5039"
             transform="translate(337.5949,367.4638)"><path
               d="M 0,0 C -0.0594,1e-4 -0.1176,3e-4 -0.177,4e-4 -0.121,3e-4 -0.056,1e-4 0,0 Z"
               style="fill:#ffffff;fill-opacity:1;fill-rule:nonzero;stroke:none"
               id="path5041" /></g><g
             id="g5043"
             transform="translate(338.1095,367.462)"><path
               d="M 0,0 C -0.0594,3e-4 -0.1212,5e-4 -0.1805,7e-4 -0.1202,5e-4 -0.0603,3e-4 0,0 Z"
               style="fill:#ffffff;fill-opacity:1;fill-rule:nonzero;stroke:none"
               id="path5045" /></g><g
             id="g5047"
             transform="translate(335.3436,367.4599)"><path
               d="M 0,0 C 0.0516,3e-4 0.1013,5e-4 0.1529,8e-4 0.1018,5e-4 0.0511,3e-4 0,0 Z"
               style="fill:#ffffff;fill-opacity:1;fill-rule:nonzero;stroke:none"
               id="path5049" /></g><g
             id="g5051"
             transform="translate(339.2783,367.4541)"><path
               d="M 0,0 C -0.0736,6e-4 -0.1445,0.0013 -0.2182,0.0019 -0.1451,0.0013 -0.073,6e-4 0,0 Z"
               style="fill:#ffffff;fill-opacity:1;fill-rule:nonzero;stroke:none"
               id="path5053" /></g><g
             id="g5055"
             transform="translate(334.5452,367.4538)"><path
               d="M 0,0 C 0.0687,6e-4 0.1359,0.0012 0.2047,0.0017 0.1368,0.0012 0.0678,6e-4 0,0 Z"
               style="fill:#ffffff;fill-opacity:1;fill-rule:nonzero;stroke:none"
               id="path5057" /></g><g
             id="g5059"
             transform="translate(339.7708,367.4493)"><path
               d="M 0,0 C -0.0635,7e-4 -0.1248,0.0013 -0.1883,0.002 -0.1282,0.0013 -0.0601,6e-4 0,0 Z"
               style="fill:#ffffff;fill-opacity:1;fill-rule:nonzero;stroke:none"
               id="path5061" /></g><g
             id="g5063"
             transform="translate(333.7504,367.4453)"><path
               d="M 0,0 C 0.0771,9e-4 0.1576,0.0019 0.2348,0.0028 0.1567,0.0019 0.0781,0.001 0,0 Z"
               style="fill:#ffffff;fill-opacity:1;fill-rule:nonzero;stroke:none"
               id="path5065" /></g><g
             id="g5067"
             transform="translate(340.4123,367.4415)"><path
               d="M 0,0 C -0.0591,8e-4 -0.1182,0.0016 -0.1773,0.0024 -0.1173,0.0016 -0.06,8e-4 0,0 Z"
               style="fill:#ffffff;fill-opacity:1;fill-rule:nonzero;stroke:none"
               id="path5069" /></g><g
             id="g5071"
             transform="translate(332.9358,367.4342)"><path
               d="M 0,0 C 0.1027,0.0016 0.2038,0.0031 0.3066,0.0045 0.2043,0.0031 0.1021,0.0015 0,0 Z"
               style="fill:#ffffff;fill-opacity:1;fill-rule:nonzero;stroke:none"
               id="path5073" /></g><g
             id="g5075"
             transform="translate(340.9518,367.4337)"><path
               d="M 0,0 C -0.082,0.0013 -0.163,0.0025 -0.2451,0.0037 -0.1638,0.0025 -0.0813,0.0013 0,0 Z"
               style="fill:#ffffff;fill-opacity:1;fill-rule:nonzero;stroke:none"
               id="path5077" /></g><g
             id="g5079"
             transform="translate(341.4621,367.4254)"><path
               d="M 0,0 C -0.092,0.0016 -0.1848,0.0031 -0.2769,0.0047 -0.1827,0.0031 -0.0941,0.0017 0,0 Z"
               style="fill:#ffffff;fill-opacity:1;fill-rule:nonzero;stroke:none"
               id="path5081" /></g><g
             id="g5083"
             transform="translate(332.0847,367.4197)"><path
               d="M 0,0 C 0.1795,0.0033 0.3556,0.0064 0.5353,0.0094 0.3567,0.0064 0.1784,0.0033 0,0 Z"
               style="fill:#ffffff;fill-opacity:1;fill-rule:nonzero;stroke:none"
               id="path5085" /></g><g
             id="g5087"
             transform="translate(342.1494,367.4125)"><path
               d="M 0,0 C -0.1968,0.0039 -0.3972,0.0078 -0.5942,0.0112 -0.3975,0.0078 -0.1965,0.0039 0,0 Z"
               style="fill:#ffffff;fill-opacity:1;fill-rule:nonzero;stroke:none"
               id="path5089" /></g><g
             id="g5091"
             transform="translate(313.0907,366.3599)"><path
               d="M 0,0 C 1e-4,-6e-4 1e-4,-9e-4 2e-4,-0.0016 6.1248,0.5744 12.4111,0.9328 18.8105,1.0564 12.4081,0.9333 6.1251,0.5764 0,0 Z"
               style="fill:#ffffff;fill-opacity:1;fill-rule:nonzero;stroke:none"
               id="path5093" /></g><g
             id="g5095"
             transform="translate(342.6208,367.4026)"><path
               d="M 0,0 C -0.0962,0.0021 -0.1903,0.0041 -0.2865,0.0061 -0.1926,0.0042 -0.0939,0.0021 0,0 Z"
               style="fill:#ffffff;fill-opacity:1;fill-rule:nonzero;stroke:none"
               id="path5097" /></g><g
             id="g5099"
             transform="translate(343.8585,367.3727)"><path
               d="M 0,0 C -0.3478,0.0092 -0.6927,0.0177 -1.0412,0.0256 -0.6958,0.0178 -0.3447,0.0092 0,0 Z"
               style="fill:#ffffff;fill-opacity:1;fill-rule:nonzero;stroke:none"
               id="path5101" /></g><g
             id="g5103"
             transform="translate(344.2989,367.3606)"><path
               d="M 0,0 C -0.1173,0.0033 -0.2341,0.0065 -0.3514,0.0097 -0.2323,0.0065 -0.119,0.0034 0,0 Z"
               style="fill:#ffffff;fill-opacity:1;fill-rule:nonzero;stroke:none"
               id="path5105" /></g><g
             id="g5107"
             transform="translate(374.1049,364.7293)"><path
               d="M 0,0 C -1e-4,1e-4 -1e-4,1e-4 -2e-4,2e-4 -9.4832,1.4359 -19.4367,2.3354 -29.7168,2.6269 -19.436,2.3354 -9.4862,1.4359 0,0 Z"
               style="fill:#ffffff;fill-opacity:1;fill-rule:nonzero;stroke:none"
               id="path5109" /></g><g
             id="g5111"
             transform="translate(300.0441,364.7712)"><path
               d="M 0,0 C 3.6057,0.5409 7.2741,1.004 11.0061,1.3866 7.2751,1.0054 3.604,0.5414 0,0 Z"
               style="fill:#ffffff;fill-opacity:1;fill-rule:nonzero;stroke:none"
               id="path5113" /></g><g
             id="g5115"
             transform="translate(299.5833,364.7016)"><path
               d="M 0,0 C 0.0706,0.0107 0.1374,0.0208 0.2081,0.0315 0.1386,0.021 0.0694,0.0106 0,0 Z"
               style="fill:#ffffff;fill-opacity:1;fill-rule:nonzero;stroke:none"
               id="path5117" /></g><g
             id="g5119"
             transform="translate(281.118,361.0855)"><path
               d="m 0,0 c 1.8611,0.451 3.746,0.8798 5.6562,1.2864 -10e-5,7e-4 -3e-4,0.0014 -5e-4,0.002 C 3.746,0.8811 1.8606,0.4513 0,0 Z"
               style="fill:#ffffff;fill-opacity:1;fill-rule:nonzero;stroke:none"
               id="path5121" /></g><g
             id="g5123"
             transform="translate(280.5222,360.9401)"><path
               d="M 0,0 C 0.1994,0.049 0.3937,0.0965 0.5937,0.1449 0.3955,0.0968 0.1977,0.0486 0,0 Z"
               style="fill:#ffffff;fill-opacity:1;fill-rule:nonzero;stroke:none"
               id="path5125" /></g><g
             id="g5127"
             transform="translate(279.9011,360.7865)"><path
               d="M 0,0 C 0.0831,0.0207 0.1679,0.0417 0.2511,0.0624 0.1674,0.0416 0.0836,0.0208 0,0 Z"
               style="fill:#ffffff;fill-opacity:1;fill-rule:nonzero;stroke:none"
               id="path5129" /></g><g
             id="g5131"
             transform="translate(227.1694,336.4394)"><path
               d="M 0,0 C 0.0455,0.0378 0.0949,0.0788 0.1406,0.1165 0.0938,0.0779 0.0466,0.0387 0,0 Z"
               style="fill:#ffffff;fill-opacity:1;fill-rule:nonzero;stroke:none"
               id="path5133" /></g><g
             id="g5135"
             transform="translate(226.9409,336.2487)"><path
               d="M 0,0 C 0.0514,0.0431 0.1057,0.0884 0.1573,0.1315 0.1048,0.0877 0.0524,0.0439 0,0 Z"
               style="fill:#ffffff;fill-opacity:1;fill-rule:nonzero;stroke:none"
               id="path5137" /></g><g
             id="g5139"
             transform="translate(226.7271,336.069)"><path
               d="M 0,0 C 0.0573,0.0483 0.1158,0.0975 0.1734,0.1458 0.1154,0.0972 0.0577,0.0486 0,0 Z"
               style="fill:#ffffff;fill-opacity:1;fill-rule:nonzero;stroke:none"
               id="path5141" /></g><g
             id="g5143"
             transform="translate(222.8999,332.5979)"><path
               d="M 0,0 C 1e-4,-3e-4 2e-4,-7e-4 3e-4,-0.001 1.2051,1.1775 2.4816,2.3354 3.826,3.4702 2.4811,2.3352 1.2048,1.1781 0,0 Z"
               style="fill:#ffffff;fill-opacity:1;fill-rule:nonzero;stroke:none"
               id="path5145" /></g><g
             id="g5147"
             transform="translate(217.0807,326.006)"><path
               d="m 0,0 c 0.0371,0.0495 0.0752,0.1 0.1125,0.1494 -2e-4,2e-4 -2e-4,2e-4 -3e-4,3e-4 C 0.0743,0.0997 0.0375,0.0501 0,0 Z"
               style="fill:#ffffff;fill-opacity:1;fill-rule:nonzero;stroke:none"
               id="path5149" /></g><g
             id="g5151"
             transform="translate(216.9043,325.7696)"><path
               d="M 0,0 C 0.0354,0.0476 0.0724,0.0974 0.108,0.1451 0.0722,0.0971 0.0356,0.048 0,0 Z"
               style="fill:#ffffff;fill-opacity:1;fill-rule:nonzero;stroke:none"
               id="path5153" /></g><g
             id="g5155"
             transform="translate(268.0859,293.5078)"><path
               d="m 0,0 c 0.3516,-1.7656 0.707,-3.5352 1.0703,-5.3008 -1.75,1.9297 -3.6055,3.7735 -5.5117,5.582 0.3086,0.461 0.625,0.918 0.9453,1.3711 0.8164,1.086 1.6563,2.1485 2.5352,3.1797 C -0.6445,3.2227 -0.3203,1.6133 0,0 Z m 149.668,-36.707 c -0.2149,6.5898 -0.8399,13.082 -1.8516,19.4531 -0.0273,0.1914 -0.0586,0.3867 -0.0937,0.582 -0.6211,3.8321 -1.3829,7.6211 -2.2813,11.3594 -0.2383,1.0039 -0.4922,2.0078 -0.7539,3.0078 -0.0898,0.3516 -0.1836,0.6992 -0.2773,1.0508 -0.2344,0.8789 -0.4805,1.7578 -0.7344,2.6328 -1.8633,6.4883 -4.1367,12.8086 -6.793,18.9414 -0.1836,0.4219 -0.3672,0.8438 -0.5547,1.2617 -2.2812,5.1446 -4.832,10.1524 -7.6367,15.0078 -7.2266,12.5313 -16.1367,24.043 -26.4297,34.2618 -6.0156,0.9726 -12.2226,1.7304 -18.5937,2.2539 -2.7617,0.2304 -5.5547,0.4101 -8.375,0.5508 -1.6914,0.082 -3.3907,0.1445 -5.0977,0.1953 -0.0351,0 -0.0586,0 -0.0937,0 -0.1172,0.0078 -0.2344,0.0117 -0.3516,0.0156 -0.0273,0 -0.0586,0 -0.0898,0 -0.3438,0.0078 -0.6914,0.0156 -1.043,0.0234 -0.0625,0.0039 -0.1289,0.0039 -0.1953,0.0039 -0.0899,0.0039 -0.1914,0.0039 -0.2813,0.0078 -0.0664,0 -0.125,0 -0.1875,0.0079 -0.1953,0.0039 -0.3945,0.0039 -0.5976,0.0078 -0.0274,0 -0.0586,0.0039 -0.086,0.0039 -0.0976,0 -0.1836,0 -0.2812,0.0039 -0.0781,0 -0.1524,0 -0.2344,0.0039 -0.082,0 -0.1601,0 -0.2422,0.0039 -0.0976,0 -0.1953,0 -0.2929,0 -0.0625,0.0039 -0.1211,0.0039 -0.1797,0.0039 -0.086,0 -0.168,0 -0.25,0.0039 -0.0703,0 -0.1407,0 -0.211,0 -0.0664,0 -0.1328,0.0039 -0.1914,0.0039 -0.1015,0 -0.207,0 -0.3047,0 -0.0742,0.0039 -0.1484,0.0039 -0.2187,0.0039 -0.125,0 -0.2461,0 -0.3711,0.0078 -0.0352,0 -0.0664,0 -0.1016,0 -0.1601,0 -0.3203,0 -0.4765,0 -0.0625,0 -0.1211,0 -0.1836,0 -0.1094,0.0039 -0.2188,0.0039 -0.3282,0.0039 -0.0625,0 -0.125,0 -0.1796,0 -0.1602,0 -0.3282,0 -0.4883,0 -0.2383,0 -0.4727,0 -0.711,0 -0.0234,0 -0.0507,0 -0.0742,0 -0.2187,0 -0.4336,-0.0039 -0.6484,-0.0039 -0.0508,0 -0.1016,0 -0.1524,0 -0.1992,0 -0.3945,-0.0078 -0.5937,-0.0078 -0.0703,0 -0.1367,0 -0.2031,-0.0039 -0.1875,0 -0.375,0 -0.5625,-0.0039 -0.0782,0 -0.1563,0 -0.2344,-0.0039 -0.168,0 -0.3399,-0.0039 -0.5078,-0.0039 -0.1055,-0.0039 -0.2071,-0.0039 -0.3086,-0.0039 -0.1055,-0.0039 -0.207,-0.0039 -0.3125,-0.0039 -0.1797,-0.0039 -0.3594,-0.0078 -0.5352,-0.0117 -0.0664,0 -0.125,0 -0.1836,0 -6.3984,-0.1289 -12.6914,-0.4844 -18.8125,-1.0586 0.0196,-0.2149 0.043,-0.4336 0.0664,-0.6485 0,0 0,-0.0039 0,-0.0039 0.4688,-4.7851 0.9805,-9.5586 1.5235,-14.332 0.3789,-3.3398 0.7656,-6.6797 1.1445,-10.0195 -0.0351,-0.625 -0.0703,-1.25 -0.1055,-1.8789 -0.0234,-0.5118 -0.0507,-1.0235 -0.0742,-1.5391 -0.2383,1.8242 -0.4648,3.6484 -0.6679,5.4727 -0.375,3.375 -0.754,6.746 -1.0938,10.121 -0.1523,1.5274 -0.3047,3.0625 -0.4531,4.5977 -0.211,2.2148 -0.3516,4.4609 -0.8828,6.6328 -0.0703,0.2852 -0.1524,0.5664 -0.2461,0.8399 0,0.0039 -0.0039,0.0039 -0.0039,0.0039 -0.0743,0.2226 -0.1563,0.4414 -0.25,0.6523 -0.1953,-0.0234 -0.3907,-0.0391 -0.5899,-0.0625 -0.0195,0 -0.039,-0.0039 -0.0625,-0.0039 -0.1172,-0.0117 -0.2304,-0.0234 -0.3437,-0.0352 -3.7305,-0.3828 -7.4024,-0.8476 -11.0078,-1.3867 -0.086,-0.0117 -0.168,-0.0273 -0.2539,-0.039 -0.0704,-0.0078 -0.1368,-0.0196 -0.2071,-0.0274 -0.1758,-0.0312 -0.3515,-0.0586 -0.5234,-0.082 0,0 0,0 -0.0039,0 -1.9258,-0.2969 -3.836,-0.6211 -5.7227,-0.9609 -0.2265,-1.1172 -0.3008,-2.2579 -0.4023,-3.3946 0.0469,0.4102 0.0937,0.8281 0.1406,1.2383 -0.8984,-7.8281 -0.4531,-15.8047 -0.2578,-23.668 0,-0.0234 0.0039,-0.0507 0.0039,-0.082 -0.168,0.6719 -0.332,1.3438 -0.5,2.0156 -1.5078,6.1485 -3.0234,12.3008 -4.5274,18.4532 -0.2304,0.9453 -0.4648,1.8867 -0.6914,2.8281 -0.1093,0.4414 -0.2187,0.8789 -0.3242,1.3164 C 10.668,68.4609 8.7812,68.0313 6.9219,67.582 6.7227,67.5313 6.5273,67.4844 6.3242,67.4375 6.2031,67.4023 6.0781,67.3711 5.957,67.3438 5.8711,67.3203 5.7852,67.3008 5.707,67.2813 5.5117,67.2344 5.3203,67.1875 5.125,67.1367 5.0937,67.125 5.0664,67.1211 5.0391,67.1133 -0.3398,65.7539 -5.5,64.2109 -10.4102,62.5039 c 0.2188,-2.5703 0.418,-5.1523 0.754,-7.7109 0.4257,-3.2149 0.7929,-6.4414 1.3203,-9.6407 0.582,-3.5 1.164,-7.0078 1.7461,-10.5078 0.5,-2.9843 1.0234,-5.9687 1.5703,-8.9453 -2.043,-1.0742 -3.9336,-2.4414 -5.7071,-4.0117 -2.5468,-2.2578 -4.7773,-4.9062 -6.8437,-7.6211 -0.4922,0.5391 -1.0078,1.0664 -1.5586,1.5859 -0.6563,0.625 -1.4219,1.1446 -2.2344,1.5821 -0.7851,2.1367 -1.582,4.2734 -2.3789,6.4062 -1.9375,5.1758 -3.918,10.336 -5.8906,15.5 -0.8477,2.2188 -1.6953,4.4336 -2.5703,6.6446 -0.4883,1.2421 -0.9805,2.4765 -1.4844,3.7109 -0.2813,0.6914 -0.5508,1.3984 -0.8359,2.0977 -3.8711,-2.254 -7.4336,-4.6524 -10.6485,-7.168 -0.0039,-0.0039 -0.0117,-0.0039 -0.0156,-0.0078 -0.1602,-0.1289 -0.3242,-0.2539 -0.4883,-0.3867 -0.0195,-0.0118 -0.0312,-0.0274 -0.0547,-0.043 -0.0625,-0.0469 -0.1211,-0.0977 -0.1875,-0.1485 -0.0195,-0.0195 -0.0429,-0.0351 -0.0625,-0.0507 -0.0508,-0.043 -0.1015,-0.086 -0.1523,-0.125 -0.0352,-0.0235 -0.0586,-0.0508 -0.0938,-0.0743 -0.0507,-0.039 -0.0976,-0.0781 -0.1484,-0.121 -0.0273,-0.0196 -0.0508,-0.043 -0.082,-0.0625 -0.0703,-0.0586 -0.1446,-0.1211 -0.211,-0.1797 -0.0312,-0.0196 -0.0586,-0.0469 -0.0898,-0.0703 -0.043,-0.0352 -0.086,-0.0704 -0.1289,-0.1055 -0.0469,-0.0352 -0.0938,-0.0781 -0.1406,-0.1172 -0.0235,-0.0195 -0.0469,-0.0391 -0.0704,-0.0586 -0.0507,-0.043 -0.1054,-0.0898 -0.1562,-0.1328 -0.0156,-0.0117 -0.0274,-0.0195 -0.0391,-0.0352 -0.0586,-0.0429 -0.1211,-0.0976 -0.1758,-0.1445 0,0 0,0 -0.0039,0 -1.3437,-1.1328 -2.6171,-2.293 -3.8242,-3.4687 0.0977,-0.3594 0.1953,-0.711 0.2969,-1.0665 0.0391,-0.1406 0.0781,-0.2812 0.1211,-0.4218 0.7226,-2.5547 1.4336,-5.1172 2.1953,-7.6602 0.4336,-1.4375 0.8672,-2.8789 1.3086,-4.3164 -3.1016,2.4883 -6.2734,4.8789 -9.6289,7.0234 -0.0391,-0.0546 -0.0781,-0.1054 -0.1094,-0.1523 -0.0273,-0.0273 -0.0469,-0.0625 -0.0703,-0.0937 -0.0352,-0.043 -0.0742,-0.0977 -0.1094,-0.1407 -0.0547,-0.0742 -0.1093,-0.1523 -0.1601,-0.2226 -0.0313,-0.0391 -0.0508,-0.0664 -0.0782,-0.1055 -0.0625,-0.0859 -0.121,-0.168 -0.1835,-0.25 -0.0157,-0.0234 -0.0313,-0.0469 -0.0508,-0.0703 -0.0664,-0.0938 -0.1328,-0.1914 -0.2032,-0.2852 0,-0.0039 0,-0.0039 -0.0039,-0.0078 -2.4375,-3.457 -4.2929,-7.0469 -5.5156,-10.7422 -0.4609,-1.3906 -0.8281,-2.7929 -1.1055,-4.2109 0,-0.0039 0,-0.0078 0,-0.0078 -0.0195,-0.1211 -0.0468,-0.2383 -0.0664,-0.3555 0,-0.0039 0,-0.0078 0,-0.0117 -0.0429,-0.2383 -0.0859,-0.4766 -0.125,-0.7149 0,-0.0039 0,-0.0078 0,-0.0117 -0.0195,-0.1133 -0.039,-0.2304 -0.0546,-0.3437 0,-0.0078 -0.004,-0.0156 -0.004,-0.0274 -0.0156,-0.1093 -0.0351,-0.2226 -0.0468,-0.332 -0.0039,-0.0156 -0.0039,-0.0273 -0.0039,-0.043 -0.0157,-0.1132 -0.0352,-0.2226 -0.0469,-0.332 0,-0.0078 0,-0.0195 -0.0039,-0.0273 -0.0274,-0.2344 -0.0547,-0.4649 -0.0781,-0.6954 0,-0.0078 -0.0039,-0.0234 -0.0039,-0.0312 -0.0118,-0.1055 -0.0196,-0.2148 -0.0274,-0.3203 -0.0078,-0.0235 -0.0078,-0.0391 -0.0117,-0.0625 -0.0078,-0.1055 -0.0156,-0.211 -0.0234,-0.3164 0,-0.0196 -0.004,-0.0391 -0.004,-0.0547 -0.0039,-0.0547 -0.0078,-0.1094 -0.0117,-0.1602 -0.0078,-0.0547 -0.0117,-0.1093 -0.0156,-0.164 0,-0.0157 0,-0.0274 0,-0.043 -0.0156,-0.2266 -0.0273,-0.4531 -0.043,-0.6797 0,-0.0156 0,-0.0312 0,-0.0469 -0.0039,-0.1054 -0.0078,-0.2109 -0.0117,-0.3203 0,-0.0195 0,-0.039 -0.0039,-0.0625 0,-0.1054 -0.0039,-0.207 -0.0078,-0.3125 0,-0.0195 0,-0.0429 0,-0.0664 -0.0039,-0.1054 -0.0039,-0.2109 -0.0039,-0.3164 0,-0.0195 0,-0.0312 0,-0.043 -0.0039,-0.1171 -0.0039,-0.2304 -0.0039,-0.3437 0,-3.3633 0.5195,-6.6641 1.5273,-9.8867 1.1407,-3.668 2.9102,-7.2305 5.25,-10.6641 0.1485,-0.2226 0.3008,-0.4414 0.4571,-0.6601 0.1211,-0.1719 0.2421,-0.3399 0.3632,-0.5118 0.4258,-0.5898 0.8711,-1.1718 1.3321,-1.7539 18.7461,-23.6367 64.957,-40.3593 119,-40.3593 33.5664,0 64.1133,6.4492 86.9336,17.0039 z"
               style="fill:#ffffff;fill-opacity:1;fill-rule:nonzero;stroke:none"
               id="path5157" /></g><g
             id="g5159"
             transform="translate(393.5714,344.9366)"><path
               d="M 0,0 C -0.0722,0.0765 -0.1402,0.1572 -0.2125,0.2337 -0.1445,0.1572 -0.0722,0.0765 0,0 Z"
               style="fill:#ffffff;fill-opacity:1;fill-rule:nonzero;stroke:none"
               id="path5161" /></g><g
             id="g5163"
             transform="translate(412.5496,320.7487)"><path
               d="M 0,0 C -0.0468,0.0722 -0.0977,0.1487 -0.1487,0.2252 -0.0977,0.1487 -0.051,0.0722 0,0 Z"
               style="fill:#ffffff;fill-opacity:1;fill-rule:nonzero;stroke:none"
               id="path5165" /></g><g
             id="g5167"
             transform="translate(222.9609,318.0742)"><path
               d="m 0,0 c 1.4297,3.7109 0.5547,8.8711 -2.7617,11.332 -0.9922,0.7305 -1.9414,1.2969 -2.9922,1.7071 -0.0898,0.0351 -0.1875,0.0703 -0.2813,0.1054 -1.5703,2.5235 -4.5234,4.4883 -7.539,4.4493 -1.043,-0.0118 -2.0508,0.0039 -3.0781,-0.2344 -1.0391,-0.2383 -1.961,-0.6797 -2.8985,-1.168 -0.3594,-0.1875 -0.7031,-0.3984 -1.0312,-0.6328 -0.3516,0.5469 -0.7422,1.0664 -1.168,1.5273 -1.582,1.7032 -3.5391,2.4805 -5.7578,2.9766 -2.1094,0.4766 -4.3047,-0.125 -6.3047,-0.7383 -1.9297,-0.5898 -3.7422,-1.9648 -5.25,-3.2578 -1.3203,-1.1328 -2.5547,-2.3164 -3.7539,-3.5547 -0.1445,0.0742 -0.2891,0.1445 -0.4336,0.2188 -3.9375,1.8554 -9.0039,0.7109 -12.3867,-1.8399 -0.4688,-0.3594 -0.9258,-0.7226 -1.3672,-1.1015 -0.2578,0.582 -0.5781,1.1445 -0.9649,1.6953 -1.2539,1.7578 -3.0039,3.1562 -5.0742,3.8203 -2.2226,0.7148 -4.6562,0.6406 -6.8789,-0.0274 -0.7578,0.7657 -1.6484,1.3985 -2.6758,1.8633 -1.8359,0.8242 -3.7421,1.2539 -5.7578,1.0703 -2.5508,-0.2304 -4.8281,-1.4609 -6.8281,-2.9882 -1.6133,-1.2305 -3.0977,-2.6368 -4.5,-4.1211 -0.0117,0.0039 -0.0273,0.0117 -0.043,0.0195 -3.8867,1.8203 -8.2226,0.7773 -11.625,-1.5156 -0.5742,0.3945 -1.1718,0.7343 -1.7539,1.0117 -0.8789,0.4101 -1.8125,0.6992 -2.7617,0.8789 0.2109,3.6914 -0.2773,7.9062 -2.9648,10.6016 -0.7618,0.7656 -1.5821,1.4921 -2.4805,2.0898 -0.3828,0.2578 -0.7813,0.4883 -1.1953,0.6914 0.5937,0.6445 1.1797,1.2969 1.7695,1.9453 1.4844,1.6328 2.8594,3.3867 4.2344,5.1172 0.9531,1.1992 1.9062,2.3984 2.8672,3.6016 0.5078,0.6406 1,1.2929 1.4844,1.9492 0.3398,0.4609 0.6796,0.9258 1.0195,1.3906 0.6758,0.9258 1.1289,2.0235 1.4062,3.1563 -2.8711,-3.0586 -5.6211,-6.2227 -8.2422,-9.4883 -4.75,-5.9024 -9.082,-12.1289 -12.957,-18.6367 -4.2851,-7.1954 -8.0117,-14.7344 -11.1211,-22.5664 -1.1367,-2.8516 -2.1875,-5.7422 -3.1523,-8.6719 -1.1602,-3.5 -2.1992,-7.0508 -3.1094,-10.6524 -0.707,-2.7929 -1.3398,-5.6132 -1.8945,-8.4609 15.1172,-10.4727 37.4843,-17.0977 62.4492,-17.0977 26.0976,0 49.3594,7.2422 64.4609,18.543 0.1485,-0.2226 0.3008,-0.4414 0.4571,-0.6601 0.1172,-0.1719 0.2422,-0.3399 0.3632,-0.5118 0.4258,-0.5898 0.8711,-1.1718 1.3321,-1.7539 1.0117,2.336 1.9961,4.668 3.1211,6.9532 1.1992,2.4296 2.5351,4.7851 3.7343,7.2109 0.0196,0.043 0.043,0.0859 0.0625,0.1289 0.6329,1.2734 1.2461,2.5586 1.8282,3.8555 0.7695,1.707 1.207,3.5 1.039,5.3867 -0.1914,2.0781 -1.0468,3.7656 -2.3164,5.2539 0.043,0.0937 0.086,0.1875 0.1328,0.2852 0.043,0.0859 0.0821,0.1757 0.125,0.2617 0.7032,1.5078 1.3204,3.0508 1.9141,4.6054 C -0.9961,-2.6523 -0.5078,-1.3203 0,0 Z"
               style="fill:#ffffff;fill-opacity:1;fill-rule:nonzero;stroke:none"
               id="path5169" /></g><g
             id="g5171"
             transform="translate(79.7758,326.7908)"><path
               d="M 0,0 C 0.0486,0.0916 0.0953,0.183 0.1414,0.2732 0.094,0.1824 0.0461,0.0921 0,0 Z"
               style="fill:#ffffff;fill-opacity:1;fill-rule:nonzero;stroke:none"
               id="path5173" /></g><g
             id="g5175"
             transform="translate(404.9687,313.8281)"><path
               d="m 0,0 c -0.1836,0.4219 -0.3672,0.8438 -0.5547,1.2617 -2.2812,5.1445 -4.832,10.1524 -7.6367,15.0078 -7.2266,12.5313 -16.1367,24.043 -26.4297,34.2618 -0.3555,0.3476 -0.707,0.6992 -1.0664,1.0468 0,0 -0.0039,0 -0.0039,0 -9.1133,8.8867 -19.2891,16.7657 -30.3242,23.4532 -0.043,0.0234 -0.0821,0.0507 -0.125,0.0742 -0.0742,0.0468 -0.1446,0.0898 -0.2188,0.1328 -0.039,0.0234 -0.0742,0.043 -0.1094,0.0664 -11.6132,6.9883 -24.1796,12.6601 -37.4648,16.793 -0.7187,0.1171 -1.4141,0.289 -2.1133,0.5 -0.7383,0.2265 -1.4883,0.414 -2.2383,0.6132 -0.6523,0.168 -1.2734,0.3789 -1.9257,0.5235 -0.7383,0.1523 -1.4844,0.3008 -2.2188,0.4648 -0.9141,0.2071 -1.8203,0.4141 -2.7266,0.6446 -0.6757,0.1562 -1.3515,0.2851 -2.0234,0.4609 0.1797,-0.0469 0.3594,-0.0938 0.543,-0.1406 -0.8047,0.2031 -1.6289,0.3437 -2.4375,0.5468 -0.8164,0.211 -1.625,0.4219 -2.4571,0.5469 -1.4257,0.2305 -2.8281,0.5508 -4.25,0.8086 0.1915,-0.0312 0.379,-0.0664 0.5704,-0.1016 -1.2032,0.2149 -2.3321,0.6133 -3.5118,0.8907 -3.9726,0.6211 -7.9921,1.1093 -12.0507,1.4609 -0.0196,0.0039 -0.0391,0.0039 -0.0586,0.0039 -0.1328,0.0117 -0.2735,0.0274 -0.4102,0.0352 -0.0273,0.0039 -0.0508,0.0039 -0.0781,0.0078 -0.1289,0.0117 -0.2656,0.0234 -0.3945,0.0312 -0.0313,0.0039 -0.0664,0.0078 -0.0977,0.0078 -0.1367,0.0118 -0.2578,0.0235 -0.3906,0.0313 -0.0313,0.0039 -0.0625,0.0078 -0.0977,0.0078 -0.1289,0.0117 -0.2578,0.0195 -0.3867,0.0313 -0.0273,0 -0.0586,0.0039 -0.0859,0.0078 -0.5782,0.0429 -1.1485,0.082 -1.7227,0.1172 -0.0469,0.0039 -0.0937,0.0078 -0.1367,0.0117 -0.1133,0.0078 -0.2344,0.0117 -0.3477,0.0195 -0.0468,0.0039 -0.0937,0.0078 -0.1445,0.0117 -0.1133,0.0039 -0.2266,0.0117 -0.3398,0.0196 -0.0586,0.0039 -0.1172,0.0078 -0.1758,0.0117 -0.0977,0.0039 -0.2071,0.0117 -0.3008,0.0156 -0.0742,0.0039 -0.1484,0.0078 -0.2188,0.0117 -0.0898,0.0039 -0.1914,0.0117 -0.2812,0.0156 -0.0781,0.004 -0.1563,0.0079 -0.2305,0.0118 -0.0898,0.0039 -0.1914,0.0117 -0.2812,0.0156 -0.0625,0.0039 -0.125,0.0078 -0.1914,0.0078 -0.3282,0.0195 -0.6719,0.0352 -1.0039,0.0508 -0.1016,0.0039 -0.2071,0.0078 -0.3086,0.0117 -0.0664,0.0039 -0.1407,0.0078 -0.211,0.0078 -0.0976,0.0039 -0.1992,0.0078 -0.2968,0.0156 -0.0821,0 -0.1563,0.0039 -0.2344,0.0079 -0.0899,0.0039 -0.1836,0.0078 -0.2735,0.0078 -0.0859,0.0039 -0.1679,0.0078 -0.2539,0.0117 -0.0859,0.0039 -0.1718,0.0039 -0.2578,0.0078 -0.082,0.0039 -0.1679,0.0078 -0.2461,0.0078 -0.0898,0.0039 -0.1836,0.0078 -0.2773,0.0117 -0.0781,0 -0.1602,0.0039 -0.2383,0.0039 -0.0937,0.0039 -0.1875,0.0078 -0.2812,0.0118 -0.0821,0 -0.1524,0.0039 -0.2305,0.0039 -0.1055,0.0039 -0.207,0.0078 -0.3125,0.0078 -0.0703,0.0039 -0.1328,0.0039 -0.2031,0.0078 -0.168,0.0039 -0.3399,0.0078 -0.5078,0.0117 -0.0469,0 -0.0821,0 -0.129,0 -0.121,0.0039 -0.25,0.0039 -0.371,0.0078 -0.0743,0 -0.1524,0.0039 -0.2266,0.0039 -0.0977,0.0039 -0.1953,0.0039 -0.293,0.0039 -0.0781,0.0039 -0.1562,0.0039 -0.2344,0.0039 -0.0937,0.0039 -0.1875,0.0039 -0.2773,0.0039 -0.082,0 -0.1484,0.0039 -0.2266,0.0039 -0.1093,0 -0.2187,0.004 -0.3281,0.004 -0.0586,0 -0.125,0 -0.1836,0 -0.1094,0 -0.2226,0.0039 -0.3359,0.0039 -0.0625,0 -0.125,0 -0.1875,0 -0.1211,0 -0.2422,0.0039 -0.3594,0.0039 -0.0586,0 -0.1055,0 -0.1641,0 -0.1718,0 -0.3437,0 -0.5156,0 -0.1601,0 -0.3203,0 -0.4804,0 -0.0743,0 -0.1407,0 -0.2149,0 -0.0703,0 -0.1406,-0.0039 -0.2109,-0.0039 -49.5039,-0.2461 -93.9727,-20.9219 -124.7149,-53.6875 -2.8711,-3.0586 -5.6211,-6.2227 -8.2422,-9.4883 -4.75,-5.9024 -9.082,-12.1289 -12.957,-18.6367 0.2383,0.1757 0.4805,0.3515 0.7227,0.5312 1.3476,1.0234 2.4882,2.2852 3.5312,3.6055 1.2539,1.5859 2.461,3.2265 3.7578,4.7734 0.1602,0.1719 0.3282,0.3399 0.4961,0.5039 0.3594,0.293 0.7305,0.5781 1.1055,0.8594 0.8945,0.6758 1.8203,1.3203 2.7226,1.9414 0.9922,0.668 1.9727,1.3438 2.9571,2.0156 2.5429,1.6875 5.1328,3.3086 7.7187,4.9375 1.2852,0.8086 2.5625,1.6211 3.7813,2.5235 0.9883,0.7265 1.914,1.5273 2.9179,2.2304 0.6368,0.4336 1.2696,0.8711 1.9024,1.3047 1.2695,0.8203 2.6094,1.5352 3.8789,2.3633 1.332,0.8672 2.6758,1.7305 4.0508,2.5391 1.6172,0.9492 3.1914,1.957 4.7031,3.0742 1.3594,1.0078 2.5859,2.1758 3.8281,3.3203 0.6953,0.5703 1.4219,1.1055 2.1524,1.625 1.039,0.6562 2.1367,1.2422 3.2343,1.8047 1.5782,0.7812 3.1719,1.5586 4.8204,2.1797 2.4492,0.8242 4.8828,1.6797 7.2578,2.6992 2.2422,0.9687 4.4922,1.9726 6.7851,2.8164 1.2227,0.3984 2.4492,0.7852 3.6524,1.2461 1.2773,0.4922 2.4961,1.1211 3.7109,1.7461 1.8047,0.8789 3.6758,1.5664 5.5508,2.289 1.6484,0.6407 3.2578,1.379 4.9101,2.004 1.5391,0.496 3.0899,0.9335 4.625,1.4531 -0.2382,-0.0821 -0.4765,-0.168 -0.7148,-0.2539 1.4766,0.5078 3.0039,0.8945 4.4297,1.539 0.8359,0.3828 1.6719,0.7891 2.4414,1.293 0.4219,0.2773 0.8086,0.5742 1.1836,0.8828 0.0391,0.0195 0.082,0.0313 0.125,0.0469 1.6797,0.5742 3.418,1.0625 5.1562,1.4492 2.9024,0.5664 5.793,1.1719 8.6641,1.8906 2.6055,0.6524 5.0625,1.7735 7.5586,2.7266 0.168,0.0469 0.3359,0.0937 0.5039,0.1406 1.0742,0.1641 2.1641,0.2813 3.25,0.3946 0.2539,-0.0391 0.5078,-0.086 0.7656,-0.1368 -0.2226,0.0469 -0.4453,0.0938 -0.664,0.1368 0.004,0 0.008,0 0.0117,0 1.4609,-0.2852 2.8476,-0.4766 4.3711,-0.5196 0.9258,-0.0273 1.8554,0.0391 2.7773,0.0899 2.8125,0.1562 5.5781,0.6679 8.3828,0.9062 0.8516,0.0508 1.7071,0.0899 2.5586,0.043 -0.0976,0.0117 -0.1953,0.0156 -0.2929,0.0234 4.5039,-0.2773 9.0234,-0.2383 13.5312,-0.4844 1.9805,-0.1914 3.918,-0.6718 5.8984,-0.8476 1.9102,-0.1641 3.7579,-0.1641 5.668,-0.0156 0.8281,0.0664 1.6485,0.1757 2.4727,0.2656 0.4336,-0.2109 0.8633,-0.4219 1.3047,-0.6094 0.6523,-0.2695 1.3125,-0.4883 1.9609,-0.7656 1.4219,-0.7813 2.7851,-1.7031 4.1797,-2.5391 0.7695,-0.457 1.5039,-0.9531 2.3047,-1.3515 1.0859,-0.5508 2.1992,-1.0118 3.2929,-1.5391 1.418,-0.6914 2.8985,-1.2422 4.3868,-1.7734 1.121,-0.3985 2.2539,-0.7969 3.4062,-1.1094 1.0625,-0.2852 2.1563,-0.4492 3.2383,-0.6406 0.8047,-0.2071 1.582,-0.4922 2.3867,-0.711 1.3555,-0.3593 2.7461,-0.5195 4.1289,-0.7461 0.25,-0.0625 0.4961,-0.1328 0.7422,-0.2148 0.6914,-0.2461 1.3906,-0.4844 2.1055,-0.6602 0.5039,-0.1289 1.0078,-0.2265 1.5117,-0.3593 1.2031,-0.6485 2.375,-1.3438 3.5859,-1.9844 1.5469,-0.8164 3.1367,-1.5313 4.7031,-2.3008 1.6993,-0.8789 3.3907,-1.7695 5.1094,-2.6172 0.3516,-0.1914 0.6914,-0.3906 1.0274,-0.6094 1.4765,-1.0117 2.9492,-2.0039 4.4961,-2.9062 1.2031,-0.707 2.3164,-1.5469 3.5429,-2.2149 1.4922,-0.8085 3.0742,-1.496 4.6094,-2.2226 1.6016,-0.7539 3.3047,-1.2656 4.918,-1.9883 0.3984,-0.2187 0.7929,-0.4492 1.1797,-0.6875 0.1054,-0.0625 0.2109,-0.125 0.3125,-0.1914 0.0195,-0.0156 0.039,-0.0273 0.0586,-0.0391 1.6093,-1.1484 3.1484,-2.4023 4.7187,-3.5898 1.6367,-1.2383 3.3555,-2.3672 4.9414,-3.6797 0.9922,-0.8984 1.9609,-1.8242 2.9024,-2.7734 1.0664,-1.0703 2.039,-2.2305 3.1757,-3.2305 1.6172,-1.4375 3.3321,-2.6992 5.2383,-3.7227 0.9727,-0.5234 1.9414,-1.0351 2.8789,-1.6171 1.0352,-0.7696 2.0078,-1.6211 3.0156,-2.4336 0.9649,-0.7735 1.9493,-1.5118 2.8985,-2.3125 2.1719,-1.8399 4.4961,-3.4961 6.6562,-5.3477 0.8086,-0.7226 1.6211,-1.4453 2.4805,-2.1094 0.8086,-0.6211 1.6836,-1.1601 2.5352,-1.7187 0.3125,-0.211 0.6132,-0.4336 0.9101,-0.6602 0.0664,-0.0742 0.1367,-0.1406 0.2031,-0.2148 0.9883,-1.1367 1.9649,-2.2813 2.9649,-3.4102 1.4844,-1.7265 3.0195,-3.4726 4.3359,-5.3398 0.4571,-0.6836 0.9141,-1.375 1.4024,-2.0391 0.2148,-0.293 0.4453,-0.5703 0.6875,-0.8437 C -9.3867,8 -9.1172,7.7187 -8.8516,7.4336 -8.793,7.3555 -8.7344,7.2773 -8.6719,7.1992 c 0,0 0.0039,-0.0039 0.0039,-0.0039 C -7.7422,3.2227 -4.1914,0.1602 0,0 Z"
               style="fill:#ffffff;fill-opacity:1;fill-rule:nonzero;stroke:none"
               id="path5177" /></g><g
             id="g5179"
             transform="translate(412.5503,320.7466)"><path
               d="M 0,0 C -0.051,0.0765 -0.0977,0.153 -0.1487,0.2252 -0.0977,0.1487 -0.051,0.0765 0,0 Z"
               style="fill:#ffffff;fill-opacity:1;fill-rule:nonzero;stroke:none"
               id="path5181" /></g><g
             id="g5183"
             transform="translate(193.7374,406.2311)"><path
               d="M 0,0 C -0.0011,-0.001 -0.0018,-0.0018 -0.0024,-0.0023 0.0417,0.011 0.0859,0.0253 0.1306,0.0396 0.1335,0.041 0.1363,0.0423 0.1392,0.0435 0.0928,0.0291 0.0464,0.0133 0,0 Z"
               style="fill:#ffffff;fill-opacity:1;fill-rule:nonzero;stroke:none"
               id="path5185" /></g><g
             id="g5187"
             transform="translate(193.6864,406.2135)"><path
               d="M 0,0 C 0.0083,0.0025 0.0169,0.0052 0.0253,0.0078 0.0337,0.0105 0.0422,0.0132 0.0506,0.0158 0.0927,0.0295 0.1347,0.0431 0.1767,0.0569 0.1178,0.0392 0.0589,0.0197 0,0 Z"
               style="fill:#ffffff;fill-opacity:1;fill-rule:nonzero;stroke:none"
               id="path5189" /></g><g
             id="g5191"
             transform="translate(121.5166,371.4635)"><path
               d="M 0,0 C 0.2165,0.1471 0.4344,0.2934 0.6525,0.4412 0.4344,0.2953 0.217,0.148 0,0 Z"
               style="fill:#ffffff;fill-opacity:1;fill-rule:nonzero;stroke:none"
               id="path5193" /></g><g
             id="g5195"
             transform="translate(121.2541,371.2842)"><path
               d="M 0,0 C 0.0874,0.0602 0.1749,0.1196 0.2624,0.1793 0.1747,0.1197 0.0872,0.06 0,0 Z"
               style="fill:#ffffff;fill-opacity:1;fill-rule:nonzero;stroke:none"
               id="path5197" /></g><g
             id="g5199"
             transform="translate(412.4961,292.2539)"><path
               d="m 0,0 c -0.2344,0.8789 -0.4805,1.7578 -0.7344,2.6328 -1.8633,6.4883 -4.1367,12.8086 -6.7929,18.9414 -0.1836,0.4219 -0.3672,0.8438 -0.5547,1.2617 -2.2813,5.1446 -4.8321,10.1524 -7.6367,15.0079 -1.0704,-1.461 -1.6836,-3.2149 -1.7774,-5.0079 -0.0312,-0.5781 -0.0078,-1.1562 0.0703,-1.7343 0.0586,-0.4258 0.1445,-0.836 0.2539,-1.2344 0.3321,-1.168 0.8946,-2.2227 1.6367,-3.1719 0.3711,-0.7734 0.754,-1.543 1.1954,-2.2812 0.5664,-0.9414 1.2148,-1.8321 1.8515,-2.7266 0.6289,-1.0234 1.1485,-2.1172 1.7969,-3.1367 0.9375,-1.4883 2.0859,-2.75 3.2539,-4.0391 0.0391,-0.0508 0.082,-0.1015 0.1172,-0.1484 0.4062,-1.2188 0.8047,-2.4414 1.3594,-3.5938 0.6445,-1.3281 1.3398,-2.6328 2.0664,-3.9179 0.8437,-1.4922 1.7734,-2.9454 2.582,-4.4532 C -1.2148,2.2266 -1.125,2.0547 -1.0352,1.8789 -1.1211,2.0586 -1.2109,2.2305 -1.3008,2.4062 -0.8828,1.5938 -0.4414,0.7969 0,0 Z"
               style="fill:#ffffff;fill-opacity:1;fill-rule:nonzero;stroke:none"
               id="path5201" /></g><g
             id="g5203"
             transform="translate(412.5497,320.748)"><path
               d="M 0,0 C -0.0467,0.0765 -0.0977,0.1487 -0.1487,0.2252 -0.0977,0.1487 -0.051,0.0722 0,0 Z"
               style="fill:#ffffff;fill-opacity:1;fill-rule:nonzero;stroke:none"
               id="path5205" /></g><g
             id="g5207"
             transform="translate(415.8086,276.8359)"><path
               d="m 0,0 c -0.6211,3.832 -1.3828,7.6211 -2.2812,11.3594 -0.2383,1.0039 -0.4922,2.0078 -0.754,3.0078 C -4.0625,13.1406 -4.7891,11.6523 -5.082,10.0312 -5.1836,9.4961 -5.2344,8.9453 -5.2344,8.3867 -5.2344,4.7539 -3.082,1.5469 0,0 Z"
               style="fill:#ffffff;fill-opacity:1;fill-rule:nonzero;stroke:none"
               id="path5209" /></g><g
             id="g5211"
             transform="translate(415.9023,276.2539)"><path
               d="m 0,0 c -0.0273,0.1914 -0.0586,0.3867 -0.0937,0.582 -0.6211,3.8321 -1.3829,7.6211 -2.2813,11.3594 -0.2383,1.0039 -0.4922,2.0078 -0.7539,3.0078 -0.0898,0.3516 -0.1836,0.6992 -0.2773,1.0508 -0.2344,0.8789 -0.4805,1.7578 -0.7344,2.6328 -0.1914,-0.0742 -0.3789,-0.1484 -0.5664,-0.2265 -0.0039,-0.004 -0.0078,-0.004 -0.0117,-0.0079 -1.1485,-0.4882 -2.2422,-1.0937 -3.3477,-1.6836 -0.6875,-0.1796 -1.3945,-0.3203 -2.0781,-0.5351 -0.7813,-0.2461 -1.5508,-0.5039 -2.3516,-0.6875 -0.9648,-0.1992 -1.918,-0.418 -2.8672,-0.711 -1.3711,-0.4218 -2.7148,-0.9687 -4.0703,-1.4492 -0.7344,-0.25 -1.4687,-0.5039 -2.1992,-0.7578 -0.8711,-0.2969 -1.7617,-0.5195 -2.6485,-0.7695 -1.3242,-0.375 -2.5976,-0.9219 -3.8398,-1.5 -2.7187,-1.2617 -5.1836,-2.9297 -7.8164,-4.332 -2.9844,-1.4532 -5.9844,-2.9141 -9.1016,-4.0469 -2.6836,-0.9063 -5.3945,-1.7305 -8.0781,-2.6367 -1.6367,-0.543 -3.3164,-0.918 -4.9492,-1.461 -2.0313,-0.6758 -4.0195,-1.4531 -6.0195,-2.207 -1.461,-0.5469 -2.9454,-1.0352 -4.4024,-1.6094 -1.957,-0.7656 -3.7851,-1.7734 -5.6367,-2.7578 -0.4492,-0.207 -0.8984,-0.4023 -1.3555,-0.5898 -2.6406,-0.7774 -5.3906,-1.2813 -8.0859,-1.8399 -1.3164,-0.2539 -2.6367,-0.4609 -3.9727,-0.5937 -4.2226,-0.2188 -8.4687,-0.0977 -12.7031,-0.0938 -3.8203,0 -7.6601,0.0586 -11.4805,0.2617 -0.7734,0.086 -1.5351,0.2032 -2.3046,0.3399 -1.6641,0.3476 -3.3243,0.6914 -5.004,0.9687 -1.1718,0.1953 -2.3476,0.3633 -3.5117,0.5743 -0.5117,0.1289 -1.0156,0.2812 -1.5156,0.4453 -2.1289,0.7382 -4.2812,1.4062 -6.418,2.1211 -1.6875,0.6211 -3.3515,1.2968 -4.9726,2.0664 -0.5078,0.2734 -1,0.5664 -1.4883,0.875 -1.4727,1.0273 -2.9258,2.0781 -4.457,3.0234 -1.7266,1.0742 -3.6172,1.8633 -5.4571,2.7227 -0.3867,0.2148 -0.7656,0.4336 -1.1367,0.6679 -1.2109,0.8946 -2.3633,1.8633 -3.5508,2.7774 -1.3789,1.0664 -2.8867,1.9179 -4.3515,2.8554 -1.0821,0.7891 -2.1055,1.6485 -3.1719,2.4571 -0.9922,0.7539 -2.0469,1.4297 -3.0859,2.1172 -3.7305,2.5429 -7.5,5.1328 -10.9258,8.0703 -0.6485,0.582 -1.3047,1.1679 -1.9141,1.789 -0.6719,0.8555 -1.2656,1.7618 -1.914,2.6368 -1.0352,1.4101 -2.2774,2.6093 -3.586,3.7539 -2.0312,1.7812 -4.1719,3.5039 -6.3203,5.1445 -2.2891,1.7461 -4.9101,3.0703 -7.6328,4.0391 -0.5742,0.207 -1.1523,0.3945 -1.7344,0.5703 -1.9531,0.5859 -3.9844,0.9804 -6.0273,0.9882 -2.2383,0.0157 -4.3789,-0.5117 -6.5469,-0.9726 -0.1562,-0.0352 -0.3203,-0.0664 -0.4844,-0.1016 -0.6992,-0.1523 -1.3867,-0.3125 -2.0703,-0.4922 -0.9219,-0.2461 -1.8359,-0.5312 -2.75,-0.8867 -1.457,-0.5625 -2.832,-1.3242 -4.2187,-2.0469 -2.3047,-1.082 -4.6758,-1.9687 -7.0743,-2.8242 -2.496,-0.8867 -4.8789,-1.9843 -7.2617,-3.1367 -4.8047,-2.3242 -9.7226,-4.4062 -14.4883,-6.8125 0.3399,0.1758 0.6797,0.3438 1.0196,0.5156 -0.4258,-0.207 -0.8516,-0.4101 -1.2891,-0.5859 -0.1328,-0.0391 -0.2734,-0.0742 -0.414,-0.1055 -2.2305,-0.4258 -4.4336,-0.9101 -6.6446,-1.4336 -2.2773,-0.5351 -4.4453,-1.2929 -6.6289,-2.1132 -0.0781,-0.0235 -0.164,-0.0469 -0.25,-0.0704 -0.0117,-0.0039 -0.0273,-0.0039 -0.0469,-0.0078 -1.5,-0.039 -3.0117,0.0274 -4.5117,0.1133 -3.0547,0.2813 -6.0898,0.7578 -9.1484,1 -3.3516,0.2617 -6.707,0.2969 -10.0547,0.4766 -2.0898,0.1953 -4.1406,0.5859 -6.2109,0.9414 -1.9844,0.3476 -3.9844,0.6094 -5.9688,0.9726 -1.3047,0.2969 -2.5898,0.6563 -3.8594,1.0743 -1.3554,0.4843 -2.707,0.9687 -4.0781,1.4062 -0.8516,0.2773 -1.7266,0.4844 -2.5859,0.7383 -0.7227,0.2851 -1.4258,0.6055 -2.1367,0.918 -0.961,0.4179 -1.9454,0.7695 -2.9336,1.1132 -0.5664,0.1993 -1.1172,0.4219 -1.6602,0.6875 -1.8203,0.8907 -3.6406,1.6993 -5.6289,2.2344 -1.1367,0.3047 -2.2578,0.6133 -3.375,0.9609 -0.1914,0.3321 -0.3789,0.6641 -0.5898,0.9805 -0.2852,0.4297 -0.5821,0.836 -0.8946,1.2227 -1.1367,-2.8516 -2.1875,-5.7422 -3.1523,-8.6719 -1.1602,-3.5 -2.1992,-7.0508 -3.1094,-10.6524 1.0742,-0.4296 2.207,-0.746 3.2852,-1.0937 1.1601,-0.3711 2.3476,-0.6289 3.5117,-0.9766 0.6367,-0.2461 1.2578,-0.5117 1.8672,-0.8203 -0.2969,0.1524 -0.5977,0.3008 -0.8907,0.4531 1.5469,-0.7851 3.0274,-1.4257 4.6524,-2.0039 -0.2735,0.0938 -0.543,0.1914 -0.8164,0.2852 1.6836,-0.5898 3.2773,-1.3711 4.9414,-1.9961 1.8789,-0.707 3.832,-1.1758 5.7422,-1.7969 2.1914,-0.7734 4.375,-1.5351 6.6406,-2.0703 2.6875,-0.6289 5.4219,-0.9492 8.1328,-1.4219 2.7734,-0.4765 5.4922,-0.9648 8.3047,-1.1328 2.6211,-0.1562 5.2539,-0.1718 7.8789,-0.3086 1.5547,-0.1211 3.1133,-0.2617 4.6641,-0.4218 2.5039,-0.25 4.9609,-0.6797 7.4804,-0.7774 2.4766,-0.0898 5.0664,-0.3242 7.5118,0.1328 2.0156,0.3711 3.8515,1.0977 5.7421,1.7969 1.9336,0.6055 3.9336,1.082 5.9141,1.5195 1.418,0.2657 2.832,0.4844 4.2305,0.8203 1.6484,0.4024 3.1797,1.168 4.6836,1.9297 4.6523,2.3008 9.4297,4.336 14.1054,6.5782 2.5821,1.2421 5.25,2.1914 7.9375,3.164 1.4493,0.5274 2.8594,1.1367 4.2461,1.7891 1.1016,0.5156 2.1875,1.0586 3.2774,1.6055 0.4726,0.2226 0.9492,0.4336 1.4336,0.6211 0.4882,0.1445 0.9843,0.2695 1.4843,0.375 0.8204,0.1718 1.6407,0.3437 2.4571,0.5195 0.1797,0.0312 0.3593,0.0586 0.5351,0.0859 0.0196,-0.0039 0.0391,-0.0078 0.0586,-0.0078 0.4649,-0.1172 0.9258,-0.25 1.3789,-0.3867 0.6524,-0.2578 1.2969,-0.5391 1.9297,-0.8399 0.1406,-0.0781 0.2813,-0.1601 0.4141,-0.2421 0.457,-0.3321 0.9062,-0.6758 1.3515,-1.0274 0.7383,-0.5898 1.4649,-1.2031 2.1914,-1.8086 0.8243,-0.6875 1.6758,-1.3359 2.5,-2.0195 0.1719,-0.168 0.3399,-0.332 0.5079,-0.5078 1.2812,-1.5782 2.3476,-3.3008 3.7695,-4.8008 1.6758,-1.7734 3.6406,-3.3086 5.5273,-4.8477 3.5313,-2.8789 7.3828,-5.457 11.1719,-7.9961 1.0469,-0.7304 2.0391,-1.5273 3.0391,-2.3281 1.5508,-1.2344 3.2578,-2.2265 4.9218,-3.2969 1.8672,-1.3515 3.6016,-2.871 5.5274,-4.1562 1.8789,-1.2461 3.9336,-2.125 5.9648,-3.0859 0.7149,-0.379 1.4063,-0.7891 2.0938,-1.2266 1.2578,-0.875 2.5,-1.7578 3.7812,-2.6016 1.6016,-1.0468 3.3946,-1.8359 5.1485,-2.582 2.9883,-1.2773 6.0742,-2.2109 9.1523,-3.2227 0.9024,-0.3203 1.8047,-0.6484 2.7149,-0.957 1.2851,-0.4258 2.5898,-0.6953 3.9218,-0.957 2.1563,-0.4336 4.3516,-0.6953 6.5117,-1.1172 -0.0468,0.0078 -0.0937,0.0195 -0.1406,0.0312 2.5,-0.5 4.9492,-0.9218 7.5235,-0.9882 1.9257,-0.0547 3.8515,-0.1055 5.7734,-0.1836 4.4648,-0.1836 8.957,-0.0782 13.418,-0.0625 2.4726,0.0039 4.9375,0.082 7.3984,0.3007 2.4727,0.2149 4.9258,0.7852 7.3438,1.3321 2.1835,0.5 4.3906,0.914 6.5585,1.4804 2.7735,0.7305 5.2618,2.1211 7.7696,3.461 1.5078,0.6914 3.0625,1.2539 4.6211,1.8164 1.7617,0.6328 3.5,1.3164 5.2539,1.9687 1.0273,0.3282 2.0703,0.6133 3.1094,0.8946 1.4257,0.3984 2.8164,0.9023 4.2031,1.3984 2.5195,0.8281 5.0664,1.5742 7.5703,2.4492 2.1953,0.7696 4.2539,1.6993 6.3398,2.7266 2.1875,1.082 4.4493,1.9844 6.5586,3.2227 1.4649,0.8593 2.8907,1.7773 4.3867,2.5664 0.6133,0.2929 1.2344,0.5742 1.8672,0.8242 1.5586,0.4883 3.1133,0.9609 4.6641,1.4883 1.3047,0.4531 2.6055,0.9257 3.9102,1.3945 0.6757,0.2148 1.3554,0.3984 2.0429,0.5586 0.793,0.1562 1.5742,0.3203 2.3399,0.5664 0.7695,0.25 1.5234,0.5078 2.3047,0.6992 1.082,0.2695 2.125,0.5547 3.1445,1.0078 C -0.5039,-0.25 -0.25,-0.1289 0,0 Z"
               style="fill:#ffffff;fill-opacity:1;fill-rule:nonzero;stroke:none"
               id="path5213" /></g><g
             id="g5215"
             transform="translate(401.6386,271.7414)"><path
               d="M 0,0 C 0.1388,0.0474 0.2776,0.0951 0.4163,0.1434 0.2775,0.0956 0.1388,0.0478 0,0 Z"
               style="fill:#ffffff;fill-opacity:1;fill-rule:nonzero;stroke:none"
               id="path5217" /></g><g
             id="g5219"
             transform="translate(401.4025,271.6613)"><path
               d="m 0,0 c -0.1649,-0.0574 -0.3299,-0.1149 -0.495,-0.1716 0.2437,0.0839 0.4874,0.1678 0.7311,0.2518 C 0.1574,0.0533 0.0787,0.0266 0,0 Z"
               style="fill:#ffffff;fill-opacity:1;fill-rule:nonzero;stroke:none"
               id="path5221" /></g><g
             id="g5223"
             transform="translate(413.5273,288.1953)"><path
               d="m 0,0 c -0.2383,1.0039 -0.4922,2.0078 -0.7539,3.0078 -0.0899,0.3516 -0.1836,0.6992 -0.2774,1.0508 -0.2343,0.8789 -0.4804,1.7578 -0.7343,2.6328 -1.8633,6.4883 -4.1367,12.8086 -6.793,18.9414 -0.1836,0.4219 -0.3672,0.8438 -0.5547,1.2617 -1.2344,0.8438 -2.4961,1.6485 -3.7422,2.4414 -0.5781,0.8008 -1.1601,1.6016 -1.7343,2.4024 -1.2618,1.7578 -2.5704,3.4844 -3.9375,5.1562 -1.3165,1.6094 -2.6875,3.168 -4.1329,4.6641 -2.3789,2.457 -5.0429,4.7734 -7.9414,6.7344 0.1016,1.1523 0.0078,2.3203 -0.2578,3.414 -0.789,3.2618 -3.2969,5.9688 -5.7031,8.1914 -1.1523,1.0664 -2.3047,2.1289 -3.4805,3.1758 -2.3164,2.0664 -4.6289,4.1211 -7.1093,5.9961 -4.6172,3.4961 -9.625,6.4258 -14.6211,9.3477 -0.2657,0.1562 -0.5313,0.3125 -0.7969,0.4687 -0.0938,0.0547 -0.1914,0.1133 -0.2852,0.168 -2.6445,1.5508 -5.3515,3.0039 -8.1718,4.2187 -2.7969,1.1993 -5.9649,1.7305 -8.9024,1.0079 -0.1797,0.1132 -0.3594,0.2265 -0.543,0.3398 -1.2851,0.8047 -2.6093,1.543 -3.9687,2.2227 -0.0039,0.0039 -0.0078,0.0117 -0.0117,0.0156 0.0312,1.9609 -0.4453,3.9297 -1.3946,5.5547 -2.2343,3.8125 -6.3281,6.0859 -10.1757,7.9687 -4.9688,2.4336 -10.2305,4.1016 -15.4688,5.8203 -2.0469,0.6719 -4.1016,1.3633 -6.1601,2.0469 -2.2774,0.8359 -4.586,1.5977 -6.9219,2.2461 -3.7149,1.1484 -7.461,2.1914 -11.25,2.9805 -1.3281,0.6289 -2.7735,1.0507 -4.2422,1.2695 -2.6836,0.4023 -5.3711,0.4492 -8.0469,0.2734 -2.3945,0.1368 -4.7851,0.2227 -7.1914,0.2344 -0.0664,0 -0.1328,0 -0.1992,0 -3.6172,0 -7.3242,-0.5664 -10.6406,-2.0273 -0.3477,-0.1524 -0.6914,-0.3203 -1.0274,-0.5039 -2.289,-0.2618 -4.5429,-0.9102 -6.7422,-1.6329 -0.9257,0.0508 -1.8515,0.0977 -2.7773,0.1407 -5.9609,0.2695 -12.0508,0.5117 -18.0039,-0.0235 -6.3477,-0.5703 -12.7969,-1.4492 -18.7774,-3.7617 -2.0312,-0.7812 -4.0507,-1.6094 -5.8007,-2.9336 -1.4297,-1.0898 -2.4766,-2.5351 -3.1094,-4.1406 -0.293,-0.1094 -0.5859,-0.2188 -0.8789,-0.332 -1.8945,-0.7149 -3.7578,-1.5391 -5.5977,-2.4141 -1.8086,1.0938 -3.9648,1.6133 -6.039,1.2148 -0.5625,-0.1054 -1.125,-0.2187 -1.6914,-0.3398 -1.0664,-0.293 -2.0039,-0.8203 -2.9727,-1.3398 -1.4297,-0.7735 -2.7461,-1.9024 -4.0469,-2.8672 -0.9922,-0.7305 -1.9961,-1.4492 -2.9922,-2.1758 -1.0625,-0.7695 -2.1445,-1.5195 -3.2148,-2.2852 -2.8125,-0.9101 -5.5703,-2.0742 -8.1641,-3.4843 -1.5351,-0.836 -3.0468,-1.7032 -4.5547,-2.5899 -1.871,0.4375 -3.8828,0.3125 -5.746,-0.4609 -0.7461,-0.3125 -1.4024,-0.7305 -2.0547,-1.1719 -2.5938,-1.7187 -5.211,-3.3984 -7.8868,-4.9922 -1.4179,-0.8398 -2.8437,-1.6328 -4.25,-2.4844 -1.9218,-1.1601 -3.7617,-2.4023 -5.6054,-3.6796 -1.6016,-1.1055 -3.1367,-2.336 -4.6406,-3.5977 -0.8321,-0.6953 -1.6563,-1.4023 -2.4805,-2.0977 -1.1172,-0.9414 -2.2305,-1.8828 -3.336,-2.8437 -4.75,-5.9024 -9.082,-12.1289 -12.957,-18.6367 -4.2851,-7.1953 -8.0117,-14.7344 -11.1211,-22.5664 -1.1367,-2.8516 -2.1875,-5.7422 -3.1523,-8.6719 0.8906,-0.4922 1.8633,-0.8438 2.8789,-1.0274 1.2265,-0.6406 2.5937,-1.0039 3.9687,-1.0703 0.5547,-1.9765 1.7735,-3.7773 3.3477,-5.1172 3.3633,-2.8554 8.2266,-2.5781 11.8398,-0.3828 1.8594,1.1289 3.5977,2.4141 5.2969,3.7696 -0.0351,-1.3711 0.2109,-2.7422 0.7266,-3.961 1.2773,-3.0195 4.1133,-5.1797 7.3515,-5.6289 1.9493,-0.2773 3.9883,-0.2383 6,-0.1992 0.7461,0.0117 1.4922,0.0234 2.2266,0.0234 2.2422,-0.0039 4.4883,-0.0078 6.7344,-0.0351 4.6562,-0.0664 9.3008,-0.1992 13.9492,-0.4727 2.3359,-0.207 4.6719,-0.4179 7,-0.6289 2.9726,-0.2773 5.918,-0.3086 8.8711,0.1367 1.6992,0.25 3.3203,0.7774 4.8476,1.5625 1.4258,0.7344 2.4649,1.7735 3.4844,2.9922 1.8828,2.2461 2.4453,5.6992 1.5703,8.5938 0.9063,0.2031 1.8047,0.4531 2.6914,0.6718 2.125,0.5274 4.2461,1.0625 6.3711,1.5977 4.1289,1.0469 8.25,2.0938 12.3516,3.2578 1.2539,0.3555 2.4883,0.7539 3.7109,1.1992 4.8399,1.7344 9.4414,4.0664 13.9844,6.4922 0.793,-1.1328 1.6328,-2.2343 2.457,-3.2929 1.1953,-1.5235 2.3633,-2.9532 3.3438,-4.2461 1.9531,-2.5782 3.7812,-5.1914 5.9492,-7.6055 1.1836,-1.3242 2.5469,-2.625 3.9961,-3.6289 1.8789,-1.3086 3.9375,-2.0156 6.2422,-2.0156 0.5859,0 1.1523,0.0546 1.7031,0.1601 0.7734,-1.2031 1.5547,-2.3984 2.3555,-3.5859 1.8437,-2.75 3.9023,-5.2891 6.2148,-7.6602 1.586,-1.6328 3.4258,-3.1758 5.4571,-4.1875 1.9062,-0.9453 4.0351,-1.1601 6.0429,-0.7656 1.0938,-1.0391 2.1758,-2.0898 3.211,-3.1953 0.6562,-0.832 1.3828,-1.6133 2.2226,-2.2656 0.9375,-0.7227 1.9336,-1.1758 3,-1.5 0.1524,-1.1055 0.4336,-2.1836 0.8633,-3.1993 1.9414,-4.5859 6.6914,-7.9296 11.7891,-7.2617 1.7695,0.2305 3.4257,0.8633 4.8671,1.8164 1.3282,-1.5859 3.2774,-2.9687 5.2657,-3.3867 1.0507,-0.2226 2.0625,-0.4766 3.1445,-0.4766 1.0898,0 2.3203,0.1602 3.375,0.4493 0.7773,0.2148 1.5586,0.4961 2.3164,0.8437 3.168,-2.8828 8.0859,-3.0781 11.6016,-0.6797 1.6836,-1.4297 3.8242,-2.1953 6.082,-2.2539 1.8477,-0.0469 3.6719,0.2969 5.2734,1.2617 1.5391,0.9258 2.7227,2.0743 3.9571,3.3516 0.2656,0.2813 0.5273,0.5625 0.7851,0.8516 1.4219,-0.8672 3.0664,-1.3555 4.7617,-1.3047 1.8164,0.0508 3.5508,0.2422 5.2305,0.9648 1.3203,0.5625 2.6016,1.2227 3.8633,1.9102 2.7109,1.4804 5.1601,3.4804 7.418,5.5976 1.6601,-0.5234 3.4218,-0.789 5.1953,-0.9023 1.3164,-0.0781 2.7031,0.1094 4.0351,0.4219 1.2617,-0.7188 2.6055,-1.2891 4.0117,-1.6563 4.2657,-1.1172 8.8282,-1.0664 12.9297,0.6875 7.2149,3.0938 12.7383,9.3828 16.4453,16.1719 0.625,1.1445 1.1954,2.3242 1.7149,3.5312 0.6523,0.1133 1.3008,0.2461 1.9492,0.3946 2.7422,-0.8281 5.6406,-0.711 8.2305,0.4336 1.9531,-0.1797 4.0508,-0.1485 5.8594,0.375 0.2031,0.0586 0.4023,0.1211 0.6015,0.1914 C -1.8086,-0.9961 -0.8672,-0.5625 0,0 Z"
               style="fill:#ffffff;fill-opacity:1;fill-rule:nonzero;stroke:none"
               id="path5225" /></g><g
             id="g5227"
             transform="translate(188.9818,404.8046)"><path
               d="M 0,0 C 0.0812,0.0261 0.1631,0.0527 0.2443,0.0793 0.1625,0.0541 0.0811,0.0276 0,0 Z"
               style="fill:#000000;fill-opacity:1;fill-rule:nonzero;stroke:none"
               id="path5229" /></g><g
             id="g5231"
             transform="translate(261.8952,133.2529)"><path
               d="m 0,0 c 0,-7.7734 6.4883,-14.2617 14.2617,-14.2617 7.7735,0 14.2617,6.4883 14.2617,14.2617 0,7.7735 -6.4882,14.2617 -14.2617,14.2617 C 6.4883,14.2617 0,7.7735 0,0 Z"
               style="fill:#ffffff;fill-opacity:1;fill-rule:nonzero;stroke:none"
               id="path5233" /></g><g
             id="g5235"
             transform="translate(366.081,197.2115)"><path
               d="m 0,0 c 0,-7.7812 6.4961,-14.2773 14.2773,-14.2773 7.7813,0 14.2774,6.4961 14.2774,14.2773 0,7.7812 -6.4961,14.2773 -14.2774,14.2773 C 6.4961,14.2773 0,7.7812 0,0 Z"
               style="fill:#ffffff;fill-opacity:1;fill-rule:nonzero;stroke:none"
               id="path5237" /></g><g
             id="g5239"
             transform="translate(274.3688,151.965)"><path
               d="m 0,0 c -8.8597,-0.9242 -15.9629,-8.5941 -15.9629,-17.6646 0,-9.6758 8.082,-17.7578 17.7578,-17.7578 9.6758,0 17.7578,8.082 17.7578,17.7578 0,9.4915 -7.7781,17.4491 -17.2077,17.7488 C 1.5638,0.0375 0.7811,0.0093 0,0 Z"
               style="fill:#ffffff;fill-opacity:1;fill-rule:nonzero;stroke:none"
               id="path5241" /></g><g
             id="g5243"
             transform="translate(363.7556,197.3524)"><path
               d="m 0,0 c 0,-9.625 8.0391,-17.6641 17.6641,-17.6641 9.625,0 17.664,8.0391 17.664,17.6641 0,9.625 -8.039,17.6641 -17.664,17.6641 C 8.0391,17.6641 0,9.625 0,0 Z"
               style="fill:#ffffff;fill-opacity:1;fill-rule:nonzero;stroke:none"
               id="path5245" /></g><g
             id="g5247"
             transform="translate(149.5949,148.3984)"><path
               d="m 0,0 c 0,-7.7656 6.4805,-14.2461 14.2461,-14.2461 7.7656,0 14.2461,6.4805 14.2461,14.2461 0,7.7656 -6.4805,14.2461 -14.2461,14.2461 C 6.4805,14.2461 0,7.7656 0,0 Z"
               style="fill:#ffffff;fill-opacity:1;fill-rule:nonzero;stroke:none"
               id="path5249" /></g><g
             id="g5251"
             transform="translate(145.8371,147.7773)"><path
               d="m 0,0 c 0,-9.7031 8.1016,-17.8047 17.8047,-17.8047 9.7031,0 17.8047,8.1016 17.8047,17.8047 0,9.7031 -8.1016,17.8047 -17.8047,17.8047 C 8.1016,17.8047 0,9.7031 0,0 Z"
               style="fill:#ffffff;fill-opacity:1;fill-rule:nonzero;stroke:none"
               id="path5253" /></g><g
             id="g5255"
             transform="translate(230.0597,215.2251)"><path
               d="m 0,0 c 0,-7.7656 6.4805,-14.2461 14.2461,-14.2461 7.7656,0 14.2461,6.4805 14.2461,14.2461 0,7.7656 -6.4805,14.2461 -14.2461,14.2461 C 6.4805,14.2461 0,7.7656 0,0 Z"
               style="fill:#ffffff;fill-opacity:1;fill-rule:nonzero;stroke:none"
               id="path5257" /></g><g
             id="g5259"
             transform="translate(226.3018,214.604)"><path
               d="m 0,0 c 0,-9.7031 8.1016,-17.8047 17.8047,-17.8047 9.7031,0 17.8047,8.1016 17.8047,17.8047 0,9.7031 -8.1016,17.8047 -17.8047,17.8047 C 8.1016,17.8047 0,9.7031 0,0 Z"
               style="fill:#ffffff;fill-opacity:1;fill-rule:nonzero;stroke:none"
               id="path5261" /></g><g
             id="g5263"
             transform="translate(104.9301,226.4766)"><path
               d="m 0,0 c 0,-7.7656 6.4805,-14.2461 14.2461,-14.2461 7.7656,0 14.2461,6.4805 14.2461,14.2461 0,7.7656 -6.4805,14.2461 -14.2461,14.2461 C 6.4805,14.2461 0,7.7656 0,0 Z"
               style="fill:#ffffff;fill-opacity:1;fill-rule:nonzero;stroke:none"
               id="path5265" /></g><g
             id="g5267"
             transform="translate(101.1723,225.8555)"><path
               d="m 0,0 c 0,-9.7031 8.1016,-17.8047 17.8047,-17.8047 9.7031,0 17.8047,8.1016 17.8047,17.8047 0,9.7031 -8.1016,17.8047 -17.8047,17.8047 C 8.1016,17.8047 0,9.7031 0,0 Z"
               style="fill:#ffffff;fill-opacity:1;fill-rule:nonzero;stroke:none"
               id="path5269" /></g><g
             id="g5271"
             transform="translate(136.7812,225.8555)"><path
               d="m 0,0 c 0,-9.7031 -8.1016,-17.8047 -17.8047,-17.8047 -9.7031,0 -17.8047,8.1016 -17.8047,17.8047 0,9.7031 8.1016,17.8047 17.8047,17.8047 C -8.1016,17.8047 0,9.7031 0,0 Z m 44.6641,-78.0781 c 0,-9.7032 -8.1016,-17.8047 -17.8047,-17.8047 -9.7031,0 -17.8047,8.1015 -17.8047,17.8047 0,9.7031 8.1016,17.8047 17.8047,17.8047 9.7031,0 17.8047,-8.1016 17.8047,-17.8047 z m 80.4648,66.8281 c 0,-9.7031 -8.1016,-17.8047 -17.8047,-17.8047 -9.7031,0 -17.8047,8.1016 -17.8047,17.8047 0,9.7031 8.1016,17.8047 17.8047,17.8047 9.7031,0 17.8047,-8.1016 17.8047,-17.8047 z m 14.8047,-62.5547 c 9.4297,-0.3008 17.207,-8.2578 17.207,-17.75 0,-9.6758 -8.082,-17.7578 -17.7578,-17.7578 -9.6758,0 -17.7578,8.082 -17.7578,17.7578 0,9.0703 7.1016,16.7383 15.9609,17.6641 0.7813,0.0078 1.5664,0.039 2.3477,0.0859 z m 122.3672,45.3008 c 0,-9.625 -8.0391,-17.6641 -17.6641,-17.6641 -9.625,0 -17.664,8.0391 -17.664,17.6641 0,9.625 8.039,17.6641 17.664,17.6641 9.625,0 17.6641,-8.0391 17.6641,-17.6641 z m 16.8203,78.9023 c 1.0117,-6.3711 1.6367,-12.8632 1.8516,-19.4531 -22.8204,-10.5547 -53.3672,-17.0039 -86.9336,-17.0039 -54.043,0 -100.2539,16.7227 -119,40.3594 -0.461,0.582 -0.9063,1.164 -1.3321,1.7539 -0.1211,0.1719 -0.2461,0.3398 -0.3632,0.5117 -0.1563,0.2188 -0.3086,0.4375 -0.4571,0.6602 C 57.7852,45.9258 34.5234,38.6836 8.4258,38.6836 c -24.9649,0 -47.3321,6.625 -62.4492,17.0977 0.5546,2.8476 1.1875,5.6679 1.8945,8.4609 0.9101,3.6016 1.9492,7.1523 3.1094,10.6523 0.9648,2.9297 2.0156,5.8203 3.1523,8.6719 3.1094,7.832 6.8359,15.3711 11.1211,22.5664 3.875,6.5078 8.207,12.7344 12.957,18.6367 2.6211,3.2657 5.3711,6.4297 8.2422,9.4883 30.7422,32.7656 75.211,53.4414 124.7149,53.6875 0.0703,0 0.1406,0.004 0.2109,0.004 0.0742,0 0.1406,0 0.2149,0 0.1601,0 0.3203,0 0.4804,0 0.1719,0 0.3438,0 0.5156,0 0.0586,0 0.1055,0 0.1641,0 0.1172,0 0.2383,-0.004 0.3594,-0.004 0.0625,0 0.125,0 0.1875,0 0.1133,0 0.2265,-0.004 0.3359,-0.004 0.0586,0 0.125,0 0.1836,0 0.1094,0 0.2188,-0.004 0.3281,-0.004 0.0782,0 0.1446,-0.004 0.2266,-0.004 0.0898,0 0.1836,0 0.2773,-0.004 0.0782,0 0.1563,0 0.2344,-0.004 0.0977,0 0.1953,0 0.293,-0.004 0.0742,0 0.1523,-0.004 0.2266,-0.004 0.121,-0.004 0.25,-0.004 0.371,-0.008 0.0469,0 0.0821,0 0.129,0 0.1679,-0.004 0.3398,-0.008 0.5078,-0.0118 0.0703,-0.004 0.1328,-0.004 0.2031,-0.008 0.1055,0 0.207,-0.004 0.3125,-0.008 0.0781,0 0.1484,-0.004 0.2305,-0.004 0.0937,-0.004 0.1875,-0.008 0.2812,-0.0117 0.0781,0 0.1602,-0.004 0.2383,-0.004 0.0937,-0.004 0.1875,-0.008 0.2773,-0.0117 0.0782,0 0.1641,-0.004 0.2461,-0.008 0.086,-0.004 0.1719,-0.004 0.2578,-0.008 0.086,-0.004 0.168,-0.008 0.2539,-0.0117 0.0899,0 0.1836,-0.004 0.2735,-0.008 0.0781,-0.004 0.1523,-0.008 0.2344,-0.008 0.0976,-0.008 0.1992,-0.0117 0.2968,-0.0156 0.0703,0 0.1446,-0.004 0.211,-0.008 0.1015,-0.004 0.207,-0.008 0.3086,-0.0118 0.332,-0.0156 0.6757,-0.0312 1.0039,-0.0507 0.0664,0 0.1289,-0.004 0.1914,-0.008 0.0898,-0.004 0.1914,-0.0117 0.2812,-0.0156 0.0742,-0.004 0.1524,-0.008 0.2305,-0.0117 0.0898,-0.004 0.1914,-0.0117 0.2812,-0.0156 0.0704,-0.004 0.1446,-0.008 0.2188,-0.0117 0.0937,-0.004 0.2031,-0.0118 0.3008,-0.0157 0.0586,-0.004 0.1172,-0.008 0.1758,-0.0117 0.1132,-0.008 0.2265,-0.0156 0.3398,-0.0195 0.0508,-0.004 0.0977,-0.008 0.1445,-0.0117 0.1133,-0.008 0.2344,-0.0118 0.3477,-0.0196 0.043,-0.004 0.0898,-0.008 0.1367,-0.0117 0.5742,-0.0351 1.1445,-0.0742 1.7227,-0.1172 0.0273,-0.004 0.0586,-0.008 0.0859,-0.008 0.1289,-0.0117 0.2578,-0.0195 0.3867,-0.0312 0.0352,0 0.0664,-0.004 0.0977,-0.008 0.1328,-0.008 0.2539,-0.0195 0.3906,-0.0312 0.0313,0 0.0664,-0.004 0.0977,-0.008 0.1289,-0.008 0.2656,-0.0195 0.3945,-0.0313 0.0273,-0.004 0.0508,-0.004 0.0781,-0.008 0.1367,-0.008 0.2774,-0.0234 0.4102,-0.0351 0.0195,0 0.039,0 0.0586,-0.004 4.0586,-0.3516 8.0781,-0.8399 12.0507,-1.461 1.1797,-0.2773 2.3086,-0.6758 3.5118,-0.8906 -0.1914,0.0352 -0.3789,0.0703 -0.5704,0.1016 1.4219,-0.2579 2.8243,-0.5782 4.25,-0.8086 0.8321,-0.125 1.6407,-0.336 2.4571,-0.5469 0.8086,-0.2031 1.6328,-0.3438 2.4375,-0.5469 -0.1836,0.0469 -0.3633,0.0938 -0.543,0.1406 0.6719,-0.1757 1.3477,-0.3046 2.0234,-0.4609 0.9063,-0.2305 1.8125,-0.4375 2.7266,-0.6445 0.7344,-0.1641 1.4805,-0.3125 2.2188,-0.4649 0.6523,-0.1445 1.2734,-0.3554 1.9257,-0.5234 0.75,-0.1992 1.5,-0.3867 2.2383,-0.6133 0.6992,-0.2109 1.3946,-0.3828 2.1133,-0.5 13.2852,-4.1328 25.8516,-9.8047 37.4648,-16.793 0.0352,-0.0234 0.0704,-0.0429 0.1094,-0.0664 0.0742,-0.0429 0.1446,-0.0859 0.2188,-0.1328 0.0429,-0.0234 0.082,-0.0508 0.125,-0.0742 11.0351,-6.6875 21.2109,-14.5664 30.3242,-23.4531 0,0 0.004,0 0.004,0 0.3594,-0.3477 0.7109,-0.6992 1.0664,-1.0469 10.293,-10.2187 19.2031,-21.7305 26.4297,-34.2617 2.8047,-4.8555 5.3555,-9.8633 7.6367,-15.0078 0.1875,-0.418 0.3711,-0.8399 0.5547,-1.2617 2.6562,-6.1329 4.9297,-12.4532 6.793,-18.9414 0.2539,-0.875 0.5,-1.754 0.7343,-2.6329 0.0938,-0.3515 0.1875,-0.6992 0.2774,-1.0507 0.2617,-1 0.5156,-2.0039 0.7539,-3.0079 0.8984,-3.7382 1.6601,-7.5273 2.2812,-11.3593 0.0352,-0.1953 0.0664,-0.3907 0.0938,-0.5821 z M 113.2188,-171.3555 c 111.8359,0 202.4999,87.5274 202.4999,195.5 0,107.9727 -90.664,195.5 -202.4999,195.5 -111.836,0 -202.5001,-87.5273 -202.5001,-195.5 0,-107.9726 90.6641,-195.5 202.5001,-195.5 z"
               style="fill:#5aabea;fill-opacity:1;fill-rule:nonzero;stroke:none"
               id="path5273" /></g></g></g></g></g></svg>
