<?xml version="1.0" encoding="UTF-8" standalone="no"?>
<!-- Created with Inkscape (http://www.inkscape.org/) -->

<svg
   version="1.1"
   id="svg1041"
   xml:space="preserve"
   width="666.66669"
   height="666.66669"
   viewBox="0 0 666.66669 666.66669"
   sodipodi:docname="icon_kivia.svg"
   inkscape:version="1.1.1 (3bf5ae0d25, 2021-09-20)"
   xmlns:inkscape="http://www.inkscape.org/namespaces/inkscape"
   xmlns:sodipodi="http://sodipodi.sourceforge.net/DTD/sodipodi-0.dtd"
   xmlns="http://www.w3.org/2000/svg"
   xmlns:svg="http://www.w3.org/2000/svg"><defs
     id="defs1045"><clipPath
       clipPathUnits="userSpaceOnUse"
       id="clipPath1057"><path
         d="M 46.7539,54.0508 H 453.246 V 445.949 H 46.7539 Z"
         id="path1055" /></clipPath></defs><sodipodi:namedview
     id="namedview1043"
     pagecolor="#ffffff"
     bordercolor="#111111"
     borderopacity="1"
     inkscape:pageshadow="0"
     inkscape:pageopacity="0"
     inkscape:pagecheckerboard="1"
     showgrid="false"
     inkscape:zoom="1.293"
     inkscape:cx="332.94665"
     inkscape:cy="333.72004"
     inkscape:window-width="1920"
     inkscape:window-height="1051"
     inkscape:window-x="-9"
     inkscape:window-y="-9"
     inkscape:window-maximized="1"
     inkscape:current-layer="g1047" /><g
     id="g1047"
     inkscape:groupmode="layer"
     inkscape:label="icon_kivia"
     transform="matrix(1.3333333,0,0,-1.3333333,0,666.66667)"><g
       id="g1049"
       transform="matrix(1,0,0,-1,0,500)"><g
         id="g1051"><g
           id="g1053"
           clip-path="url(#clipPath1057)"><g
             id="g1059"
             transform="translate(209.293,241.7656)"><path
               d="m 0,0 c 0,0 29.0156,66.8828 29.0156,66.8828 0,0 -32.2226,52.1328 -32.2226,52.1328 0,0 -64.7852,1.7344 -64.7852,1.7344 0,0 -5.1328,0.1367 -5.1328,0.1367 0,0 -9.3398,0.25 -9.3398,0.25 0,0 -0.004,0 -0.004,0 0,0 -8.0078,-14.9336 -8.0078,-14.9336 0,0 -0.2461,-0.4609 -0.2461,-0.4609 0,0 -3.0586,-5.6992 -3.0586,-5.6992 0,0 -8.1835,-15.2539 -8.1835,-15.2539 0,-0.0039 -0.004,-0.0039 -0.004,-0.0078 0,0 -12.7187,-23.7149 -12.7187,-23.7149 0,0 1.3672,-1.4492 1.3672,-1.4492 0,0 1.2422,-1.3125 1.2422,-1.3125 0,0 5.2617,-5.5742 5.2617,-5.5742 0,0 0.0273,-0.0274 0.0273,-0.0274 0,0 10.5508,-11.1758 10.5508,-11.1758 0,0 0,-0.0039 0,-0.0039 0,0 7.7774,-8.2343 7.7774,-8.2343 0,0 8.1328,-8.6172 8.1328,-8.6172 0,0 23.2148,23.9062 23.2148,23.9062 0,0 -1.2539,44.5313 -1.2539,44.5313 0,0 13.8633,-46.1836 13.8633,-46.1836 0,0 -26.3594,-32.2735 -26.3594,-32.2735 0,0 0.043,-0.0468 0.043,-0.0468 C -70.8203,14.6055 0,0 0,0 Z"
               style="fill:#324c6a;fill-opacity:1;fill-rule:nonzero;stroke:none"
               id="path1061" /></g><g
             id="g1063"
             transform="translate(219.2812,183.3516)"><path
               d="m 0,0 c 0,0 -14.5977,-26.8906 -14.5977,-26.8906 0,0 -36.8203,7.8125 -36.8203,7.8125 0,0 30.4258,3.1406 30.4258,3.1406 C -20.9922,-15.9375 0,0 0,0 Z m -1.6445,-44.9961 c 0,0 28.0351,49.7891 28.0351,49.7891 0,0 -28.082,28.332 -28.082,28.332 0,0 -25.9844,-10.1523 -25.9844,-10.1523 0,0 -52.1953,-50.5469 -52.1953,-50.5469 0,0 78.2266,-17.4219 78.2266,-17.4219 z"
               style="fill:#324c6a;fill-opacity:1;fill-rule:nonzero;stroke:none"
               id="path1065" /></g><g
             id="g1067"
             transform="translate(330.6484,230.3477)"><path
               d="m 0,0 c 0,0 -1.582,-27.6602 -1.582,-27.6602 0,0 0,-0.0039 0,-0.0039 0,0 -1.2188,-21.3047 -1.2188,-21.3047 0,0 -16.1836,44.129 -16.1836,44.129 0,0 -24.6797,53.707 -24.6797,53.707 0,0 39.1133,-43.7149 39.1133,-43.7149 0,-0.0039 0,-0.0039 0,-0.0078 0,0 4.543,-5.0781 4.543,-5.0781 C -0.0078,0.0469 -0.0039,0.0195 0,0 Z m 51.8359,-74.0039 c 0,0 26.9922,54.5117 26.9922,54.5117 0,0 -12.9258,102.6524 -12.9258,102.6524 0,0 -1.996,-1.2696 -1.996,-1.2696 0,0 -18.3243,-11.664 -18.3243,-11.664 0,0 0,-0.0039 0,-0.0039 0,0 -5.5195,-3.5157 -5.5195,-3.5157 0,0 -14.5117,-9.2382 -14.5117,-9.2382 0,0 -11.4219,-7.2696 -11.4219,-7.2696 0,0 4.168,-8.4961 4.168,-8.4961 0,0 17.582,-35.8359 17.582,-35.8359 0,0 -8.3789,10.918 -8.3789,10.918 0,0 -12.0352,15.6796 -12.0352,15.6796 0,0 -13.5234,17.6211 -13.5234,17.6211 0,0 -0.3086,0.4024 -0.3086,0.4024 0,0 -2.8203,3.6758 -2.8203,3.6758 0,0 2.8555,1.7539 2.8555,1.7539 0,0 24.3515,14.9062 24.3515,14.9062 0,0 0,-0.0039 0,-0.0039 0,0 33.4805,20.4961 33.4805,20.4961 0,0 -0.0039,0.0039 -0.0039,0.0039 0,0 -12.1797,13.6563 -12.1797,13.6563 0,0 -41.0586,46.0351 -41.0586,46.0351 0,0 -23.9492,-11.0547 -23.9492,-11.0547 0,0 -3.5274,-1.6289 -3.5274,-1.6289 0,0 -20.1406,-9.2929 -20.1406,-9.2929 0,0 -0.0234,-0.4727 -0.0234,-0.4727 0,0 -0.3867,0.2578 -0.3867,0.2578 0,0 -32.0547,-133.0703 -32.0547,-133.0703 0,0 -0.3125,-1.0273 -0.3125,-1.0273 0,0 43.3398,-71.8868 43.3398,-71.8868 0,0 74.3867,2.8399 74.3867,2.8399 0,0 0,-0.0078 0,-0.0078 0,0 0.9297,0.0429 0.9297,0.0429 0,0 0.2696,0.0118 0.2696,0.0118 0,0 0.0039,0.0039 0.0039,0.0039 0,0 2.2929,0.1093 2.2929,0.1093 0.0118,-0.0078 0.0235,-0.0156 0.0352,-0.0234 0,0 4.7148,0.1836 4.7148,0.1836 z"
               style="fill:#324c6a;fill-opacity:1;fill-rule:nonzero;stroke:none"
               id="path1069" /></g><g
             id="g1071"
             transform="translate(118.8167,347.9702)"><path
               d="m 0,0 c -0.491,-6.9638 -0.9604,-13.9319 -1.4126,-20.9 -0.7278,-1.9681 -1.4642,-3.9362 -2.2179,-5.9 -1.3135,-3.4367 -2.7519,-6.826 -4.1429,-10.2325 -0.9819,-2.4074 0.1249,-5.2326 2.5366,-6.2489 0.7321,-0.3144 1.5159,-0.4178 2.2782,-0.3446 -0.2886,-3.7079 -0.603,-7.4159 -0.969,-11.1196 -0.0345,-0.1723 -0.0646,-0.3489 -0.0991,-0.5211 -0.5986,-3.1352 -1.1886,-6.2705 -1.7355,-9.4143 0,0 15.9114,-16.8514 15.9114,-16.8514 0,0 23.2141,23.9056 23.2141,23.9056 0,0 -1.2532,44.5304 -1.2532,44.5304 0,0 13.863,-46.1841 13.863,-46.1841 0,0 -26.3608,-32.2712 -26.3608,-32.2712 0,0 0.0431,-0.0456 0.0431,-0.0456 0,0 70.8222,-14.608 70.8222,-14.608 0,0 29.0136,66.8816 29.0136,66.8816 0,0 -32.2221,52.1358 -32.2221,52.1358 0,0 -79.2588,2.1189 -79.2588,2.1189 C 8.0103,14.931 0,0 0,0 Z"
               style="fill:#ffffff;fill-opacity:1;fill-rule:nonzero;stroke:none"
               id="path1073" /></g><g
             id="g1075"
             transform="translate(107.3291,326.5538)"><path
               d="m 0,0 c -0.5967,-1.3704 -1.1818,-2.7465 -1.778,-4.1172 -1.881,-4.3364 -3.4783,-8.7954 -5.1561,-13.2124 -0.4834,-1.2785 -0.9843,-2.55 -1.4712,-3.8285 -0.3678,-0.9703 -0.7426,-1.9371 -1.0893,-2.9143 -0.2452,-0.6971 -0.4344,-1.3626 -0.5745,-2.0842 -0.0216,-0.1093 -0.0365,-0.2189 -0.0459,-0.3288 0,0 5.2616,-5.572 5.2616,-5.572 0.3112,0.0177 0.6271,0.0645 0.9457,0.1423 0.0487,0.0118 0.0972,0.0241 0.1453,0.0366 0.5508,-0.352 1.1809,-0.5779 1.8653,-0.6251 0.9982,-0.07 2.0981,-0.077 3.0299,0.3573 1.0893,0.5079 1.93,1.1209 2.7741,1.9791 0.9563,0.9737 1.6674,2.2277 2.3154,3.4152 0.6164,1.1349 1.1734,2.3293 1.6323,3.5342 0.9702,2.557 1.8599,5.1211 2.7216,7.7166 0.3906,1.1803 0.7611,2.3676 1.1184,3.5597 0.0612,0.1191 0.1227,0.238 0.1846,0.3564 0.5395,1.0194 1.0789,2.0387 1.5903,3.0755 1.1489,2.3328 2.2943,4.6691 3.4152,7.016 2.0631,4.3224 4.1963,8.6238 5.9652,13.0758 1.7934,4.5221 3.3241,9.1458 4.3119,13.9165 0.3853,1.8635 0.7601,3.7305 1.0999,5.6044 0.2974,1.6257 0.6394,3.3329 0.5784,4.997 0,0 -9.3423,0.2502 -9.3423,0.2502 C 19.4978,36.3503 0,0 0,0 Z"
               style="fill:#ffffff;fill-opacity:1;fill-rule:nonzero;stroke:none"
               id="path1077" /></g><g
             id="g1079"
             transform="translate(119.4817,347.7332)"><path
               d="m 0,0 c -0.3118,-0.0425 -0.6177,-0.1192 -0.9131,-0.2259 0,0 -3.0558,-5.6971 -3.0558,-5.6971 0.023,-0.137 0.0439,-0.2744 0.0624,-0.412 -5e-4,-0.0237 -9e-4,-0.0474 -0.0013,-0.0712 -0.0449,-0.379 -0.1011,-0.7525 -0.1696,-1.1279 -0.5002,-2.2863 -1.1456,-4.5059 -1.8181,-6.7455 -0.4629,-1.2677 -0.9279,-2.5334 -1.3903,-3.8017 -0.4448,-1.2189 -1.0018,-2.3994 -1.5167,-3.5903 -0.4974,-1.1454 -0.9772,-2.2943 -1.5342,-3.4117 -0.6601,-1.3265 -1.3229,-2.6531 -1.9837,-3.9796 -2.3775,-4.3167 -4.7207,-8.6682 -7.4064,-12.8034 -0.8029,-1.0564 -1.5994,-2.1145 -2.4562,-3.1329 -0.4285,-0.4671 -0.8676,-0.9164 -1.3245,-1.3527 0,0 6.5283,-6.9135 6.5283,-6.9135 1.362,1.2801 2.5791,2.6889 3.7107,4.1776 1.3871,1.825 2.6446,3.7094 3.7935,5.6885 2.1577,3.7164 4.3294,7.4364 6.249,11.2825 0.9842,1.9755 1.979,3.9371 2.8582,5.9616 0.5254,1.205 1.0473,2.4065 1.5692,3.6114 0.3643,0.8372 0.6411,1.7198 0.9563,2.578 0.3748,1.0228 0.7986,2.0387 1.1139,3.0824 0.3573,1.191 0.718,2.3819 1.0753,3.5764 0.2873,0.9457 0.4659,1.9265 0.6936,2.8898 0.1926,0.8266 0.3538,1.6603 0.4834,2.4975 0.1961,1.2925 0.091,2.5675 -0.1507,3.8425 -0.2417,1.247 -0.7916,2.3398 -1.8109,3.1279 C 2.7269,-0.303 1.6904,0.0433 0.6404,0.0433 0.4269,0.0433 0.213,0.0291 0,0 Z"
               style="fill:#ffffff;fill-opacity:1;fill-rule:nonzero;stroke:none"
               id="path1081" /></g><g
             id="g1083"
             transform="translate(94.6036,302.8317)"><path
               d="m 0,0 c 0,0 26.2298,-27.7775 26.2298,-27.7775 0.871,1.2765 1.3087,2.7105 1.3961,4.2041 0.8156,0.1181 1.5987,0.443 2.2562,0.9526 2.0036,1.5482 2.564,4.7462 0.8687,6.7463 -0.4996,0.5902 -0.9755,1.2015 -1.441,1.8222 0.3842,1.016 0.7569,2.0356 1.0977,3.0641 0.9563,2.8793 1.909,5.7586 2.8618,8.6379 1.4677,4.4274 2.5815,8.9671 3.8145,13.4646 0.1962,0.7216 0.3328,1.4711 0.4974,2.1997 0.3993,1.7865 0.8021,3.5728 1.2049,5.3593 0.4449,1.9685 0.8862,3.9336 1.2645,5.9161 1.2645,6.6027 2.487,13.202 3.5518,19.8397 0.3701,2.3021 0.739,4.6042 1.1148,6.9051 0.0709,0.2642 0.1409,0.5291 0.2093,0.794 0.5184,2.0176 1.0683,4.0212 1.4676,6.0633 0.0968,0.496 0.1988,0.9939 0.3012,1.4934 0,0 -14.4733,0.3876 -14.4733,0.3876 C 32.222,60.0725 0,0 0,0 Z"
               style="fill:#ffffff;fill-opacity:1;fill-rule:nonzero;stroke:none"
               id="path1085" /></g><g
             id="g1087"
             transform="translate(191.6038,206.3235)"><path
               d="m 0,0 c 0,0 -52.1918,-50.5466 -52.1918,-50.5466 0,0 78.2252,-17.4203 78.2252,-17.4203 0,0 28.036,49.7887 28.036,49.7887 0,0 -28.0833,28.3332 -28.0833,28.3332 C 25.9861,10.155 0,0 0,0 Z m 27.6786,-22.9714 c 0,0 -14.5995,-26.8905 -14.5995,-26.8905 0,0 -36.8214,7.8122 -36.8214,7.8122 0,0 30.4262,3.1395 30.4262,3.1395 0,0 20.9947,15.9388 20.9947,15.9388 z"
               style="fill:#ffffff;fill-opacity:1;fill-rule:nonzero;stroke:none"
               id="path1089" /></g><g
             id="g1091"
             transform="translate(289.2909,359.3821)"><path
               d="m 0,0 c 0,0 -1.236,-25.8612 -1.236,-25.8612 0,0 0.0043,0.0172 0.0043,0.0172 0,0 0.0129,0.1163 0.0129,0.1163 0,0 0.0259,0.2196 0.0259,0.2196 0,0 0.0301,0.2498 0.0301,0.2498 0,0 0.0345,0.2627 0.0345,0.2627 0,0 0.0302,0.28 0.0302,0.28 0,0 0.0344,0.2928 0.0344,0.2928 0,0 0.0345,0.2929 0.0345,0.2929 0,0 0.0344,0.2928 0.0344,0.2928 0,0 0.0301,0.2885 0.0301,0.2885 0,0 0.0345,0.2886 0.0345,0.2886 0,0 0.0301,0.2842 0.0301,0.2842 0,0 0.0259,0.2799 0.0259,0.2799 0,0 0.0301,0.2799 0.0301,0.2799 0,0 0.0259,0.2714 0.0259,0.2714 0,0 0.0215,0.2627 0.0215,0.2627 0,0 0.0258,0.2584 0.0258,0.2584 0,0 0.0216,0.2498 0.0216,0.2498 0,0 0.0172,0.2497 0.0172,0.2497 0,0 0.0215,0.2412 0.0215,0.2412 0,0 0.0172,0.2326 0.0172,0.2326 0,0 0.013,0.2239 0.013,0.2239 0,0 0.0172,0.2196 0.0172,0.2196 0,0 0.0129,0.2068 0.0129,0.2068 0,0 0.013,0.2024 0.013,0.2024 0,0 0.0128,0.1938 0.0128,0.1938 0,0 0.013,0.1895 0.013,0.1895 0,0 0.0086,0.1851 0.0086,0.1851 0,0 0.0086,0.1766 0.0086,0.1766 0,0 0.0086,0.168 0.0086,0.168 0,0 0.0086,0.1679 0.0086,0.1679 0,0 0.0087,0.1594 0.0087,0.1594 0,0 0.0086,0.155 0.0086,0.155 0,0 0.0043,0.1507 0.0043,0.1507 0,0 0.0086,0.1465 0.0086,0.1465 0,0 0.0043,0.1421 0.0043,0.1421 0,0 0.0086,0.1378 0.0086,0.1378 0,0 0.0043,0.1335 0.0043,0.1335 0,0 0.0043,0.1336 0.0043,0.1336 0,0 0.0043,0.1291 0.0043,0.1291 0,0 0.0043,0.1249 0.0043,0.1249 0,0 0.0043,0.1249 0.0043,0.1249 0,0 0.0043,0.1206 0.0043,0.1206 0,0 0,0.1163 0,0.1163 0,0 0.0044,0.1119 0.0044,0.1119 0,0 0.0042,0.112 0.0042,0.112 0,0 0,0.112 0,0.112 0,0 0.0044,0.1076 0.0044,0.1076 0,0 0,0.1077 0,0.1077 0,0 0.0043,0.1034 0.0043,0.1034 0,0 0,0.1077 0,0.1077 0,0 0.0043,0.099 0.0043,0.099 0,0 0,0.1034 0,0.1034 0,0 0,0.099 0,0.099 0,0 0.0043,0.1034 0.0043,0.1034 0,0 0,0.0947 0,0.0947 0,0 0,0.099 0,0.099 0,0 0,0.0991 0,0.0991 0,0 0.0043,0.0991 0.0043,0.0991 0,0 0,0.0947 0,0.0947 0,0 0,0.0948 0,0.0948 0,0 0,0.0947 0,0.0947 0,0 0,0.0086 0,0.0086 0,0 1.0207,-10.0774 1.0207,-10.0774 0,0 -33.3203,-109.1424 -33.3203,-109.1424 0,0 43.3374,-71.8902 43.3374,-71.8902 0,0 75.5853,2.8897 75.5853,2.8897 0.3618,0.3187 0.6805,0.6718 0.9949,1.0422 0.4134,-0.3575 0.8742,-0.6718 1.3393,-0.9518 0,0 4.7157,0.1809 4.7157,0.1809 0,0 26.9896,54.5131 26.9896,54.5131 0,0 -12.9242,102.6523 -12.9242,102.6523 0,0 -40.3529,-25.6933 -40.3529,-25.6933 -0.0129,-1.4987 -0.0302,-2.9973 -0.0431,-4.4961 -0.0301,-2.894 0.1163,-5.801 0.2068,-8.6993 -0.6934,0.1852 -1.4083,0.267 -2.1835,0.2842 -1.77,0.0302 -3.3505,-0.8527 -4.5693,-2.0714 -0.2412,-0.2412 -0.4608,-0.5039 -0.6632,-0.7796 0,0 17.5881,-35.8525 17.5881,-35.8525 0,0 -20.4219,26.6149 -20.4219,26.6149 -0.2153,-1.5246 -0.3445,-3.0707 -0.491,-4.5952 -0.2282,-2.3384 -0.3358,-4.6898 -0.4564,-7.0327 -0.2197,-4.3238 -0.3144,-8.6476 -0.3402,-12.9758 -0.3015,1.5763 -0.6159,3.1525 -0.9303,4.7244 -0.0344,0.2498 -0.0861,0.5038 -0.1507,0.7536 -0.0259,0.112 -0.0474,0.224 -0.0689,0.3359 -0.0301,0.1852 -0.0646,0.3661 -0.112,0.5427 -0.0689,0.3445 -0.1421,0.689 -0.211,1.0336 -0.0345,0.2067 -0.0732,0.4048 -0.1249,0.6029 -0.0948,0.4436 -0.1895,0.8872 -0.2843,1.3307 -0.0042,0.056 -0.0086,0.1077 -0.0172,0.1594 -0.0473,0.3445 -0.1249,0.6718 -0.2282,0.9905 -0.969,4.5047 -2.0284,8.9836 -3.2257,13.4366 -0.4479,1.6495 -0.9431,3.2817 -1.447,4.9139 -0.7838,2.5237 -2.8466,4.4314 -5.3747,4.7846 0.0044,0.9346 -0.0086,1.8734 0,2.8036 0.0087,1.2618 0.0388,2.5194 0.0044,3.7769 -0.0216,0.6805 -0.0431,1.3566 -0.0647,2.0327 0,0 -3.1308,4.0784 -3.1308,4.0784 0,0 2.8595,1.7528 2.8595,1.7528 -0.0473,0.8354 -0.099,1.6752 -0.1593,2.515 -0.2067,2.9501 -0.5814,5.8871 -0.9603,8.8199 -0.3575,2.7563 -0.8097,5.5298 -1.4816,8.2257 -0.6029,2.4074 -1.3953,4.8363 -3.6735,6.1714 -1.1972,0.7019 -2.7519,0.9991 -4.13,0.8096 -1.6495,-0.2239 -3.0232,-0.9862 -4.1344,-2.2136 -0.1894,-0.211 -0.366,-0.4307 -0.5297,-0.6589 -0.2282,1.0465 -0.4565,2.093 -0.6976,3.1352 -0.2111,5.8613 -0.4436,11.7226 -0.6718,17.5796 -0.1034,2.6227 -0.2154,5.2454 -0.3532,7.8682 -0.0861,1.658 -0.1809,3.3203 -0.2972,4.9784 -0.1076,1.5633 -0.2411,3.1955 -0.7795,4.6468 -0.4823,7.3859 -0.9819,14.776 -1.4943,22.1618 C 23.6649,10.9215 0,0 0,0 Z m 80.8695,-138.2034 c -0.0732,0.646 -0.1421,1.292 -0.211,1.938 -0.0732,3.4151 -0.155,6.8302 -0.2455,10.2454 -0.2756,10.2024 -0.7536,20.4047 -1.2015,30.5984 -0.3402,7.7003 -0.646,15.4177 -0.6202,23.1266 0.5125,-2.8812 1.0121,-5.7709 1.4944,-8.6607 0.9905,-5.9689 1.882,-11.9594 2.7692,-17.9456 0.1464,-1.4772 0.2971,-2.9544 0.4478,-4.4315 0.7623,-7.4591 1.137,-14.9612 1.6495,-22.4461 -0.0215,0.2671 -0.0387,0.5298 -0.056,0.7968 0.1809,-5.4909 0.3703,-10.9819 0.5512,-16.4685 0.0302,-0.913 0.0517,-1.8303 0.069,-2.7433 -1.4169,0.3488 -2.8295,0.1421 -4.0655,-0.4909 -0.1593,2.1662 -0.3359,4.3195 -0.5814,6.4814 z m -58.4966,4.3281 c 0,0 -24.6812,53.7078 -24.6812,53.7078 0,0 43.6604,-48.7982 43.6604,-48.7982 0,-0.0216 0.0043,-0.0474 0.0086,-0.069 0,0 -2.8036,-48.9704 -2.8036,-48.9704 0,0 -16.1842,44.1298 -16.1842,44.1298 z m 23.9404,-2.4246 c 0.1378,-0.8182 0.2713,-1.6408 0.4091,-2.4591 -0.1594,-0.2885 -0.3058,-0.5813 -0.4435,-0.8828 0.0128,1.1111 0.0258,2.2265 0.0344,3.3419 z"
               style="fill:#ffffff;fill-opacity:1;fill-rule:nonzero;stroke:none"
               id="path1093" /></g><g
             id="g1095"
             transform="translate(366.039,336.514)"><path
               d="m 0,0 c -2.7562,-0.758 -4.6899,-3.5874 -4.2463,-6.447 0.4823,-3.1137 1.0335,-6.223 1.602,-9.3238 0.1852,-1.0379 0.3704,-2.0758 0.5556,-3.1137 -1.9595,-0.8269 -3.553,-2.4332 -4.5823,-4.3626 -0.7752,-1.4427 -1.2015,-3.0577 -1.6278,-4.6296 -0.4694,-1.7269 -0.659,-3.54 -0.8571,-5.3143 -0.0789,-0.7167 -0.1508,-1.4345 -0.2157,-2.1538 0,0 33.4798,20.4967 33.4798,20.4967 0,0 -12.1832,13.6594 -12.1832,13.6594 C 11.6881,-1.404 11.4642,-1.6322 11.2618,-1.8734 9.2205,-4.3023 8.6434,-7.6184 8.3807,-10.7364 8.3118,-10.3187 8.2385,-9.9009 8.1696,-9.4832 7.8337,-7.4504 7.6442,-5.3144 6.9551,-3.3721 6.1637,-1.132 3.7894,0.195 1.4854,0.195 0.9811,0.195 0.4802,0.1314 0,0 Z"
               style="fill:#ffffff;fill-opacity:1;fill-rule:nonzero;stroke:none"
               id="path1097" /></g><g
             id="g1099"
             transform="translate(288.056,333.5217)"><path
               d="m 0,0 c 0,0 0.0043,0.0172 0.0043,0.0172 0,0 0.013,0.1163 0.013,0.1163 0,0 0.0258,0.2196 0.0258,0.2196 0,0 0.0301,0.2498 0.0301,0.2498 0,0 0.0345,0.2628 0.0345,0.2628 0,0 0.0301,0.2799 0.0301,0.2799 0,0 0.0345,0.2928 0.0345,0.2928 0,0 0.0344,0.2929 0.0344,0.2929 0,0 0.0345,0.2928 0.0345,0.2928 0,0 0.0302,0.2886 0.0302,0.2886 0,0 0.0344,0.2885 0.0344,0.2885 0,0 0.0301,0.2842 0.0301,0.2842 0,0 0.0259,0.2799 0.0259,0.2799 0,0 0.0301,0.28 0.0301,0.28 0,0 0.0259,0.2713 0.0259,0.2713 0,0 0.0215,0.2627 0.0215,0.2627 0,0 0.0258,0.2584 0.0258,0.2584 0,0 0.0216,0.2498 0.0216,0.2498 0,0 0.0172,0.2498 0.0172,0.2498 0,0 0.0216,0.2412 0.0216,0.2412 0,0 0.0172,0.2325 0.0172,0.2325 0,0 0.0129,0.2239 0.0129,0.2239 0,0 0.0172,0.2197 0.0172,0.2197 0,0 0.013,0.2067 0.013,0.2067 0,0 0.0128,0.2024 0.0128,0.2024 0,0 0.013,0.1938 0.013,0.1938 0,0 0.0129,0.1895 0.0129,0.1895 0,0 0.0086,0.1852 0.0086,0.1852 0,0 0.0086,0.1766 0.0086,0.1766 0,0 0.0086,0.1679 0.0086,0.1679 0,0 0.0086,0.168 0.0086,0.168 0,0 0.0086,0.1593 0.0086,0.1593 0,0 0.0086,0.155 0.0086,0.155 0,0 0.0044,0.1508 0.0044,0.1508 0,0 0.0086,0.1464 0.0086,0.1464 0,0 0.0043,0.1421 0.0043,0.1421 0,0 0.0086,0.1378 0.0086,0.1378 0,0 0.0043,0.1335 0.0043,0.1335 0,0 0.0043,0.1336 0.0043,0.1336 0,0 0.0043,0.1292 0.0043,0.1292 0,0 0.0043,0.1249 0.0043,0.1249 0,0 0.0043,0.1248 0.0043,0.1248 0,0 0.0043,0.1206 0.0043,0.1206 0,0 0,0.1163 0,0.1163 0,0 0.0044,0.1119 0.0044,0.1119 0,0 0.0043,0.112 0.0043,0.112 0,0 0,0.112 0,0.112 0,0 0.0043,0.1076 0.0043,0.1076 0,0 0,0.1077 0,0.1077 0,0 0.0043,0.1034 0.0043,0.1034 0,0 0,0.1077 0,0.1077 0,0 0.0043,0.099 0.0043,0.099 0,0 0,0.1034 0,0.1034 0,0 0,0.099 0,0.099 0,0 0.0043,0.1034 0.0043,0.1034 0,0 0,0.0947 0,0.0947 0,0 0,0.0991 0,0.0991 0,0 0,0.099 0,0.099 0,0 0.0043,0.0991 0.0043,0.0991 0,0 0,0.0948 0,0.0948 0,0 0,0.0947 0,0.0947 0,0 0,0.0947 0,0.0947 0,0 0,0.0086 0,0.0086 0,0 1.0206,-10.0774 1.0206,-10.0774 0,0 -9.8151,-32.1501 -9.8151,-32.1501 0.6487,-0.6812 1.4557,-1.2136 2.3563,-1.5229 0.6256,-1.7794 2.1004,-3.2572 3.9878,-3.7773 3.1222,-0.857 6.2833,1.0336 7.2006,4.0913 1.6192,5.4177 2.9156,10.9646 3.7812,16.5546 0.9173,5.9259 1.5805,11.8905 1.5547,17.8982 C 10.8398,3.2946 10.8053,4.7933 10.745,6.3049 10.6245,9.3453 10.3574,12.459 9.1042,15.2669 8.5924,16.4163 7.7888,17.409 6.8053,18.1457 6.718,19.8754 6.3814,21.5594 4.9957,22.825 3.905,23.818 2.5815,24.4414 1.1731,24.5443 1.1731,24.5443 0,0 0,0 Z"
               style="fill:#ffffff;fill-opacity:1;fill-rule:nonzero;stroke:none"
               id="path1101" /></g><g
             id="g1103"
             transform="translate(309.4304,368.679)"><path
               d="m 0,0 c 0.0818,-1.5891 0.1766,-3.1783 0.2799,-4.7674 0.2412,-3.7252 0.6503,-7.4504 1.1412,-11.1498 0.3274,-2.4935 0.6848,-4.987 1.0078,-7.4806 0.2455,-3.4926 0.4651,-6.9896 0.7278,-10.478 -0.3187,-0.1636 -0.6244,-0.3574 -0.913,-0.5814 -2.4462,-1.8906 -3.1911,-5.8742 -1.0723,-8.316 0.8613,-0.9863 1.6968,-1.9725 2.4504,-3.0276 0.336,-0.5555 0.6417,-1.124 0.9432,-1.7011 0.0344,-0.7537 0.0732,-1.5073 0.1077,-2.2653 0.1636,-3.3806 0.2282,-6.7742 0.2669,-10.1593 0.0173,-1.8776 0.0345,-3.751 0.0474,-5.6287 0.0129,-2.0844 -0.0947,-4.1903 0.0646,-6.2618 0.0732,-0.9561 0.4436,-1.8476 1.0035,-2.6055 0.0129,-0.3359 0.0258,-0.6675 0.0473,-0.9991 0.0862,-1.4341 0.2757,-2.808 0.9044,-4.1172 0.6029,-1.2618 1.5375,-2.3901 2.7563,-3.105 0.7794,-0.4565 1.6623,-0.7192 2.5753,-0.8054 0.3402,-2.0197 0.745,-4.0309 1.1111,-6.0292 0.0775,-0.4393 0.1594,-0.8743 0.2412,-1.3092 0.2325,-2.2222 0.4436,-4.4444 0.6589,-6.658 0.5512,-5.7192 1.0034,-11.4427 1.4427,-17.1662 0.3359,-5.6459 0.702,-11.2919 0.8355,-16.9422 0.0134,-0.5438 0.0263,-1.0879 0.0389,-1.6317 0,0 4.5433,-5.078 4.5433,-5.078 0,-0.0215 0.0044,-0.0473 0.0086,-0.0689 0,0 -1.5835,-27.6606 -1.5835,-27.6606 0.7141,-0.9313 1.6311,-1.6976 2.7808,-2.1842 1.4083,-0.5943 3.161,-0.5986 4.6296,-0.1937 0.758,0.2067 1.447,0.5727 2.0672,1.0335 0.1938,-0.2368 0.3962,-0.4694 0.6029,-0.6976 1.0249,-1.1542 2.6571,-2.1146 4.13,-2.5409 1.714,-0.491 3.3807,-0.59 5.1378,-0.28 5.6373,0.9863 9.2894,5.9044 11.7786,10.8699 0.2325,-2.3212 0.5426,-4.6382 0.9948,-6.9164 0.5857,-2.9457 1.5159,-6.3738 3.9922,-8.329 1.081,-0.8527 2.3213,-1.5116 3.708,-1.7011 1.7442,-0.2368 3.5529,0.267 5.0517,1.1456 2.7907,1.6365 4.3152,4.8923 5.4048,7.7906 1.4599,3.8803 2.2222,7.9802 2.7907,12.0758 0.7019,5.0086 0.8225,10.0645 1.0163,15.1118 0.2326,6.0336 -0.0775,12.0629 -0.4005,18.0835 -0.323,6.1068 -1.0853,12.1791 -1.8433,18.2428 -0.3316,2.6442 -0.7363,5.2842 -1.1283,7.9155 -0.211,1.4298 -0.4349,2.851 -0.6675,4.2765 -0.1895,1.18 -0.3876,2.3901 -0.8829,3.484 -0.7321,1.6064 -1.9207,2.584 -3.5012,3.3032 -1.1843,0.5383 -2.6141,0.5943 -3.8588,0.2498 -0.59,-0.1636 -1.124,-0.4091 -1.6063,-0.7278 0,0.3143 0,0.6331 0,0.9517 0,1.6538 0.112,3.3032 -0.3833,4.901 -0.0172,0.0516 -0.0301,0.1033 -0.0474,0.1507 0.3575,0.5297 0.6072,1.1068 0.8613,1.7011 0.6288,1.4298 0.7408,3.1955 0.8872,4.7287 0.0603,0.6416 0.099,1.2833 0.1292,1.925 0,0 -25.9301,-16.5072 -25.9301,-16.5072 0,0 21.7527,-44.3452 21.7527,-44.3452 0,0 -37.0756,48.3115 -37.0756,48.3115 0,0 41.0635,25.1377 41.0635,25.1377 -0.0086,0.0948 -0.0172,0.1938 -0.0258,0.2929 -0.1421,1.559 -0.2713,3.1137 -0.4264,4.6684 0.4221,-0.8657 0.8355,-1.7356 1.2274,-2.6142 0.2196,-0.4909 0.4393,-0.9819 0.6546,-1.4685 0,0 18.1954,11.1369 18.1954,11.1369 0,0 -53.2383,59.6895 -53.2383,59.6895 C 27.4761,12.6786 0,0 0,0 Z m 42.3383,-140.6452 c 1.7269,2.8854 2.5624,6.2144 3.2342,9.4788 0.4824,2.3471 0.814,4.7158 1.0509,7.093 0.1162,-0.0689 0.2325,-0.1335 0.353,-0.1938 -0.2282,-2.2265 -0.4564,-4.453 -0.6847,-6.6795 -0.1593,-1.5461 -0.4995,-3.0965 -0.745,-4.6339 -0.267,-1.6667 -0.5082,-3.3377 -0.8398,-4.9957 -0.7063,-3.3419 -1.5461,-6.6408 -2.6313,-9.8794 -0.5427,-1.4685 -1.1456,-2.9026 -1.8304,-4.3109 -0.4866,-0.9044 -1.0077,-1.7786 -1.5633,-2.6442 -0.1765,-0.2455 -0.3574,-0.4867 -0.5469,-0.7278 -0.1895,-0.2025 -0.379,-0.4006 -0.5771,-0.5943 -0.2412,0.7837 -0.4479,1.5633 -0.633,2.3643 -0.6848,3.6175 -1.094,7.2738 -1.5289,10.9301 -0.0689,0.5986 -0.1422,1.193 -0.211,1.7916 0.5124,-0.1335 1.0292,-0.1981 1.5417,-0.1981 2.2395,0 4.4186,1.2101 5.6116,3.1998 z"
               style="fill:#ffffff;fill-opacity:1;fill-rule:nonzero;stroke:none"
               id="path1105" /></g><g
             id="g1107"
             transform="translate(376.2307,300.5729)"><path
               d="m 0,0 c 1.1249,-2.7852 2.1564,-5.6018 3.2372,-8.403 0.7149,-1.8518 1.4385,-3.6864 2.2309,-5.5039 0.5383,-1.2359 1.1671,-2.4246 1.7743,-3.6261 0.3962,-0.7795 1.1154,-1.5719 1.8001,-2.1016 0.7839,-0.6073 1.6624,-0.8915 2.5884,-1.2016 2.7002,-0.9001 5.9,0.7838 6.9336,3.3592 0.5081,1.2705 0.9388,2.6227 0.8656,4.0094 -0.0861,1.6624 -0.267,3.286 -0.6116,4.9139 -0.5469,2.5667 -1.3823,5.0129 -2.2394,7.4806 -0.3618,1.0465 -0.7665,2.0801 -1.1886,3.1007 2.0338,2.5079 2.8062,6.2247 2.9323,9.6388 C 18.3228,11.6664 0,0 0,0 Z"
               style="fill:#ffffff;fill-opacity:1;fill-rule:nonzero;stroke:none"
               id="path1109" /></g><g
             id="g1111"
             transform="translate(256.7248,225.6886)"><path
               d="m 0,0 c 0,0 0.0302,-0.3445 0.0302,-0.3445 0,0 9.4952,3.5969 9.4952,3.5969 0.5339,0.846 0.9806,1.7506 1.3746,2.6347 0.7752,1.7528 1.1283,3.7468 1.4987,5.6159 0.3187,1.6063 0.6116,3.217 0.9087,4.832 1.2143,6.5741 2.3065,13.1736 3.6015,19.7357 0.4406,2.0651 0.911,4.1234 1.4013,6.177 0.7048,0.5815 1.2866,1.3294 1.6767,2.2094 1.3394,3.019 2.6659,6.0379 3.9148,9.0913 1.1972,2.9112 2.149,5.9259 3.1266,8.9147 1.8044,5.5383 3.3247,11.1584 4.4099,16.8819 1.1499,6.0852 2.0973,12.179 2.7993,18.3332 0.2004,1.7629 0.3783,3.5293 0.5437,5.2974 0.766,3.4717 1.3683,6.9676 1.9886,10.4691 -0.0022,-0.01 -0.0042,-0.0196 -0.0063,-0.0294 0.6547,3.1449 1.3645,6.2591 1.6041,9.4695 0.1608,2.1185 0.1662,4.2417 0.1813,6.364 0,0 -6.3958,4.2302 -6.3958,4.2302 C 32.1531,133.479 0,0 0,0 Z"
               style="fill:#ffffff;fill-opacity:1;fill-rule:nonzero;stroke:none"
               id="path1113" /></g><g
             id="g1115"
             transform="translate(374.1564,156.9272)"><path
               d="m 0,0 c 0,0 0.0818,-0.913 0.0818,-0.913 0,0 4.1731,0.2024 4.1731,0.2024 0,0 -2.1275,2.2954 -2.1275,2.2954 C 2.1274,1.5848 0,0 0,0 Z"
               style="fill:#ffffff;fill-opacity:1;fill-rule:nonzero;stroke:none"
               id="path1117" /></g><g
             id="g1119"
             transform="translate(238.3086,308.6484)"><path
               d="m 0,0 c 0,0 -29.0156,-66.8828 -29.0156,-66.8828 0,0 -70.8203,14.6055 -70.8203,14.6055 0,0 -0.043,0.0468 -0.043,0.0468 0,0 26.3594,32.2735 26.3594,32.2735 0,0 -13.8633,46.1836 -13.8633,46.1836 0,0 1.2539,-44.5313 1.2539,-44.5313 0,0 -23.2149,-23.9062 -23.2149,-23.9062 0,0 -8.1328,8.6171 -8.1328,8.6171 0,0 -7.7773,8.2344 -7.7773,8.2344 0,0 0,0.0039 0,0.0039 0,0 -10.5508,11.1758 -10.5508,11.1758 0,0 -0.0273,0.0274 -0.0273,0.0274 0,0 -5.2617,5.5742 -5.2617,5.5742 0,0 -1.2422,1.3125 -1.2422,1.3125 0,0 -1.3672,1.4492 -1.3672,1.4492 0,0 12.7187,23.7148 12.7187,23.7148 0,0.0039 0.004,0.0039 0.004,0.0079 0,0 8.1836,15.2539 8.1836,15.2539 0,0 3.0586,5.6992 3.0586,5.6992 0,0 0.2461,0.4609 0.2461,0.4609 0,0 8.0078,14.9336 8.0078,14.9336 0,0 0.004,0 0.004,0 0,0 9.3399,-0.25 9.3399,-0.25 0,0 5.1328,-0.1367 5.1328,-0.1367 0,0 64.7851,-1.7344 64.7851,-1.7344 C -32.2227,52.1328 0,0 0,0 Z m 7.3633,-120.5039 c 0,0 -28.0352,-49.7891 -28.0352,-49.7891 0,0 -78.2265,17.4219 -78.2265,17.4219 0,0 52.1953,50.5469 52.1953,50.5469 0,0 25.9843,10.1523 25.9843,10.1523 0,0 28.0821,-28.332 28.0821,-28.332 z M 171.168,-97.793 c 0,0 -26.9922,-54.5117 -26.9922,-54.5117 0,0 -4.7149,-0.1836 -4.7149,-0.1836 -0.0117,0.008 -0.0234,0.0156 -0.0351,0.0235 0,0 -2.293,-0.1094 -2.293,-0.1094 0,0 -0.004,-0.004 -0.004,-0.004 0,0 -0.2695,-0.0117 -0.2695,-0.0117 0,0 -0.9297,-0.043 -0.9297,-0.043 0,0 0,0.008 0,0.008 0,0 -74.3867,-2.8398 -74.3867,-2.8398 0,0 -43.3399,71.8867 -43.3399,71.8867 0,0 0.3125,1.0273 0.3125,1.0273 0,0 32.0547,133.0703 32.0547,133.0703 0,0 0.3867,-0.2578 0.3867,-0.2578 0,0 0.0235,0.4727 0.0235,0.4727 0,0 20.1406,9.2929 20.1406,9.2929 0,0 3.5273,1.629 3.5273,1.629 0,0 23.9493,11.0546 23.9493,11.0546 0,0 41.0585,-46.0351 41.0585,-46.0351 0,0 12.1797,-13.6563 12.1797,-13.6563 0,0 0.004,-0.0039 0.004,-0.0039 0,0 -33.4804,-20.4961 -33.4804,-20.4961 0,0 0,0.0039 0,0.0039 0,0 -24.3516,-14.9062 -24.3516,-14.9062 0,0 -2.8555,-1.7539 -2.8555,-1.7539 0,0 2.8204,-3.6758 2.8204,-3.6758 0,0 0.3086,-0.4023 0.3086,-0.4023 0,0 13.5234,-17.6211 13.5234,-17.6211 0,0 20.418,-26.6055 20.418,-26.6055 0,0 -17.586,35.8437 -17.586,35.8437 0,0 -4.1679,8.4961 -4.1679,8.4961 0,0 11.4218,7.2696 11.4218,7.2696 0,0 14.5117,9.2383 14.5117,9.2383 0,0 5.5196,3.5156 5.5196,3.5156 0,0 0,0.0039 0,0.0039 0,0 18.3242,11.664 18.3242,11.664 0,0 1.9961,1.2696 1.9961,1.2696 0,0 12.9258,-102.6524 12.9258,-102.6524 z M 12.1875,-254.3477 c 111.8359,0 202.5,87.5274 202.5,195.5 0,81.5743 -51.7539,151.4805 -125.2891,180.7852 -24.0625,9.7383 -50.4843,15.1133 -78.2031,15.1133 -111.8359,0 -202.5,-87.5274 -202.5,-195.5 0,-81.5742 51.7539,-151.4805 125.2891,-180.7852 24.0625,-9.7383 50.4844,-15.1133 78.2031,-15.1133 z"
               style="fill:#4b4b4b;fill-opacity:1;fill-rule:nonzero;stroke:none"
               id="path1121" /></g><g
             id="g1123"
             transform="translate(329.0664,202.6875)"><path
               d="m 0,0 c 0,0 1.582,27.6602 1.582,27.6602 -0.0039,0.0195 -0.0078,0.0468 -0.0078,0.0664 0,0 -4.5429,5.0781 -4.5429,5.0781 0,0.0039 0,0.0039 0,0.0078 0,0 -39.1133,43.7148 -39.1133,43.7148 0,0 24.6797,-53.707 24.6797,-53.707 0,0 16.1835,-44.1289 16.1835,-44.1289 0,0 1.2188,21.3047 1.2188,21.3047 C 0,-0.0039 0,0 0,0 Z"
               style="fill:#4b4b4b;fill-opacity:1;fill-rule:nonzero;stroke:none"
               id="path1125" /></g><g
             id="g1127"
             transform="translate(204.6836,156.4609)"><path
               d="m 0,0 c 0,0 14.5977,26.8906 14.5977,26.8906 0,0 -20.9922,-15.9375 -20.9922,-15.9375 0,0 -30.4258,-3.1406 -30.4258,-3.1406 C -36.8203,7.8125 0,0 0,0 Z"
               style="fill:#4b4b4b;fill-opacity:1;fill-rule:nonzero;stroke:none"
               id="path1129" /></g></g></g></g></g></svg>
