<?xml version="1.0" encoding="UTF-8" standalone="no"?>
<!-- Created with Inkscape (http://www.inkscape.org/) -->

<svg
   version="1.1"
   id="svg3930"
   xml:space="preserve"
   width="666.66669"
   height="666.66669"
   viewBox="0 0 666.66669 666.66669"
   sodipodi:docname="icon_uusi_viti.svg"
   inkscape:version="1.1.1 (3bf5ae0d25, 2021-09-20)"
   xmlns:inkscape="http://www.inkscape.org/namespaces/inkscape"
   xmlns:sodipodi="http://sodipodi.sourceforge.net/DTD/sodipodi-0.dtd"
   xmlns="http://www.w3.org/2000/svg"
   xmlns:svg="http://www.w3.org/2000/svg"><defs
     id="defs3934"><clipPath
       clipPathUnits="userSpaceOnUse"
       id="clipPath3946"><path
         d="m 47.25,54.25 h 405.5 v 391.5 H 47.25 Z"
         id="path3944" /></clipPath></defs><sodipodi:namedview
     id="namedview3932"
     pagecolor="#ffffff"
     bordercolor="#111111"
     borderopacity="1"
     inkscape:pageshadow="0"
     inkscape:pageopacity="0"
     inkscape:pagecheckerboard="1"
     showgrid="false"
     inkscape:zoom="1.293"
     inkscape:cx="332.94665"
     inkscape:cy="333.72004"
     inkscape:window-width="1920"
     inkscape:window-height="1051"
     inkscape:window-x="-9"
     inkscape:window-y="-9"
     inkscape:window-maximized="1"
     inkscape:current-layer="g3936" /><g
     id="g3936"
     inkscape:groupmode="layer"
     inkscape:label="icon_uusi_viti"
     transform="matrix(1.3333333,0,0,-1.3333333,0,666.66667)"><g
       id="g3938"
       transform="matrix(1,0,0,-1,0,500)"><g
         id="g3940"><g
           id="g3942"
           clip-path="url(#clipPath3946)"><g
             id="g3948"
             transform="translate(160.9883,206.4844)"><path
               d="m 0,0 c 0.0156,0.1602 0.0078,0.3242 0.0078,0.4844 0,0.0586 -0.0156,0.1093 -0.0351,0.1601 -0.0079,0.0547 -0.0157,0.1094 -0.0274,0.1563 0,0 -0.0078,0.0469 -0.0078,0.0469 -0.0078,0.0312 -0.0195,0.0625 -0.0312,0.0937 0,0.0039 0,0.0117 -0.004,0.0156 -0.2031,0.8828 -0.8671,1.586 -1.7656,1.836 -4.3359,1.4961 -9.1328,1.8984 -13.1133,4.3242 -0.7695,0.6015 -1.5351,1.2109 -2.2812,1.8476 0.0078,0.0079 0.0195,0.0157 0.0273,0.0235 -1.4375,1.3828 -2.7109,2.957 -3.9375,4.5234 -2.4258,3.9805 -2.8281,8.7774 -4.3242,13.1133 -0.2812,1.0156 -1.1445,1.7344 -2.1914,1.8242 -0.0898,0 -0.1758,-0.0195 -0.2461,-0.0508 -0.0703,0.0313 -0.1562,0.0508 -0.2461,0.0508 -1.0469,-0.0898 -1.9101,-0.8086 -2.1914,-1.8242 -1.4961,-4.3359 -1.8984,-9.1328 -4.3242,-13.1133 -1.2266,-1.5664 -2.5,-3.1406 -3.9375,-4.5234 0.0078,-0.0078 0.0195,-0.0156 0.0273,-0.0235 -0.7461,-0.6367 -1.5117,-1.2461 -2.2812,-1.8476 -3.9805,-2.4258 -8.7774,-2.8281 -13.1133,-4.3242 -0.8984,-0.25 -1.5625,-0.9532 -1.7656,-1.836 -0.0039,-0.0039 -0.0039,-0.0117 -0.0039,-0.0156 -0.0117,-0.0312 -0.0235,-0.0625 -0.0313,-0.0937 0,0 -0.0078,-0.0469 -0.0078,-0.0469 -0.0117,-0.0469 -0.0195,-0.1016 -0.0273,-0.1563 -0.0196,-0.0508 -0.0352,-0.1015 -0.0352,-0.1601 0,-0.1602 -0.0078,-0.3242 0.0078,-0.4844 0,0 0,-0.0039 0,-0.0039 -0.0039,-0.0117 -0.0039,-0.0234 -0.0039,-0.0391 0.0899,-1.0468 0.8086,-1.9101 1.8242,-2.1914 4.336,-1.4961 9.1328,-1.8984 13.1133,-4.3242 1.5235,-1.1953 3.0547,-2.4375 4.4102,-3.8242 0.6836,-0.793 1.3398,-1.6172 1.9804,-2.4336 2.4258,-3.9805 2.8282,-8.7774 4.3243,-13.1133 0.2812,-1.0156 1.1445,-1.7344 2.1914,-1.8242 0.0312,0 0.0625,0.0039 0.0898,0.0078 0.0274,-0.0039 0.0586,-0.0078 0.0899,-0.0078 1.0468,0.0898 1.9101,0.8086 2.1914,1.8242 1.4961,4.3359 1.8984,9.1328 4.3242,13.1133 0.6406,0.8164 1.2969,1.6406 1.9804,2.4336 1.3555,1.3867 2.8868,2.6289 4.4102,3.8242 3.9805,2.4258 8.7774,2.8281 13.1133,4.3242 1.0156,0.2813 1.7344,1.1446 1.8242,2.1914 0,0.0157 0,0.0274 -0.0039,0.0391 C 0,-0.0039 0,0 0,0 Z"
               style="fill:#5aabed;fill-opacity:1;fill-rule:nonzero;stroke:none"
               id="path3950" /></g><g
             id="g3952"
             transform="translate(256.5156,223.5703)"><path
               d="m 0,0 c 0.0117,0.1133 0.0078,0.2305 0.0078,0.3437 0,0.043 -0.0117,0.0782 -0.0273,0.1172 -0.0039,0.0391 -0.0078,0.0782 -0.0196,0.1094 0,0 -0.0039,0.0352 -0.0039,0.0352 -0.0039,0.0234 -0.0156,0.0429 -0.0234,0.0664 0,0.0039 0,0.0078 0,0.0117 -0.1484,0.6289 -0.6211,1.1328 -1.2617,1.3086 -3.0938,1.0703 -6.5196,1.3555 -9.3594,3.0859 -0.5508,0.4297 -1.0977,0.8672 -1.6289,1.3203 0.0039,0.0078 0.0117,0.0118 0.0195,0.0157 -1.0273,0.9882 -1.9375,2.1132 -2.8125,3.2304 -1.7304,2.8399 -2.0156,6.2657 -3.0859,9.3594 -0.1992,0.7266 -0.8164,1.2383 -1.5625,1.3047 -0.0664,0 -0.125,-0.0156 -0.1758,-0.0391 -0.0508,0.0235 -0.1133,0.0391 -0.1758,0.0391 -0.75,-0.0664 -1.3633,-0.5781 -1.5664,-1.3047 -1.0664,-3.0937 -1.3555,-6.5195 -3.0859,-9.3594 -0.875,-1.1172 -1.7852,-2.2422 -2.8086,-3.2304 0.0039,-0.0039 0.0117,-0.0079 0.0195,-0.0157 -0.5351,-0.4531 -1.082,-0.8906 -1.6289,-1.3203 -2.8437,-1.7304 -6.2656,-2.0156 -9.3594,-3.0859 -0.6445,-0.1758 -1.1172,-0.6797 -1.2617,-1.3086 -0.0039,-0.0039 -0.0039,-0.0078 -0.0039,-0.0117 -0.0078,-0.0235 -0.0156,-0.043 -0.0234,-0.0664 0,0 -0.0039,-0.0352 -0.0039,-0.0352 -0.0078,-0.0312 -0.0157,-0.0703 -0.0196,-0.1094 -0.0156,-0.039 -0.0234,-0.0742 -0.0234,-0.1172 0,-0.1132 -0.0078,-0.2304 0.0039,-0.3437 0,0 0,-0.0039 0,-0.0039 -0.0039,-0.0078 -0.0039,-0.0156 -0.0039,-0.0273 0.0664,-0.7461 0.5781,-1.3633 1.3047,-1.5626 3.0937,-1.0703 6.5195,-1.3554 9.3594,-3.0898 1.0859,-0.8516 2.1796,-1.7383 3.1484,-2.7266 0.4883,-0.5664 0.957,-1.1562 1.4141,-1.7382 1.7304,-2.8399 2.0156,-6.2657 3.0859,-9.3594 0.1992,-0.7266 0.8164,-1.2383 1.5625,-1.3047 0.0234,0 0.0469,0.0039 0.0664,0.0078 0.0195,-0.0039 0.0391,-0.0078 0.0625,-0.0078 0.7461,0.0664 1.3633,0.5781 1.5664,1.3047 1.0664,3.0937 1.3516,6.5195 3.086,9.3594 0.457,0.582 0.9257,1.1718 1.414,1.7382 0.9649,0.9883 2.0586,1.875 3.1485,2.7266 2.8398,1.7344 6.2617,2.0195 9.3593,3.0898 0.7227,0.1993 1.2383,0.8165 1.3008,1.5626 0,0.0117 0,0.0195 -0.0039,0.0273 C 0,-0.0039 0,0 0,0 Z"
               style="fill:#5aabed;fill-opacity:1;fill-rule:nonzero;stroke:none"
               id="path3954" /></g><g
             id="g3956"
             transform="translate(275.4727,353.0391)"><path
               d="M 0,0 C 0,-0.1172 0.0039,-0.2344 -0.0078,-0.3516 0,-0.3711 0,-0.3906 0,-0.4102 c -0.0703,-0.8046 -0.625,-1.4687 -1.4063,-1.6875 -3.1835,-1.0976 -6.6914,-1.4296 -9.6679,-3.082 -0.1445,-0.0781 -0.2891,-0.164 -0.4336,-0.25 -1.1719,-0.914 -2.3359,-1.8594 -3.3789,-2.9219 -0.5352,-0.6211 -1.0469,-1.2617 -1.5469,-1.8984 -1.8672,-3.0664 -2.1797,-6.7617 -3.332,-10.1016 -0.2149,-0.7812 -0.8789,-1.3359 -1.6875,-1.4062 -0.0235,0 -0.0469,0.0039 -0.0703,0.0078 -0.0235,-0.0039 -0.043,-0.0078 -0.0664,-0.0078 -0.8086,0.0703 -1.4727,0.625 -1.6915,1.4062 -1.1523,3.3399 -1.4609,7.0352 -3.332,10.1016 -0.4883,0.625 -0.9883,1.2539 -1.5117,1.8633 -1.0469,1.0742 -2.2305,2.0312 -3.4102,2.957 -3.0664,1.8711 -6.7617,2.1797 -10.1015,3.332 -0.7852,0.2188 -1.336,0.8829 -1.4063,1.6875 0,0.0118 0,0.0235 0.0039,0.0352 -0.0117,0.125 -0.0039,0.25 -0.0039,0.375 0,0.043 0.0117,0.082 0.0274,0.1211 0.0039,0.043 0.0117,0.0859 0.0195,0.1211 0,0 0.0078,0.0351 0.0078,0.0351 0.0039,0.0196 0.0117,0.0391 0.0195,0.0586 0.1485,0.6954 0.6641,1.2461 1.3633,1.4375 3.3438,1.1563 7.0391,1.4649 10.1055,3.3321 0.5898,0.4609 1.1836,0.9336 1.7578,1.4257 -0.0078,0.004 -0.0156,0.0118 -0.0234,0.0196 1.1093,1.0664 2.0898,2.2773 3.0351,3.4844 1.8672,3.0664 2.1797,6.7617 3.3321,10.1015 0.2148,0.7852 0.8828,1.336 1.6875,1.4063 0.0703,0 0.1328,-0.0157 0.1914,-0.0391 0.0547,0.0234 0.1172,0.0391 0.1836,0.0391 0.8086,-0.0703 1.4726,-0.6211 1.6914,-1.4063 1.1523,-3.3398 1.4609,-7.0351 3.332,-10.1015 0.9414,-1.2071 1.9258,-2.418 3.0313,-3.4844 -0.0079,-0.0039 -0.0118,-0.0117 -0.0196,-0.0196 0.5742,-0.4921 1.1641,-0.9648 1.7578,-1.4257 0.2188,-0.1328 0.4375,-0.2578 0.6641,-0.375 2.9258,-1.5391 6.3359,-1.8828 9.4375,-2.9571 0.6992,-0.1914 1.2148,-0.7421 1.3672,-1.4375 0.0078,-0.0195 0.0156,-0.039 0.0195,-0.0586 0,0 0.0078,-0.0351 0.0078,-0.0351 C -0.0391,0.207 -0.0352,0.1641 -0.0273,0.1211 -0.0117,0.082 0,0.043 0,0 Z m 116.5,-69.7461 c 0,-0.1562 0.008,-0.3125 -0.008,-0.4687 0.008,-0.0196 0.008,-0.0391 0.008,-0.0586 -0.0898,-1.0469 -0.8086,-1.9102 -1.8242,-2.1914 -4.336,-1.4961 -9.1328,-1.8985 -13.1133,-4.3243 -1.5273,-1.1953 -3.0586,-2.4375 -4.4102,-3.8242 -0.6835,-0.793 -1.3398,-1.6172 -1.9804,-2.4336 -0.6719,-1.1015 -1.1875,-2.2695 -1.6172,-3.4687 -1.1016,-3.0899 -1.6094,-6.418 -2.6641,-9.5157 -0.0117,-0.0429 -0.0273,-0.0859 -0.0429,-0.1289 -0.2813,-1.0156 -1.1446,-1.7343 -2.1914,-1.8242 -0.0313,0 -0.0625,0.0039 -0.0899,0.0078 -0.0312,-0.0039 -0.0586,-0.0078 -0.0898,-0.0078 -0.5118,0.043 -0.9805,0.2383 -1.3594,0.5469 -0.3945,0.3203 -0.6875,0.7578 -0.832,1.2773 -1.2657,3.668 -1.75,7.6641 -3.336,11.2188 -0.289,0.6484 -0.6133,1.2812 -0.9883,1.8945 -0.6328,0.8047 -1.2773,1.6133 -1.9492,2.3985 -0.0937,0.0937 -0.1875,0.1914 -0.2812,0.2812 -1.293,1.293 -2.7266,2.457 -4.1641,3.5781 -3.9805,2.4258 -8.7773,2.8282 -13.1133,4.3243 -1.0156,0.2812 -1.7343,1.1445 -1.8242,2.1914 0,0.0195 0,0.0429 0.0078,0.0625 -0.0156,0.1523 -0.0078,0.3125 -0.0078,0.4648 0,0.0586 0.0156,0.1094 0.0352,0.1602 0.0078,0.0546 0.0156,0.1093 0.0273,0.1562 0,0 0.0078,0.0469 0.0078,0.0469 0.0078,0.0312 0.0196,0.0625 0.0313,0.0937 0,0.0039 0,0.0118 0.0039,0.0157 0.2031,0.8828 0.8672,1.5859 1.7656,1.8359 4.3359,1.4961 9.1328,1.8984 13.1133,4.3242 0.7656,0.6016 1.5351,1.211 2.2812,1.8477 -0.0078,0.0078 -0.0195,0.0156 -0.0273,0.0234 1.4375,1.3828 2.7109,2.957 3.9375,4.5234 2.4258,3.9805 2.8281,8.7774 4.3242,13.1133 0.2813,1.0157 1.1445,1.7344 2.1914,1.8242 0.0899,0 0.1719,-0.0195 0.2461,-0.0507 0.0742,0.0351 0.1563,0.0507 0.2422,0.0507 1.0469,-0.0898 1.9102,-0.8085 2.1914,-1.8242 1.4961,-4.3359 1.8984,-9.1328 4.3242,-13.1133 1.2266,-1.5664 2.5,-3.1406 3.9375,-4.5234 -0.0078,-0.0078 -0.0156,-0.0156 -0.0234,-0.0234 0.7461,-0.6367 1.5117,-1.2461 2.2773,-1.8477 3.6914,-2.25 8.0899,-2.7578 12.168,-4.0156 0.3164,-0.0977 0.6328,-0.1992 0.9453,-0.3086 0.8984,-0.25 1.5625,-0.9531 1.7656,-1.8359 0.004,-0.0039 0.004,-0.0118 0.004,-0.0157 0.0118,-0.0312 0.0235,-0.0625 0.0313,-0.0937 0,0 0.008,-0.0469 0.008,-0.0469 0.0117,-0.0469 0.0195,-0.1016 0.0273,-0.1562 0.0196,-0.0508 0.0352,-0.1016 0.0352,-0.1602 z m 25.8008,-27.2227 c -0.1875,6.7657 -0.8086,13.4258 -1.836,19.9571 -0.625,3.9883 -1.3984,7.9258 -2.3242,11.8086 -0.5039,2.1289 -1.0547,4.2422 -1.6484,6.3398 -3.0469,10.793 -7.2266,21.1367 -12.4063,30.9102 -1.1484,2.164 -2.3476,4.3008 -3.5937,6.4062 -7.6836,13.0117 -17.1875,24.9063 -28.1836,35.3594 -0.2734,0.2578 -0.5469,0.5156 -0.8242,0.7734 -8.5078,7.9844 -17.8946,15.1094 -28.0039,21.2344 -0.0391,0.0274 -0.0821,0.0508 -0.1211,0.0742 -0.0781,0.0469 -0.1446,0.0899 -0.2227,0.1368 -0.0351,0.0195 -0.0703,0.0429 -0.1094,0.0625 -21.8984,13.1796 -47.1796,21.6718 -74.3007,24.0156 -0.0196,0 -0.043,0.0039 -0.0586,0.0039 -0.1328,0.0117 -0.2774,0.0234 -0.4102,0.0351 -0.0273,0 -0.0508,0.0039 -0.0781,0.0079 -0.1289,0.0078 -0.2656,0.0195 -0.3945,0.0312 -0.0352,0 -0.0664,0.0039 -0.1016,0.0078 -0.1328,0.0117 -0.2539,0.0195 -0.3867,0.0313 -0.0352,0 -0.0664,0.0039 -0.0977,0.0078 -0.1289,0.0078 -0.2617,0.0195 -0.3906,0.0273 -0.0273,0.0039 -0.0586,0.0039 -0.0859,0.0078 -0.5743,0.043 -1.1446,0.0821 -1.7227,0.1211 -0.043,0.0039 -0.0898,0.0039 -0.1367,0.0078 -0.1133,0.0079 -0.2344,0.0157 -0.3438,0.0235 -0.0507,0.0039 -0.0976,0.0039 -0.1484,0.0078 -0.1094,0.0078 -0.2266,0.0156 -0.3359,0.0195 -0.0586,0.0039 -0.1211,0.0078 -0.1797,0.0117 -0.0938,0.0039 -0.2032,0.0118 -0.3008,0.0157 -0.0742,0.0078 -0.1445,0.0117 -0.2188,0.0156 -0.0898,0.0039 -0.1914,0.0078 -0.2812,0.0156 -0.0742,0.0039 -0.1524,0.0078 -0.2305,0.0117 -0.0898,0.0039 -0.1914,0.0078 -0.2812,0.0118 -0.0625,0.0039 -0.125,0.0078 -0.1875,0.0117 -0.3321,0.0156 -0.6758,0.0312 -1.0078,0.0468 -0.1016,0.004 -0.2032,0.0079 -0.3086,0.0157 -0.0664,0 -0.1407,0.0039 -0.2071,0.0078 -0.1015,0.0039 -0.1992,0.0078 -0.3008,0.0117 -0.0781,0.0039 -0.1562,0.0078 -0.2343,0.0078 -0.0899,0.0039 -0.1836,0.0078 -0.2735,0.0117 -0.082,0.0039 -0.1679,0.0078 -0.2539,0.0078 -0.0859,0.004 -0.1718,0.0079 -0.2578,0.0118 -0.0781,0 -0.164,0.0039 -0.2461,0.0078 -0.0898,0.0039 -0.1836,0.0039 -0.2734,0.0078 -0.0781,0.0039 -0.1641,0.0039 -0.2422,0.0078 -0.0938,0.0039 -0.1875,0.0039 -0.2813,0.0078 -0.0781,0.0039 -0.1484,0.0039 -0.2265,0.0078 -0.1055,0 -0.211,0.0039 -0.3164,0.0078 -0.0664,0 -0.1328,0.0039 -0.1992,0.0039 -0.1719,0.004 -0.3399,0.0079 -0.5118,0.0118 -0.0429,0 -0.082,0 -0.125,0.0039 -0.125,0 -0.25,0.0039 -0.375,0.0078 -0.0742,0 -0.1523,0 -0.2265,0.0039 -0.0977,0 -0.1953,0 -0.293,0.0039 -0.0781,0 -0.1562,0 -0.2344,0.0039 -0.0898,0 -0.1875,0 -0.2773,0.0039 -0.0781,0 -0.1484,0 -0.2266,0 -0.1093,0.0039 -0.2187,0.0039 -0.3281,0.0039 -0.0547,0 -0.125,0.0039 -0.1797,0.0039 -0.1133,0 -0.2265,0 -0.3359,0 -0.0625,0 -0.1289,0.0039 -0.1914,0.0039 -0.1211,0 -0.2383,0 -0.3594,0 -0.0547,0 -0.1055,0 -0.1602,0 -0.1718,0 -0.3437,0 -0.5195,0 -0.1601,0 -0.3203,0 -0.4805,0 -0.0742,0 -0.1367,0 -0.2109,0 -0.0703,0 -0.1406,0 -0.2109,0 -25.0547,-0.125 -48.8203,-5.4843 -70.168,-14.9961 -0.0195,-0.0117 -0.043,-0.0195 -0.0664,-0.0312 -0.1836,-0.086 -0.3672,-0.1641 -0.5508,-0.2422 -19.8789,-8.9492 -37.6445,-21.5078 -52.3789,-36.7891 -6.8125,-7.0664 -12.9805,-14.7187 -18.4062,-22.8632 -5.0625,-7.5977 -9.4805,-15.6211 -13.1875,-24.0118 -1.1797,-2.6758 -2.2891,-5.3945 -3.3204,-8.1445 -0.008,-0.0078 -0.0117,-0.0156 -0.0117,-0.0273 -1.4687,-3.8907 -2.7812,-7.8516 -3.9336,-11.879 -0.7422,-2.5781 -1.4179,-5.1796 -2.0234,-7.8085 14.875,-12.6368 39.4766,-20.8907 67.3086,-20.8907 26.0273,0 49.2344,7.2227 64.3008,18.4922 0.082,-0.1211 0.1679,-0.2422 0.2578,-0.3633 0.0859,-0.125 0.1719,-0.25 0.2578,-0.3711 0.168,-0.2461 0.3437,-0.4882 0.5273,-0.7304 0.3555,-0.4883 0.7227,-0.9727 1.1094,-1.4532 18.6953,-23.5781 64.7969,-40.2578 118.707,-40.2578 30.9375,0 59.3047,5.4922 81.3985,14.6328 z"
               style="fill:#5aabed;fill-opacity:1;fill-rule:nonzero;stroke:none"
               id="path3958" /></g><g
             id="g3960"
             transform="translate(343.1356,368.7943)"><path
               d="M 0,0 C -0.0593,2e-4 -0.1174,3e-4 -0.1766,4e-4 -0.1207,3e-4 -0.0559,2e-4 0,0 Z"
               style="fill:#ffffff;fill-opacity:1;fill-rule:nonzero;stroke:none"
               id="path3962" /></g><g
             id="g3964"
             transform="translate(343.6489,368.7926)"><path
               d="M 0,0 C -0.0592,2e-4 -0.1208,5e-4 -0.1801,7e-4 -0.1199,5e-4 -0.0601,2e-4 0,0 Z"
               style="fill:#ffffff;fill-opacity:1;fill-rule:nonzero;stroke:none"
               id="path3966" /></g><g
             id="g3968"
             transform="translate(340.8896,368.7904)"><path
               d="M 0,0 C 0.0515,3e-4 0.1011,6e-4 0.1525,8e-4 0.1016,6e-4 0.051,3e-4 0,0 Z"
               style="fill:#ffffff;fill-opacity:1;fill-rule:nonzero;stroke:none"
               id="path3970" /></g><g
             id="g3972"
             transform="translate(344.8148,368.7847)"><path
               d="M 0,0 C -0.0735,6e-4 -0.1442,0.0013 -0.2177,0.0019 -0.1448,0.0013 -0.0728,6e-4 0,0 Z"
               style="fill:#ffffff;fill-opacity:1;fill-rule:nonzero;stroke:none"
               id="path3974" /></g><g
             id="g3976"
             transform="translate(340.0932,368.7844)"><path
               d="M 0,0 C 0.0685,6e-4 0.1356,0.0012 0.2042,0.0017 0.1365,0.0012 0.0677,6e-4 0,0 Z"
               style="fill:#ffffff;fill-opacity:1;fill-rule:nonzero;stroke:none"
               id="path3978" /></g><g
             id="g3980"
             transform="translate(345.306,368.7798)"><path
               d="M 0,0 C -0.0634,7e-4 -0.1245,0.0013 -0.1878,0.002 -0.1279,0.0013 -0.0599,7e-4 0,0 Z"
               style="fill:#ffffff;fill-opacity:1;fill-rule:nonzero;stroke:none"
               id="path3982" /></g><g
             id="g3984"
             transform="translate(339.3004,368.7759)"><path
               d="M 0,0 C 0.077,9e-4 0.1572,0.0019 0.2343,0.0028 0.1563,0.0019 0.0779,9e-4 0,0 Z"
               style="fill:#ffffff;fill-opacity:1;fill-rule:nonzero;stroke:none"
               id="path3986" /></g><g
             id="g3988"
             transform="translate(345.946,368.772)"><path
               d="M 0,0 C -0.059,8e-4 -0.1179,0.0016 -0.1769,0.0024 -0.117,0.0016 -0.0598,8e-4 0,0 Z"
               style="fill:#ffffff;fill-opacity:1;fill-rule:nonzero;stroke:none"
               id="path3990" /></g><g
             id="g3992"
             transform="translate(338.4877,368.7647)"><path
               d="M 0,0 C 0.1025,0.0016 0.2033,0.0031 0.3058,0.0045 0.2039,0.0031 0.1019,0.0015 0,0 Z"
               style="fill:#ffffff;fill-opacity:1;fill-rule:nonzero;stroke:none"
               id="path3994" /></g><g
             id="g3996"
             transform="translate(346.4842,368.7643)"><path
               d="M 0,0 C -0.0818,0.0013 -0.1627,0.0025 -0.2445,0.0037 -0.1633,0.0025 -0.0811,0.0013 0,0 Z"
               style="fill:#ffffff;fill-opacity:1;fill-rule:nonzero;stroke:none"
               id="path3998" /></g><g
             id="g4000"
             transform="translate(346.9933,368.756)"><path
               d="M 0,0 C -0.0918,0.0016 -0.1843,0.0031 -0.2762,0.0046 -0.1823,0.0031 -0.0939,0.0016 0,0 Z"
               style="fill:#ffffff;fill-opacity:1;fill-rule:nonzero;stroke:none"
               id="path4002" /></g><g
             id="g4004"
             transform="translate(337.6387,368.7504)"><path
               d="M 0,0 C 0.179,0.0033 0.3547,0.0064 0.534,0.0093 0.3558,0.0064 0.178,0.0033 0,0 Z"
               style="fill:#ffffff;fill-opacity:1;fill-rule:nonzero;stroke:none"
               id="path4006" /></g><g
             id="g4008"
             transform="translate(347.679,368.7432)"><path
               d="M 0,0 C -0.1963,0.0039 -0.3962,0.0077 -0.5927,0.0112 -0.3965,0.0077 -0.196,0.0039 0,0 Z"
               style="fill:#ffffff;fill-opacity:1;fill-rule:nonzero;stroke:none"
               id="path4010" /></g><g
             id="g4012"
             transform="translate(318.6908,367.6931)"><path
               d="M 0,0 C 1e-4,-6e-4 1e-4,-0.001 2e-4,-0.0016 6.1099,0.573 12.381,0.9305 18.7649,1.0538 12.378,0.931 6.1102,0.575 0,0 Z"
               style="fill:#ffffff;fill-opacity:1;fill-rule:nonzero;stroke:none"
               id="path4014" /></g><g
             id="g4016"
             transform="translate(348.1492,368.7333)"><path
               d="M 0,0 C -0.0959,0.0021 -0.1898,0.0041 -0.2858,0.0061 -0.1921,0.0042 -0.0936,0.0021 0,0 Z"
               style="fill:#ffffff;fill-opacity:1;fill-rule:nonzero;stroke:none"
               id="path4018" /></g><g
             id="g4020"
             transform="translate(349.3839,368.7034)"><path
               d="M 0,0 C -0.3469,0.0092 -0.691,0.0177 -1.0387,0.0255 -0.6941,0.0178 -0.3438,0.0092 0,0 Z"
               style="fill:#ffffff;fill-opacity:1;fill-rule:nonzero;stroke:none"
               id="path4022" /></g><g
             id="g4024"
             transform="translate(349.8232,368.6913)"><path
               d="M 0,0 C -0.1169,0.0033 -0.2335,0.0065 -0.3506,0.0097 -0.2318,0.0065 -0.1188,0.0034 0,0 Z"
               style="fill:#ffffff;fill-opacity:1;fill-rule:nonzero;stroke:none"
               id="path4026" /></g><g
             id="g4028"
             transform="translate(379.5568,366.0664)"><path
               d="M 0,0 C -1e-4,1e-4 -1e-4,1e-4 -2e-4,2e-4 -9.4601,1.4324 -19.3895,2.3298 -29.6447,2.6205 -19.3889,2.3297 -9.4632,1.4324 0,0 Z"
               style="fill:#ffffff;fill-opacity:1;fill-rule:nonzero;stroke:none"
               id="path4030" /></g><g
             id="g4032"
             transform="translate(305.6759,366.1083)"><path
               d="M 0,0 C 3.5969,0.5396 7.2564,1.0015 10.9793,1.3832 7.2574,1.003 3.5952,0.54 0,0 Z"
               style="fill:#ffffff;fill-opacity:1;fill-rule:nonzero;stroke:none"
               id="path4034" /></g><g
             id="g4036"
             transform="translate(305.2163,366.0388)"><path
               d="M 0,0 C 0.0704,0.0107 0.1371,0.0208 0.2076,0.0314 0.1383,0.021 0.0692,0.0105 0,0 Z"
               style="fill:#ffffff;fill-opacity:1;fill-rule:nonzero;stroke:none"
               id="path4038" /></g><g
             id="g4040"
             transform="translate(286.7959,362.4315)"><path
               d="m 0,0 c 1.8566,0.4499 3.7369,0.8777 5.6424,1.2833 -1e-4,7e-4 -3e-4,0.0013 -5e-4,0.002 C 3.7368,0.879 1.856,0.4502 0,0 Z"
               style="fill:#ffffff;fill-opacity:1;fill-rule:nonzero;stroke:none"
               id="path4042" /></g><g
             id="g4044"
             transform="translate(286.2015,362.2864)"><path
               d="M 0,0 C 0.1989,0.0489 0.3927,0.0962 0.5922,0.1445 0.3945,0.0966 0.1971,0.0485 0,0 Z"
               style="fill:#ffffff;fill-opacity:1;fill-rule:nonzero;stroke:none"
               id="path4046" /></g><g
             id="g4048"
             transform="translate(285.5818,362.1332)"><path
               d="M 0,0 C 0.0829,0.0206 0.1675,0.0417 0.2505,0.0622 0.167,0.0415 0.0834,0.0208 0,0 Z"
               style="fill:#ffffff;fill-opacity:1;fill-rule:nonzero;stroke:none"
               id="path4050" /></g><g
             id="g4052"
             transform="translate(232.9784,337.8453)"><path
               d="M 0,0 C 0.0454,0.0377 0.0947,0.0786 0.1402,0.1163 0.0936,0.0777 0.0465,0.0386 0,0 Z"
               style="fill:#ffffff;fill-opacity:1;fill-rule:nonzero;stroke:none"
               id="path4054" /></g><g
             id="g4056"
             transform="translate(232.7504,337.6551)"><path
               d="M 0,0 C 0.0513,0.043 0.1055,0.0882 0.157,0.1312 0.1045,0.0875 0.0522,0.0438 0,0 Z"
               style="fill:#ffffff;fill-opacity:1;fill-rule:nonzero;stroke:none"
               id="path4058" /></g><g
             id="g4060"
             transform="translate(232.5371,337.4758)"><path
               d="M 0,0 C 0.0572,0.0482 0.1156,0.0973 0.173,0.1454 0.1152,0.097 0.0576,0.0486 0,0 Z"
               style="fill:#ffffff;fill-opacity:1;fill-rule:nonzero;stroke:none"
               id="path4062" /></g><g
             id="g4064"
             transform="translate(228.7193,334.0131)"><path
               d="M 0,0 C 1e-4,-3e-4 2e-4,-7e-4 3e-4,-0.001 1.2022,1.1746 2.4756,2.3298 3.8168,3.4618 2.475,2.3295 1.2018,1.1752 0,0 Z"
               style="fill:#ffffff;fill-opacity:1;fill-rule:nonzero;stroke:none"
               id="path4066" /></g><g
             id="g4068"
             transform="translate(222.9142,327.4373)"><path
               d="m 0,0 c 0.037,0.0493 0.075,0.0998 0.1122,0.1491 -2e-4,10e-5 -10e-5,10e-5 -3e-4,2e-4 C 0.0742,0.0994 0.0375,0.05 0,0 Z"
               style="fill:#ffffff;fill-opacity:1;fill-rule:nonzero;stroke:none"
               id="path4070" /></g><g
             id="g4072"
             transform="translate(222.7382,327.2014)"><path
               d="M 0,0 C 0.0353,0.0475 0.0723,0.0972 0.1077,0.1447 0.072,0.0968 0.0355,0.0479 0,0 Z"
               style="fill:#ffffff;fill-opacity:1;fill-rule:nonzero;stroke:none"
               id="path4074" /></g><g
             id="g4076"
             transform="translate(273.793,295.0195)"><path
               d="m 0,0 c 0.3516,-1.7617 0.7109,-3.5273 1.0703,-5.2891 -1.7461,1.9219 -3.5976,3.7618 -5.5,5.5703 0.3086,0.4571 0.625,0.9141 0.9453,1.3633 0.8164,1.086 1.6485,2.1446 2.5274,3.1758 C -0.6406,3.2148 -0.3164,1.6055 0,0 Z m 118.1797,-11.7266 c 0,-0.1562 0.008,-0.3125 -0.008,-0.4687 0.008,-0.0195 0.008,-0.0391 0.008,-0.0586 -0.0899,-1.0469 -0.8086,-1.9102 -1.8242,-2.1914 -4.336,-1.4961 -9.1328,-1.8985 -13.1133,-4.3242 -1.5274,-1.1953 -3.0586,-2.4375 -4.4102,-3.8243 -0.6836,-0.7929 -1.3398,-1.6171 -1.9804,-2.4335 -0.6719,-1.1016 -1.1875,-2.2696 -1.6172,-3.4688 -1.1016,-3.0898 -1.6094,-6.418 -2.6641,-9.5156 -0.0117,-0.043 -0.0273,-0.086 -0.043,-0.1289 -0.2812,-1.0157 -1.1445,-1.7344 -2.1914,-1.8242 -0.0312,0 -0.0625,0.0039 -0.0898,0.0078 -0.0313,-0.0039 -0.0586,-0.0078 -0.0898,-0.0078 -0.5118,0.0429 -0.9805,0.2382 -1.3594,0.5468 -0.3946,0.3203 -0.6875,0.7578 -0.8321,1.2774 -1.2656,3.6679 -1.75,7.664 -3.3359,11.2187 -0.2891,0.6485 -0.6133,1.2813 -0.9883,1.8946 -0.6328,0.8046 -1.2773,1.6132 -1.9492,2.3984 -0.0937,0.0937 -0.1875,0.1914 -0.2812,0.2812 -1.293,1.293 -2.7266,2.4571 -4.1641,3.5782 -3.9805,2.4257 -8.7773,2.8281 -13.1133,4.3242 -1.0156,0.2812 -1.7344,1.1445 -1.8242,2.1914 0,0.0195 0,0.043 0.0078,0.0625 -0.0156,0.1523 -0.0078,0.3125 -0.0078,0.4648 0,0.0586 0.0156,0.1094 0.0352,0.1602 0.0078,0.0547 0.0156,0.1094 0.0273,0.1562 0,0 0.0078,0.0469 0.0078,0.0469 0.0078,0.0313 0.0195,0.0625 0.0313,0.0938 0,0.0039 0,0.0117 0.0039,0.0156 0.2031,0.8828 0.8672,1.5859 1.7656,1.8359 4.3359,1.4961 9.1328,1.8985 13.1133,4.3243 0.7656,0.6015 1.5351,1.2109 2.2812,1.8476 -0.0078,0.0078 -0.0195,0.0156 -0.0273,0.0234 1.4375,1.3829 2.7109,2.9571 3.9375,4.5235 2.4258,3.9804 2.8281,8.7773 4.3242,13.1133 0.2812,1.0156 1.1445,1.7343 2.1914,1.8242 0.0898,0 0.1719,-0.0195 0.2461,-0.0508 0.0742,0.0352 0.1562,0.0508 0.2422,0.0508 1.0469,-0.0899 1.9101,-0.8086 2.1914,-1.8242 1.4961,-4.336 1.8984,-9.1329 4.3242,-13.1133 1.2266,-1.5664 2.5,-3.1406 3.9375,-4.5235 -0.008,-0.0078 -0.0156,-0.0156 -0.0234,-0.0234 0.7461,-0.6367 1.5117,-1.2461 2.2773,-1.8476 3.6914,-2.25 8.0899,-2.7579 12.168,-4.0157 0.3164,-0.0976 0.6328,-0.1992 0.9453,-0.3086 0.8984,-0.25 1.5625,-0.9531 1.7656,-1.8359 0.004,-0.0039 0.004,-0.0117 0.004,-0.0156 0.0117,-0.0313 0.0235,-0.0625 0.0313,-0.0938 0,0 0.008,-0.0469 0.008,-0.0469 0.0117,-0.0468 0.0195,-0.1015 0.0273,-0.1562 0.0196,-0.0508 0.0352,-0.1016 0.0352,-0.1602 z m 25.8008,-27.2226 c -0.1875,6.7656 -0.8086,13.4258 -1.836,19.957 -0.625,3.9883 -1.3984,7.9258 -2.3242,11.8086 -0.5039,2.1289 -1.0547,4.2422 -1.6484,6.3398 -3.0469,10.793 -7.2266,21.1368 -12.4063,30.9102 -1.1484,2.1641 -2.3476,4.3008 -3.5937,6.4063 -7.6836,13.0117 -17.1875,24.9062 -28.1836,35.3593 -3.4492,0.4375 -6.957,0.8047 -10.5156,1.0938 -2.7579,0.2305 -5.5469,0.414 -8.3633,0.5508 -1.6836,0.082 -3.3789,0.1445 -5.0821,0.1953 -0.0351,0 -0.0585,0 -0.0937,0 -0.1172,0.0039 -0.2344,0.0078 -0.3516,0.0117 -0.0234,0 -0.0586,0 -0.0898,0 -0.3438,0.0117 -0.6914,0.0195 -1.0391,0.0273 -0.0625,0.0039 -0.1289,0.0039 -0.1914,0.0039 -0.0937,0.004 -0.1914,0.004 -0.2851,0.0079 -0.0625,0 -0.125,0 -0.1875,0.0039 -0.1953,0.0039 -0.3946,0.0039 -0.5938,0.0078 -0.0273,0 -0.0586,0.0039 -0.0898,0.0039 -0.0977,0 -0.1797,0 -0.2774,0.0078 -0.0781,0 -0.1523,0 -0.2343,0.0039 -0.0821,0 -0.1602,0 -0.2422,0.0039 -0.0977,0 -0.1953,0 -0.293,0 -0.0625,0.0039 -0.1172,0.0039 -0.1758,0.0039 -0.0469,0 -0.0937,0 -0.1406,0 -0.1094,0.0039 -0.2188,0.0039 -0.3242,0.0039 -0.0625,0 -0.1289,0.0039 -0.1875,0.0039 -0.1016,0 -0.2032,0 -0.3008,0 -0.0781,0.0039 -0.1484,0.0039 -0.2227,0.0039 -0.1211,0 -0.2461,0 -0.3672,0.0039 -0.0351,0 -0.0703,0 -0.1015,0 -0.1641,0 -0.3203,0 -0.4766,0 -0.0625,0 -0.1211,0 -0.1836,0 -0.1093,0.0039 -0.2187,0.0039 -0.3281,0.0039 -0.0586,0 -0.125,0 -0.1797,0 -0.1601,0 -0.3242,0 -0.4883,0 -0.2343,0 -0.4687,0 -0.707,0 -0.0234,0 -0.0508,0 -0.0742,0 -0.2188,0 -0.4336,-0.0039 -0.6445,-0.0039 -0.0508,0 -0.1016,0 -0.1524,0 -0.1992,0 -0.3945,-0.0039 -0.5937,-0.0039 -0.0704,0 -0.1368,0 -0.2032,-0.0039 -0.1875,0 -0.375,0 -0.5625,-0.0039 -0.0742,0 -0.1562,0 -0.2304,-0.0039 -0.1719,0 -0.3399,-0.0039 -0.5118,-0.0039 C 58.8008,73.75 58.6992,73.75 58.5977,73.75 58.4922,73.7461 58.3906,73.7461 58.2852,73.7461 58.1055,73.7383 57.9297,73.7344 57.75,73.7305 c -0.0625,0 -0.1211,0 -0.1797,0 -6.3867,-0.125 -12.6601,-0.4805 -18.7695,-1.0547 0.0195,-0.2149 0.043,-0.4336 0.0664,-0.6485 0.4687,-4.7695 0.9805,-9.5312 1.5195,-14.2968 0.3789,-3.3321 0.7656,-6.6641 1.1446,-9.9961 -0.0391,-0.625 -0.0704,-1.2461 -0.1055,-1.875 -0.0235,-0.5078 -0.0508,-1.0235 -0.0742,-1.5352 -0.2383,1.8203 -0.4649,3.6367 -0.668,5.461 -0.3711,3.3671 -0.75,6.7265 -1.0898,10.0937 -0.1524,1.5234 -0.3047,3.0547 -0.4532,4.5859 -0.2109,2.211 -0.3515,4.4532 -0.8828,6.6172 -0.0703,0.2852 -0.1484,0.5664 -0.2461,0.8399 -0.0742,0.2226 -0.1562,0.4375 -0.25,0.6523 -0.1914,-0.0195 -0.3867,-0.039 -0.5859,-0.0586 -0.0235,0 -0.0391,-0.0039 -0.0664,-0.0039 -0.1133,-0.0117 -0.2266,-0.0273 -0.3438,-0.039 -3.7187,-0.3829 -7.3828,-0.8438 -10.9765,-1.3829 -0.086,-0.0117 -0.1719,-0.0234 -0.2539,-0.039 -0.0704,-0.0078 -0.1368,-0.0195 -0.211,-0.0274 -0.1719,-0.0312 -0.3476,-0.0546 -0.5195,-0.082 0,0 0,0 -0.0039,0 -1.9219,-0.2969 -3.8242,-0.6172 -5.707,-0.957 -0.2266,-1.1133 -0.3008,-2.25 -0.4024,-3.3867 0.0469,0.4101 0.0938,0.8281 0.1406,1.2382 -0.8945,-7.8125 -0.4531,-15.7695 -0.2578,-23.6132 0,-0.0235 0.0039,-0.0508 0.0039,-0.0821 -0.1679,0.6719 -0.332,1.3399 -0.4961,2.0117 -1.5039,6.1329 -3.0195,12.2735 -4.5195,18.4063 -0.2305,0.9414 -0.4648,1.8828 -0.6914,2.8203 -0.1094,0.4375 -0.2149,0.8789 -0.3203,1.3164 C 10.6445,68.293 8.7617,67.8633 6.9062,67.4141 6.707,67.3633 6.5117,67.3164 6.3125,67.2695 6.1914,67.2383 6.0664,67.207 5.9453,67.1797 5.8594,67.1563 5.7734,67.1367 5.6953,67.1133 5.5,67.0664 5.3086,67.0195 5.1133,66.9688 5.082,66.9609 5.0586,66.957 5.0273,66.9492 0.0898,65.7031 -4.6602,64.3008 -9.1992,62.75 c 2.9258,-1.5391 6.3359,-1.8828 9.4375,-2.957 0.6992,-0.1914 1.2148,-0.7422 1.3672,-1.4375 0.0078,-0.0196 0.0156,-0.0391 0.0195,-0.0586 0,0 0.0078,-0.0352 0.0078,-0.0352 0.0078,-0.0351 0.0117,-0.0781 0.0195,-0.1211 0.0157,-0.039 0.0274,-0.0781 0.0274,-0.1211 0,-0.1172 0.0039,-0.2343 -0.0078,-0.3515 0.0078,-0.0196 0.0078,-0.0391 0.0078,-0.0586 -0.0703,-0.8047 -0.625,-1.4688 -1.4063,-1.6875 -3.1836,-1.0977 -6.6914,-1.4297 -9.6679,-3.0821 0.332,-2.6054 0.6562,-5.207 1.082,-7.7968 0.582,-3.4961 1.1641,-6.9922 1.7422,-10.4844 0.4961,-2.9766 1.0195,-5.9531 1.5664,-8.9258 -2.0391,-1.0703 -3.9258,-2.4336 -5.6953,-4 -2.5391,-2.25 -4.7656,-4.8906 -6.8242,-7.6016 -0.4922,0.5391 -1.0079,1.0665 -1.5547,1.5821 -0.6563,0.6211 -1.4219,1.1406 -2.2305,1.5781 -0.7852,2.1328 -1.5781,4.2617 -2.375,6.3906 -1.9336,5.1641 -3.9062,10.3086 -5.875,15.461 -0.8437,2.2109 -1.6914,4.4258 -2.5664,6.6289 -0.4844,1.2383 -0.9766,2.4726 -1.4766,3.7031 -0.2812,0.6914 -0.5507,1.3945 -0.8359,2.0938 -3.8633,-2.254 -7.4141,-4.6446 -10.625,-7.1524 -0.0039,-0.0039 -0.0078,-0.0039 -0.0117,-0.0078 -0.1602,-0.1289 -0.3242,-0.2539 -0.4883,-0.3867 -0.0195,-0.0117 -0.0313,-0.0235 -0.0547,-0.043 -0.0625,-0.0469 -0.1211,-0.0976 -0.1875,-0.1484 -0.0195,-0.0157 -0.0391,-0.0313 -0.0625,-0.0508 -0.0508,-0.043 -0.1016,-0.0859 -0.1523,-0.1211 -0.0352,-0.0273 -0.0586,-0.0508 -0.0938,-0.0781 -0.0508,-0.0391 -0.0976,-0.0742 -0.1484,-0.1172 -0.0235,-0.0235 -0.0508,-0.043 -0.0781,-0.0625 -0.0743,-0.0625 -0.1446,-0.1211 -0.2149,-0.1797 -0.0273,-0.0234 -0.0586,-0.0469 -0.0859,-0.0742 -0.043,-0.0313 -0.086,-0.0664 -0.1289,-0.1055 -0.0469,-0.0312 -0.0938,-0.0742 -0.1407,-0.1133 -0.0234,-0.0195 -0.0468,-0.039 -0.0703,-0.0586 -0.0508,-0.0429 -0.1054,-0.0898 -0.1562,-0.1328 -0.0156,-0.0117 -0.0274,-0.0195 -0.0391,-0.0312 -0.0586,-0.0469 -0.1211,-0.0977 -0.1758,-0.1446 0,0 0,0 -0.0039,0 -1.3398,-1.1328 -2.6093,-2.289 -3.8125,-3.4648 0.0977,-0.3555 0.1953,-0.707 0.2969,-1.0625 0.0391,-0.1406 0.082,-0.2852 0.1211,-0.4258 0.7187,-2.5469 1.4297,-5.1015 2.1875,-7.6367 0.4336,-1.4336 0.8633,-2.8711 1.3047,-4.3047 -3.0938,2.4805 -6.2578,4.8672 -9.6055,7.0039 -0.039,-0.0508 -0.0742,-0.1015 -0.1094,-0.1484 -0.0273,-0.0313 -0.0468,-0.0625 -0.0664,-0.0938 -0.039,-0.0468 -0.0781,-0.0976 -0.1132,-0.1445 -0.0547,-0.0703 -0.1094,-0.1484 -0.1602,-0.2188 -0.0273,-0.039 -0.0508,-0.0703 -0.0742,-0.1093 -0.0664,-0.0821 -0.125,-0.1641 -0.1836,-0.25 -0.0156,-0.0196 -0.0352,-0.043 -0.0508,-0.0664 -0.0664,-0.0938 -0.1367,-0.1914 -0.2031,-0.2852 0,-0.0039 0,-0.0039 -0.0039,-0.0078 -2.4336,-3.4492 -4.2852,-7.0273 -5.5,-10.7188 -0.461,-1.3828 -0.8321,-2.7851 -1.1055,-4.1992 0,-0.0039 0,-0.0078 0,-0.0078 -0.0195,-0.1172 -0.0469,-0.2383 -0.0664,-0.3516 0,-0.0039 0,-0.0078 0,-0.0117 -0.043,-0.2383 -0.0859,-0.4765 -0.125,-0.7109 0,-0.0078 0,-0.0117 0,-0.0156 -0.0195,-0.1133 -0.0391,-0.2266 -0.0547,-0.3438 0,-0.0078 -0.0039,-0.0156 -0.0039,-0.0234 -0.0156,-0.1094 -0.0352,-0.2266 -0.0469,-0.336 -0.0039,-0.0117 -0.0039,-0.0234 -0.0039,-0.0429 -0.0156,-0.1094 -0.0351,-0.2188 -0.0469,-0.3282 0,-0.0117 0,-0.0195 -0.0039,-0.0273 -0.0273,-0.2344 -0.0546,-0.4648 -0.0781,-0.6953 0,-0.0078 -0.0039,-0.0195 -0.0039,-0.0274 -0.0117,-0.1093 -0.0195,-0.2187 -0.0273,-0.3242 -0.0039,-0.0195 -0.0039,-0.039 -0.0118,-0.0586 -0.0078,-0.1054 -0.0156,-0.2109 -0.0234,-0.3203 0,-0.0156 -0.0039,-0.0351 -0.0039,-0.0547 -0.0039,-0.0507 -0.0078,-0.1054 -0.0156,-0.1601 0,-0.0547 -0.0078,-0.1094 -0.0117,-0.1602 0,-0.0156 0,-0.0273 0,-0.0429 -0.0157,-0.2227 -0.0274,-0.4532 -0.0391,-0.6797 0,-0.0157 0,-0.0274 0,-0.0469 -0.0078,-0.1055 -0.0117,-0.2109 -0.0156,-0.3164 0,-0.0195 0,-0.043 -0.0039,-0.0625 0,-0.1055 -0.0039,-0.207 -0.0078,-0.3164 0,-0.0156 0,-0.0391 0,-0.0625 -0.004,-0.1055 -0.004,-0.211 -0.004,-0.3164 0,-0.0196 0,-0.0313 0,-0.043 -0.0039,-0.1133 -0.0039,-0.2305 -0.0039,-0.3437 0,-3.3555 0.5196,-6.6485 1.5196,-9.8633 1.1406,-3.6602 2.9062,-7.2149 5.2383,-10.6406 0.082,-0.1211 0.1679,-0.2422 0.2578,-0.3633 0.0859,-0.125 0.1718,-0.25 0.2578,-0.3711 0.1679,-0.2461 0.3437,-0.4883 0.5273,-0.7305 0.3555,-0.4883 0.7227,-0.9726 1.1094,-1.4531 18.6953,-23.5781 64.7969,-40.2578 118.707,-40.2578 30.9375,0 59.3047,5.4922 81.3985,14.6328 z"
               style="fill:#ffffff;fill-opacity:1;fill-rule:nonzero;stroke:none"
               id="path4078" /></g><g
             id="g4080"
             transform="translate(228.7773,319.5273)"><path
               d="m 0,0 c 1.4297,3.6992 0.5586,8.8477 -2.7539,11.3008 -0.9883,0.7304 -1.9297,1.2929 -2.9805,1.6992 -0.0937,0.0391 -0.1875,0.0742 -0.2851,0.1094 -1.5625,2.5195 -4.5078,4.4765 -7.5196,4.4414 -1.039,-0.0156 -2.0468,0.0039 -3.0703,-0.2344 -1.0351,-0.2383 -1.957,-0.6797 -2.8906,-1.168 -0.3594,-0.1836 -0.7031,-0.3984 -1.0273,-0.6289 -0.3516,0.5469 -0.7422,1.0625 -1.168,1.5196 -1.5742,1.6992 -3.5313,2.4765 -5.7422,2.9726 -2.1055,0.4766 -4.2969,-0.125 -6.293,-0.7383 -1.9218,-0.5898 -3.7304,-1.957 -5.2343,-3.25 -1.3165,-1.1289 -2.5469,-2.3125 -3.7422,-3.5429 -0.1446,0.0703 -0.2891,0.1445 -0.4336,0.2148 -3.9297,1.8516 -8.9844,0.7109 -12.3555,-1.8359 -0.4727,-0.3555 -0.9258,-0.7188 -1.3672,-1.0977 -0.2578,0.582 -0.5742,1.1445 -0.9609,1.6914 -1.25,1.7539 -2.9961,3.1485 -5.0625,3.8125 -2.2149,0.711 -4.6446,0.6367 -6.8633,-0.0273 -0.7539,0.7617 -1.6445,1.3945 -2.6719,1.8555 -1.8281,0.8242 -3.7304,1.2539 -5.7422,1.0703 -2.5429,-0.2305 -4.8164,-1.4571 -6.8086,-2.9805 -1.6093,-1.2305 -3.0898,-2.6328 -4.4882,-4.1133 -0.0118,0.0039 -0.0313,0.0156 -0.043,0.0234 -3.8789,1.8125 -8.2031,0.7735 -11.5977,-1.5156 -0.5742,0.3946 -1.1718,0.7344 -1.75,1.0117 -0.8789,0.4102 -1.8086,0.6993 -2.7578,0.875 0.2149,3.6836 -0.2734,7.8868 -2.9531,10.5782 -0.7617,0.7617 -1.5781,1.4883 -2.4766,2.0859 -0.3828,0.2539 -0.7773,0.4844 -1.1914,0.6875 0.5899,0.6445 1.1758,1.293 1.7657,1.9414 1.4765,1.625 2.8515,3.3789 4.2187,5.1016 0.957,1.1953 1.9063,2.3945 2.8633,3.5976 0.5039,0.6328 0.9922,1.2813 1.4726,1.9336 0.3438,0.4649 0.6836,0.9297 1.0235,1.3946 0.9023,1.2343 1.4023,2.7656 1.6289,4.2968 -1.5977,-0.2617 -3.1758,-0.5468 -4.7305,-0.8632 -6.8125,-7.0665 -12.9805,-14.7188 -18.4062,-22.8633 -5.0625,-7.5977 -9.4805,-15.6211 -13.1875,-24.0117 -1.1797,-2.6758 -2.2891,-5.3946 -3.3203,-8.1446 -0.008,-0.0078 -0.0118,-0.0156 -0.0118,-0.0273 -1.4687,-3.8907 -2.7812,-7.8516 -3.9336,-11.8789 -0.7421,-2.5782 -1.4179,-5.1797 -2.0234,-7.8086 14.875,-12.6367 39.4766,-20.8907 67.3086,-20.8907 26.0273,0 49.2344,7.2227 64.3008,18.4922 0,0.0039 0.0039,0.0039 0.0039,0.0039 0.168,-0.2461 0.3359,-0.4921 0.5117,-0.7382 0.1719,-0.2461 0.3477,-0.4883 0.5274,-0.7305 0.3593,-0.4883 0.7304,-0.9688 1.1093,-1.4531 1.0078,2.3281 1.9883,4.6601 3.1133,6.9414 1.1953,2.4218 2.5274,4.7734 3.7227,7.1914 0.0195,0.0429 0.0429,0.0859 0.0625,0.1289 0.6328,1.2734 1.2422,2.5508 1.8242,3.8437 0.7695,1.7032 1.207,3.4922 1.0351,5.375 -0.1914,2.0743 -1.0429,3.7579 -2.3086,5.2422 0.043,0.0938 0.086,0.1875 0.1329,0.2852 0.0429,0.0859 0.082,0.1758 0.125,0.2617 0.6992,1.5039 1.3164,3.043 1.9023,4.5938 C -0.9922,-2.6484 -0.5078,-1.3203 0,0 Z"
               style="fill:#ffffff;fill-opacity:1;fill-rule:nonzero;stroke:none"
               id="path4082" /></g><g
             id="g4084"
             transform="translate(85.943,328.2202)"><path
               d="M 0,0 C 0.0485,0.0913 0.095,0.1826 0.141,0.2726 0.0938,0.1819 0.0459,0.0919 0,0 Z"
               style="fill:#ffffff;fill-opacity:1;fill-rule:nonzero;stroke:none"
               id="path4086" /></g><g
             id="g4088"
             transform="translate(398.6406,326.4375)"><path
               d="m 0,0 c 0.3008,-0.4492 0.6016,-0.9063 0.918,-1.3516 -1.1485,2.1641 -2.3477,4.3008 -3.5938,6.4063 -7.6836,13.0117 -17.1875,24.9062 -28.1836,35.3594 -0.2734,0.2578 -0.5469,0.5156 -0.8242,0.7734 -8.5078,7.9844 -17.8945,15.1094 -28.0039,21.2344 -0.0391,0.0273 -0.082,0.0508 -0.1211,0.0742 -0.0781,0.0469 -0.1445,0.0898 -0.2227,0.1367 -0.0351,0.0195 -0.0703,0.043 -0.1093,0.0625 -21.8985,13.1797 -47.1797,21.6719 -74.3008,24.0156 -0.0195,0 -0.043,0.0039 -0.0586,0.0039 -0.1328,0.0118 -0.2773,0.0235 -0.4102,0.0352 -0.0273,0 -0.0507,0.0039 -0.0781,0.0078 -0.1289,0.0078 -0.2656,0.0195 -0.3945,0.0313 -0.0352,0 -0.0664,0.0039 -0.1016,0.0078 -0.1328,0.0117 -0.2539,0.0195 -0.3867,0.0312 -0.0351,0 -0.0664,0.0039 -0.0976,0.0078 -0.129,0.0079 -0.2618,0.0196 -0.3907,0.0274 -0.0273,0.0039 -0.0586,0.0039 -0.0859,0.0078 -0.5742,0.043 -1.1445,0.082 -1.7227,0.1211 -0.0429,0.0039 -0.0898,0.0039 -0.1367,0.0078 -0.1133,0.0078 -0.2344,0.0156 -0.3437,0.0234 -0.0508,0.0039 -0.0977,0.0039 -0.1485,0.0079 -0.1093,0.0078 -0.2265,0.0156 -0.3359,0.0195 -0.0586,0.0039 -0.1211,0.0078 -0.1797,0.0117 -0.0937,0.0039 -0.2031,0.0117 -0.3008,0.0156 -0.0742,0.0078 -0.1445,0.0117 -0.2187,0.0157 -0.0899,0.0039 -0.1914,0.0078 -0.2813,0.0156 -0.0742,0.0039 -0.1523,0.0078 -0.2304,0.0117 -0.0899,0.0039 -0.1915,0.0078 -0.2813,0.0117 -0.0625,0.0039 -0.125,0.0078 -0.1875,0.0117 -0.332,0.0157 -0.6758,0.0313 -1.0078,0.0469 -0.1016,0.0039 -0.2031,0.0078 -0.3086,0.0156 -0.0664,0 -0.1406,0.0039 -0.207,0.0078 -0.1016,0.004 -0.1993,0.0079 -0.3008,0.0118 -0.0781,0.0039 -0.1563,0.0078 -0.2344,0.0078 -0.0898,0.0039 -0.1836,0.0078 -0.2734,0.0117 -0.0821,0.0039 -0.168,0.0078 -0.2539,0.0078 -0.086,0.0039 -0.1719,0.0078 -0.2578,0.0117 -0.0782,0 -0.1641,0.0039 -0.2461,0.0078 -0.0899,0.0039 -0.1836,0.0039 -0.2735,0.0079 -0.0781,0.0039 -0.164,0.0039 -0.2422,0.0078 -0.0937,0.0039 -0.1875,0.0039 -0.2812,0.0078 -0.0781,0.0039 -0.1485,0.0039 -0.2266,0.0078 -0.1054,0 -0.2109,0.0039 -0.3164,0.0078 -0.0664,0 -0.1328,0.0039 -0.1992,0.0039 -0.1719,0.0039 -0.3398,0.0078 -0.5117,0.0117 -0.043,0 -0.0821,0 -0.125,0.0039 -0.125,0 -0.25,0.0039 -0.375,0.0078 -0.0742,0 -0.1524,0 -0.2266,0.004 -0.0976,0 -0.1953,0 -0.293,0.0039 -0.0781,0 -0.1562,0 -0.2343,0.0039 -0.0899,0 -0.1875,0 -0.2774,0.0039 -0.0781,0 -0.1484,0 -0.2265,0 -0.1094,0.0039 -0.2188,0.0039 -0.3282,0.0039 -0.0546,0 -0.125,0.0039 -0.1796,0.0039 -0.1133,0 -0.2266,0 -0.336,0 -0.0625,0 -0.1289,0.0039 -0.1914,0.0039 -0.1211,0 -0.2383,0 -0.3594,0 -0.0547,0 -0.1054,0 -0.1601,0 -0.1719,0 -0.3438,0 -0.5196,0 -0.1601,0 -0.3203,0 -0.4804,0 -0.0742,0 -0.1367,0 -0.211,0 -0.0703,0 -0.1406,0 -0.2109,0 -25.0547,-0.125 -48.8203,-5.4844 -70.168,-14.9961 -0.0195,-0.0117 -0.0429,-0.0195 -0.0664,-0.0313 -0.1836,-0.0859 -0.3672,-0.164 -0.5508,-0.2421 -19.8789,-8.9493 -37.6445,-21.5079 -52.3789,-36.7891 -6.8125,-7.0664 -12.9804,-14.7188 -18.4062,-22.8633 -5.0625,-7.5976 -9.4805,-15.6211 -13.1875,-24.0117 -1.1797,-2.6758 -2.2891,-5.3945 -3.3203,-8.1445 0.1797,0.2343 0.3554,0.4765 0.5234,0.7226 0.7383,1.082 1.3281,2.2149 1.8945,3.3789 0.008,0.0078 0.0118,0.0157 0.0157,0.0196 0.7109,0.9843 1.4648,1.9296 2.1875,2.9062 0.4179,0.5625 0.8242,1.1406 1.207,1.7344 1.25,1.957 2.0195,4.125 2.9961,6.2109 0.1172,0.211 0.2383,0.4219 0.3633,0.625 0.9844,1.3242 2.1172,2.5469 3.0976,3.8828 1.4375,1.9532 2.8047,3.9492 4.3594,5.8086 0.1953,0.211 0.4024,0.4141 0.6094,0.6172 0.5625,0.4492 1.1562,0.8633 1.7422,1.3008 1.3437,1.0234 2.4804,2.2812 3.5234,3.5976 1.25,1.5821 2.4531,3.2188 3.7461,4.7618 0.1602,0.1718 0.3242,0.3398 0.4961,0.5039 0.3594,0.289 0.7266,0.5781 1.1016,0.8594 0.8945,0.6718 1.8164,1.3164 2.7187,1.9335 0.9844,0.668 1.9649,1.3399 2.9492,2.0118 2.5352,1.6836 5.1172,3.3007 7.6992,4.9257 1.2774,0.8047 2.5547,1.6133 3.7735,2.5196 0.9805,0.7226 1.9062,1.5195 2.9062,2.2226 0.6368,0.4336 1.2657,0.8711 1.8985,1.3008 1.2695,0.8203 2.6015,1.5313 3.8711,2.3594 1.3281,0.8633 2.6718,1.7226 4.039,2.5312 1.6172,0.9493 3.1836,1.9532 4.6953,3.0664 1.3555,1.0079 2.5743,2.1719 3.8164,3.3125 0.6915,0.5665 1.418,1.1016 2.1446,1.6172 1.039,0.6602 2.1328,1.2422 3.2265,1.8047 1.5782,0.7774 3.168,1.5547 4.8125,2.1719 2.4414,0.8242 4.8711,1.6758 7.2422,2.6953 2.2305,0.9649 4.4805,1.9649 6.7657,2.8086 1.2187,0.3984 2.4453,0.7852 3.6445,1.2422 1.2695,0.4922 2.4883,1.1172 3.6992,1.7422 1.8008,0.8789 3.668,1.5625 5.5391,2.2851 1.6445,0.6407 3.25,1.375 4.8984,1.9961 1.5352,0.4961 3.082,0.9336 4.6133,1.4492 -0.2383,-0.0781 -0.4766,-0.164 -0.7149,-0.25 1.4727,0.504 3,0.8907 4.418,1.5352 0.8359,0.3828 1.6719,0.7852 2.4375,1.2891 0.4219,0.2773 0.8047,0.5703 1.1797,0.8828 0.043,0.0156 0.0859,0.0273 0.1289,0.0469 1.6719,0.5703 3.4063,1.0585 5.1406,1.4453 2.8946,0.5625 5.7774,1.1679 8.6446,1.8867 2.5976,0.6484 5.0468,1.7656 7.539,2.7148 0.168,0.0469 0.336,0.0938 0.5,0.1407 1.0742,0.164 2.1641,0.2851 3.2461,0.3945 0.2539,-0.0391 0.5078,-0.086 0.7617,-0.1367 -0.2226,0.0468 -0.4414,0.0937 -0.6601,0.1367 0.004,0 0.008,0 0.0117,0 1.457,-0.2852 2.8398,-0.4766 4.3555,-0.5156 0.9257,-0.0274 1.8554,0.0351 2.7734,0.0859 2.8086,0.1602 5.5664,0.668 8.3633,0.9062 0.8476,0.0508 1.6992,0.0899 2.5547,0.043 -0.0977,0.0117 -0.1953,0.0156 -0.293,0.0235 4.4922,-0.2774 9,-0.2383 13.4961,-0.4844 1.9766,-0.1914 3.9102,-0.668 5.8828,-0.8438 1.9102,-0.164 3.75,-0.164 5.6563,-0.0156 0.8281,0.0664 1.6445,0.1719 2.4687,0.2617 0.4297,-0.207 0.8594,-0.4179 1.3008,-0.6054 0.6484,-0.2657 1.3086,-0.4883 1.9531,-0.7618 1.4219,-0.7812 2.7813,-1.7031 4.1719,-2.5351 0.7656,-0.4531 1.5,-0.9492 2.2969,-1.3477 1.0859,-0.5469 2.1953,-1.0117 3.2851,-1.5351 1.418,-0.6914 2.8906,-1.2383 4.375,-1.7696 1.1211,-0.3984 2.25,-0.7968 3.3985,-1.1054 1.0625,-0.2852 2.1523,-0.4493 3.2304,-0.6407 0.8047,-0.207 1.5781,-0.4921 2.3828,-0.707 1.3516,-0.3594 2.7383,-0.5234 4.1172,-0.7461 0.25,-0.0625 0.4961,-0.1328 0.7422,-0.2109 0.6914,-0.2461 1.3867,-0.4844 2.0977,-0.6641 0.5039,-0.125 1.0078,-0.2226 1.5078,-0.3555 1.2031,-0.6484 2.3711,-1.3437 3.5781,-1.9804 1.543,-0.8125 3.1289,-1.5274 4.6953,-2.2969 1.6953,-0.875 3.3828,-1.7617 5.0938,-2.6094 0.3515,-0.1914 0.6914,-0.3906 1.0273,-0.6093 1.4688,-1.0079 2.9414,-2 4.4844,-2.8985 1.1992,-0.7031 2.3086,-1.543 3.5351,-2.207 1.4883,-0.8047 3.0664,-1.4922 4.5938,-2.2188 1.6016,-0.7539 3.3008,-1.2617 4.9101,-1.9843 0.3985,-0.2149 0.793,-0.4454 1.1797,-0.6836 0.1016,-0.0625 0.2071,-0.1289 0.3086,-0.1914 0.0196,-0.0118 0.0352,-0.0274 0.0547,-0.0391 1.6055,-1.1406 3.1445,-2.3945 4.711,-3.582 1.6328,-1.2344 3.3476,-2.3633 4.9296,-3.6719 0.9883,-0.8945 1.9532,-1.8164 2.8946,-2.7617 1.0664,-1.0703 2.0351,-2.2266 3.1679,-3.2266 1.6133,-1.4336 3.3243,-2.6914 5.2266,-3.7148 0.9688,-0.5196 1.9375,-1.0313 2.8711,-1.6094 1.0312,-0.7695 2.0039,-1.6211 3.0078,-2.4297 0.9609,-0.7734 1.9453,-1.5117 2.8906,-2.3086 2.168,-1.832 4.4844,-3.4883 6.6407,-5.3359 0.8086,-0.7188 1.6172,-1.4414 2.4726,-2.1016 0.8086,-0.6211 1.6797,-1.1562 2.5313,-1.7148 C -8.082,9.3906 -7.7812,9.1719 -7.4844,8.9414 -7.418,8.8711 -7.3516,8.8008 -7.2812,8.7305 -6.3008,7.5937 -5.3242,6.4531 -4.3281,5.3242 -2.8437,3.6055 -1.3125,1.8633 0,0 Z"
               style="fill:#ffffff;fill-opacity:1;fill-rule:nonzero;stroke:none"
               id="path4090" /></g><g
             id="g4092"
             transform="translate(127.5823,372.7842)"><path
               d="M 0,0 C 0.216,0.1467 0.4334,0.2927 0.6509,0.4402 0.4333,0.2946 0.2165,0.1477 0,0 Z"
               style="fill:#ffffff;fill-opacity:1;fill-rule:nonzero;stroke:none"
               id="path4094" /></g><g
             id="g4096"
             transform="translate(127.3205,372.6054)"><path
               d="M 0,0 C 0.0872,0.06 0.1745,0.1193 0.2618,0.1788 0.1743,0.1194 0.087,0.0599 0,0 Z"
               style="fill:#ffffff;fill-opacity:1;fill-rule:nonzero;stroke:none"
               id="path4098" /></g><g
             id="g4100"
             transform="translate(417.9082,322.1921)"><path
               d="M 0,0 C -0.0466,0.0763 -0.0975,0.1483 -0.1484,0.2247 -0.0975,0.1483 -0.0509,0.0721 0,0 Z"
               style="fill:#ffffff;fill-opacity:1;fill-rule:nonzero;stroke:none"
               id="path4102" /></g><g
             id="g4104"
             transform="translate(362.5898,255.6016)"><path
               d="m 0,0 c -0.3945,0.3203 -0.6875,0.7578 -0.832,1.2773 -1.2657,3.668 -1.75,7.6641 -3.336,11.2188 -0.289,0.6484 -0.6132,1.2812 -0.9882,1.8945 -0.6329,0.8047 -1.2774,1.6133 -1.9493,2.3985 -0.0937,0.0937 -0.1875,0.1914 -0.2812,0.2812 -0.7617,-0.2695 -1.5195,-0.543 -2.2735,-0.8398 -1.9492,-0.7618 -3.7773,-1.7696 -5.621,-2.75 -0.4493,-0.211 -0.8985,-0.4024 -1.3516,-0.5899 -2.6367,-0.7773 -5.3789,-1.2773 -8.0664,-1.8359 -1.3164,-0.25 -2.6328,-0.457 -3.9649,-0.5899 -4.2148,-0.2187 -8.4492,-0.0976 -12.6718,-0.0937 -3.8086,0 -7.6407,0.0547 -11.4532,0.2578 -0.7695,0.0859 -1.5312,0.2031 -2.2968,0.3398 -1.6602,0.3477 -3.3204,0.6915 -4.9922,0.9688 -1.1719,0.1953 -2.3399,0.3633 -3.5039,0.5703 -0.5118,0.1328 -1.0118,0.2813 -1.5118,0.4453 -2.125,0.7383 -4.2695,1.4024 -6.4023,2.1172 -1.6836,0.6172 -3.3437,1.293 -4.9609,2.0586 -0.5078,0.2774 -1,0.5664 -1.4883,0.875 -1.4649,1.0234 -2.9141,2.0703 -4.4414,3.0156 -1.7266,1.0743 -3.6094,1.8594 -5.4453,2.7188 -0.3868,0.2109 -0.7657,0.4336 -1.1328,0.664 -1.2071,0.8907 -2.3594,1.8594 -3.543,2.7696 -1.375,1.0625 -2.8789,1.914 -4.3438,2.8476 -1.0742,0.7891 -2.0976,1.6446 -3.1601,2.4493 -0.9922,0.7578 -2.043,1.4296 -3.0781,2.1171 -3.7227,2.5352 -7.4805,5.1211 -10.8985,8.0508 -0.6484,0.5781 -1.3008,1.1641 -1.914,1.7852 -0.668,0.8515 -1.2618,1.7539 -1.9063,2.6289 -1.0352,1.4062 -2.2734,2.6015 -3.5781,3.7461 -2.0274,1.7773 -4.1641,3.4922 -6.3047,5.1289 -2.2813,1.7422 -4.9023,3.0625 -7.6211,4.0312 -0.5703,0.2071 -1.1484,0.3946 -1.7266,0.5664 -1.9453,0.586 -3.9687,0.9805 -6.0078,0.9883 -2.4023,0.0156 -4.6875,-0.5937 -7.0156,-1.0703 0.1875,0.0391 0.375,0.0742 0.5625,0.1133 -0.8906,-0.1836 -1.7617,-0.3789 -2.625,-0.6094 -0.9219,-0.2422 -1.832,-0.5273 -2.7461,-0.8828 -1.4531,-0.5586 -2.8281,-1.3164 -4.2109,-2.0391 -2.2969,-1.082 -4.6602,-1.9648 -7.0586,-2.8203 -2.4883,-0.8828 -4.8633,-1.9765 -7.2383,-3.1289 -4.7969,-2.3164 -9.6992,-4.3945 -14.457,-6.7929 0.3398,0.1718 0.6797,0.3437 1.0195,0.5117 -0.4258,-0.2071 -0.8477,-0.4063 -1.2852,-0.586 -0.1367,-0.0351 -0.2773,-0.0703 -0.414,-0.1054 -2.2266,-0.4219 -4.4219,-0.9063 -6.6289,-1.4258 -2.2696,-0.5352 -4.4336,-1.2891 -6.6133,-2.1094 -0.0781,-0.0234 -0.1641,-0.0469 -0.25,-0.0703 -0.0117,-0.0039 -0.0274,-0.0039 -0.0469,-0.0078 -1.4961,-0.0391 -3.0039,0.0273 -4.5,0.1133 -3.0469,0.2812 -6.0742,0.7539 -9.1289,0.9961 -3.3398,0.2617 -6.6875,0.2968 -10.0273,0.4726 -2.086,0.1953 -4.1289,0.586 -6.1953,0.9414 -1.9766,0.3477 -3.9766,0.6094 -5.9532,0.9727 -1.3047,0.2969 -2.582,0.6523 -3.8515,1.0703 -1.3516,0.4844 -2.6993,0.9687 -4.0703,1.4062 -0.8477,0.2735 -1.7188,0.4805 -2.5743,0.7305 -0.7226,0.2852 -1.4257,0.6094 -2.1328,0.918 -0.9609,0.4179 -1.9414,0.7656 -2.9297,1.1094 -0.5625,0.1992 -1.1093,0.4257 -1.6523,0.6875 -1.8203,0.8906 -3.6328,1.6953 -5.6172,2.2304 -1.1328,0.3047 -2.2539,0.6094 -3.3672,0.9571 -0.1914,0.332 -0.3789,0.6601 -0.5898,0.9804 -0.7539,1.1485 -1.6328,2.1016 -2.5391,3.0977 -0.2969,0.3437 -0.5937,0.6679 -0.9101,0.9804 -0.3204,0.3165 -0.6563,0.6172 -1.0274,0.9102 -0.0898,0.0742 -0.1797,0.1406 -0.2734,0.207 -1.1797,-2.6757 -2.2891,-5.3945 -3.3203,-8.1445 -0.008,-0.0078 -0.0118,-0.0156 -0.0118,-0.0273 -1.4687,-3.8907 -2.7812,-7.8516 -3.9336,-11.8789 0.8868,-0.8047 1.8477,-1.5235 2.8516,-2.1836 1.5859,-1.043 3.5195,-1.5391 5.3047,-2.1094 1.1562,-0.375 2.3437,-0.6289 3.5039,-0.9766 0.6328,-0.2461 1.2539,-0.5117 1.8594,-0.8164 -0.2969,0.1524 -0.5977,0.3008 -0.8867,0.4492 1.5429,-0.7812 3.0195,-1.4218 4.6406,-1.9961 -0.2735,0.0938 -0.543,0.1875 -0.8164,0.2813 1.6797,-0.5859 3.2695,-1.3672 4.9336,-1.9922 1.8711,-0.7031 3.8203,-1.168 5.7265,-1.793 2.1875,-0.7695 4.3672,-1.5312 6.625,-2.0625 2.6797,-0.6289 5.4102,-0.9453 8.1133,-1.4179 2.7656,-0.4766 5.4766,-0.961 8.2852,-1.1289 2.6133,-0.1602 5.2383,-0.1719 7.8593,-0.3125 1.5508,-0.1172 3.1055,-0.2579 4.6524,-0.418 2.4961,-0.25 4.9492,-0.6797 7.4609,-0.7774 2.4727,-0.0898 5.0547,-0.3203 7.4961,0.1329 2.0078,0.3711 3.8399,1.0976 5.7266,1.7929 1.9297,0.6055 3.9258,1.0821 5.9023,1.5157 1.4102,0.2656 2.8203,0.4843 4.2149,0.8203 1.6445,0.4023 3.1718,1.164 4.6718,1.9257 4.6446,2.293 9.4063,4.3243 14.0743,6.5625 2.5742,1.2344 5.2343,2.1875 7.9179,3.1563 1.4453,0.5234 2.8477,1.1328 4.2305,1.7812 1.1016,0.5118 2.1875,1.0547 3.2734,1.6016 0.4727,0.2266 0.9454,0.4336 1.4297,0.625 0.4883,0.1406 0.9844,0.2656 1.4844,0.3711 0.8164,0.168 1.6367,0.3438 2.4492,0.5156 0.1797,0.0313 0.3555,0.0625 0.5352,0.086 0.0156,-0.0039 0.039,-0.0078 0.0586,-0.0078 0.4609,-0.1133 0.9179,-0.2461 1.375,-0.3868 0.6523,-0.2539 1.2929,-0.5351 1.9218,-0.8359 0.1407,-0.0781 0.2813,-0.1602 0.418,-0.2383 0.457,-0.332 0.9024,-0.6758 1.3438,-1.0273 0.7382,-0.5899 1.4609,-1.1992 2.1875,-1.8047 0.8203,-0.6836 1.6718,-1.332 2.4961,-2.0156 0.1679,-0.1641 0.3398,-0.3282 0.5039,-0.5039 1.2812,-1.5782 2.3437,-3.293 3.7617,-4.7891 1.6719,-1.7695 3.6328,-3.3047 5.5117,-4.8359 3.5234,-2.8711 7.3633,-5.4454 11.1445,-7.9766 1.043,-0.7266 2.0352,-1.5234 3.0313,-2.3203 1.5469,-1.2344 3.2539,-2.2227 4.9101,-3.293 1.8672,-1.3477 3.5938,-2.8633 5.5157,-4.1445 1.875,-1.2422 3.9257,-2.1211 5.9531,-3.0782 0.7109,-0.3828 1.4023,-0.789 2.0859,-1.2226 1.2539,-0.875 2.4961,-1.7578 3.7696,-2.5977 1.5976,-1.0468 3.3867,-1.8281 5.1406,-2.5742 2.9804,-1.2734 6.0547,-2.207 9.1289,-3.2148 0.8984,-0.3242 1.7969,-0.6485 2.707,-0.9531 1.2813,-0.4297 2.586,-0.6954 3.9102,-0.9571 2.1562,-0.4336 4.3398,-0.6914 6.5,-1.1172 -0.0469,0.0118 -0.0977,0.0196 -0.1446,0.0313 2.4922,-0.4961 4.9414,-0.9141 7.5079,-0.9844 1.9218,-0.0547 3.8398,-0.1055 5.7617,-0.1836 4.4492,-0.1797 8.9297,-0.0742 13.3828,-0.0625 2.4648,0.0039 4.9258,0.086 7.3789,0.3008 2.4687,0.2148 4.9141,0.7852 7.3242,1.332 2.1797,0.4961 4.3867,0.9102 6.5469,1.4727 2.7656,0.7305 5.2461,2.1172 7.75,3.4531 C -2.8672,-1.043 -1.4375,-0.5195 0,0 Z"
               style="fill:#ffffff;fill-opacity:1;fill-rule:nonzero;stroke:none"
               id="path4106" /></g><g
             id="g4108"
             transform="translate(415.0586,275.7422)"><path
               d="m 0,0 c 0.293,0.0937 0.5859,0.1914 0.8789,0.2852 -0.625,3.9882 -1.3984,7.9257 -2.3242,11.8085 -0.5039,2.129 -1.0547,4.2422 -1.6484,6.3399 -0.2774,-0.0664 -0.5586,-0.1406 -0.8321,-0.2266 -0.7773,-0.2461 -1.5469,-0.5078 -2.3476,-0.6875 -0.961,-0.1992 -1.9102,-0.4179 -2.8555,-0.707 -1.3711,-0.4258 -2.7109,-0.9688 -4.0625,-1.4492 -0.7344,-0.25 -1.4688,-0.5039 -2.1953,-0.7578 -0.8711,-0.2969 -1.7539,-0.5157 -2.6406,-0.7657 -1.3243,-0.375 -2.5899,-0.9218 -3.8321,-1.4961 -1.3945,-0.6484 -2.7226,-1.4062 -4.0429,-2.1757 0.3164,-0.0977 0.6328,-0.1993 0.9453,-0.3086 0.8984,-0.25 1.5625,-0.9532 1.7656,-1.836 0.0039,-0.0039 0.0039,-0.0117 0.0039,-0.0156 0.0117,-0.0312 0.0234,-0.0625 0.0312,-0.0937 0,0 0.0079,-0.0469 0.0079,-0.0469 0.0117,-0.0469 0.0195,-0.1016 0.0273,-0.1563 0.0195,-0.0507 0.0352,-0.1015 0.0352,-0.1601 0,-0.1563 0.0078,-0.3125 -0.0079,-0.4688 0.0079,-0.0195 0.0079,-0.039 0.0079,-0.0586 -0.0899,-1.0468 -0.8086,-1.9101 -1.8243,-2.1914 -4.3359,-1.4961 -9.1328,-1.8984 -13.1132,-4.3242 -1.5274,-1.1953 -3.0586,-2.4375 -4.4102,-3.8242 -0.6836,-0.793 -1.3398,-1.6172 -1.9805,-2.4336 -0.6718,-1.1016 -1.1875,-2.2695 -1.6172,-3.4687 -1.1015,-3.0899 -1.6093,-6.418 -2.664,-9.5157 0.6055,0.2305 1.2109,0.461 1.8203,0.6875 1.0234,0.3242 2.0625,0.6094 3.1016,0.8946 1.4218,0.3945 2.8086,0.8984 4.1914,1.3945 2.5156,0.8242 5.0547,1.5664 7.5507,2.4414 2.1915,0.7656 4.2461,1.6953 6.3243,2.7227 2.1836,1.0742 4.4414,1.9765 6.5468,3.2109 1.4571,0.8555 2.8829,1.7734 4.375,2.5625 0.6094,0.293 1.2305,0.5703 1.8594,0.8203 1.5586,0.4883 3.1094,0.957 4.6563,1.4844 1.3008,0.4531 2.5976,0.9258 3.8984,1.3906 0.6758,0.2148 1.3516,0.3984 2.0391,0.5586 C -1.543,-0.4102 -0.7617,-0.2461 0,0 Z"
               style="fill:#ffffff;fill-opacity:1;fill-rule:nonzero;stroke:none"
               id="path4110" /></g><g
             id="g4112"
             transform="translate(407.0236,273.3046)"><path
               d="M 0,0 C 0.1385,0.0473 0.2769,0.0948 0.4153,0.143 0.2769,0.0953 0.1384,0.0477 0,0 Z"
               style="fill:#ffffff;fill-opacity:1;fill-rule:nonzero;stroke:none"
               id="path4114" /></g><g
             id="g4116"
             transform="translate(406.788,273.2246)"><path
               d="M 0,0 C -0.1645,-0.0573 -0.3291,-0.1146 -0.4938,-0.1712 -0.2507,-0.0875 -0.0076,-0.0038 0.2355,0.08 0.157,0.0532 0.0786,0.0265 0,0 Z"
               style="fill:#ffffff;fill-opacity:1;fill-rule:nonzero;stroke:none"
               id="path4118" /></g><g
             id="g4120"
             transform="translate(275.4727,353.0391)"><path
               d="M 0,0 C 0,-0.1172 0.0039,-0.2344 -0.0078,-0.3516 0,-0.3711 0,-0.3906 0,-0.4102 c -0.0703,-0.8046 -0.625,-1.4687 -1.4063,-1.6875 -3.1835,-1.0976 -6.6914,-1.4296 -9.6679,-3.082 -0.1445,-0.0781 -0.2891,-0.164 -0.4336,-0.25 -1.1719,-0.914 -2.3359,-1.8594 -3.3789,-2.9219 -0.5352,-0.6211 -1.0469,-1.2617 -1.5469,-1.8984 -1.8672,-3.0664 -2.1797,-6.7617 -3.332,-10.1016 -0.2149,-0.7812 -0.8789,-1.3359 -1.6875,-1.4062 -0.0235,0 -0.0469,0.0039 -0.0703,0.0078 -0.0235,-0.0039 -0.043,-0.0078 -0.0664,-0.0078 -0.8086,0.0703 -1.4727,0.625 -1.6915,1.4062 -1.1523,3.3399 -1.4609,7.0352 -3.332,10.1016 -0.4883,0.625 -0.9883,1.2539 -1.5117,1.8633 -1.0469,1.0742 -2.2305,2.0312 -3.4102,2.957 -3.0664,1.8711 -6.7617,2.1797 -10.1015,3.332 -0.7852,0.2188 -1.336,0.8829 -1.4063,1.6875 0,0.0118 0,0.0235 0.0039,0.0352 -0.0117,0.125 -0.0039,0.25 -0.0039,0.375 0,0.043 0.0117,0.082 0.0274,0.1211 0.0039,0.043 0.0117,0.0859 0.0195,0.1211 0,0 0.0078,0.0351 0.0078,0.0351 0.0039,0.0196 0.0117,0.0391 0.0195,0.0586 0.1485,0.6954 0.6641,1.2461 1.3633,1.4375 3.3438,1.1563 7.0391,1.4649 10.1055,3.3321 0.5898,0.4609 1.1836,0.9336 1.7578,1.4257 -0.0078,0.004 -0.0156,0.0118 -0.0234,0.0196 1.1093,1.0664 2.0898,2.2773 3.0351,3.4844 1.8672,3.0664 2.1797,6.7617 3.3321,10.1015 0.2148,0.7852 0.8828,1.336 1.6875,1.4063 0.0703,0 0.1328,-0.0157 0.1914,-0.0391 0.0547,0.0234 0.1172,0.0391 0.1836,0.0391 0.8086,-0.0703 1.4726,-0.6211 1.6914,-1.4063 1.1523,-3.3398 1.4609,-7.0351 3.332,-10.1015 0.9414,-1.2071 1.9258,-2.418 3.0313,-3.4844 -0.0079,-0.0039 -0.0118,-0.0117 -0.0196,-0.0196 0.5742,-0.4921 1.1641,-0.9648 1.7578,-1.4257 0.2188,-0.1328 0.4375,-0.2578 0.6641,-0.375 2.9258,-1.5391 6.3359,-1.8828 9.4375,-2.9571 0.6992,-0.1914 1.2148,-0.7421 1.3672,-1.4375 0.0078,-0.0195 0.0156,-0.039 0.0195,-0.0586 0,0 0.0078,-0.0351 0.0078,-0.0351 C -0.0391,0.207 -0.0352,0.1641 -0.0273,0.1211 -0.0117,0.082 0,0.043 0,0 Z m 138.1406,-65.2031 c -0.5039,2.1289 -1.0547,4.2422 -1.6484,6.3398 -3.0469,10.793 -7.2266,21.1367 -12.4063,30.9102 -1.1484,2.164 -2.3476,4.3008 -3.5937,6.4062 -2.2891,2.336 -4.8438,4.5352 -7.6094,6.4024 0.1016,1.1484 0.008,2.3125 -0.2539,3.4062 -0.7891,3.2539 -3.293,5.9531 -5.6914,8.1719 -1.1484,1.0625 -2.3008,2.125 -3.4727,3.168 -2.3085,2.0586 -4.6171,4.1093 -7.0898,5.9804 -4.6016,3.4883 -9.5977,6.4063 -14.582,9.3242 -0.2657,0.1563 -0.5313,0.3125 -0.8008,0.4688 -0.0938,0.0547 -0.1914,0.1133 -0.2852,0.168 -2.6367,1.5468 -5.3359,2.9961 -8.1523,4.207 -2.7852,1.1953 -5.9492,1.7266 -8.8789,1.0039 -0.1797,0.1172 -0.3594,0.2305 -0.5391,0.3438 -1.2851,0.8007 -2.6094,1.5351 -3.9609,2.2148 -0.0039,0.0039 -0.0078,0.0117 -0.0117,0.0156 0.0312,1.9532 -0.4453,3.9219 -1.3907,5.5391 -2.2304,3.8047 -6.3125,6.0742 -10.1523,7.9531 -4.957,2.4258 -10.2031,4.0899 -15.4297,5.8047 -2.043,0.668 -4.0898,1.3594 -6.1445,2.043 -2.2774,0.832 -4.5781,1.5898 -6.9102,2.2383 -3.7031,1.1445 -7.4375,2.1875 -11.2187,2.9726 -1.3243,0.6289 -2.7696,1.0508 -4.2344,1.2695 -2.6758,0.3985 -5.3555,0.4454 -8.0273,0.2696 -2.3868,0.1367 -4.7735,0.2226 -7.1719,0.2343 -0.0664,0 -0.1328,0 -0.1992,0 -3.6094,0 -7.3047,-0.5664 -10.6172,-2.0234 -0.3438,-0.1523 -0.6875,-0.3203 -1.0235,-0.5 -2.2851,-0.2617 -4.5312,-0.9101 -6.7226,-1.6289 -0.9258,0.0508 -1.8516,0.0977 -2.7735,0.1367 -5.9492,0.2735 -12.0234,0.5156 -17.9609,-0.0195 -6.3281,-0.5703 -12.7656,-1.4453 -18.7305,-3.7539 -2.0234,-0.7774 -4.0429,-1.6055 -5.7851,-2.9258 -1.4297,-1.0859 -2.4727,-2.5273 -3.1016,-4.1289 -0.293,-0.1094 -0.5859,-0.2227 -0.8789,-0.332 -1.8867,-0.7149 -3.7461,-1.5391 -5.5859,-2.4102 -1.8047,1.0899 -3.9532,1.6094 -6.0196,1.2149 -0.5664,-0.1055 -1.125,-0.2227 -1.6875,-0.3399 -1.0664,-0.293 -2,-0.8164 -2.9687,-1.3398 -1.4258,-0.7696 -2.7383,-1.8946 -4.0352,-2.8555 -0.9922,-0.7305 -1.9922,-1.4453 -2.9843,-2.1719 -1.0625,-0.7695 -2.1407,-1.5195 -3.211,-2.2812 -2.8047,-0.9063 -5.5547,-2.0664 -8.1406,-3.4766 -1.5313,-0.832 -3.043,-1.6992 -4.543,-2.582 -1.8672,0.4336 -3.875,0.3125 -5.7344,-0.461 -0.746,-0.3086 -1.3984,-0.7265 -2.0507,-1.1718 -2.586,-1.711 -5.1992,-3.3868 -7.8672,-4.9766 -1.4141,-0.8359 -2.836,-1.6289 -4.2383,-2.4766 -1.918,-1.1601 -3.7539,-2.3984 -5.5937,-3.6718 -1.6016,-1.1094 -3.1329,-2.3399 -4.6368,-3.5977 -0.8281,-0.6914 -1.6484,-1.3906 -2.4687,-2.082 -1.4688,-1.2422 -2.9375,-2.4844 -4.3867,-3.7617 -2.375,-2.0899 -5.1719,-4.3399 -6.3868,-7.3555 -0.9648,-0.6328 -1.9218,-1.2734 -2.8789,-1.9141 -1.3711,-0.9258 -2.9375,-1.8554 -4.3632,-2.9218 -5.0625,-7.5977 -9.4805,-15.6211 -13.1875,-24.0118 -1.1797,-2.6758 -2.2891,-5.3945 -3.3204,-8.1445 -0.008,-0.0078 -0.0117,-0.0156 -0.0117,-0.0273 0.1485,-0.3555 0.3242,-0.6993 0.5157,-1.0274 1.3828,-2.3594 3.7539,-3.9687 6.4023,-4.4531 1.2266,-0.6406 2.5859,-1 3.9609,-1.0703 0.5508,-1.9688 1.7696,-3.7657 3.3399,-5.1016 3.3515,-2.8476 8.207,-2.5742 11.8086,-0.3828 1.8554,1.125 3.5898,2.4102 5.2851,3.7578 -0.0351,-1.3672 0.211,-2.7344 0.7227,-3.9492 1.2773,-3.0117 4.1055,-5.168 7.332,-5.6172 1.9492,-0.2734 3.9844,-0.2344 5.9883,-0.1992 0.7461,0.0156 1.4883,0.0273 2.2187,0.0273 2.2383,-0.0039 4.4766,-0.0078 6.7227,-0.039 4.6406,-0.0625 9.2773,-0.1953 13.9141,-0.4727 2.3281,-0.2031 4.6562,-0.4101 6.9843,-0.625 2.961,-0.2734 5.8985,-0.3047 8.8477,0.1367 1.6953,0.25 3.3125,0.7735 4.8359,1.5586 1.4219,0.7344 2.4571,1.7696 3.4766,2.9844 1.875,2.2422 2.4414,5.6875 1.5664,8.5742 0.9062,0.2031 1.8008,0.4531 2.6836,0.6719 2.1211,0.5273 4.2344,1.0586 6.3555,1.5937 4.1211,1.043 8.2304,2.086 12.3242,3.2461 1.25,0.3555 2.4804,0.7539 3.6953,1.1953 4.8281,1.7305 9.418,4.0547 13.9531,6.4805 0.793,-1.1328 1.6289,-2.2305 2.4531,-3.2851 1.1914,-1.5235 2.3555,-2.9493 3.336,-4.2383 1.9492,-2.5703 3.7734,-5.1797 5.9336,-7.586 1.1836,-1.3203 2.539,-2.6171 3.9843,-3.6211 1.879,-1.3046 3.9297,-2.0078 6.2266,-2.0078 0.5859,0 1.1524,0.0547 1.7031,0.1602 0.7696,-1.2031 1.5508,-2.3945 2.3477,-3.5781 1.8398,-2.7422 3.8945,-5.2774 6.1992,-7.6446 1.582,-1.625 3.418,-3.164 5.4453,-4.1757 1.8985,-0.9415 4.0235,-1.1563 6.0274,-0.7618 1.0937,-1.0351 2.1718,-2.0859 3.2031,-3.1914 0.6562,-0.8281 1.3789,-1.6054 2.2187,-2.2539 0.9336,-0.7226 1.9258,-1.1758 2.9922,-1.5 0.1524,-1.1015 0.4336,-2.1797 0.8633,-3.1914 1.9336,-4.5742 6.6758,-7.9101 11.7578,-7.2422 1.7656,0.2266 3.418,0.8594 4.8555,1.8125 1.3242,-1.5859 3.2695,-2.9648 5.2539,-3.3828 1.0469,-0.2187 2.0586,-0.4726 3.1367,-0.4726 1.086,0 2.3164,0.1601 3.3672,0.4492 0.7734,0.2109 1.5547,0.4961 2.3086,0.8398 3.1602,-2.875 8.0664,-3.0703 11.5742,-0.6797 1.6797,-1.4257 3.8125,-2.1875 6.0664,-2.2461 1.8438,-0.0468 3.6641,0.2969 5.2617,1.2579 1.5352,0.9257 2.7149,2.0703 3.9454,3.3437 0.2656,0.2773 0.5273,0.5625 0.7851,0.8477 1.4219,-0.8633 3.0586,-1.3516 4.75,-1.3008 1.8125,0.0508 3.543,0.2422 5.2188,0.9609 1.3164,0.5664 2.5937,1.2227 3.8554,1.9102 2.7032,1.4765 5.1446,3.4687 7.3985,5.582 1.0234,-0.3242 2.082,-0.5469 3.1562,-0.6953 -0.289,0.6484 -0.6133,1.2812 -0.9883,1.8945 -0.6328,0.8047 -1.2773,1.6133 -1.9492,2.3985 -0.0937,0.0937 -0.1875,0.1914 -0.2812,0.2812 -1.293,1.293 -2.7266,2.457 -4.1641,3.5781 -3.9805,2.4258 -8.7773,2.8282 -13.1133,4.3243 -1.0156,0.2812 -1.7343,1.1445 -1.8242,2.1914 0,0.0195 0,0.0429 0.0078,0.0625 -0.0156,0.1523 -0.0078,0.3125 -0.0078,0.4648 0,0.0586 0.0156,0.1094 0.0352,0.1602 0.0078,0.0546 0.0156,0.1093 0.0273,0.1562 0,0 0.0078,0.0469 0.0078,0.0469 0.0078,0.0312 0.0196,0.0625 0.0313,0.0937 0,0.0039 0,0.0118 0.0039,0.0157 0.2031,0.8828 0.8672,1.5859 1.7656,1.8359 4.3359,1.4961 9.1328,1.8984 13.1133,4.3242 0.7656,0.6016 1.5351,1.211 2.2812,1.8477 -0.0078,0.0078 -0.0195,0.0156 -0.0273,0.0234 1.4375,1.3828 2.7109,2.957 3.9375,4.5234 2.4258,3.9805 2.8281,8.7774 4.3242,13.1133 0.2813,1.0157 1.1445,1.7344 2.1914,1.8242 0.0899,0 0.1719,-0.0195 0.2461,-0.0507 0.0742,0.0351 0.1563,0.0507 0.2422,0.0507 1.0469,-0.0898 1.9102,-0.8085 2.1914,-1.8242 1.4961,-4.3359 1.8984,-9.1328 4.3242,-13.1133 1.2266,-1.5664 2.5,-3.1406 3.9375,-4.5234 -0.0078,-0.0078 -0.0156,-0.0156 -0.0234,-0.0234 0.7461,-0.6367 1.5117,-1.2461 2.2773,-1.8477 3.6914,-2.25 8.0899,-2.7578 12.168,-4.0156 0.3164,-0.0977 0.6328,-0.1992 0.9453,-0.3086 0.8984,-0.25 1.5625,-0.9531 1.7656,-1.8359 0.004,-0.0039 0.004,-0.0118 0.004,-0.0157 0.0118,-0.0312 0.0235,-0.0625 0.0313,-0.0937 0,0 0.008,-0.0469 0.008,-0.0469 0.0117,-0.0469 0.0195,-0.1016 0.0273,-0.1562 0.0196,-0.0508 0.0352,-0.1016 0.0352,-0.1602 0,-0.1562 0.008,-0.3125 -0.008,-0.4687 0.008,-0.0196 0.008,-0.0391 0.008,-0.0586 -0.0898,-1.0469 -0.8086,-1.9102 -1.8242,-2.1914 -4.336,-1.4961 -9.1328,-1.8985 -13.1133,-4.3243 -1.5273,-1.1953 -3.0586,-2.4375 -4.4102,-3.8242 -0.6835,-0.793 -1.3398,-1.6172 -1.9804,-2.4336 -0.6719,-1.1015 -1.1875,-2.2695 -1.6172,-3.4687 4.0937,-0.9688 8.4297,-0.8516 12.3437,0.8242 7.1993,3.0859 12.711,9.3594 16.4063,16.1328 0.6211,1.1406 1.1953,2.3203 1.7109,3.5195 0.6524,0.1133 1.3008,0.2461 1.9453,0.3985 2.7383,-0.8321 5.625,-0.711 8.211,0.4336 1.3008,-0.1211 2.6679,-0.1485 3.9687,0.0039 z"
               style="fill:#ffffff;fill-opacity:1;fill-rule:nonzero;stroke:none"
               id="path4122" /></g><g
             id="g4124"
             transform="translate(194.8836,406.0444)"><path
               d="M 0,0 C 0.081,0.026 0.1627,0.0526 0.2437,0.0791 0.1621,0.054 0.0809,0.0276 0,0 Z"
               style="fill:#000000;fill-opacity:1;fill-rule:nonzero;stroke:none"
               id="path4126" /></g><g
             id="g4128"
             transform="translate(160.9897,206.4828)"><path
               d="m 0,0 c 0.0156,0.1602 0.0078,0.3242 0.0078,0.4844 0,0.0586 -0.0156,0.1093 -0.0351,0.1601 -0.0079,0.0547 -0.0157,0.1094 -0.0274,0.1563 0,0 -0.0078,0.0469 -0.0078,0.0469 -0.0078,0.0312 -0.0195,0.0625 -0.0312,0.0937 0,0.0039 0,0.0117 -0.004,0.0156 -0.2031,0.8828 -0.8671,1.586 -1.7656,1.836 -4.3359,1.4961 -9.1328,1.8984 -13.1132,4.3242 -0.7696,0.6015 -1.5352,1.2109 -2.2813,1.8476 0.0078,0.0079 0.0195,0.0157 0.0273,0.0235 -1.4375,1.3828 -2.7109,2.957 -3.9375,4.5234 -2.4257,3.9805 -2.8281,8.7774 -4.3242,13.1133 -0.2812,1.0156 -1.1445,1.7344 -2.1914,1.8242 -0.0898,0 -0.1758,-0.0195 -0.2461,-0.0508 -0.0703,0.0313 -0.1562,0.0508 -0.2461,0.0508 -1.0468,-0.0898 -1.9101,-0.8086 -2.1914,-1.8242 -1.4961,-4.3359 -1.8984,-9.1328 -4.3242,-13.1133 -1.2266,-1.5664 -2.5,-3.1406 -3.9375,-4.5234 0.0078,-0.0078 0.0195,-0.0156 0.0273,-0.0235 -0.746,-0.6367 -1.5117,-1.2461 -2.2812,-1.8476 -3.9805,-2.4258 -8.7773,-2.8281 -13.1133,-4.3242 -0.8984,-0.25 -1.5625,-0.9532 -1.7656,-1.836 -0.0039,-0.0039 -0.0039,-0.0117 -0.0039,-0.0156 -0.0117,-0.0312 -0.0235,-0.0625 -0.0313,-0.0937 0,0 -0.0078,-0.0469 -0.0078,-0.0469 -0.0117,-0.0469 -0.0195,-0.1016 -0.0273,-0.1563 -0.0196,-0.0508 -0.0352,-0.1015 -0.0352,-0.1601 0,-0.1602 -0.0078,-0.3242 0.0078,-0.4844 0,0 0,-0.0039 0,-0.0039 -0.0039,-0.0117 -0.0039,-0.0234 -0.0039,-0.0391 0.0899,-1.0468 0.8086,-1.9101 1.8242,-2.1914 4.336,-1.4961 9.1329,-1.8984 13.1133,-4.3242 1.5235,-1.1953 3.0547,-2.4375 4.4102,-3.8242 0.6836,-0.793 1.3398,-1.6172 1.9805,-2.4336 2.4257,-3.9805 2.8281,-8.7774 4.3242,-13.1133 0.2812,-1.0156 1.1445,-1.7344 2.1914,-1.8242 0.0312,0 0.0625,0.0039 0.0898,0.0078 0.0274,-0.0039 0.0586,-0.0078 0.0899,-0.0078 1.0468,0.0898 1.9101,0.8086 2.1914,1.8242 1.4961,4.3359 1.8984,9.1328 4.3242,13.1133 0.6406,0.8164 1.2969,1.6406 1.9805,2.4336 1.3554,1.3867 2.8867,2.6289 4.4101,3.8242 3.9805,2.4258 8.7774,2.8281 13.1133,4.3242 1.0156,0.2813 1.7344,1.1446 1.8242,2.1914 0,0.0157 0,0.0274 -0.0039,0.0391 C 0,-0.0039 0,0 0,0 Z"
               style="fill:#ffffff;fill-opacity:1;fill-rule:nonzero;stroke:none"
               id="path4130" /></g><g
             id="g4132"
             transform="translate(256.5173,223.5701)"><path
               d="m 0,0 c 0.0112,0.1143 0.0056,0.2314 0.0056,0.3457 0,0.0419 -0.0112,0.0781 -0.0251,0.1144 -0.0056,0.039 -0.0112,0.078 -0.0196,0.1115 0,0 -0.0055,0.0335 -0.0055,0.0335 -0.0056,0.0223 -0.0139,0.0446 -0.0223,0.0669 0,0.0028 0,0.0083 -0.0028,0.0111 -0.145,0.6302 -0.619,1.1321 -1.2603,1.3105 -3.095,1.0679 -6.519,1.3551 -9.3603,3.0867 -0.5493,0.4294 -1.0958,0.8643 -1.6284,1.3188 0.0056,0.0056 0.014,0.0112 0.0195,0.0168 -1.0261,0.987 -1.935,2.1107 -2.8106,3.2288 -1.7315,2.8413 -2.0187,6.2653 -3.0866,9.3603 -0.2008,0.725 -0.817,1.238 -1.5643,1.3021 -0.0641,0 -0.1254,-0.0139 -0.1756,-0.0362 -0.0502,0.0223 -0.1115,0.0362 -0.1757,0.0362 -0.7472,-0.0641 -1.3634,-0.5771 -1.5642,-1.3021 -1.0679,-3.095 -1.3551,-6.519 -3.0866,-9.3603 -0.8756,-1.1181 -1.7845,-2.2418 -2.8106,-3.2288 0.0055,-0.0056 0.0139,-0.0112 0.0195,-0.0168 -0.5326,-0.4545 -1.0791,-0.8894 -1.6284,-1.3188 -2.8413,-1.7316 -6.2653,-2.0188 -9.3603,-3.0867 -0.6413,-0.1784 -1.1153,-0.6803 -1.2603,-1.3105 -0.0028,-0.0028 -0.0028,-0.0083 -0.0028,-0.0111 -0.0084,-0.0223 -0.0167,-0.0446 -0.0223,-0.0669 0,0 -0.0056,-0.0335 -0.0056,-0.0335 -0.0083,-0.0335 -0.0139,-0.0725 -0.0195,-0.1115 -0.0139,-0.0363 -0.0251,-0.0725 -0.0251,-0.1144 0,-0.1143 -0.0056,-0.2314 0.0056,-0.3457 0,0 0,-0.0028 0,-0.0028 -0.0028,-0.0084 -0.0028,-0.0167 -0.0028,-0.0279 0.0641,-0.7472 0.5772,-1.3634 1.3021,-1.5642 3.095,-1.0679 6.5191,-1.3551 9.3603,-3.0866 1.0875,-0.8533 2.1805,-1.7399 3.148,-2.7298 0.488,-0.566 0.9564,-1.1543 1.4137,-1.7371 1.7315,-2.8413 2.0187,-6.2653 3.0866,-9.3603 0.2008,-0.725 0.817,-1.238 1.5643,-1.3021 0.0223,0 0.0446,0.0028 0.0641,0.0055 0.0195,-0.0027 0.0418,-0.0055 0.0641,-0.0055 0.7473,0.0641 1.3635,0.5771 1.5643,1.3021 1.0679,3.095 1.3551,6.519 3.0866,9.3603 0.4573,0.5828 0.9257,1.1711 1.4137,1.7371 0.9675,0.9899 2.0605,1.8765 3.1479,2.7298 2.8413,1.7315 6.2653,2.0187 9.3604,3.0866 0.7249,0.2008 1.238,0.817 1.3021,1.5642 0,0.0112 0,0.0195 -0.0028,0.0279 C 0,-0.0028 0,0 0,0 Z"
               style="fill:#ffffff;fill-opacity:1;fill-rule:nonzero;stroke:none"
               id="path4134" /></g><g
             id="g4136"
             transform="translate(160.9961,206.9687)"><path
               d="m 0,0 c 0,-0.1602 0.0078,-0.3242 -0.0078,-0.4844 0,0 0,-0.0039 0,-0.0039 0.0039,-0.0117 0.0039,-0.0234 0.0039,-0.039 -0.0898,-1.0469 -0.8086,-1.9102 -1.8242,-2.1914 -4.336,-1.4961 -9.1328,-1.8985 -13.1133,-4.3243 -1.5234,-1.1953 -3.0547,-2.4375 -4.4102,-3.8242 -0.6836,-0.793 -1.3398,-1.6172 -1.9804,-2.4336 -2.4258,-3.9805 -2.8282,-8.7773 -4.3243,-13.1133 -0.2812,-1.0156 -1.1445,-1.7343 -2.1914,-1.8242 -0.0312,0 -0.0625,0.0039 -0.0898,0.0078 -0.0273,-0.0039 -0.0586,-0.0078 -0.0898,-0.0078 -1.0469,0.0899 -1.9102,0.8086 -2.1915,1.8242 -1.496,4.336 -1.8984,9.1328 -4.3242,13.1133 -0.6406,0.8164 -1.2968,1.6406 -1.9804,2.4336 -1.3555,1.3867 -2.8868,2.6289 -4.4102,3.8242 -3.9805,2.4258 -8.7773,2.8282 -13.1133,4.3243 -1.0156,0.2812 -1.7344,1.1445 -1.8242,2.1914 0,0.0156 0,0.0273 0.0039,0.039 0,0 0,0.0039 0,0.0039 -0.0156,0.1602 -0.0078,0.3242 -0.0078,0.4844 0,0.0586 0.0156,0.1094 0.0352,0.1602 0.0078,0.0546 0.0156,0.1093 0.0273,0.1562 0,0 0.0078,0.0469 0.0078,0.0469 0.0078,0.0312 0.0195,0.0625 0.0313,0.0937 0,0.0039 0,0.0117 0.0039,0.0157 0.2031,0.8828 0.8672,1.5859 1.7656,1.8359 4.3359,1.4961 9.1328,1.8984 13.1133,4.3242 0.7695,0.6016 1.5351,1.2109 2.2812,1.8477 -0.0078,0.0078 -0.0195,0.0156 -0.0273,0.0234 1.4375,1.3828 2.7109,2.957 3.9375,4.5234 2.4258,3.9805 2.8281,8.7774 4.3242,13.1133 0.2812,1.0157 1.1445,1.7344 2.1914,1.8242 0.0898,0 0.1758,-0.0195 0.2461,-0.0507 0.0703,0.0312 0.1562,0.0507 0.2461,0.0507 1.0469,-0.0898 1.9101,-0.8085 2.1914,-1.8242 1.4961,-4.3359 1.8984,-9.1328 4.3242,-13.1133 1.2266,-1.5664 2.5,-3.1406 3.9375,-4.5234 -0.0078,-0.0078 -0.0195,-0.0156 -0.0273,-0.0234 0.7461,-0.6368 1.5117,-1.2461 2.2812,-1.8477 3.9805,-2.4258 8.7774,-2.8281 13.1133,-4.3242 0.8984,-0.25 1.5625,-0.9531 1.7656,-1.8359 0.0039,-0.004 0.0039,-0.0118 0.0039,-0.0157 0.0118,-0.0312 0.0235,-0.0625 0.0313,-0.0937 0,0 0.0078,-0.0469 0.0078,-0.0469 C -0.0508,0.2695 -0.043,0.2148 -0.0352,0.1602 -0.0156,0.1094 0,0.0586 0,0 Z m 95.5273,16.9453 c 0,-0.1133 0.004,-0.2305 -0.0078,-0.3437 0,0 0,-0.0039 0,-0.0039 0.0039,-0.0079 0.0039,-0.0157 0.0039,-0.0274 C 95.4609,15.8242 94.9453,15.207 94.2227,15.0078 91.125,13.9375 87.7031,13.6523 84.8633,11.918 83.7734,11.0664 82.6797,10.1797 81.7148,9.1914 81.2266,8.625 80.7578,8.0352 80.3008,7.4531 78.5664,4.6133 78.2813,1.1875 77.2148,-1.9063 c -0.2031,-0.7265 -0.8203,-1.2382 -1.5664,-1.3046 -0.0234,0 -0.0429,0.0039 -0.0625,0.0078 -0.0195,-0.0039 -0.0429,-0.0078 -0.0664,-0.0078 -0.7461,0.0664 -1.3632,0.5781 -1.5625,1.3046 -1.0703,3.0938 -1.3554,6.5196 -3.0859,9.3594 -0.457,0.5821 -0.9258,1.1719 -1.4141,1.7383 -0.9687,0.9883 -2.0625,1.875 -3.1484,2.7266 -2.8398,1.7343 -6.2656,2.0195 -9.3594,3.0898 -0.7265,0.1992 -1.2383,0.8164 -1.3047,1.5625 0,0.0117 0,0.0195 0.0039,0.0274 0,0 0,0.0039 0,0.0039 -0.0117,0.1132 -0.0039,0.2304 -0.0039,0.3437 0,0.043 0.0078,0.0781 0.0235,0.1172 0.0039,0.0391 0.0117,0.0781 0.0195,0.1094 0,0 0.0039,0.0351 0.0039,0.0351 0.0078,0.0235 0.0156,0.043 0.0234,0.0664 0,0.0039 0,0.0079 0.004,0.0118 0.1445,0.6289 0.6171,1.1328 1.2617,1.3086 3.0937,1.0703 6.5156,1.3554 9.3593,3.0859 0.5469,0.4297 1.0938,0.8672 1.629,1.3203 -0.0079,0.0078 -0.0157,0.0117 -0.0196,0.0156 1.0235,0.9883 1.9336,2.1133 2.8086,3.2305 1.7305,2.8398 2.0195,6.2656 3.086,9.3594 0.2031,0.7265 0.8164,1.2383 1.5664,1.3047 0.0625,0 0.125,-0.0157 0.1757,-0.0391 0.0508,0.0234 0.1094,0.0391 0.1758,0.0391 0.7461,-0.0664 1.3633,-0.5782 1.5625,-1.3047 1.0703,-3.0938 1.3555,-6.5196 3.086,-9.3594 0.875,-1.1172 1.7851,-2.2422 2.8125,-3.2305 C 83.2148,23.0117 83.207,23.0078 83.2031,23 c 0.5313,-0.4531 1.0782,-0.8906 1.6289,-1.3203 2.8399,-1.7305 6.2657,-2.0156 9.3594,-3.0859 0.6406,-0.1758 1.1133,-0.6797 1.2617,-1.3086 0,-0.0039 0,-0.0079 0,-0.0118 0.0078,-0.0234 0.0196,-0.0429 0.0235,-0.0664 0,0 0.0039,-0.0351 0.0039,-0.0351 0.0117,-0.0313 0.0156,-0.0703 0.0195,-0.1094 0.0156,-0.0391 0.0273,-0.0742 0.0273,-0.1172 z m 159.4141,52.1133 c 1.0273,-6.5313 1.6484,-13.1914 1.8359,-19.957 -22.0937,-9.1407 -50.4609,-14.6328 -81.3984,-14.6328 -53.9101,0 -100.0117,16.6796 -118.707,40.2578 -0.3867,0.4804 -0.7539,0.9648 -1.1094,1.4531 -0.1836,0.2422 -0.3594,0.4844 -0.5273,0.7305 -0.086,0.1211 -0.1719,0.2461 -0.2579,0.3711 -0.0898,0.121 -0.1757,0.2421 -0.2578,0.3632 C 39.4531,66.375 16.2461,59.1523 -9.7812,59.1523 c -27.8321,0 -52.4336,8.254 -67.3086,20.8907 0.6054,2.6289 1.2812,5.2304 2.0234,7.8086 1.1523,4.0273 2.4648,7.9882 3.9336,11.8789 0,0.0117 0.0039,0.0195 0.0117,0.0273 1.0313,2.75 2.1406,5.4688 3.3203,8.1445 3.707,8.3907 8.125,16.4141 13.1875,24.0118 5.4258,8.1445 11.5938,15.7968 18.4063,22.8632 14.7343,15.2813 32.5,27.8399 52.3789,36.7891 0.1836,0.0781 0.3672,0.1563 0.5508,0.2422 0.0234,0.0117 0.0468,0.0195 0.0664,0.0312 21.3476,9.5118 45.1132,14.8711 70.1679,14.9961 0.0703,0 0.1407,0 0.211,0 0.0742,0 0.1367,0 0.2109,0 0.1602,0 0.3203,0 0.4805,0 0.1758,0 0.3476,0 0.5195,0 0.0547,0 0.1055,0 0.1602,0 0.1211,0 0.2382,0 0.3593,0 0.0625,0 0.1289,-0.004 0.1914,-0.004 0.1094,0 0.2227,0 0.336,0 0.0547,0 0.125,-0.004 0.1797,-0.004 0.1093,0 0.2187,0 0.3281,-0.004 0.0781,0 0.1484,0 0.2266,0 0.0898,-0.004 0.1875,-0.004 0.2773,-0.004 0.0781,-0.004 0.1563,-0.004 0.2344,-0.004 0.0976,-0.004 0.1953,-0.004 0.2929,-0.004 0.0743,-0.004 0.1524,-0.004 0.2266,-0.004 0.125,-0.004 0.25,-0.008 0.375,-0.008 0.043,-0.004 0.082,-0.004 0.125,-0.004 0.1719,-0.004 0.3399,-0.008 0.5117,-0.0117 0.0664,0 0.1328,-0.004 0.1992,-0.004 0.1055,-0.004 0.211,-0.008 0.3165,-0.008 0.0781,-0.004 0.1484,-0.004 0.2265,-0.008 0.0938,-0.004 0.1875,-0.004 0.2813,-0.008 0.0781,-0.004 0.164,-0.004 0.2422,-0.008 0.0898,-0.004 0.1835,-0.004 0.2734,-0.008 0.082,-0.004 0.168,-0.008 0.2461,-0.008 0.0859,-0.004 0.1719,-0.008 0.2578,-0.0117 0.0859,0 0.1719,-0.004 0.2539,-0.008 0.0898,-0.004 0.1836,-0.008 0.2734,-0.0117 0.0782,0 0.1563,-0.004 0.2344,-0.008 0.1016,-0.004 0.1992,-0.008 0.3008,-0.0117 0.0664,-0.004 0.1406,-0.008 0.207,-0.008 0.1055,-0.008 0.2071,-0.0117 0.3086,-0.0156 0.3321,-0.0157 0.6758,-0.0313 1.0078,-0.0469 0.0625,-0.004 0.125,-0.008 0.1875,-0.0117 0.0899,-0.004 0.1914,-0.008 0.2813,-0.0118 0.0781,-0.004 0.1562,-0.008 0.2305,-0.0117 0.0898,-0.008 0.1914,-0.0117 0.2812,-0.0156 0.0742,-0.004 0.1445,-0.008 0.2188,-0.0156 0.0976,-0.004 0.207,-0.0117 0.3007,-0.0157 0.0586,-0.004 0.1211,-0.008 0.1797,-0.0117 0.1094,-0.004 0.2266,-0.0117 0.336,-0.0195 0.0507,-0.004 0.0976,-0.004 0.1484,-0.008 0.1094,-0.008 0.2305,-0.0156 0.3437,-0.0235 0.0469,-0.004 0.0938,-0.004 0.1368,-0.008 0.5781,-0.039 1.1484,-0.0781 1.7226,-0.1211 0.0274,-0.004 0.0586,-0.004 0.086,-0.008 0.1289,-0.008 0.2617,-0.0195 0.3906,-0.0273 0.0312,-0.004 0.0625,-0.008 0.0976,-0.008 0.1329,-0.0117 0.2539,-0.0196 0.3868,-0.0313 0.0351,-0.004 0.0664,-0.008 0.1015,-0.008 0.1289,-0.0117 0.2656,-0.0234 0.3946,-0.0312 0.0273,-0.004 0.0507,-0.008 0.0781,-0.008 0.1328,-0.0117 0.2773,-0.0234 0.4101,-0.0351 0.0157,0 0.0391,-0.004 0.0586,-0.004 27.1211,-2.3438 52.4024,-10.836 74.3008,-24.0156 0.0391,-0.0196 0.0742,-0.043 0.1094,-0.0625 0.0781,-0.0469 0.1445,-0.0899 0.2226,-0.1368 0.0391,-0.0234 0.0821,-0.0468 0.1211,-0.0742 10.1094,-6.125 19.4961,-13.25 28.0039,-21.2344 0.2774,-0.2578 0.5508,-0.5156 0.8243,-0.7734 10.996,-10.4531 20.5,-22.3476 28.1835,-35.3594 1.2461,-2.1054 2.4454,-4.2421 3.5938,-6.4062 5.1797,-9.7734 9.3594,-20.1172 12.4062,-30.9102 0.5938,-2.0976 1.1446,-4.2109 1.6485,-6.3398 0.9258,-3.8828 1.6992,-7.8203 2.3242,-11.8086 z M 89.0039,-152.4687 c 111.8359,0 202.5,87.5273 202.5,195.5 0,107.9726 -90.6641,195.4999 -202.5,195.4999 -111.8359,0 -202.5,-87.5273 -202.5,-195.4999 0,-107.9727 90.6641,-195.5 202.5,-195.5 z"
               style="fill:#5aabed;fill-opacity:1;fill-rule:nonzero;stroke:none"
               id="path4138" /></g><g
             id="g4140"
             transform="translate(275.4648,352.6875)"><path
               d="m 0,0 c 0.0117,0.1172 0.0078,0.2344 0.0078,0.3516 0,0.0429 -0.0117,0.082 -0.0273,0.1211 -0.0078,0.0429 -0.0117,0.0859 -0.0196,0.121 0,0 -0.0078,0.0352 -0.0078,0.0352 -0.0039,0.0195 -0.0117,0.0391 -0.0195,0.0586 -0.1523,0.6953 -0.668,1.2461 -1.3672,1.4375 -3.1016,1.0742 -6.5117,1.418 -9.4375,2.957 -0.2266,0.1172 -0.4453,0.2422 -0.6641,0.375 -0.5937,0.461 -1.1835,0.9336 -1.7578,1.4258 0.0078,0.0078 0.0118,0.0156 0.0196,0.0195 -1.1055,1.0664 -2.0899,2.2774 -3.0313,3.4844 -1.8711,3.0664 -2.1797,6.7617 -3.332,10.1016 -0.2188,0.7851 -0.8828,1.3359 -1.6914,1.4062 -0.0664,0 -0.1289,-0.0156 -0.1836,-0.039 -0.0586,0.0234 -0.1211,0.039 -0.1914,0.039 -0.8047,-0.0703 -1.4727,-0.6211 -1.6875,-1.4062 -1.1524,-3.3399 -1.4649,-7.0352 -3.3321,-10.1016 -0.9453,-1.207 -1.9257,-2.418 -3.0351,-3.4844 0.0078,-0.0078 0.0156,-0.0156 0.0234,-0.0195 -0.5742,-0.4922 -1.1679,-0.9648 -1.7578,-1.4258 -3.0664,-1.8672 -6.7617,-2.1758 -10.1055,-3.332 -0.6992,-0.1914 -1.2148,-0.7422 -1.3632,-1.4375 -0.0079,-0.0195 -0.0157,-0.0391 -0.0196,-0.0586 0,0 -0.0078,-0.0352 -0.0078,-0.0352 -0.0078,-0.0351 -0.0156,-0.0781 -0.0195,-0.121 -0.0156,-0.0391 -0.0274,-0.0782 -0.0274,-0.1211 0,-0.125 -0.0078,-0.25 0.0039,-0.375 -0.0039,-0.0118 -0.0039,-0.0235 -0.0039,-0.0352 0.0704,-0.8047 0.6211,-1.4687 1.4063,-1.6875 3.3398,-1.1523 7.0351,-1.4609 10.1016,-3.332 1.1796,-0.9258 2.3632,-1.8828 3.4101,-2.9571 0.5234,-0.6093 1.0234,-1.2382 1.5117,-1.8632 1.8711,-3.0664 2.1797,-6.7618 3.3321,-10.1016 0.2187,-0.7813 0.8828,-1.3359 1.6914,-1.4063 0.0234,0 0.0429,0.004 0.0664,0.0079 0.0234,-0.0039 0.0468,-0.0079 0.0703,-0.0079 0.8086,0.0704 1.4726,0.625 1.6875,1.4063 1.1523,3.3398 1.4648,7.0352 3.332,10.1016 0.5,0.6367 1.0117,1.2773 1.5469,1.8984 1.043,1.0625 2.207,2.0078 3.3789,2.9219 0.1445,0.0859 0.2891,0.1719 0.4336,0.25 2.9766,1.6523 6.4844,1.9844 9.668,3.082 0.7812,0.2188 1.3359,0.8828 1.4062,1.6875 0,0.0195 0,0.0391 -0.0078,0.0586 z"
               style="fill:#5aabed;fill-opacity:1;fill-rule:nonzero;stroke:none"
               id="path4142" /></g><g
             id="g4144"
             transform="translate(391.9648,282.8242)"><path
               d="m 0,0 c 0.0156,0.1562 0.0078,0.3125 0.0078,0.4687 0,0.0586 -0.0156,0.1094 -0.0351,0.1602 -0.0079,0.0547 -0.0157,0.1094 -0.0274,0.1563 0,0 -0.0078,0.0468 -0.0078,0.0468 -0.0078,0.0313 -0.0195,0.0625 -0.0312,0.0938 0,0.0039 0,0.0117 -0.004,0.0156 -0.2031,0.8828 -0.8671,1.5859 -1.7656,1.8359 -0.3125,0.1094 -0.6289,0.211 -0.9453,0.3086 -4.0781,1.2578 -8.4766,1.7657 -12.168,4.0157 -0.7656,0.6015 -1.5312,1.2109 -2.2773,1.8476 0.0078,0.0078 0.0156,0.0156 0.0234,0.0235 -1.4375,1.3828 -2.7109,2.957 -3.9375,4.5234 -2.4258,3.9805 -2.8281,8.7773 -4.3242,13.1133 -0.2812,1.0156 -1.1445,1.7344 -2.1914,1.8242 -0.0859,0 -0.168,-0.0156 -0.2422,-0.0508 -0.0742,0.0313 -0.1562,0.0508 -0.2461,0.0508 -1.0469,-0.0898 -1.9101,-0.8086 -2.1914,-1.8242 -1.4961,-4.336 -1.8984,-9.1328 -4.3242,-13.1133 -1.2266,-1.5664 -2.5,-3.1406 -3.9375,-4.5234 0.0078,-0.0079 0.0195,-0.0157 0.0273,-0.0235 -0.7461,-0.6367 -1.5156,-1.2461 -2.2812,-1.8476 -3.9805,-2.4258 -8.7774,-2.8282 -13.1133,-4.3243 -0.8984,-0.25 -1.5625,-0.9531 -1.7656,-1.8359 -0.0039,-0.0039 -0.0039,-0.0117 -0.0039,-0.0156 -0.0117,-0.0313 -0.0235,-0.0625 -0.0313,-0.0938 0,0 -0.0078,-0.0468 -0.0078,-0.0468 -0.0117,-0.0469 -0.0195,-0.1016 -0.0273,-0.1563 -0.0196,-0.0508 -0.0352,-0.1016 -0.0352,-0.1602 0,-0.1523 -0.0078,-0.3125 0.0078,-0.4648 -0.0078,-0.0195 -0.0078,-0.043 -0.0078,-0.0625 0.0899,-1.0469 0.8086,-1.9102 1.8242,-2.1914 4.336,-1.4961 9.1328,-1.8984 13.1133,-4.3242 1.4375,-1.1211 2.8711,-2.2852 4.1641,-3.5781 0.0937,-0.0899 0.1875,-0.1875 0.2812,-0.2813 0.6719,-0.7851 1.3164,-1.5937 1.9492,-2.3984 0.375,-0.6133 0.6993,-1.2461 0.9883,-1.8946 1.586,-3.5547 2.0703,-7.5507 3.336,-11.2187 0.1445,-0.5195 0.4375,-0.957 0.832,-1.2774 0.3789,-0.3086 0.8477,-0.5039 1.3594,-0.5468 0.0312,0 0.0586,0.0039 0.0898,0.0078 0.0274,-0.0039 0.0586,-0.0078 0.0899,-0.0078 1.0468,0.0898 1.9101,0.8086 2.1914,1.8242 0.0156,0.043 0.0312,0.0859 0.0429,0.1289 1.0547,3.0976 1.5625,6.4258 2.6641,9.5156 0.4297,1.1992 0.9453,2.3672 1.6172,3.4688 0.6406,0.8164 1.2969,1.6406 1.9805,2.4336 1.3515,1.3867 2.8828,2.6289 4.4101,3.8242 3.9805,2.4258 8.7774,2.8281 13.1133,4.3242 1.0156,0.2812 1.7344,1.1445 1.8242,2.1914 0,0.0195 0,0.0391 -0.0078,0.0586 z"
               style="fill:#5aabed;fill-opacity:1;fill-rule:nonzero;stroke:none"
               id="path4146" /></g></g></g></g></g></svg>
